M48
METRIC,LZ,000.000
;FILE_FORMAT=3:3
;TYPE=PLATED
;Layer: PTH_Through
;EasyEDA v6.5.39, 2024-06-02 20:32:35
;ef2d4929fbef40f6970fe1db0f733495,10
;Gerber Generator version 0.2
;Holesize 1 = 0.400 mm
T01C0.400
;Holesize 2 = 0.901 mm
T02C0.901
;Holesize 3 = 0.915 mm
T03C0.915
;Holesize 4 = 1.000 mm
T04C1.000
;Holesize 5 = 1.021 mm
T05C1.021
;Holesize 6 = 1.101 mm
T06C1.101
;Holesize 7 = 1.301 mm
T07C1.301
%
G05
G90
T01
X026538Y-046966
X039266Y-054447
X021971Y-021463
X025400Y-024892
X025649Y-043594
T02
X057939Y-049403
X053059Y-049403
X080007Y-074165
X077467Y-074165
X074927Y-074165
X072387Y-074165
X069847Y-074165
X067307Y-074165
X056340Y-072408G85X056340Y-072558
X053840Y-072408G85X053840Y-072558
X058840Y-072408G85X058840Y-072558
X070104Y-047736
X070104Y-045736
X073787Y-047736
X073787Y-045736
T03
X055329Y-065024
X065829Y-065024
X020574Y-064770
X020574Y-062230
X020574Y-059690
X020574Y-057150
X020574Y-054610
X020574Y-052070
X020574Y-049530
X020574Y-046990
X005334Y-046990
X005334Y-049530
X005334Y-052070
X005334Y-054610
X005334Y-057150
X005334Y-059690
X005334Y-062230
X005334Y-064770
X041529Y-072992G85X041529Y-072998
X038989Y-072992G85X038989Y-072998
X036449Y-072992G85X036449Y-072998
X033909Y-072992G85X033909Y-072998
X019304Y-072644
X016764Y-072644
X014224Y-072644
X011684Y-072644
X009144Y-072644
T04
X054376Y-056007
X056876Y-056007
X064496Y-056007
X061996Y-056007
X070124Y-065024
X072624Y-065024
X021209Y-014224
X023749Y-014224
X026289Y-014224
X028829Y-014224
X031369Y-014224
X033909Y-014224
X036449Y-014224
X038989Y-014224
X041529Y-014224
X042673Y-056134
X033273Y-056134
T05
X026416Y-007874
X028956Y-007874
X031496Y-007874
X034036Y-007874
X036576Y-007874
X039116Y-007874
X041656Y-007874
X044196Y-007874
X046736Y-007874
X049276Y-007874
X051816Y-007874
X054356Y-007874
X056896Y-007874
X059436Y-007874
X061976Y-007874
X064516Y-007874
X067056Y-007874
X069596Y-007874
X072136Y-007874
X074676Y-007874
T06
X028627Y-022459
X031167Y-022459
X033707Y-022459
X036247Y-022459
X038787Y-022459
X041327Y-022459
X043867Y-022459
X046407Y-022459
X048947Y-022459
X051487Y-022459
X054027Y-022459
X056567Y-022459
X059107Y-022459
X061647Y-022459
X064187Y-022459
X066727Y-022459
X069267Y-022459
X071807Y-022459
X074347Y-022459
X076887Y-022459
X076887Y-037699
X074347Y-037699
X071807Y-037699
X069267Y-037699
X066727Y-037699
X064187Y-037699
X061647Y-037699
X059107Y-037699
X056567Y-037699
X054027Y-037699
X051487Y-037699
X048947Y-037699
X046407Y-037699
X043867Y-037699
X041327Y-037699
X038787Y-037699
X036247Y-037699
X033707Y-037699
X031167Y-037699
X028627Y-037699
X080137Y-053594
X082677Y-053594
X080137Y-056134
X082677Y-056134
X080137Y-058674
X082677Y-058674
X080137Y-061214
X082677Y-061214
T07
X008711Y-016728
X008711Y-012228
X002211Y-012228
X002211Y-016728
X008711Y-032984
X008711Y-028484
X002211Y-028484
X002211Y-032984
X008711Y-024856
X008711Y-020356
X002211Y-020356
X002211Y-024856
X008584Y-041112
X008584Y-036612
X002084Y-036612
X002084Y-041112
X074878Y-058130
X074878Y-053630
X068378Y-053630
X068378Y-058130
M30
