G04 Layer: BottomSilkscreenLayer*
G04 EasyEDA v6.5.39, 2024-06-02 20:32:35*
G04 ef2d4929fbef40f6970fe1db0f733495,10*
G04 Gerber Generator version 0.2*
G04 Scale: 100 percent, Rotated: No, Reflected: No *
G04 Dimensions in millimeters *
G04 leading zeros omitted , absolute positions ,4 integer and 5 decimal *
%FSLAX45Y45*%
%MOMM*%

%ADD10C,0.0001*%

%LPD*%
G36*
X4796028Y-4845050D02*
G01*
X4789119Y-4847031D01*
X4783429Y-4849317D01*
X4778857Y-4851908D01*
X4775301Y-4854651D01*
X4772761Y-4857546D01*
X4771034Y-4860391D01*
X4770120Y-4863185D01*
X4769967Y-4865827D01*
X4770424Y-4868265D01*
X4771440Y-4870348D01*
X4772964Y-4871974D01*
X4774844Y-4873142D01*
X4777079Y-4873752D01*
X4779518Y-4873701D01*
X4782159Y-4872888D01*
X4784852Y-4871212D01*
X4786833Y-4864760D01*
X4790084Y-4858004D01*
X4794046Y-4851654D01*
X4798314Y-4846320D01*
G37*
G36*
X4548632Y-4845304D02*
G01*
X4541164Y-4848809D01*
X4534966Y-4852568D01*
X4530090Y-4856480D01*
X4526330Y-4860442D01*
X4523587Y-4864404D01*
X4521860Y-4868316D01*
X4520996Y-4871974D01*
X4520895Y-4875377D01*
X4521504Y-4878425D01*
X4522724Y-4881016D01*
X4524400Y-4883048D01*
X4526534Y-4884470D01*
X4528972Y-4885131D01*
X4531614Y-4884978D01*
X4534357Y-4883912D01*
X4537202Y-4881880D01*
X4537608Y-4877257D01*
X4538522Y-4872482D01*
X4539894Y-4867757D01*
X4541672Y-4863084D01*
X4543755Y-4858562D01*
X4548428Y-4850231D01*
X4550918Y-4846574D01*
G37*
G36*
X4339336Y-4845304D02*
G01*
X4315460Y-4847590D01*
X4316120Y-4849520D01*
X4317390Y-4851146D01*
X4319473Y-4852365D01*
X4322572Y-4853178D01*
X4322572Y-4885690D01*
X4304792Y-4885690D01*
X4299915Y-4877054D01*
X4294987Y-4867605D01*
X4290517Y-4858156D01*
X4286758Y-4849368D01*
X4262120Y-4857750D01*
X4263237Y-4859324D01*
X4265015Y-4860442D01*
X4267403Y-4861052D01*
X4270248Y-4861052D01*
X4276242Y-4866894D01*
X4283252Y-4873193D01*
X4290872Y-4879543D01*
X4298696Y-4885690D01*
X4264406Y-4885690D01*
X4254754Y-4875784D01*
X4236720Y-4892802D01*
X4238142Y-4893716D01*
X4239818Y-4894275D01*
X4244594Y-4894834D01*
X4249928Y-4899863D01*
X4256278Y-4905044D01*
X4263034Y-4909972D01*
X4269486Y-4914138D01*
X4272026Y-4912614D01*
X4269892Y-4908092D01*
X4265828Y-4897170D01*
X4264152Y-4891786D01*
X4395216Y-4891786D01*
X4395571Y-4901387D01*
X4397806Y-4909210D01*
X4401413Y-4915052D01*
X4405884Y-4918964D01*
X4410506Y-4920792D01*
X4415078Y-4920996D01*
X4418939Y-4919472D01*
X4421378Y-4916170D01*
X4421936Y-4912360D01*
X4420870Y-4908905D01*
X4418431Y-4906111D01*
X4415028Y-4903978D01*
X4409643Y-4899355D01*
X4405325Y-4892649D01*
X4402683Y-4884470D01*
X4402328Y-4875276D01*
X4399280Y-4875022D01*
X4397400Y-4880559D01*
X4396232Y-4885690D01*
X4339336Y-4885690D01*
G37*
G36*
X4948936Y-4845558D02*
G01*
X4925314Y-4847844D01*
X4925872Y-4849774D01*
X4927193Y-4851400D01*
X4929428Y-4852619D01*
X4932680Y-4853432D01*
X4932680Y-4883404D01*
X4884928Y-4883404D01*
X4884928Y-4853432D01*
X4861052Y-4855718D01*
X4861763Y-4857648D01*
X4863134Y-4859324D01*
X4865420Y-4860594D01*
X4868672Y-4861560D01*
X4868672Y-4894072D01*
X4869891Y-4895342D01*
X4873040Y-4896662D01*
X4877358Y-4897729D01*
X4882134Y-4898136D01*
X4884928Y-4898136D01*
X4884928Y-4889246D01*
X4993894Y-4889246D01*
X5000244Y-4897882D01*
X5019040Y-4886706D01*
X5015636Y-4883962D01*
X5011420Y-4881626D01*
X5011420Y-4853178D01*
X4987798Y-4855718D01*
X4988509Y-4857750D01*
X4989880Y-4859375D01*
X4992166Y-4860645D01*
X4995418Y-4861560D01*
X4995418Y-4883404D01*
X4948936Y-4883404D01*
G37*
G36*
X4664456Y-4845812D02*
G01*
X4645914Y-4860798D01*
X4647692Y-4861864D01*
X4650028Y-4862271D01*
X4652975Y-4862118D01*
X4656582Y-4861306D01*
X4668012Y-4864658D01*
X4681372Y-4868011D01*
X4695799Y-4871110D01*
X4710684Y-4873752D01*
X4710684Y-4916424D01*
X4671060Y-4916424D01*
X4660392Y-4902708D01*
X4653483Y-4908397D01*
X4641088Y-4919218D01*
X4641799Y-4920691D01*
X4643018Y-4921707D01*
X4644694Y-4922316D01*
X4646676Y-4922520D01*
X4667758Y-4922520D01*
X4667758Y-5028184D01*
X4668723Y-5029403D01*
X4671415Y-5031079D01*
X4675682Y-5032603D01*
X4681220Y-5033264D01*
X4683760Y-5033264D01*
X4683760Y-4922520D01*
X4710684Y-4922520D01*
X4710734Y-4934559D01*
X4711039Y-4945583D01*
X4711903Y-4956759D01*
X4713478Y-4967884D01*
X4714595Y-4973421D01*
X4717592Y-4984394D01*
X4719574Y-4989728D01*
X4721809Y-4995011D01*
X4724450Y-5000244D01*
X4727448Y-5005324D01*
X4730851Y-5010302D01*
X4734661Y-5015077D01*
X4738928Y-5019751D01*
X4743653Y-5024272D01*
X4748885Y-5028641D01*
X4754626Y-5032756D01*
X4756912Y-5030216D01*
X4752238Y-5024882D01*
X4748022Y-5019395D01*
X4744313Y-5013706D01*
X4741011Y-5007864D01*
X4738116Y-5001869D01*
X4735677Y-4995722D01*
X4733544Y-4989474D01*
X4731766Y-4983073D01*
X4730292Y-4976571D01*
X4728159Y-4963312D01*
X4726990Y-4949698D01*
X4726482Y-4935829D01*
X4726432Y-4861814D01*
X4708144Y-4867910D01*
X4695850Y-4862728D01*
X4683912Y-4856937D01*
X4673193Y-4851146D01*
G37*
G36*
X4486656Y-4845812D02*
G01*
X4463034Y-4854448D01*
X4463948Y-4856022D01*
X4465523Y-4857140D01*
X4467860Y-4857750D01*
X4470908Y-4857750D01*
X4477410Y-4865370D01*
X4485182Y-4873447D01*
X4493717Y-4881524D01*
X4502658Y-4888992D01*
X4467352Y-4888992D01*
X4457192Y-4878832D01*
X4438904Y-4896104D01*
X4440224Y-4897323D01*
X4441901Y-4898034D01*
X4444034Y-4898440D01*
X4446778Y-4898644D01*
X4453077Y-4904181D01*
X4460798Y-4910124D01*
X4468876Y-4915763D01*
X4476496Y-4920488D01*
X4478782Y-4918964D01*
X4472889Y-4907584D01*
X4467352Y-4895088D01*
X4599178Y-4895088D01*
X4599686Y-4904943D01*
X4602073Y-4913020D01*
X4605731Y-4919268D01*
X4610100Y-4923536D01*
X4614722Y-4925822D01*
X4619396Y-4926431D01*
X4623358Y-4925263D01*
X4625848Y-4922266D01*
X4626711Y-4918506D01*
X4625898Y-4915052D01*
X4623765Y-4912004D01*
X4617618Y-4907280D01*
X4614672Y-4904232D01*
X4611979Y-4900523D01*
X4609744Y-4896256D01*
X4607966Y-4891532D01*
X4606798Y-4886452D01*
X4606290Y-4881067D01*
X4606544Y-4875530D01*
X4603496Y-4875276D01*
X4601108Y-4882438D01*
X4599686Y-4888992D01*
X4509770Y-4888992D01*
X4503267Y-4878832D01*
X4496968Y-4867706D01*
X4491278Y-4856378D01*
G37*
G36*
X4594352Y-4848352D02*
G01*
X4586478Y-4851349D01*
X4579924Y-4854702D01*
X4574590Y-4858258D01*
X4570374Y-4861966D01*
X4567275Y-4865674D01*
X4565091Y-4869383D01*
X4563872Y-4872990D01*
X4563414Y-4876342D01*
X4563668Y-4879340D01*
X4564532Y-4881981D01*
X4566005Y-4884064D01*
X4567885Y-4885588D01*
X4570171Y-4886452D01*
X4572711Y-4886502D01*
X4575454Y-4885690D01*
X4578350Y-4883912D01*
X4579315Y-4879594D01*
X4580839Y-4875072D01*
X4582820Y-4870500D01*
X4585157Y-4865928D01*
X4590592Y-4857242D01*
X4596384Y-4849876D01*
G37*
G36*
X4390136Y-4850384D02*
G01*
X4382262Y-4852670D01*
X4375658Y-4855362D01*
X4370273Y-4858410D01*
X4366006Y-4861661D01*
X4362805Y-4865014D01*
X4360570Y-4868418D01*
X4359249Y-4871770D01*
X4358690Y-4874920D01*
X4358894Y-4877816D01*
X4359706Y-4880406D01*
X4361078Y-4882489D01*
X4362907Y-4884064D01*
X4365142Y-4884978D01*
X4367682Y-4885131D01*
X4370476Y-4884470D01*
X4373372Y-4882896D01*
X4375810Y-4874412D01*
X4380280Y-4866081D01*
X4386021Y-4858410D01*
X4392168Y-4851908D01*
G37*
G36*
X4748784Y-4862576D02*
G01*
X4737201Y-4872329D01*
X4731766Y-4877308D01*
X4732528Y-4878781D01*
X4733645Y-4879797D01*
X4735220Y-4880406D01*
X4737100Y-4880610D01*
X4826000Y-4880610D01*
X4827524Y-4874768D01*
X4758182Y-4874768D01*
G37*
G36*
X4174490Y-4864608D02*
G01*
X4167632Y-4864963D01*
X4161434Y-4865928D01*
X4155897Y-4867503D01*
X4151020Y-4869688D01*
X4146702Y-4872380D01*
X4143044Y-4875631D01*
X4139946Y-4879340D01*
X4137456Y-4883505D01*
X4135526Y-4888077D01*
X4134154Y-4893056D01*
X4133342Y-4898339D01*
X4133087Y-4903978D01*
X4133342Y-4908702D01*
X4134053Y-4913325D01*
X4135374Y-4917897D01*
X4137202Y-4922520D01*
X4139692Y-4927295D01*
X4142841Y-4932324D01*
X4146702Y-4937658D01*
X4156659Y-4949647D01*
X4169867Y-4964023D01*
X4203954Y-4999228D01*
X4126737Y-4999228D01*
X4126737Y-5016500D01*
X4218178Y-5016500D01*
X4218178Y-5002784D01*
X4184396Y-4964430D01*
X4174439Y-4952695D01*
X4170172Y-4947259D01*
X4163060Y-4936998D01*
X4160215Y-4932121D01*
X4157776Y-4927447D01*
X4155846Y-4922824D01*
X4154322Y-4918303D01*
X4153255Y-4913884D01*
X4152595Y-4909413D01*
X4152392Y-4904994D01*
X4152900Y-4898136D01*
X4154322Y-4891989D01*
X4156659Y-4886553D01*
X4159808Y-4881981D01*
X4163771Y-4878273D01*
X4168444Y-4875530D01*
X4173829Y-4873802D01*
X4179824Y-4873244D01*
X4185107Y-4873599D01*
X4191762Y-4874768D01*
X4196080Y-4891024D01*
X4198366Y-4897475D01*
X4201109Y-4901844D01*
X4204411Y-4904232D01*
X4208272Y-4904994D01*
X4211675Y-4904486D01*
X4214672Y-4903063D01*
X4217212Y-4900930D01*
X4219194Y-4898136D01*
X4218076Y-4892802D01*
X4216349Y-4887874D01*
X4214012Y-4883454D01*
X4211167Y-4879492D01*
X4207814Y-4876038D01*
X4204004Y-4872990D01*
X4199788Y-4870450D01*
X4195216Y-4868316D01*
X4190390Y-4866690D01*
X4185259Y-4865522D01*
X4179976Y-4864862D01*
G37*
G36*
X4062984Y-4864608D02*
G01*
X4056126Y-4864963D01*
X4049928Y-4865928D01*
X4044391Y-4867503D01*
X4039412Y-4869688D01*
X4035094Y-4872380D01*
X4031386Y-4875631D01*
X4028287Y-4879340D01*
X4025747Y-4883505D01*
X4023817Y-4888077D01*
X4022445Y-4893056D01*
X4021582Y-4898339D01*
X4021328Y-4903978D01*
X4021582Y-4908702D01*
X4022344Y-4913325D01*
X4023614Y-4917897D01*
X4025544Y-4922520D01*
X4028033Y-4927295D01*
X4031183Y-4932324D01*
X4035044Y-4937658D01*
X4045000Y-4949647D01*
X4058158Y-4964023D01*
X4092448Y-4999228D01*
X4015232Y-4999228D01*
X4015232Y-5016500D01*
X4106672Y-5016500D01*
X4106672Y-5002784D01*
X4072890Y-4964430D01*
X4062933Y-4952695D01*
X4058665Y-4947259D01*
X4051554Y-4936998D01*
X4048709Y-4932121D01*
X4046270Y-4927447D01*
X4044340Y-4922824D01*
X4042816Y-4918303D01*
X4041749Y-4913884D01*
X4041089Y-4909413D01*
X4040886Y-4904994D01*
X4041394Y-4898136D01*
X4042816Y-4891989D01*
X4045153Y-4886553D01*
X4048302Y-4881981D01*
X4052214Y-4878273D01*
X4056837Y-4875530D01*
X4062171Y-4873802D01*
X4068064Y-4873244D01*
X4073601Y-4873599D01*
X4080256Y-4874768D01*
X4084574Y-4891024D01*
X4086860Y-4897475D01*
X4089603Y-4901844D01*
X4092905Y-4904232D01*
X4096765Y-4904994D01*
X4100169Y-4904486D01*
X4103166Y-4903063D01*
X4105706Y-4900930D01*
X4107687Y-4898136D01*
X4106570Y-4892802D01*
X4104843Y-4887874D01*
X4102506Y-4883454D01*
X4099661Y-4879492D01*
X4096308Y-4876038D01*
X4092498Y-4872990D01*
X4088282Y-4870450D01*
X4083710Y-4868316D01*
X4078884Y-4866690D01*
X4073753Y-4865522D01*
X4068470Y-4864862D01*
G37*
G36*
X3668776Y-4864608D02*
G01*
X3661968Y-4864963D01*
X3655822Y-4865928D01*
X3650284Y-4867503D01*
X3645408Y-4869688D01*
X3641090Y-4872380D01*
X3637381Y-4875631D01*
X3634282Y-4879340D01*
X3631793Y-4883505D01*
X3629863Y-4888077D01*
X3628440Y-4893056D01*
X3627628Y-4898339D01*
X3627374Y-4903978D01*
X3627628Y-4908702D01*
X3628390Y-4913325D01*
X3629660Y-4917897D01*
X3631590Y-4922520D01*
X3634079Y-4927295D01*
X3637229Y-4932324D01*
X3641090Y-4937658D01*
X3651046Y-4949647D01*
X3664204Y-4964023D01*
X3698240Y-4999228D01*
X3621024Y-4999228D01*
X3621024Y-5016500D01*
X3712464Y-5016500D01*
X3712464Y-5002784D01*
X3678936Y-4964430D01*
X3668979Y-4952695D01*
X3664712Y-4947259D01*
X3657600Y-4936998D01*
X3654755Y-4932121D01*
X3652316Y-4927447D01*
X3650386Y-4922824D01*
X3648862Y-4918303D01*
X3647795Y-4913884D01*
X3647135Y-4909413D01*
X3646932Y-4904994D01*
X3647440Y-4898136D01*
X3648862Y-4891989D01*
X3651199Y-4886553D01*
X3654348Y-4881981D01*
X3658260Y-4878273D01*
X3662883Y-4875530D01*
X3668217Y-4873802D01*
X3674110Y-4873244D01*
X3679596Y-4873599D01*
X3686048Y-4874768D01*
X3690620Y-4891024D01*
X3692804Y-4897475D01*
X3695547Y-4901844D01*
X3698900Y-4904232D01*
X3702812Y-4904994D01*
X3706114Y-4904486D01*
X3709111Y-4903063D01*
X3711600Y-4900930D01*
X3713479Y-4898136D01*
X3712362Y-4892802D01*
X3710686Y-4887874D01*
X3708349Y-4883454D01*
X3705504Y-4879492D01*
X3702151Y-4876038D01*
X3698341Y-4872990D01*
X3694176Y-4870450D01*
X3689604Y-4868316D01*
X3684778Y-4866690D01*
X3679647Y-4865522D01*
X3674313Y-4864862D01*
G37*
G36*
X3556000Y-4864608D02*
G01*
X3551631Y-4864862D01*
X3547313Y-4865624D01*
X3543046Y-4866894D01*
X3538880Y-4868672D01*
X3534867Y-4871059D01*
X3531006Y-4874056D01*
X3527399Y-4877612D01*
X3523996Y-4881829D01*
X3520897Y-4886706D01*
X3518052Y-4892243D01*
X3515614Y-4898491D01*
X3513480Y-4905451D01*
X3511804Y-4913122D01*
X3510534Y-4921554D01*
X3509772Y-4930800D01*
X3509518Y-4940808D01*
X3529584Y-4940808D01*
X3529837Y-4928260D01*
X3530600Y-4917287D01*
X3531768Y-4907788D01*
X3533394Y-4899660D01*
X3535375Y-4892802D01*
X3537661Y-4887163D01*
X3540251Y-4882591D01*
X3543046Y-4879086D01*
X3546094Y-4876495D01*
X3549294Y-4874768D01*
X3552596Y-4873802D01*
X3556000Y-4873498D01*
X3559505Y-4873802D01*
X3562959Y-4874768D01*
X3566261Y-4876495D01*
X3569360Y-4879086D01*
X3572256Y-4882591D01*
X3574897Y-4887163D01*
X3577285Y-4892802D01*
X3579317Y-4899660D01*
X3580942Y-4907788D01*
X3582162Y-4917287D01*
X3582924Y-4928260D01*
X3583178Y-4940808D01*
X3583025Y-4950764D01*
X3582568Y-4959807D01*
X3581908Y-4967935D01*
X3580942Y-4975250D01*
X3579723Y-4981702D01*
X3578351Y-4987442D01*
X3576726Y-4992420D01*
X3574897Y-4996738D01*
X3572967Y-5000345D01*
X3570833Y-5003393D01*
X3568598Y-5005832D01*
X3566261Y-5007762D01*
X3563772Y-5009184D01*
X3561232Y-5010200D01*
X3558641Y-5010759D01*
X3556000Y-5010912D01*
X3552596Y-5010607D01*
X3549294Y-5009540D01*
X3546094Y-5007762D01*
X3543046Y-5005019D01*
X3540251Y-5001361D01*
X3537661Y-4996637D01*
X3535375Y-4990744D01*
X3533394Y-4983581D01*
X3531768Y-4975098D01*
X3530600Y-4965242D01*
X3529837Y-4953812D01*
X3529584Y-4940808D01*
X3509518Y-4940808D01*
X3509772Y-4951171D01*
X3510534Y-4960721D01*
X3511804Y-4969459D01*
X3513480Y-4977384D01*
X3515614Y-4984546D01*
X3518052Y-4990998D01*
X3520897Y-4996688D01*
X3523996Y-5001666D01*
X3527399Y-5005984D01*
X3531006Y-5009642D01*
X3534867Y-5012690D01*
X3538880Y-5015128D01*
X3543046Y-5017008D01*
X3547313Y-5018278D01*
X3551631Y-5019040D01*
X3556000Y-5019294D01*
X3560470Y-5019040D01*
X3564839Y-5018278D01*
X3569157Y-5017008D01*
X3573373Y-5015128D01*
X3577437Y-5012690D01*
X3581298Y-5009642D01*
X3584905Y-5005984D01*
X3588308Y-5001666D01*
X3591458Y-4996688D01*
X3594252Y-4990998D01*
X3596690Y-4984546D01*
X3598773Y-4977384D01*
X3600450Y-4969459D01*
X3601720Y-4960721D01*
X3602482Y-4951171D01*
X3602736Y-4940808D01*
X3602482Y-4930800D01*
X3601720Y-4921554D01*
X3600450Y-4913122D01*
X3598773Y-4905451D01*
X3596690Y-4898491D01*
X3594252Y-4892243D01*
X3591458Y-4886706D01*
X3588308Y-4881829D01*
X3584905Y-4877612D01*
X3581298Y-4874056D01*
X3577437Y-4871059D01*
X3573373Y-4868672D01*
X3569157Y-4866894D01*
X3564839Y-4865624D01*
X3560470Y-4864862D01*
G37*
G36*
X3445764Y-4864608D02*
G01*
X3438906Y-4864963D01*
X3432708Y-4865928D01*
X3427171Y-4867503D01*
X3422294Y-4869688D01*
X3417976Y-4872380D01*
X3414318Y-4875631D01*
X3411220Y-4879340D01*
X3408730Y-4883505D01*
X3406800Y-4888077D01*
X3405428Y-4893056D01*
X3404615Y-4898339D01*
X3404362Y-4903978D01*
X3404615Y-4908702D01*
X3405378Y-4913325D01*
X3406648Y-4917897D01*
X3408578Y-4922520D01*
X3411067Y-4927295D01*
X3414217Y-4932324D01*
X3418078Y-4937658D01*
X3428034Y-4949647D01*
X3441192Y-4964023D01*
X3475228Y-4999228D01*
X3398012Y-4999228D01*
X3398012Y-5016500D01*
X3489451Y-5016500D01*
X3489451Y-5002784D01*
X3455670Y-4964430D01*
X3445814Y-4952695D01*
X3437839Y-4942027D01*
X3434537Y-4936998D01*
X3431692Y-4932121D01*
X3429304Y-4927447D01*
X3427374Y-4922824D01*
X3425850Y-4918303D01*
X3424783Y-4913884D01*
X3424123Y-4909413D01*
X3423920Y-4904994D01*
X3424377Y-4898136D01*
X3425799Y-4891989D01*
X3428085Y-4886553D01*
X3431235Y-4881981D01*
X3435146Y-4878273D01*
X3439769Y-4875530D01*
X3445103Y-4873802D01*
X3451098Y-4873244D01*
X3456584Y-4873599D01*
X3463036Y-4874768D01*
X3467608Y-4891024D01*
X3469741Y-4897475D01*
X3472484Y-4901844D01*
X3475786Y-4904232D01*
X3479800Y-4904994D01*
X3483051Y-4904486D01*
X3485997Y-4903063D01*
X3488486Y-4900930D01*
X3490468Y-4898136D01*
X3489350Y-4892802D01*
X3487623Y-4887874D01*
X3485286Y-4883454D01*
X3482441Y-4879492D01*
X3479088Y-4876038D01*
X3475278Y-4872990D01*
X3471062Y-4870450D01*
X3466490Y-4868316D01*
X3461664Y-4866690D01*
X3456533Y-4865522D01*
X3451250Y-4864862D01*
G37*
G36*
X3156458Y-4864608D02*
G01*
X3151174Y-4864862D01*
X3146145Y-4865674D01*
X3141421Y-4866995D01*
X3137001Y-4868773D01*
X3132836Y-4871059D01*
X3129026Y-4873802D01*
X3125520Y-4877054D01*
X3122371Y-4880660D01*
X3119526Y-4884724D01*
X3117037Y-4889195D01*
X3114903Y-4894072D01*
X3113176Y-4899304D01*
X3111804Y-4904943D01*
X3110788Y-4910886D01*
X3110179Y-4917186D01*
X3110008Y-4925568D01*
X3129280Y-4925568D01*
X3129534Y-4916932D01*
X3130194Y-4909058D01*
X3131312Y-4902047D01*
X3132836Y-4895850D01*
X3134766Y-4890414D01*
X3137052Y-4885791D01*
X3139694Y-4881880D01*
X3142640Y-4878730D01*
X3145891Y-4876292D01*
X3149396Y-4874615D01*
X3153206Y-4873599D01*
X3157220Y-4873244D01*
X3162604Y-4873802D01*
X3167684Y-4875580D01*
X3172307Y-4878476D01*
X3176320Y-4882489D01*
X3179673Y-4887620D01*
X3182213Y-4893919D01*
X3183839Y-4901336D01*
X3184398Y-4909820D01*
X3183788Y-4918252D01*
X3182061Y-4925517D01*
X3179318Y-4931613D01*
X3175660Y-4936540D01*
X3171190Y-4940300D01*
X3166059Y-4942992D01*
X3160369Y-4944618D01*
X3154172Y-4945126D01*
X3147263Y-4944567D01*
X3140913Y-4942941D01*
X3135122Y-4940096D01*
X3129788Y-4935982D01*
X3129280Y-4925568D01*
X3110008Y-4925568D01*
X3110484Y-4934762D01*
X3112008Y-4945430D01*
X3113176Y-4950663D01*
X3114649Y-4955743D01*
X3116376Y-4960721D01*
X3118358Y-4965598D01*
X3120644Y-4970322D01*
X3123184Y-4974945D01*
X3126028Y-4979416D01*
X3129178Y-4983683D01*
X3132632Y-4987848D01*
X3136392Y-4991811D01*
X3140405Y-4995621D01*
X3144774Y-4999278D01*
X3149447Y-5002682D01*
X3154426Y-5005882D01*
X3159760Y-5008930D01*
X3165398Y-5011724D01*
X3171342Y-5014315D01*
X3177641Y-5016652D01*
X3184296Y-5018735D01*
X3191256Y-5020564D01*
X3192780Y-5013706D01*
X3185871Y-5011166D01*
X3179419Y-5008372D01*
X3173374Y-5005425D01*
X3167786Y-5002174D01*
X3162604Y-4998720D01*
X3157829Y-4995062D01*
X3153460Y-4991150D01*
X3149498Y-4987036D01*
X3145942Y-4982667D01*
X3142691Y-4978095D01*
X3139846Y-4973320D01*
X3137357Y-4968290D01*
X3135223Y-4963007D01*
X3133445Y-4957521D01*
X3131972Y-4951831D01*
X3130804Y-4945888D01*
X3137001Y-4950612D01*
X3144062Y-4954168D01*
X3151936Y-4956302D01*
X3160522Y-4957064D01*
X3166313Y-4956708D01*
X3171901Y-4955641D01*
X3177184Y-4953914D01*
X3182162Y-4951577D01*
X3186734Y-4948580D01*
X3190849Y-4944973D01*
X3194456Y-4940808D01*
X3197555Y-4936083D01*
X3200044Y-4930800D01*
X3201924Y-4925060D01*
X3203041Y-4918811D01*
X3203448Y-4912106D01*
X3203041Y-4905146D01*
X3201873Y-4898644D01*
X3199993Y-4892598D01*
X3197402Y-4887010D01*
X3194202Y-4882032D01*
X3190341Y-4877612D01*
X3185922Y-4873752D01*
X3180943Y-4870551D01*
X3175457Y-4868011D01*
X3169564Y-4866132D01*
X3163214Y-4865014D01*
G37*
G36*
X3874262Y-4865370D02*
G01*
X3871214Y-4867656D01*
X3871976Y-4899660D01*
X3871925Y-4987391D01*
X3871722Y-5005070D01*
X3840479Y-5009642D01*
X3840479Y-5016500D01*
X3922522Y-5016500D01*
X3922522Y-5009642D01*
X3890772Y-5005070D01*
X3890264Y-4969510D01*
X3890264Y-4882134D01*
X3919982Y-4884928D01*
X3919982Y-4877308D01*
G37*
G36*
X3304540Y-4865370D02*
G01*
X3304540Y-4886198D01*
X3322320Y-4886198D01*
X3371596Y-4957064D01*
X3322320Y-4957064D01*
X3322320Y-4886198D01*
X3304540Y-4886198D01*
X3304540Y-4957064D01*
X3280918Y-4957064D01*
X3280918Y-4970272D01*
X3304540Y-4970272D01*
X3304540Y-5016500D01*
X3322320Y-5016500D01*
X3322320Y-4970272D01*
X3382772Y-4970272D01*
X3382772Y-4959350D01*
X3316986Y-4865370D01*
G37*
G36*
X4811268Y-4880864D02*
G01*
X4803698Y-4886045D01*
X4798009Y-4891328D01*
X4794046Y-4896510D01*
X4791608Y-4901488D01*
X4790490Y-4906111D01*
X4790541Y-4910175D01*
X4791557Y-4913579D01*
X4793335Y-4916119D01*
X4795723Y-4917694D01*
X4798517Y-4918100D01*
X4801565Y-4917236D01*
X4804664Y-4914900D01*
X4805476Y-4906467D01*
X4807610Y-4897729D01*
X4810556Y-4889296D01*
X4813808Y-4881880D01*
G37*
G36*
X4764024Y-4881626D02*
G01*
X4741672Y-4888230D01*
X4742688Y-4889906D01*
X4744262Y-4891074D01*
X4746447Y-4891786D01*
X4749292Y-4892040D01*
X4753000Y-4898440D01*
X4757572Y-4905349D01*
X4762652Y-4912360D01*
X4768088Y-4919218D01*
X4755642Y-4919218D01*
X4746244Y-4906518D01*
X4728464Y-4921758D01*
X4729276Y-4923231D01*
X4730445Y-4924247D01*
X4732020Y-4924856D01*
X4733798Y-4925060D01*
X4773930Y-4925060D01*
X4773930Y-4949444D01*
X4758182Y-4949444D01*
X4749292Y-4937506D01*
X4732528Y-4951984D01*
X4733340Y-4953457D01*
X4734560Y-4954473D01*
X4736185Y-4955082D01*
X4738116Y-4955286D01*
X4773930Y-4955286D01*
X4773930Y-5011928D01*
X4774590Y-5019802D01*
X4777486Y-5025948D01*
X4783785Y-5030266D01*
X4794758Y-5032756D01*
X4795062Y-5029504D01*
X4795621Y-5026660D01*
X4796485Y-5024170D01*
X4797806Y-5022088D01*
X4799787Y-5020614D01*
X4802581Y-5019294D01*
X4806391Y-5018176D01*
X4811522Y-5017262D01*
X4811522Y-5014214D01*
X4793488Y-5015230D01*
X4791557Y-5015026D01*
X4790338Y-5014417D01*
X4789627Y-5013299D01*
X4789424Y-5011674D01*
X4789424Y-4970526D01*
X4790490Y-4971694D01*
X4791964Y-4972507D01*
X4793996Y-4972913D01*
X4796790Y-4972812D01*
X4802581Y-4984292D01*
X4806086Y-4990287D01*
X4809998Y-4996332D01*
X4814265Y-5002326D01*
X4818938Y-5008067D01*
X4823968Y-5013502D01*
X4829302Y-5018532D01*
X4831588Y-5016246D01*
X4827828Y-5010099D01*
X4824374Y-5003292D01*
X4821224Y-4996129D01*
X4818430Y-4988763D01*
X4815992Y-4981397D01*
X4812284Y-4967376D01*
X4811014Y-4961128D01*
X4789424Y-4969764D01*
X4789424Y-4955286D01*
X4824984Y-4955286D01*
X4826762Y-4949444D01*
X4789424Y-4949444D01*
X4789424Y-4925060D01*
X4830064Y-4925060D01*
X4831588Y-4919218D01*
X4773168Y-4919218D01*
X4770374Y-4910074D01*
X4767834Y-4900218D01*
X4765649Y-4890516D01*
G37*
G36*
X4951730Y-4890008D02*
G01*
X4942535Y-4891887D01*
X4935931Y-4894732D01*
X4931613Y-4898136D01*
X4929327Y-4901844D01*
X4928819Y-4905502D01*
X4929784Y-4908854D01*
X4931918Y-4911496D01*
X4934966Y-4913122D01*
X4876292Y-4913122D01*
X4866894Y-4903470D01*
X4850130Y-4919726D01*
X4851450Y-4920792D01*
X4853127Y-4921453D01*
X4858004Y-4922012D01*
X4862017Y-4927041D01*
X4866843Y-4932578D01*
X4872024Y-4937963D01*
X4877054Y-4942586D01*
X4879594Y-4941062D01*
X4877206Y-4930597D01*
X4875022Y-4919218D01*
X5003800Y-4919218D01*
X5004409Y-4927498D01*
X5006594Y-4934305D01*
X5009946Y-4939538D01*
X5013960Y-4943094D01*
X5018328Y-4944821D01*
X5022697Y-4945075D01*
X5026558Y-4943754D01*
X5029200Y-4940808D01*
X5029504Y-4937099D01*
X5028387Y-4933746D01*
X5026101Y-4930902D01*
X5022850Y-4928616D01*
X5017820Y-4924552D01*
X5013756Y-4918405D01*
X5011216Y-4910836D01*
X5010912Y-4902454D01*
X5007610Y-4902200D01*
X5005679Y-4907737D01*
X5004562Y-4913122D01*
X4940808Y-4913122D01*
X4942941Y-4912156D01*
X4945126Y-4910582D01*
X4945684Y-4905298D01*
X4947513Y-4900066D01*
X4950358Y-4895240D01*
X4953762Y-4891278D01*
G37*
G36*
X4286504Y-4904232D02*
G01*
X4268978Y-4917440D01*
X4270608Y-4918710D01*
X4368800Y-4918710D01*
X4368800Y-4948682D01*
X4292600Y-4948682D01*
X4292600Y-4918710D01*
X4270608Y-4918710D01*
X4271924Y-4919522D01*
X4274108Y-4920386D01*
X4276598Y-4920996D01*
X4276598Y-4958334D01*
X4278071Y-4959604D01*
X4281373Y-4961229D01*
X4285640Y-4962601D01*
X4289806Y-4963160D01*
X4292600Y-4963160D01*
X4292600Y-4954524D01*
X4322572Y-4954524D01*
X4322572Y-4982464D01*
X4286504Y-4982464D01*
X4276598Y-4969510D01*
X4263847Y-4980127D01*
X4258056Y-4985512D01*
X4258665Y-4986832D01*
X4259732Y-4987798D01*
X4261256Y-4988356D01*
X4263136Y-4988560D01*
X4322572Y-4988560D01*
X4322572Y-5021072D01*
X4269232Y-5021072D01*
X4258818Y-5007356D01*
X4245508Y-5018379D01*
X4239514Y-5023866D01*
X4240022Y-5025186D01*
X4241088Y-5026152D01*
X4242663Y-5026710D01*
X4244594Y-5026914D01*
X4417060Y-5026914D01*
X4418838Y-5021072D01*
X4338828Y-5021072D01*
X4338828Y-4988560D01*
X4396994Y-4988560D01*
X4398518Y-4982464D01*
X4338828Y-4982464D01*
X4338828Y-4954524D01*
X4368800Y-4954524D01*
X4368800Y-4960874D01*
X4370019Y-4962144D01*
X4373118Y-4963769D01*
X4377385Y-4965141D01*
X4382008Y-4965700D01*
X4384294Y-4965700D01*
X4384294Y-4905502D01*
X4367784Y-4912868D01*
X4294378Y-4912868D01*
G37*
G36*
X4493514Y-4907788D02*
G01*
X4476496Y-4924298D01*
X4477816Y-4925060D01*
X4479594Y-4925618D01*
X4484624Y-4926330D01*
X4492193Y-4931105D01*
X4501083Y-4936032D01*
X4510633Y-4940909D01*
X4520184Y-4945380D01*
X4517898Y-4945634D01*
X4518406Y-4947513D01*
X4519676Y-4948936D01*
X4521708Y-4950002D01*
X4524502Y-4950714D01*
X4524502Y-4964684D01*
X4471924Y-4964684D01*
X4460748Y-4950206D01*
X4453432Y-4956048D01*
X4440428Y-4967224D01*
X4441088Y-4968697D01*
X4442256Y-4969713D01*
X4443831Y-4970322D01*
X4445762Y-4970526D01*
X4524502Y-4970526D01*
X4524502Y-5010150D01*
X4524705Y-5014772D01*
X4525365Y-5018887D01*
X4526737Y-5022545D01*
X4529074Y-5025694D01*
X4532528Y-5028336D01*
X4537354Y-5030520D01*
X4543755Y-5032146D01*
X4551934Y-5033264D01*
X4552645Y-5029555D01*
X4553813Y-5026304D01*
X4555490Y-5023510D01*
X4557776Y-5021072D01*
X4561281Y-5019243D01*
X4565853Y-5017516D01*
X4571949Y-5015992D01*
X4579874Y-5014722D01*
X4579874Y-5011674D01*
X4546600Y-5013706D01*
X4544212Y-5013452D01*
X4542637Y-5012639D01*
X4541774Y-5011216D01*
X4541520Y-5009134D01*
X4541520Y-4970526D01*
X4624578Y-4970526D01*
X4626102Y-4964684D01*
X4541520Y-4964684D01*
X4541520Y-4943348D01*
X4528820Y-4944618D01*
X4517136Y-4934356D01*
X4511395Y-4928870D01*
X4506214Y-4923536D01*
X4590288Y-4923536D01*
X4592320Y-4917440D01*
X4503674Y-4917440D01*
G37*
G36*
X4903470Y-4926838D02*
G01*
X4891125Y-4937099D01*
X4885436Y-4942332D01*
X4886096Y-4943805D01*
X4887264Y-4944821D01*
X4888941Y-4945430D01*
X4891024Y-4945634D01*
X4993640Y-4945634D01*
X4995164Y-4939792D01*
X4913630Y-4939792D01*
G37*
G36*
X4871720Y-4951984D02*
G01*
X4852670Y-4967478D01*
X4853482Y-4968951D01*
X4854702Y-4969967D01*
X4856327Y-4970576D01*
X4858258Y-4970780D01*
X4932680Y-4970780D01*
X4932680Y-5011674D01*
X4932832Y-5015890D01*
X4933492Y-5019700D01*
X4934762Y-5023104D01*
X4936794Y-5026050D01*
X4939842Y-5028539D01*
X4944059Y-5030571D01*
X4949545Y-5032044D01*
X4956556Y-5033010D01*
X4957064Y-5029555D01*
X4957826Y-5026507D01*
X4958994Y-5023967D01*
X4960620Y-5022088D01*
X4963312Y-5020310D01*
X4967020Y-5018786D01*
X4971999Y-5017465D01*
X4978400Y-5016246D01*
X4978400Y-5013452D01*
X4953254Y-5014976D01*
X4951171Y-5014722D01*
X4949850Y-5014010D01*
X4949139Y-5012842D01*
X4948936Y-5011166D01*
X4948936Y-4970780D01*
X5025136Y-4970780D01*
X5026914Y-4964938D01*
X4882134Y-4964938D01*
G37*
G36*
X4767326Y-4963922D02*
G01*
X4760620Y-4967376D01*
X4755134Y-4971084D01*
X4750714Y-4974894D01*
X4747361Y-4978704D01*
X4744974Y-4982565D01*
X4743450Y-4986274D01*
X4742688Y-4989779D01*
X4742637Y-4993030D01*
X4743196Y-4995926D01*
X4744262Y-4998364D01*
X4745786Y-5000345D01*
X4747666Y-5001666D01*
X4749850Y-5002326D01*
X4752187Y-5002276D01*
X4754676Y-5001310D01*
X4757166Y-4999482D01*
X4758131Y-4990388D01*
X4760925Y-4981194D01*
X4765040Y-4972558D01*
X4769866Y-4965192D01*
G37*
G36*
X4987290Y-4977384D02*
G01*
X4966462Y-4988814D01*
X4967528Y-4989982D01*
X4969052Y-4990744D01*
X4971135Y-4990998D01*
X4974082Y-4990592D01*
X4980686Y-4997043D01*
X4984445Y-5000345D01*
X4992928Y-5006797D01*
X5002377Y-5012994D01*
X5012486Y-5018735D01*
X5023053Y-5023713D01*
X5028438Y-5025898D01*
X5030470Y-5023612D01*
X5021732Y-5016957D01*
X5013299Y-5009489D01*
X5005374Y-5001463D01*
X4998212Y-4993182D01*
X4992116Y-4985054D01*
G37*
G36*
X4912360Y-4980432D02*
G01*
X4903165Y-4982870D01*
X4894986Y-4985664D01*
X4887772Y-4988661D01*
X4881524Y-4991862D01*
X4876241Y-4995214D01*
X4871720Y-4998618D01*
X4868062Y-5002072D01*
X4865217Y-5005476D01*
X4863033Y-5008829D01*
X4861509Y-5012029D01*
X4860645Y-5015026D01*
X4860391Y-5017770D01*
X4860645Y-5020259D01*
X4861407Y-5022342D01*
X4862626Y-5024069D01*
X4864201Y-5025288D01*
X4866182Y-5025948D01*
X4868468Y-5026101D01*
X4871008Y-5025593D01*
X4873752Y-5024374D01*
X4876952Y-5018836D01*
X4881067Y-5013096D01*
X4885944Y-5007356D01*
X4891328Y-5001717D01*
X4897069Y-4996281D01*
X4902911Y-4991150D01*
X4908804Y-4986528D01*
X4914392Y-4982464D01*
G37*
G36*
X3972560Y-4989068D02*
G01*
X3966667Y-4990287D01*
X3961790Y-4993589D01*
X3958539Y-4998516D01*
X3957320Y-5004562D01*
X3958539Y-5010200D01*
X3961790Y-5014874D01*
X3966667Y-5018074D01*
X3972560Y-5019294D01*
X3978452Y-5018074D01*
X3983329Y-5014874D01*
X3986580Y-5010200D01*
X3987800Y-5004562D01*
X3986580Y-4998516D01*
X3983329Y-4993589D01*
X3978452Y-4990287D01*
G37*
G36*
X3244088Y-4989068D02*
G01*
X3238042Y-4990287D01*
X3233216Y-4993589D01*
X3230016Y-4998516D01*
X3228848Y-5004562D01*
X3230016Y-5010200D01*
X3233216Y-5014874D01*
X3238042Y-5018074D01*
X3244088Y-5019294D01*
X3249879Y-5018074D01*
X3254654Y-5014874D01*
X3257854Y-5010200D01*
X3259074Y-5004562D01*
X3257854Y-4998516D01*
X3254654Y-4993589D01*
X3249879Y-4990287D01*
G37*
G36*
X4963668Y-4526788D02*
G01*
X4956048Y-4528261D01*
X4949698Y-4530242D01*
X4944516Y-4532528D01*
X4940452Y-4535119D01*
X4937455Y-4537862D01*
X4935372Y-4540707D01*
X4934153Y-4543552D01*
X4933696Y-4546244D01*
X4933950Y-4548784D01*
X4934864Y-4550968D01*
X4936286Y-4552848D01*
X4938166Y-4554169D01*
X4940452Y-4554982D01*
X4942992Y-4555083D01*
X4945786Y-4554423D01*
X4948682Y-4552950D01*
X4951476Y-4546549D01*
X4955641Y-4539894D01*
X4960518Y-4533696D01*
X4965446Y-4528566D01*
G37*
G36*
X4518660Y-4529836D02*
G01*
X4495038Y-4532376D01*
X4495596Y-4534306D01*
X4496765Y-4535932D01*
X4498848Y-4537151D01*
X4502150Y-4537964D01*
X4502150Y-4613148D01*
X4483100Y-4613148D01*
X4471924Y-4598924D01*
X4458309Y-4610049D01*
X4451858Y-4615688D01*
X4452670Y-4617161D01*
X4453890Y-4618177D01*
X4455515Y-4618786D01*
X4457446Y-4618990D01*
X4502150Y-4618990D01*
X4502150Y-4709160D01*
X4503369Y-4710988D01*
X4506518Y-4713122D01*
X4510836Y-4714798D01*
X4515612Y-4715510D01*
X4518660Y-4715510D01*
X4518660Y-4618990D01*
X4571238Y-4618990D01*
X4571898Y-4629759D01*
X4573270Y-4640529D01*
X4575505Y-4651146D01*
X4577029Y-4656429D01*
X4578858Y-4661611D01*
X4580940Y-4666742D01*
X4583379Y-4671771D01*
X4586224Y-4676749D01*
X4589373Y-4681575D01*
X4592980Y-4686300D01*
X4596942Y-4690922D01*
X4601413Y-4695393D01*
X4606340Y-4699711D01*
X4611776Y-4703876D01*
X4617669Y-4707839D01*
X4624171Y-4711649D01*
X4631182Y-4715256D01*
X4633214Y-4712970D01*
X4626711Y-4707940D01*
X4620869Y-4702759D01*
X4615637Y-4697476D01*
X4610912Y-4692040D01*
X4606747Y-4686452D01*
X4603140Y-4680813D01*
X4599940Y-4675022D01*
X4597196Y-4669129D01*
X4594910Y-4663135D01*
X4592929Y-4657039D01*
X4591354Y-4650892D01*
X4590084Y-4644644D01*
X4589068Y-4638344D01*
X4587798Y-4625492D01*
X4587494Y-4618990D01*
X4638548Y-4618990D01*
X4640326Y-4613148D01*
X4587240Y-4613148D01*
X4587240Y-4558792D01*
X4598416Y-4561128D01*
X4609744Y-4563160D01*
X4621123Y-4564938D01*
X4632452Y-4566412D01*
X4633468Y-4563110D01*
X4621784Y-4559960D01*
X4609795Y-4556302D01*
X4597806Y-4552289D01*
X4586071Y-4547971D01*
X4574895Y-4543501D01*
X4564583Y-4538980D01*
X4555388Y-4534560D01*
X4547616Y-4530344D01*
X4529582Y-4545584D01*
X4531156Y-4546447D01*
X4533442Y-4546752D01*
X4536440Y-4546549D01*
X4539996Y-4545838D01*
X4554423Y-4550410D01*
X4570984Y-4554982D01*
X4570984Y-4613148D01*
X4518660Y-4613148D01*
G37*
G36*
X4682998Y-4532884D02*
G01*
X4676343Y-4538268D01*
X4664202Y-4548632D01*
X4665014Y-4550105D01*
X4666234Y-4551121D01*
X4667859Y-4551730D01*
X4669790Y-4551934D01*
X4773422Y-4551934D01*
X4773422Y-4614418D01*
X4726940Y-4614418D01*
X4726940Y-4551934D01*
X4709922Y-4551934D01*
X4709922Y-4614418D01*
X4682744Y-4614418D01*
X4672584Y-4599940D01*
X4653788Y-4617212D01*
X4654600Y-4618532D01*
X4655820Y-4619498D01*
X4657445Y-4620056D01*
X4659376Y-4620260D01*
X4709922Y-4620260D01*
X4709922Y-4709668D01*
X4710887Y-4710887D01*
X4713681Y-4712563D01*
X4718050Y-4714087D01*
X4723892Y-4714748D01*
X4726940Y-4714748D01*
X4726940Y-4620260D01*
X4773676Y-4620260D01*
X4774387Y-4631486D01*
X4775911Y-4642459D01*
X4777028Y-4647895D01*
X4778451Y-4653229D01*
X4780127Y-4658461D01*
X4782159Y-4663592D01*
X4784547Y-4668672D01*
X4787341Y-4673600D01*
X4790490Y-4678426D01*
X4794097Y-4683099D01*
X4798212Y-4687620D01*
X4802733Y-4692040D01*
X4807813Y-4696256D01*
X4813452Y-4700320D01*
X4819599Y-4704232D01*
X4826355Y-4707940D01*
X4833721Y-4711446D01*
X4841748Y-4714748D01*
X4843780Y-4712462D01*
X4837684Y-4708702D01*
X4831994Y-4704842D01*
X4826812Y-4700879D01*
X4822088Y-4696815D01*
X4817719Y-4692700D01*
X4813808Y-4688484D01*
X4810252Y-4684166D01*
X4807051Y-4679797D01*
X4804206Y-4675327D01*
X4801666Y-4670755D01*
X4797552Y-4661357D01*
X4795875Y-4656531D01*
X4793335Y-4646574D01*
X4791659Y-4636312D01*
X4790694Y-4625695D01*
X4790440Y-4620260D01*
X4841748Y-4620260D01*
X4843780Y-4614418D01*
X4790186Y-4614418D01*
X4790186Y-4551934D01*
X4833874Y-4551934D01*
X4835652Y-4546092D01*
X4693412Y-4546092D01*
G37*
G36*
X4877308Y-4542028D02*
G01*
X4870399Y-4547717D01*
X4858004Y-4558538D01*
X4858715Y-4560011D01*
X4859934Y-4561027D01*
X4861610Y-4561636D01*
X4863592Y-4561840D01*
X5011674Y-4561840D01*
X5011775Y-4622444D01*
X5012182Y-4633112D01*
X5012994Y-4644085D01*
X5014468Y-4655159D01*
X5016703Y-4666183D01*
X5018176Y-4671669D01*
X5019903Y-4677105D01*
X5021884Y-4682439D01*
X5024170Y-4687671D01*
X5026761Y-4692802D01*
X5029708Y-4697831D01*
X5033010Y-4702708D01*
X5036667Y-4707432D01*
X5040731Y-4711954D01*
X5045202Y-4716272D01*
X5047996Y-4714494D01*
X5044643Y-4708906D01*
X5041696Y-4703165D01*
X5039106Y-4697272D01*
X5036870Y-4691176D01*
X5034889Y-4684979D01*
X5033213Y-4678629D01*
X5030673Y-4665675D01*
X5029708Y-4659122D01*
X5028387Y-4645761D01*
X5027726Y-4632299D01*
X5027422Y-4618837D01*
X5027422Y-4548124D01*
X5009134Y-4555744D01*
X4887976Y-4555744D01*
G37*
G36*
X4338320Y-4547108D02*
G01*
X4331462Y-4547463D01*
X4325264Y-4548428D01*
X4319727Y-4550003D01*
X4314850Y-4552188D01*
X4310532Y-4554880D01*
X4306874Y-4558131D01*
X4303776Y-4561840D01*
X4301286Y-4566005D01*
X4299356Y-4570577D01*
X4297984Y-4575556D01*
X4297172Y-4580839D01*
X4296918Y-4586478D01*
X4297172Y-4591202D01*
X4297934Y-4595825D01*
X4299204Y-4600397D01*
X4301134Y-4605020D01*
X4303623Y-4609795D01*
X4306773Y-4614824D01*
X4310634Y-4620158D01*
X4320590Y-4632147D01*
X4333748Y-4646523D01*
X4367784Y-4681728D01*
X4290568Y-4681728D01*
X4290568Y-4699000D01*
X4382008Y-4699000D01*
X4382008Y-4685284D01*
X4348226Y-4646930D01*
X4338370Y-4635195D01*
X4330395Y-4624527D01*
X4327093Y-4619498D01*
X4324248Y-4614621D01*
X4321860Y-4609947D01*
X4319930Y-4605324D01*
X4318406Y-4600803D01*
X4317339Y-4596384D01*
X4316679Y-4591913D01*
X4316476Y-4587494D01*
X4316933Y-4580636D01*
X4318355Y-4574489D01*
X4320641Y-4569053D01*
X4323791Y-4564481D01*
X4327702Y-4560773D01*
X4332325Y-4558030D01*
X4337659Y-4556302D01*
X4343654Y-4555744D01*
X4349140Y-4556099D01*
X4355592Y-4557268D01*
X4360164Y-4573524D01*
X4362297Y-4579975D01*
X4365040Y-4584344D01*
X4368342Y-4586732D01*
X4372356Y-4587494D01*
X4375607Y-4586986D01*
X4378553Y-4585563D01*
X4381042Y-4583430D01*
X4383024Y-4580636D01*
X4381906Y-4575302D01*
X4380179Y-4570374D01*
X4377842Y-4565954D01*
X4374997Y-4561992D01*
X4371644Y-4558538D01*
X4367834Y-4555490D01*
X4363618Y-4552950D01*
X4359046Y-4550816D01*
X4354220Y-4549190D01*
X4349089Y-4548022D01*
X4343806Y-4547362D01*
G37*
G36*
X4225290Y-4547108D02*
G01*
X4220921Y-4547362D01*
X4216603Y-4548124D01*
X4212336Y-4549394D01*
X4208221Y-4551172D01*
X4204208Y-4553559D01*
X4200398Y-4556556D01*
X4196791Y-4560112D01*
X4193438Y-4564329D01*
X4190339Y-4569206D01*
X4187545Y-4574743D01*
X4185056Y-4580991D01*
X4182973Y-4587951D01*
X4181348Y-4595622D01*
X4180078Y-4604054D01*
X4179315Y-4613300D01*
X4179062Y-4623308D01*
X4198874Y-4623308D01*
X4199128Y-4610760D01*
X4199890Y-4599787D01*
X4201109Y-4590288D01*
X4202734Y-4582160D01*
X4204716Y-4575302D01*
X4207052Y-4569663D01*
X4209643Y-4565091D01*
X4212437Y-4561586D01*
X4215485Y-4558995D01*
X4218635Y-4557268D01*
X4221937Y-4556302D01*
X4225290Y-4555998D01*
X4228795Y-4556302D01*
X4232249Y-4557268D01*
X4235551Y-4558995D01*
X4238650Y-4561586D01*
X4241546Y-4565091D01*
X4244238Y-4569663D01*
X4246575Y-4575302D01*
X4248607Y-4582160D01*
X4250232Y-4590288D01*
X4251452Y-4599787D01*
X4252214Y-4610760D01*
X4252468Y-4623308D01*
X4252315Y-4633264D01*
X4251858Y-4642307D01*
X4251198Y-4650435D01*
X4250232Y-4657750D01*
X4249013Y-4664202D01*
X4247642Y-4669942D01*
X4246016Y-4674920D01*
X4244238Y-4679238D01*
X4242257Y-4682845D01*
X4240123Y-4685893D01*
X4237888Y-4688332D01*
X4235551Y-4690262D01*
X4233062Y-4691684D01*
X4230522Y-4692700D01*
X4227931Y-4693259D01*
X4225290Y-4693412D01*
X4221937Y-4693107D01*
X4218635Y-4692040D01*
X4215485Y-4690262D01*
X4212437Y-4687519D01*
X4209643Y-4683861D01*
X4207052Y-4679137D01*
X4204716Y-4673244D01*
X4202734Y-4666081D01*
X4201109Y-4657598D01*
X4199890Y-4647742D01*
X4199128Y-4636312D01*
X4198874Y-4623308D01*
X4179062Y-4623308D01*
X4179315Y-4633671D01*
X4180078Y-4643221D01*
X4181348Y-4651959D01*
X4182973Y-4659884D01*
X4185056Y-4667046D01*
X4187545Y-4673498D01*
X4190339Y-4679188D01*
X4193438Y-4684166D01*
X4196791Y-4688484D01*
X4200398Y-4692142D01*
X4204208Y-4695190D01*
X4208221Y-4697628D01*
X4212336Y-4699508D01*
X4216603Y-4700778D01*
X4220921Y-4701540D01*
X4225290Y-4701794D01*
X4229811Y-4701540D01*
X4234230Y-4700778D01*
X4238599Y-4699508D01*
X4242816Y-4697628D01*
X4246880Y-4695190D01*
X4250740Y-4692142D01*
X4254398Y-4688484D01*
X4257852Y-4684166D01*
X4260951Y-4679188D01*
X4263796Y-4673498D01*
X4266234Y-4667046D01*
X4268317Y-4659884D01*
X4269994Y-4651959D01*
X4271264Y-4643221D01*
X4272026Y-4633671D01*
X4272280Y-4623308D01*
X4272026Y-4613300D01*
X4271264Y-4604054D01*
X4269994Y-4595622D01*
X4268317Y-4587951D01*
X4266234Y-4580991D01*
X4263796Y-4574743D01*
X4260951Y-4569206D01*
X4257852Y-4564329D01*
X4254398Y-4560112D01*
X4250740Y-4556556D01*
X4246880Y-4553559D01*
X4242816Y-4551172D01*
X4238599Y-4549394D01*
X4234230Y-4548124D01*
X4229811Y-4547362D01*
G37*
G36*
X4115308Y-4547108D02*
G01*
X4108450Y-4547463D01*
X4102252Y-4548428D01*
X4096715Y-4550003D01*
X4091736Y-4552188D01*
X4087418Y-4554880D01*
X4083710Y-4558131D01*
X4080611Y-4561840D01*
X4078071Y-4566005D01*
X4076141Y-4570577D01*
X4074769Y-4575556D01*
X4073906Y-4580839D01*
X4073651Y-4586478D01*
X4073906Y-4591202D01*
X4074668Y-4595825D01*
X4075937Y-4600397D01*
X4077868Y-4605020D01*
X4080357Y-4609795D01*
X4083507Y-4614824D01*
X4087368Y-4620158D01*
X4097324Y-4632147D01*
X4110482Y-4646523D01*
X4144772Y-4681728D01*
X4067556Y-4681728D01*
X4067556Y-4699000D01*
X4158996Y-4699000D01*
X4158996Y-4685284D01*
X4125214Y-4646930D01*
X4115257Y-4635195D01*
X4110990Y-4629759D01*
X4103878Y-4619498D01*
X4101033Y-4614621D01*
X4098594Y-4609947D01*
X4096664Y-4605324D01*
X4095140Y-4600803D01*
X4094073Y-4596384D01*
X4093413Y-4591913D01*
X4093210Y-4587494D01*
X4093718Y-4580636D01*
X4095140Y-4574489D01*
X4097477Y-4569053D01*
X4100626Y-4564481D01*
X4104538Y-4560773D01*
X4109161Y-4558030D01*
X4114495Y-4556302D01*
X4120387Y-4555744D01*
X4125925Y-4556099D01*
X4132579Y-4557268D01*
X4136898Y-4573524D01*
X4139184Y-4579975D01*
X4141927Y-4584344D01*
X4145229Y-4586732D01*
X4149090Y-4587494D01*
X4152493Y-4586986D01*
X4155490Y-4585563D01*
X4158030Y-4583430D01*
X4160012Y-4580636D01*
X4158894Y-4575302D01*
X4157167Y-4570374D01*
X4154830Y-4565954D01*
X4151985Y-4561992D01*
X4148632Y-4558538D01*
X4144822Y-4555490D01*
X4140606Y-4552950D01*
X4136034Y-4550816D01*
X4131208Y-4549190D01*
X4126077Y-4548022D01*
X4120794Y-4547362D01*
G37*
G36*
X4003548Y-4547108D02*
G01*
X3996740Y-4547463D01*
X3990594Y-4548428D01*
X3985056Y-4550003D01*
X3980179Y-4552188D01*
X3975862Y-4554880D01*
X3972204Y-4558131D01*
X3969054Y-4561840D01*
X3966565Y-4566005D01*
X3964635Y-4570577D01*
X3963212Y-4575556D01*
X3962400Y-4580839D01*
X3962146Y-4586478D01*
X3962400Y-4591202D01*
X3963162Y-4595825D01*
X3964432Y-4600397D01*
X3966362Y-4605020D01*
X3968851Y-4609795D01*
X3972001Y-4614824D01*
X3975862Y-4620158D01*
X3985818Y-4632147D01*
X3998976Y-4646523D01*
X4033012Y-4681728D01*
X3955796Y-4681728D01*
X3955796Y-4699000D01*
X4047236Y-4699000D01*
X4047236Y-4685284D01*
X4013708Y-4646930D01*
X4003751Y-4635195D01*
X3999484Y-4629759D01*
X3992372Y-4619498D01*
X3989527Y-4614621D01*
X3987088Y-4609947D01*
X3985158Y-4605324D01*
X3983634Y-4600803D01*
X3982567Y-4596384D01*
X3981907Y-4591913D01*
X3981704Y-4587494D01*
X3982212Y-4580636D01*
X3983634Y-4574489D01*
X3985971Y-4569053D01*
X3989120Y-4564481D01*
X3993032Y-4560773D01*
X3997655Y-4558030D01*
X4002989Y-4556302D01*
X4008882Y-4555744D01*
X4014368Y-4556099D01*
X4020820Y-4557268D01*
X4025392Y-4573524D01*
X4027576Y-4579975D01*
X4030319Y-4584344D01*
X4033672Y-4586732D01*
X4037584Y-4587494D01*
X4040886Y-4586986D01*
X4043883Y-4585563D01*
X4046372Y-4583430D01*
X4048251Y-4580636D01*
X4047134Y-4575302D01*
X4045458Y-4570374D01*
X4043121Y-4565954D01*
X4040276Y-4561992D01*
X4036923Y-4558538D01*
X4033113Y-4555490D01*
X4028948Y-4552950D01*
X4024376Y-4550816D01*
X4019550Y-4549190D01*
X4014419Y-4548022D01*
X4009085Y-4547362D01*
G37*
G36*
X3890772Y-4547108D02*
G01*
X3886403Y-4547362D01*
X3882085Y-4548124D01*
X3877818Y-4549394D01*
X3873652Y-4551172D01*
X3869639Y-4553559D01*
X3865778Y-4556556D01*
X3862171Y-4560112D01*
X3858768Y-4564329D01*
X3855669Y-4569206D01*
X3852824Y-4574743D01*
X3850386Y-4580991D01*
X3848252Y-4587951D01*
X3846576Y-4595622D01*
X3845306Y-4604054D01*
X3844544Y-4613300D01*
X3844290Y-4623308D01*
X3864356Y-4623308D01*
X3864610Y-4610760D01*
X3865372Y-4599787D01*
X3866540Y-4590288D01*
X3868165Y-4582160D01*
X3870147Y-4575302D01*
X3872433Y-4569663D01*
X3875024Y-4565091D01*
X3877818Y-4561586D01*
X3880865Y-4558995D01*
X3884066Y-4557268D01*
X3887368Y-4556302D01*
X3890772Y-4555998D01*
X3894277Y-4556302D01*
X3897731Y-4557268D01*
X3901033Y-4558995D01*
X3904132Y-4561586D01*
X3907028Y-4565091D01*
X3909720Y-4569663D01*
X3912057Y-4575302D01*
X3914089Y-4582160D01*
X3915714Y-4590288D01*
X3916934Y-4599787D01*
X3917696Y-4610760D01*
X3917950Y-4623308D01*
X3917797Y-4633264D01*
X3917340Y-4642307D01*
X3916679Y-4650435D01*
X3915714Y-4657750D01*
X3914495Y-4664202D01*
X3913124Y-4669942D01*
X3911498Y-4674920D01*
X3909720Y-4679238D01*
X3907739Y-4682845D01*
X3905605Y-4685893D01*
X3903370Y-4688332D01*
X3901033Y-4690262D01*
X3898544Y-4691684D01*
X3896004Y-4692700D01*
X3893413Y-4693259D01*
X3890772Y-4693412D01*
X3887368Y-4693107D01*
X3884066Y-4692040D01*
X3880865Y-4690262D01*
X3877818Y-4687519D01*
X3875024Y-4683861D01*
X3872433Y-4679137D01*
X3870147Y-4673244D01*
X3868165Y-4666081D01*
X3866540Y-4657598D01*
X3865372Y-4647742D01*
X3864610Y-4636312D01*
X3864356Y-4623308D01*
X3844290Y-4623308D01*
X3844544Y-4633671D01*
X3845306Y-4643221D01*
X3846576Y-4651959D01*
X3848252Y-4659884D01*
X3850386Y-4667046D01*
X3852824Y-4673498D01*
X3855669Y-4679188D01*
X3858768Y-4684166D01*
X3862171Y-4688484D01*
X3865778Y-4692142D01*
X3869639Y-4695190D01*
X3873652Y-4697628D01*
X3877818Y-4699508D01*
X3882085Y-4700778D01*
X3886403Y-4701540D01*
X3890772Y-4701794D01*
X3895242Y-4701540D01*
X3899611Y-4700778D01*
X3903929Y-4699508D01*
X3908145Y-4697628D01*
X3912209Y-4695190D01*
X3916070Y-4692142D01*
X3919677Y-4688484D01*
X3923080Y-4684166D01*
X3926230Y-4679188D01*
X3929024Y-4673498D01*
X3931462Y-4667046D01*
X3933545Y-4659884D01*
X3935222Y-4651959D01*
X3936492Y-4643221D01*
X3937254Y-4633671D01*
X3937508Y-4623308D01*
X3937254Y-4613300D01*
X3936492Y-4604054D01*
X3935222Y-4595622D01*
X3933545Y-4587951D01*
X3931462Y-4580991D01*
X3929024Y-4574743D01*
X3926230Y-4569206D01*
X3923080Y-4564329D01*
X3919677Y-4560112D01*
X3916070Y-4556556D01*
X3912209Y-4553559D01*
X3908145Y-4551172D01*
X3903929Y-4549394D01*
X3899611Y-4548124D01*
X3895242Y-4547362D01*
G37*
G36*
X3779012Y-4547108D02*
G01*
X3774643Y-4547362D01*
X3770325Y-4548124D01*
X3766058Y-4549394D01*
X3761943Y-4551172D01*
X3757929Y-4553559D01*
X3754120Y-4556556D01*
X3750513Y-4560112D01*
X3747109Y-4564329D01*
X3744061Y-4569206D01*
X3741267Y-4574743D01*
X3738778Y-4580991D01*
X3736746Y-4587951D01*
X3735070Y-4595622D01*
X3733800Y-4604054D01*
X3733037Y-4613300D01*
X3732784Y-4623308D01*
X3752596Y-4623308D01*
X3752850Y-4610760D01*
X3753612Y-4599787D01*
X3754831Y-4590288D01*
X3756456Y-4582160D01*
X3758437Y-4575302D01*
X3760774Y-4569663D01*
X3763365Y-4565091D01*
X3766159Y-4561586D01*
X3769207Y-4558995D01*
X3772357Y-4557268D01*
X3775659Y-4556302D01*
X3779012Y-4555998D01*
X3782517Y-4556302D01*
X3785971Y-4557268D01*
X3789273Y-4558995D01*
X3792423Y-4561586D01*
X3795369Y-4565091D01*
X3798062Y-4569663D01*
X3800449Y-4575302D01*
X3802481Y-4582160D01*
X3804158Y-4590288D01*
X3805377Y-4599787D01*
X3806190Y-4610760D01*
X3806444Y-4623308D01*
X3806291Y-4633264D01*
X3805834Y-4642307D01*
X3805123Y-4650435D01*
X3804158Y-4657750D01*
X3802938Y-4664202D01*
X3801516Y-4669942D01*
X3799890Y-4674920D01*
X3798062Y-4679238D01*
X3796080Y-4682845D01*
X3793947Y-4685893D01*
X3791661Y-4688332D01*
X3789273Y-4690262D01*
X3786835Y-4691684D01*
X3784295Y-4692700D01*
X3781653Y-4693259D01*
X3779012Y-4693412D01*
X3775659Y-4693107D01*
X3772357Y-4692040D01*
X3769207Y-4690262D01*
X3766159Y-4687519D01*
X3763365Y-4683861D01*
X3760774Y-4679137D01*
X3758437Y-4673244D01*
X3756456Y-4666081D01*
X3754831Y-4657598D01*
X3753612Y-4647742D01*
X3752850Y-4636312D01*
X3752596Y-4623308D01*
X3732784Y-4623308D01*
X3733037Y-4633671D01*
X3733800Y-4643221D01*
X3735070Y-4651959D01*
X3736695Y-4659884D01*
X3738778Y-4667046D01*
X3741267Y-4673498D01*
X3744061Y-4679188D01*
X3747109Y-4684166D01*
X3750513Y-4688484D01*
X3754120Y-4692142D01*
X3757929Y-4695190D01*
X3761943Y-4697628D01*
X3766058Y-4699508D01*
X3770325Y-4700778D01*
X3774643Y-4701540D01*
X3779012Y-4701794D01*
X3783533Y-4701540D01*
X3787952Y-4700778D01*
X3792321Y-4699508D01*
X3796537Y-4697628D01*
X3800601Y-4695190D01*
X3804462Y-4692142D01*
X3808120Y-4688484D01*
X3811574Y-4684166D01*
X3814673Y-4679188D01*
X3817518Y-4673498D01*
X3819956Y-4667046D01*
X3822039Y-4659884D01*
X3823715Y-4651959D01*
X3824986Y-4643221D01*
X3825748Y-4633671D01*
X3826001Y-4623308D01*
X3825748Y-4613300D01*
X3824986Y-4604054D01*
X3823715Y-4595622D01*
X3822039Y-4587951D01*
X3819956Y-4580991D01*
X3817518Y-4574743D01*
X3814673Y-4569206D01*
X3811574Y-4564329D01*
X3808120Y-4560112D01*
X3804462Y-4556556D01*
X3800601Y-4553559D01*
X3796537Y-4551172D01*
X3792321Y-4549394D01*
X3787952Y-4548124D01*
X3783533Y-4547362D01*
G37*
G36*
X3444494Y-4547108D02*
G01*
X3440125Y-4547362D01*
X3435807Y-4548124D01*
X3431540Y-4549394D01*
X3427374Y-4551172D01*
X3423361Y-4553559D01*
X3419500Y-4556556D01*
X3415893Y-4560112D01*
X3412490Y-4564329D01*
X3409391Y-4569206D01*
X3406546Y-4574743D01*
X3404108Y-4580991D01*
X3401974Y-4587951D01*
X3400298Y-4595622D01*
X3399028Y-4604054D01*
X3398265Y-4613300D01*
X3398012Y-4623308D01*
X3418078Y-4623308D01*
X3418332Y-4610760D01*
X3419094Y-4599787D01*
X3420262Y-4590288D01*
X3421887Y-4582160D01*
X3423869Y-4575302D01*
X3426155Y-4569663D01*
X3428746Y-4565091D01*
X3431540Y-4561586D01*
X3434587Y-4558995D01*
X3437788Y-4557268D01*
X3441090Y-4556302D01*
X3444494Y-4555998D01*
X3447999Y-4556302D01*
X3451453Y-4557268D01*
X3454755Y-4558995D01*
X3457854Y-4561586D01*
X3460750Y-4565091D01*
X3463442Y-4569663D01*
X3465779Y-4575302D01*
X3467811Y-4582160D01*
X3469436Y-4590288D01*
X3470656Y-4599787D01*
X3471418Y-4610760D01*
X3471672Y-4623308D01*
X3471519Y-4633264D01*
X3471062Y-4642307D01*
X3470401Y-4650435D01*
X3469436Y-4657750D01*
X3468217Y-4664202D01*
X3466846Y-4669942D01*
X3465220Y-4674920D01*
X3463391Y-4679238D01*
X3461461Y-4682845D01*
X3459327Y-4685893D01*
X3457092Y-4688332D01*
X3454755Y-4690262D01*
X3452266Y-4691684D01*
X3449726Y-4692700D01*
X3447135Y-4693259D01*
X3444494Y-4693412D01*
X3441090Y-4693107D01*
X3437788Y-4692040D01*
X3434587Y-4690262D01*
X3431540Y-4687519D01*
X3428746Y-4683861D01*
X3426155Y-4679137D01*
X3423869Y-4673244D01*
X3421887Y-4666081D01*
X3420262Y-4657598D01*
X3419094Y-4647742D01*
X3418332Y-4636312D01*
X3418078Y-4623308D01*
X3398012Y-4623308D01*
X3398265Y-4633671D01*
X3399028Y-4643221D01*
X3400298Y-4651959D01*
X3401974Y-4659884D01*
X3404108Y-4667046D01*
X3406546Y-4673498D01*
X3409391Y-4679188D01*
X3412490Y-4684166D01*
X3415893Y-4688484D01*
X3419500Y-4692142D01*
X3423361Y-4695190D01*
X3427374Y-4697628D01*
X3431540Y-4699508D01*
X3435807Y-4700778D01*
X3440125Y-4701540D01*
X3444494Y-4701794D01*
X3448964Y-4701540D01*
X3453384Y-4700778D01*
X3457701Y-4699508D01*
X3461918Y-4697628D01*
X3465982Y-4695190D01*
X3469843Y-4692142D01*
X3473500Y-4688484D01*
X3476955Y-4684166D01*
X3480104Y-4679188D01*
X3482898Y-4673498D01*
X3485387Y-4667046D01*
X3487521Y-4659884D01*
X3489198Y-4651959D01*
X3490468Y-4643221D01*
X3491229Y-4633671D01*
X3491484Y-4623308D01*
X3491229Y-4613300D01*
X3490468Y-4604054D01*
X3489198Y-4595622D01*
X3487521Y-4587951D01*
X3485387Y-4580991D01*
X3482898Y-4574743D01*
X3480104Y-4569206D01*
X3476955Y-4564329D01*
X3473500Y-4560112D01*
X3469843Y-4556556D01*
X3465982Y-4553559D01*
X3461918Y-4551172D01*
X3457701Y-4549394D01*
X3453384Y-4548124D01*
X3448964Y-4547362D01*
G37*
G36*
X3109722Y-4547108D02*
G01*
X3105353Y-4547362D01*
X3101035Y-4548124D01*
X3096768Y-4549394D01*
X3092653Y-4551172D01*
X3088640Y-4553559D01*
X3084830Y-4556556D01*
X3081223Y-4560112D01*
X3077870Y-4564329D01*
X3074771Y-4569206D01*
X3071977Y-4574743D01*
X3069488Y-4580991D01*
X3067405Y-4587951D01*
X3065780Y-4595622D01*
X3064510Y-4604054D01*
X3063748Y-4613300D01*
X3063494Y-4623308D01*
X3083306Y-4623308D01*
X3083560Y-4610760D01*
X3084322Y-4599787D01*
X3085541Y-4590288D01*
X3087166Y-4582160D01*
X3089148Y-4575302D01*
X3091484Y-4569663D01*
X3094075Y-4565091D01*
X3096869Y-4561586D01*
X3099917Y-4558995D01*
X3103067Y-4557268D01*
X3106369Y-4556302D01*
X3109722Y-4555998D01*
X3113227Y-4556302D01*
X3116681Y-4557268D01*
X3119983Y-4558995D01*
X3123082Y-4561586D01*
X3125978Y-4565091D01*
X3128670Y-4569663D01*
X3131007Y-4575302D01*
X3133039Y-4582160D01*
X3134664Y-4590288D01*
X3135884Y-4599787D01*
X3136646Y-4610760D01*
X3136900Y-4623308D01*
X3136747Y-4633264D01*
X3136290Y-4642307D01*
X3135630Y-4650435D01*
X3134664Y-4657750D01*
X3133445Y-4664202D01*
X3132074Y-4669942D01*
X3130448Y-4674920D01*
X3128670Y-4679238D01*
X3126689Y-4682845D01*
X3124555Y-4685893D01*
X3122320Y-4688332D01*
X3119983Y-4690262D01*
X3117494Y-4691684D01*
X3114954Y-4692700D01*
X3112363Y-4693259D01*
X3109722Y-4693412D01*
X3106369Y-4693107D01*
X3103067Y-4692040D01*
X3099917Y-4690262D01*
X3096869Y-4687519D01*
X3094075Y-4683861D01*
X3091484Y-4679137D01*
X3089148Y-4673244D01*
X3087166Y-4666081D01*
X3085541Y-4657598D01*
X3084322Y-4647742D01*
X3083560Y-4636312D01*
X3083306Y-4623308D01*
X3063494Y-4623308D01*
X3063748Y-4633671D01*
X3064510Y-4643221D01*
X3065780Y-4651959D01*
X3067405Y-4659884D01*
X3069488Y-4667046D01*
X3071977Y-4673498D01*
X3074771Y-4679188D01*
X3077819Y-4684166D01*
X3081223Y-4688484D01*
X3084830Y-4692142D01*
X3088640Y-4695190D01*
X3092653Y-4697628D01*
X3096768Y-4699508D01*
X3101035Y-4700778D01*
X3105353Y-4701540D01*
X3109722Y-4701794D01*
X3114243Y-4701540D01*
X3118662Y-4700778D01*
X3123031Y-4699508D01*
X3127248Y-4697628D01*
X3131312Y-4695190D01*
X3135172Y-4692142D01*
X3138830Y-4688484D01*
X3142284Y-4684166D01*
X3145383Y-4679188D01*
X3148228Y-4673498D01*
X3150666Y-4667046D01*
X3152749Y-4659884D01*
X3154426Y-4651959D01*
X3155696Y-4643221D01*
X3156458Y-4633671D01*
X3156712Y-4623308D01*
X3156458Y-4613300D01*
X3155696Y-4604054D01*
X3154426Y-4595622D01*
X3152749Y-4587951D01*
X3150666Y-4580991D01*
X3148228Y-4574743D01*
X3145383Y-4569206D01*
X3142284Y-4564329D01*
X3138830Y-4560112D01*
X3135172Y-4556556D01*
X3131312Y-4553559D01*
X3127248Y-4551172D01*
X3123031Y-4549394D01*
X3118662Y-4548124D01*
X3114243Y-4547362D01*
G37*
G36*
X3658870Y-4547870D02*
G01*
X3655822Y-4550156D01*
X3656584Y-4582160D01*
X3656533Y-4660950D01*
X3656076Y-4687570D01*
X3624834Y-4692142D01*
X3624834Y-4699000D01*
X3706876Y-4699000D01*
X3706876Y-4692142D01*
X3675379Y-4687570D01*
X3674872Y-4652010D01*
X3674872Y-4564634D01*
X3704590Y-4567428D01*
X3704590Y-4559808D01*
G37*
G36*
X3324098Y-4547870D02*
G01*
X3321050Y-4550156D01*
X3321812Y-4582160D01*
X3321761Y-4669891D01*
X3321558Y-4687570D01*
X3290315Y-4692142D01*
X3290315Y-4699000D01*
X3372358Y-4699000D01*
X3372358Y-4692142D01*
X3340608Y-4687570D01*
X3340100Y-4652010D01*
X3340100Y-4564634D01*
X3369818Y-4567428D01*
X3369818Y-4559808D01*
G37*
G36*
X3212592Y-4547870D02*
G01*
X3209544Y-4550156D01*
X3210306Y-4582160D01*
X3210052Y-4687570D01*
X3178556Y-4692142D01*
X3178556Y-4699000D01*
X3260852Y-4699000D01*
X3260852Y-4692142D01*
X3229102Y-4687570D01*
X3228594Y-4652010D01*
X3228594Y-4564634D01*
X3258312Y-4567428D01*
X3258312Y-4559808D01*
G37*
G36*
X3514090Y-4550156D02*
G01*
X3514090Y-4567428D01*
X3578351Y-4567428D01*
X3581146Y-4609592D01*
X3575659Y-4608118D01*
X3570122Y-4607102D01*
X3564483Y-4606493D01*
X3558540Y-4606290D01*
X3551580Y-4606645D01*
X3544976Y-4607712D01*
X3538829Y-4609388D01*
X3533190Y-4611827D01*
X3528060Y-4614824D01*
X3523538Y-4618532D01*
X3519576Y-4622800D01*
X3516223Y-4627676D01*
X3513582Y-4633163D01*
X3511651Y-4639259D01*
X3510432Y-4645863D01*
X3510026Y-4653026D01*
X3510279Y-4658410D01*
X3510991Y-4663490D01*
X3512108Y-4668367D01*
X3513734Y-4672990D01*
X3515766Y-4677257D01*
X3518204Y-4681270D01*
X3521049Y-4684979D01*
X3524250Y-4688382D01*
X3527856Y-4691380D01*
X3531768Y-4694072D01*
X3536086Y-4696358D01*
X3540658Y-4698288D01*
X3545586Y-4699812D01*
X3550818Y-4700879D01*
X3556304Y-4701590D01*
X3562096Y-4701794D01*
X3570173Y-4701286D01*
X3577488Y-4699863D01*
X3583990Y-4697425D01*
X3589629Y-4694021D01*
X3594455Y-4689703D01*
X3598367Y-4684420D01*
X3601415Y-4678222D01*
X3603498Y-4671060D01*
X3601821Y-4667910D01*
X3599434Y-4665675D01*
X3596487Y-4664405D01*
X3593084Y-4663948D01*
X3588765Y-4664608D01*
X3585565Y-4666843D01*
X3583025Y-4671110D01*
X3580892Y-4677918D01*
X3577336Y-4691380D01*
X3570427Y-4692853D01*
X3566922Y-4693259D01*
X3563365Y-4693412D01*
X3558133Y-4693107D01*
X3553256Y-4692192D01*
X3548887Y-4690668D01*
X3544874Y-4688586D01*
X3541369Y-4685995D01*
X3538270Y-4682845D01*
X3535679Y-4679289D01*
X3533495Y-4675174D01*
X3531768Y-4670704D01*
X3530549Y-4665776D01*
X3529837Y-4660493D01*
X3529584Y-4654804D01*
X3529888Y-4649165D01*
X3530701Y-4643983D01*
X3532073Y-4639208D01*
X3533952Y-4634941D01*
X3536289Y-4631131D01*
X3539134Y-4627778D01*
X3542385Y-4624882D01*
X3546043Y-4622495D01*
X3550158Y-4620666D01*
X3554628Y-4619294D01*
X3559454Y-4618482D01*
X3564636Y-4618228D01*
X3569868Y-4618431D01*
X3575202Y-4618990D01*
X3580587Y-4619955D01*
X3585972Y-4621276D01*
X3591560Y-4619498D01*
X3586987Y-4550156D01*
G37*
G36*
X4970526Y-4567174D02*
G01*
X4947158Y-4569460D01*
X4947716Y-4571390D01*
X4948986Y-4572965D01*
X4951069Y-4574133D01*
X4954016Y-4574794D01*
X4954524Y-4601464D01*
X4891786Y-4601464D01*
X4881626Y-4588764D01*
X4868875Y-4598924D01*
X4863084Y-4604004D01*
X4863592Y-4605477D01*
X4864658Y-4606493D01*
X4866233Y-4607102D01*
X4868164Y-4607306D01*
X4922012Y-4607306D01*
X4922012Y-4657344D01*
X4914239Y-4647895D01*
X4906924Y-4637836D01*
X4900066Y-4627016D01*
X4893564Y-4615434D01*
X4873498Y-4625848D01*
X4874615Y-4627219D01*
X4876241Y-4627981D01*
X4878628Y-4628184D01*
X4881880Y-4627880D01*
X4886350Y-4634534D01*
X4890922Y-4640884D01*
X4895697Y-4647031D01*
X4905705Y-4658563D01*
X4910937Y-4663948D01*
X4916373Y-4669129D01*
X4922012Y-4674108D01*
X4922012Y-4688586D01*
X4921758Y-4690922D01*
X4920640Y-4692446D01*
X4918151Y-4693208D01*
X4913884Y-4693412D01*
X4886756Y-4693361D01*
X4880356Y-4693158D01*
X4877917Y-4692751D01*
X4876038Y-4691380D01*
X4874666Y-4688992D01*
X4873193Y-4685131D01*
X4870196Y-4674870D01*
X4867656Y-4674870D01*
X4866894Y-4691634D01*
X4863846Y-4693005D01*
X4861915Y-4694580D01*
X4860848Y-4696409D01*
X4860544Y-4698492D01*
X4860899Y-4700981D01*
X4862068Y-4703064D01*
X4864252Y-4704740D01*
X4867706Y-4706112D01*
X4872583Y-4707128D01*
X4879086Y-4707839D01*
X4887468Y-4708245D01*
X4917440Y-4708398D01*
X4927549Y-4707636D01*
X4933645Y-4705045D01*
X4936693Y-4700270D01*
X4937506Y-4692904D01*
X4937506Y-4685538D01*
X4948224Y-4692396D01*
X4959400Y-4698644D01*
X4970983Y-4704232D01*
X4982972Y-4709414D01*
X4985004Y-4706112D01*
X4972304Y-4698898D01*
X4960112Y-4691024D01*
X4948478Y-4682439D01*
X4937506Y-4673092D01*
X4937506Y-4607306D01*
X4955032Y-4607306D01*
X4955794Y-4618736D01*
X4956962Y-4629708D01*
X4958689Y-4640326D01*
X4961178Y-4650486D01*
X4962702Y-4655413D01*
X4964480Y-4660239D01*
X4966512Y-4664964D01*
X4968798Y-4669536D01*
X4971338Y-4674006D01*
X4974183Y-4678375D01*
X4977384Y-4682642D01*
X4980889Y-4686808D01*
X4984750Y-4690821D01*
X4989017Y-4694732D01*
X4993640Y-4698542D01*
X4998618Y-4702251D01*
X5004104Y-4705807D01*
X5009946Y-4709210D01*
X5016296Y-4712563D01*
X5023104Y-4715764D01*
X5025644Y-4712716D01*
X5019192Y-4708702D01*
X5013299Y-4704537D01*
X5007864Y-4700270D01*
X5002936Y-4695850D01*
X4998466Y-4691329D01*
X4994402Y-4686655D01*
X4990795Y-4681880D01*
X4987544Y-4676952D01*
X4984648Y-4671872D01*
X4982108Y-4666691D01*
X4979924Y-4661357D01*
X4977993Y-4655870D01*
X4974945Y-4644593D01*
X4972862Y-4632706D01*
X4971542Y-4620260D01*
X4970780Y-4607306D01*
X5005324Y-4607306D01*
X5006848Y-4601464D01*
X4970780Y-4601464D01*
G37*
G36*
X4934204Y-4569460D02*
G01*
X4926076Y-4570476D01*
X4919116Y-4572000D01*
X4913274Y-4574032D01*
X4908499Y-4576368D01*
X4904740Y-4578959D01*
X4901895Y-4581702D01*
X4899914Y-4584496D01*
X4898745Y-4587290D01*
X4898288Y-4589932D01*
X4898542Y-4592320D01*
X4899355Y-4594453D01*
X4900726Y-4596130D01*
X4902606Y-4597349D01*
X4904841Y-4597908D01*
X4907432Y-4597806D01*
X4910328Y-4596892D01*
X4915001Y-4590084D01*
X4921554Y-4583023D01*
X4928870Y-4576521D01*
X4935982Y-4571238D01*
G37*
M02*
