G04 Layer: BottomLayer*
G04 EasyEDA v6.5.39, 2024-06-02 20:32:35*
G04 ef2d4929fbef40f6970fe1db0f733495,10*
G04 Gerber Generator version 0.2*
G04 Scale: 100 percent, Rotated: No, Reflected: No *
G04 Dimensions in millimeters *
G04 leading zeros omitted , absolute positions ,4 integer and 5 decimal *
%FSLAX45Y45*%
%MOMM*%

%ADD10C,0.4000*%
%ADD11C,0.8000*%
%ADD12C,1.5600*%
%ADD13C,1.6000*%
%ADD14O,1.524X2.5239979999999997*%
%ADD15C,1.4000*%
%ADD16R,1.4000X1.4000*%
%ADD17R,1.6000X1.6000*%
%ADD18C,1.5240*%
%ADD19O,1.5999968X1.9999959999999999*%
%ADD20O,1.499997X1.9999959999999999*%
%ADD21R,1.5000X2.0000*%
%ADD22C,2.0000*%
%ADD23R,1.6500X1.6500*%
%ADD24C,1.6500*%
%ADD25C,0.7000*%
%ADD26C,0.0183*%

%LPD*%
G36*
X36068Y-7848092D02*
G01*
X32156Y-7847330D01*
X28905Y-7845094D01*
X26670Y-7841843D01*
X25908Y-7837931D01*
X25908Y-544068D01*
X26670Y-540156D01*
X28905Y-536905D01*
X32156Y-534670D01*
X36068Y-533908D01*
X8599932Y-533908D01*
X8603843Y-534670D01*
X8607094Y-536905D01*
X8609330Y-540156D01*
X8610092Y-544068D01*
X8610092Y-5158740D01*
X8609330Y-5162651D01*
X8607094Y-5165902D01*
X8603843Y-5168138D01*
X8599932Y-5168900D01*
X8505291Y-5168900D01*
X8501888Y-5168341D01*
X8498890Y-5166664D01*
X8496655Y-5164074D01*
X8495385Y-5160873D01*
X8494268Y-5155793D01*
X8492947Y-5151628D01*
X8491270Y-5147564D01*
X8489238Y-5143652D01*
X8486851Y-5139944D01*
X8484158Y-5136438D01*
X8481060Y-5133035D01*
X8086090Y-4738065D01*
X8082635Y-4734915D01*
X8079181Y-4732223D01*
X8075472Y-4729886D01*
X8071561Y-4727854D01*
X8067446Y-4726127D01*
X8063280Y-4724806D01*
X8058962Y-4723892D01*
X8054594Y-4723282D01*
X8049971Y-4723079D01*
X7471156Y-4723079D01*
X7468057Y-4722622D01*
X7465212Y-4721199D01*
X7462977Y-4718964D01*
X7455458Y-4708702D01*
X7446111Y-4699050D01*
X7437475Y-4692243D01*
X7434783Y-4689043D01*
X7433614Y-4685080D01*
X7434173Y-4680915D01*
X7436307Y-4677359D01*
X7439659Y-4674971D01*
X7443724Y-4674108D01*
X7448194Y-4674108D01*
X7454646Y-4673498D01*
X7460335Y-4671720D01*
X7465618Y-4668926D01*
X7470241Y-4665116D01*
X7474000Y-4660544D01*
X7476845Y-4655261D01*
X7478572Y-4649520D01*
X7479233Y-4643120D01*
X7479233Y-4504080D01*
X7478572Y-4497679D01*
X7476845Y-4491939D01*
X7474000Y-4486656D01*
X7470241Y-4482084D01*
X7465618Y-4478274D01*
X7460335Y-4475480D01*
X7454646Y-4473702D01*
X7448194Y-4473092D01*
X7309205Y-4473092D01*
X7302753Y-4473702D01*
X7297064Y-4475480D01*
X7291781Y-4478274D01*
X7287158Y-4482084D01*
X7283399Y-4486656D01*
X7280554Y-4491939D01*
X7278827Y-4497679D01*
X7278217Y-4504080D01*
X7278217Y-4643120D01*
X7278827Y-4649520D01*
X7280554Y-4655261D01*
X7283399Y-4660544D01*
X7287158Y-4665116D01*
X7291781Y-4668926D01*
X7297064Y-4671720D01*
X7302753Y-4673498D01*
X7309205Y-4674108D01*
X7313675Y-4674108D01*
X7317740Y-4674971D01*
X7321092Y-4677359D01*
X7323226Y-4680915D01*
X7323785Y-4685080D01*
X7322616Y-4689043D01*
X7319924Y-4692243D01*
X7311288Y-4699050D01*
X7301941Y-4708702D01*
X7294016Y-4719523D01*
X7287564Y-4731308D01*
X7282738Y-4743805D01*
X7279640Y-4756861D01*
X7278268Y-4770221D01*
X7278725Y-4783632D01*
X7280960Y-4796891D01*
X7284923Y-4809693D01*
X7290562Y-4821885D01*
X7297826Y-4833213D01*
X7306462Y-4843475D01*
X7316419Y-4852466D01*
X7327493Y-4860036D01*
X7339482Y-4866132D01*
X7352131Y-4870500D01*
X7365288Y-4873193D01*
X7378700Y-4874107D01*
X7392111Y-4873193D01*
X7405268Y-4870500D01*
X7417917Y-4866132D01*
X7429906Y-4860036D01*
X7440980Y-4852466D01*
X7450937Y-4843475D01*
X7459573Y-4833213D01*
X7462418Y-4828794D01*
X7464653Y-4826304D01*
X7467650Y-4824679D01*
X7470952Y-4824120D01*
X8025079Y-4824120D01*
X8028940Y-4824882D01*
X8032242Y-4827066D01*
X8356701Y-5151577D01*
X8358936Y-5154828D01*
X8359698Y-5158740D01*
X8358936Y-5162651D01*
X8356701Y-5165902D01*
X8353450Y-5168138D01*
X8349538Y-5168900D01*
X7192111Y-5168900D01*
X7188250Y-5168138D01*
X7184948Y-5165902D01*
X7182713Y-5162651D01*
X7181951Y-5158740D01*
X7181951Y-4894884D01*
X7181748Y-4890262D01*
X7181189Y-4885893D01*
X7180224Y-4881575D01*
X7178903Y-4877409D01*
X7177227Y-4873294D01*
X7175195Y-4869383D01*
X7172807Y-4865674D01*
X7170115Y-4862220D01*
X7167016Y-4858766D01*
X7111441Y-4803190D01*
X7109510Y-4800600D01*
X7108545Y-4797501D01*
X7108596Y-4794300D01*
X7110374Y-4783632D01*
X7110831Y-4770221D01*
X7109510Y-4756861D01*
X7106361Y-4743805D01*
X7101535Y-4731308D01*
X7095083Y-4719523D01*
X7087158Y-4708702D01*
X7077811Y-4699050D01*
X7069175Y-4692243D01*
X7066483Y-4689043D01*
X7065314Y-4685080D01*
X7065873Y-4680915D01*
X7068007Y-4677359D01*
X7071359Y-4674971D01*
X7075424Y-4674108D01*
X7079894Y-4674108D01*
X7086346Y-4673498D01*
X7092035Y-4671720D01*
X7097318Y-4668926D01*
X7101941Y-4665116D01*
X7105700Y-4660544D01*
X7108545Y-4655261D01*
X7110272Y-4649520D01*
X7110933Y-4643120D01*
X7110933Y-4504080D01*
X7110272Y-4497679D01*
X7108545Y-4491939D01*
X7105700Y-4486656D01*
X7101941Y-4482084D01*
X7097318Y-4478274D01*
X7092035Y-4475480D01*
X7086346Y-4473702D01*
X7079894Y-4473092D01*
X6940905Y-4473092D01*
X6934453Y-4473702D01*
X6928764Y-4475480D01*
X6923481Y-4478274D01*
X6918858Y-4482084D01*
X6915099Y-4486656D01*
X6912254Y-4491939D01*
X6910527Y-4497679D01*
X6909917Y-4504080D01*
X6909917Y-4643120D01*
X6910527Y-4649520D01*
X6912254Y-4655261D01*
X6915099Y-4660544D01*
X6918858Y-4665116D01*
X6923481Y-4668926D01*
X6928764Y-4671720D01*
X6934453Y-4673498D01*
X6940905Y-4674108D01*
X6945375Y-4674108D01*
X6949440Y-4674971D01*
X6952792Y-4677359D01*
X6954926Y-4680915D01*
X6955485Y-4685080D01*
X6954316Y-4689043D01*
X6951624Y-4692243D01*
X6942988Y-4699050D01*
X6933641Y-4708702D01*
X6925716Y-4719523D01*
X6919264Y-4731308D01*
X6914438Y-4743805D01*
X6911340Y-4756861D01*
X6909968Y-4770221D01*
X6910425Y-4783632D01*
X6912660Y-4796891D01*
X6916623Y-4809693D01*
X6922262Y-4821885D01*
X6929526Y-4833213D01*
X6938162Y-4843475D01*
X6948119Y-4852466D01*
X6959193Y-4860036D01*
X6971182Y-4866132D01*
X6983831Y-4870500D01*
X6996988Y-4873193D01*
X7010400Y-4874107D01*
X7023811Y-4873193D01*
X7030720Y-4871770D01*
X7034022Y-4871669D01*
X7037222Y-4872634D01*
X7039914Y-4874564D01*
X7077964Y-4912614D01*
X7080199Y-4915916D01*
X7080961Y-4919776D01*
X7080961Y-5158740D01*
X7080199Y-5162651D01*
X7077964Y-5165902D01*
X7074662Y-5168138D01*
X7070801Y-5168900D01*
X6260287Y-5168900D01*
X6256375Y-5168138D01*
X6253073Y-5165902D01*
X6250889Y-5162651D01*
X6250127Y-5158740D01*
X6250127Y-5030114D01*
X6250889Y-5026202D01*
X6253073Y-5022900D01*
X7382002Y-3893972D01*
X7385507Y-3891686D01*
X7389672Y-3891026D01*
X7394346Y-3892346D01*
X7407402Y-3896817D01*
X7420914Y-3899509D01*
X7434681Y-3900373D01*
X7448448Y-3899509D01*
X7462012Y-3896817D01*
X7475067Y-3892346D01*
X7487462Y-3886250D01*
X7498892Y-3878579D01*
X7509306Y-3869486D01*
X7518400Y-3859123D01*
X7526070Y-3847642D01*
X7532166Y-3835298D01*
X7536586Y-3822192D01*
X7539278Y-3808679D01*
X7540193Y-3794556D01*
X7540193Y-3745229D01*
X7539278Y-3731158D01*
X7536586Y-3717594D01*
X7532166Y-3704539D01*
X7526070Y-3692144D01*
X7518400Y-3680714D01*
X7509306Y-3670300D01*
X7498892Y-3661206D01*
X7487462Y-3653536D01*
X7475067Y-3647440D01*
X7462012Y-3643020D01*
X7448448Y-3640328D01*
X7434681Y-3639413D01*
X7420914Y-3640328D01*
X7407402Y-3643020D01*
X7394346Y-3647440D01*
X7381951Y-3653536D01*
X7370470Y-3661206D01*
X7360107Y-3670300D01*
X7351014Y-3680714D01*
X7343343Y-3692144D01*
X7337247Y-3704539D01*
X7332827Y-3717594D01*
X7330135Y-3731158D01*
X7329170Y-3745229D01*
X7329170Y-3794556D01*
X7329474Y-3798773D01*
X7328814Y-3803040D01*
X7326528Y-3806647D01*
X7298842Y-3834333D01*
X7295032Y-3836720D01*
X7290562Y-3837228D01*
X7286294Y-3835755D01*
X7283094Y-3832606D01*
X7281570Y-3828338D01*
X7282027Y-3823868D01*
X7282586Y-3822192D01*
X7285278Y-3808679D01*
X7286193Y-3794556D01*
X7286193Y-3745229D01*
X7285278Y-3731158D01*
X7282586Y-3717594D01*
X7278166Y-3704539D01*
X7272070Y-3692144D01*
X7264400Y-3680714D01*
X7255306Y-3670300D01*
X7244892Y-3661206D01*
X7233462Y-3653536D01*
X7221067Y-3647440D01*
X7208012Y-3643020D01*
X7194448Y-3640328D01*
X7180681Y-3639413D01*
X7166914Y-3640328D01*
X7153402Y-3643020D01*
X7140346Y-3647440D01*
X7127951Y-3653536D01*
X7116470Y-3661206D01*
X7106107Y-3670300D01*
X7097014Y-3680714D01*
X7089343Y-3692144D01*
X7083247Y-3704539D01*
X7078827Y-3717594D01*
X7076135Y-3731158D01*
X7075170Y-3745229D01*
X7075170Y-3794556D01*
X7075474Y-3798773D01*
X7074814Y-3803040D01*
X7072528Y-3806647D01*
X7044842Y-3834333D01*
X7041032Y-3836720D01*
X7036562Y-3837228D01*
X7032294Y-3835755D01*
X7029094Y-3832606D01*
X7027570Y-3828338D01*
X7028027Y-3823868D01*
X7028586Y-3822192D01*
X7031278Y-3808679D01*
X7032193Y-3794556D01*
X7032193Y-3745229D01*
X7031278Y-3731158D01*
X7028586Y-3717594D01*
X7024166Y-3704539D01*
X7018070Y-3692144D01*
X7010400Y-3680714D01*
X7001306Y-3670300D01*
X6990892Y-3661206D01*
X6979462Y-3653536D01*
X6967067Y-3647440D01*
X6954012Y-3643020D01*
X6940448Y-3640328D01*
X6926681Y-3639413D01*
X6912914Y-3640328D01*
X6899402Y-3643020D01*
X6886346Y-3647440D01*
X6873951Y-3653536D01*
X6862470Y-3661206D01*
X6852107Y-3670300D01*
X6843014Y-3680714D01*
X6835343Y-3692144D01*
X6829247Y-3704539D01*
X6824827Y-3717594D01*
X6822135Y-3731158D01*
X6821170Y-3745229D01*
X6821170Y-3794556D01*
X6822135Y-3808679D01*
X6824827Y-3822192D01*
X6829247Y-3835298D01*
X6835343Y-3847642D01*
X6843014Y-3859123D01*
X6852107Y-3869486D01*
X6862470Y-3878579D01*
X6873951Y-3886250D01*
X6886346Y-3892346D01*
X6899402Y-3896817D01*
X6912914Y-3899509D01*
X6926681Y-3900373D01*
X6940448Y-3899509D01*
X6954012Y-3896817D01*
X6955637Y-3896258D01*
X6960158Y-3895750D01*
X6964375Y-3897274D01*
X6967575Y-3900474D01*
X6968998Y-3904742D01*
X6968490Y-3909212D01*
X6966102Y-3913022D01*
X6201613Y-4677562D01*
X6198565Y-4679645D01*
X6195009Y-4680508D01*
X6191351Y-4680051D01*
X6188100Y-4678324D01*
X6184747Y-4673955D01*
X6184188Y-4674311D01*
X6175197Y-4683302D01*
X6171895Y-4685538D01*
X6167983Y-4686300D01*
X4955336Y-4686300D01*
X4951476Y-4685538D01*
X4948174Y-4683302D01*
X4945938Y-4680051D01*
X4945176Y-4676140D01*
X4945176Y-3893210D01*
X4945735Y-3889908D01*
X4947310Y-3887012D01*
X4949698Y-3884726D01*
X4958892Y-3878579D01*
X4969306Y-3869486D01*
X4978400Y-3859123D01*
X4986070Y-3847642D01*
X4992166Y-3835298D01*
X4996586Y-3822192D01*
X4999278Y-3808679D01*
X5000193Y-3794556D01*
X5000193Y-3745229D01*
X4999278Y-3731158D01*
X4996586Y-3717594D01*
X4992166Y-3704539D01*
X4986070Y-3692144D01*
X4978400Y-3680714D01*
X4969306Y-3670300D01*
X4958892Y-3661206D01*
X4947462Y-3653536D01*
X4935067Y-3647440D01*
X4922012Y-3643020D01*
X4908448Y-3640328D01*
X4894681Y-3639413D01*
X4880914Y-3640328D01*
X4867402Y-3643020D01*
X4854346Y-3647440D01*
X4841951Y-3653536D01*
X4830470Y-3661206D01*
X4820107Y-3670300D01*
X4811014Y-3680714D01*
X4803343Y-3692144D01*
X4797247Y-3704539D01*
X4792827Y-3717594D01*
X4790135Y-3731158D01*
X4789170Y-3745229D01*
X4789170Y-3794556D01*
X4790135Y-3808679D01*
X4792827Y-3822192D01*
X4797247Y-3835298D01*
X4803343Y-3847642D01*
X4811014Y-3859123D01*
X4820107Y-3869486D01*
X4830470Y-3878579D01*
X4839665Y-3884726D01*
X4842052Y-3887012D01*
X4843627Y-3889908D01*
X4844186Y-3893159D01*
X4844186Y-5863945D01*
X4844389Y-5868568D01*
X4844948Y-5872937D01*
X4845913Y-5877255D01*
X4847234Y-5881420D01*
X4848910Y-5885535D01*
X4850942Y-5889447D01*
X4853330Y-5893155D01*
X4856022Y-5896610D01*
X4859121Y-5900064D01*
X5423611Y-6464554D01*
X5425643Y-6467449D01*
X5426557Y-6470802D01*
X5426252Y-6474307D01*
X5424424Y-6481267D01*
X5422646Y-6495338D01*
X5422646Y-6509461D01*
X5424424Y-6523532D01*
X5428030Y-6537198D01*
X5433364Y-6550355D01*
X5440273Y-6562699D01*
X5448757Y-6574028D01*
X5458612Y-6584188D01*
X5469686Y-6593027D01*
X5481777Y-6600342D01*
X5494731Y-6606082D01*
X5508294Y-6610096D01*
X5522264Y-6612381D01*
X5536438Y-6612839D01*
X5550509Y-6611467D01*
X5564327Y-6608318D01*
X5577636Y-6603441D01*
X5590184Y-6596888D01*
X5601766Y-6588759D01*
X5612282Y-6579260D01*
X5621426Y-6568490D01*
X5629148Y-6556603D01*
X5635294Y-6543852D01*
X5639765Y-6530441D01*
X5642457Y-6516522D01*
X5643372Y-6502400D01*
X5642457Y-6488277D01*
X5639765Y-6474358D01*
X5635294Y-6460947D01*
X5629148Y-6448196D01*
X5621426Y-6436309D01*
X5612282Y-6425539D01*
X5601766Y-6416040D01*
X5590184Y-6407912D01*
X5577636Y-6401358D01*
X5564327Y-6396482D01*
X5550509Y-6393332D01*
X5536438Y-6391960D01*
X5522264Y-6392418D01*
X5508294Y-6394704D01*
X5505094Y-6395618D01*
X5501487Y-6396024D01*
X5497982Y-6395161D01*
X5495036Y-6393078D01*
X4948174Y-5846216D01*
X4945938Y-5842914D01*
X4945176Y-5839053D01*
X4945176Y-4703013D01*
X4945938Y-4699152D01*
X4948174Y-4695850D01*
X4951476Y-4693615D01*
X4955336Y-4692853D01*
X4959248Y-4693615D01*
X4962702Y-4696002D01*
X4964938Y-4699304D01*
X4965700Y-4703216D01*
X4965700Y-5180584D01*
X4966716Y-5181600D01*
X5471566Y-5181600D01*
X5475478Y-5182362D01*
X5478729Y-5184597D01*
X5583123Y-5288940D01*
X5586526Y-5292039D01*
X5590032Y-5294731D01*
X5593740Y-5297119D01*
X5597652Y-5299151D01*
X5601716Y-5300827D01*
X5605932Y-5302148D01*
X5610199Y-5303113D01*
X5614568Y-5303672D01*
X5619191Y-5303875D01*
X5626912Y-5303875D01*
X5630824Y-5304637D01*
X5634126Y-5306872D01*
X5636310Y-5310174D01*
X5637072Y-5314035D01*
X5637072Y-5496661D01*
X5636514Y-5500065D01*
X5634786Y-5503062D01*
X5632196Y-5505348D01*
X5624372Y-5510072D01*
X5613298Y-5518912D01*
X5603494Y-5529072D01*
X5595010Y-5540400D01*
X5588050Y-5552744D01*
X5582767Y-5565902D01*
X5579160Y-5579567D01*
X5577332Y-5593638D01*
X5577332Y-5607761D01*
X5579160Y-5621832D01*
X5582767Y-5635498D01*
X5588050Y-5648655D01*
X5595010Y-5660999D01*
X5603494Y-5672328D01*
X5613298Y-5682488D01*
X5624372Y-5691327D01*
X5636514Y-5698642D01*
X5649468Y-5704382D01*
X5663031Y-5708396D01*
X5677001Y-5710682D01*
X5691124Y-5711139D01*
X5705246Y-5709767D01*
X5719013Y-5706618D01*
X5732322Y-5701741D01*
X5744870Y-5695188D01*
X5756503Y-5687060D01*
X5766968Y-5677560D01*
X5776163Y-5666790D01*
X5783884Y-5654903D01*
X5790031Y-5642152D01*
X5794451Y-5628741D01*
X5797194Y-5614822D01*
X5798108Y-5600700D01*
X5797194Y-5586577D01*
X5794451Y-5572658D01*
X5790031Y-5559247D01*
X5783884Y-5546496D01*
X5776163Y-5534609D01*
X5766968Y-5523839D01*
X5756503Y-5514340D01*
X5740654Y-5503265D01*
X5738774Y-5500116D01*
X5738114Y-5496509D01*
X5738114Y-5288127D01*
X5738876Y-5284216D01*
X5741060Y-5280914D01*
X5837428Y-5184597D01*
X5840730Y-5182362D01*
X5844590Y-5181600D01*
X6138926Y-5181600D01*
X6142837Y-5182362D01*
X6146139Y-5184597D01*
X6148324Y-5187848D01*
X6149086Y-5191760D01*
X6149086Y-5496509D01*
X6148425Y-5500116D01*
X6146546Y-5503265D01*
X6130696Y-5514340D01*
X6120231Y-5523839D01*
X6111036Y-5534609D01*
X6103315Y-5546496D01*
X6097168Y-5559247D01*
X6092748Y-5572658D01*
X6090005Y-5586577D01*
X6089091Y-5600700D01*
X6090005Y-5614822D01*
X6092748Y-5628741D01*
X6097168Y-5642152D01*
X6103315Y-5654903D01*
X6111036Y-5666790D01*
X6120231Y-5677560D01*
X6130696Y-5687060D01*
X6142329Y-5695188D01*
X6154877Y-5701741D01*
X6168186Y-5706618D01*
X6181953Y-5709767D01*
X6196076Y-5711139D01*
X6210198Y-5710682D01*
X6224168Y-5708396D01*
X6237782Y-5704382D01*
X6250686Y-5698642D01*
X6262827Y-5691327D01*
X6273901Y-5682488D01*
X6283706Y-5672328D01*
X6292189Y-5660999D01*
X6299149Y-5648655D01*
X6304432Y-5635498D01*
X6308039Y-5621832D01*
X6309868Y-5607761D01*
X6309868Y-5593638D01*
X6308039Y-5579567D01*
X6304432Y-5565902D01*
X6299149Y-5552744D01*
X6292189Y-5540400D01*
X6283706Y-5529072D01*
X6273901Y-5518912D01*
X6262827Y-5510072D01*
X6255004Y-5505348D01*
X6252413Y-5503062D01*
X6250686Y-5500065D01*
X6250127Y-5496661D01*
X6250127Y-5191760D01*
X6250889Y-5187848D01*
X6253073Y-5184597D01*
X6256375Y-5182362D01*
X6260287Y-5181600D01*
X7070801Y-5181600D01*
X7074662Y-5182362D01*
X7077964Y-5184597D01*
X7080199Y-5187848D01*
X7080961Y-5191760D01*
X7080961Y-5971184D01*
X7080148Y-5975197D01*
X7077811Y-5978550D01*
X7074306Y-5980734D01*
X7070293Y-5981344D01*
X7066330Y-5980328D01*
X7063079Y-5977839D01*
X7061098Y-5974232D01*
X7059879Y-5970320D01*
X7058152Y-5966256D01*
X7056120Y-5962345D01*
X7053783Y-5958636D01*
X7051090Y-5955131D01*
X7047941Y-5951728D01*
X6963105Y-5866841D01*
X6960920Y-5863640D01*
X6960108Y-5859932D01*
X6960768Y-5856122D01*
X6962597Y-5851093D01*
X6966254Y-5836056D01*
X6968083Y-5820714D01*
X6968083Y-5805271D01*
X6966254Y-5789930D01*
X6962597Y-5774893D01*
X6957212Y-5760415D01*
X6950151Y-5746648D01*
X6941515Y-5733796D01*
X6931456Y-5722112D01*
X6920026Y-5711647D01*
X6907479Y-5702655D01*
X6893915Y-5695188D01*
X6879590Y-5689396D01*
X6864705Y-5685282D01*
X6849414Y-5682996D01*
X6833920Y-5682538D01*
X6818528Y-5683910D01*
X6803390Y-5687110D01*
X6788759Y-5692089D01*
X6774789Y-5698744D01*
X6761734Y-5706973D01*
X6749745Y-5716727D01*
X6738975Y-5727801D01*
X6729577Y-5740095D01*
X6721703Y-5753404D01*
X6715506Y-5767578D01*
X6710984Y-5782360D01*
X6708241Y-5797550D01*
X6707327Y-5812993D01*
X6708241Y-5828436D01*
X6710984Y-5843625D01*
X6715506Y-5858408D01*
X6721703Y-5872581D01*
X6729577Y-5885891D01*
X6738975Y-5898184D01*
X6749745Y-5909259D01*
X6761734Y-5919012D01*
X6774789Y-5927293D01*
X6788759Y-5933897D01*
X6803390Y-5938875D01*
X6818528Y-5942076D01*
X6833920Y-5943447D01*
X6849414Y-5942990D01*
X6864705Y-5940704D01*
X6879590Y-5936589D01*
X6884619Y-5935421D01*
X6888480Y-5936183D01*
X6891781Y-5938367D01*
X6958939Y-6005525D01*
X6961124Y-6008827D01*
X6961886Y-6012738D01*
X6961886Y-6398361D01*
X6961327Y-6401765D01*
X6959600Y-6404762D01*
X6957009Y-6407048D01*
X6949186Y-6411772D01*
X6938111Y-6420612D01*
X6928256Y-6430772D01*
X6919823Y-6442100D01*
X6912864Y-6454444D01*
X6907530Y-6467602D01*
X6903974Y-6481267D01*
X6902145Y-6495338D01*
X6902145Y-6509461D01*
X6903974Y-6523532D01*
X6907530Y-6537198D01*
X6912864Y-6550355D01*
X6919823Y-6562699D01*
X6928256Y-6574028D01*
X6938111Y-6584188D01*
X6949186Y-6593027D01*
X6961276Y-6600342D01*
X6974230Y-6606082D01*
X6987794Y-6610096D01*
X7001814Y-6612381D01*
X7015937Y-6612839D01*
X7030008Y-6611467D01*
X7043826Y-6608318D01*
X7057136Y-6603441D01*
X7066076Y-6598767D01*
X7070090Y-6597650D01*
X7074153Y-6598158D01*
X7077709Y-6600342D01*
X7080097Y-6603695D01*
X7080961Y-6607759D01*
X7080961Y-6941820D01*
X7080199Y-6945680D01*
X7077964Y-6948982D01*
X6813803Y-7213142D01*
X6810705Y-7216597D01*
X6808012Y-7220051D01*
X6805625Y-7223759D01*
X6803593Y-7227671D01*
X6801916Y-7231786D01*
X6800596Y-7235952D01*
X6799630Y-7240270D01*
X6799072Y-7244638D01*
X6798868Y-7249261D01*
X6798868Y-7310881D01*
X6797954Y-7315047D01*
X6795414Y-7318451D01*
X6791706Y-7320584D01*
X6787438Y-7320940D01*
X6783425Y-7319568D01*
X6781850Y-7318603D01*
X6768896Y-7312863D01*
X6755333Y-7308850D01*
X6741363Y-7306564D01*
X6727190Y-7306106D01*
X6713118Y-7307478D01*
X6699300Y-7310628D01*
X6686042Y-7315504D01*
X6673494Y-7322058D01*
X6661861Y-7330186D01*
X6651396Y-7339685D01*
X6642201Y-7350455D01*
X6634480Y-7362342D01*
X6628333Y-7375093D01*
X6623862Y-7388504D01*
X6621170Y-7402423D01*
X6620256Y-7416546D01*
X6621170Y-7430668D01*
X6623862Y-7444587D01*
X6628333Y-7457998D01*
X6634480Y-7470749D01*
X6642201Y-7482636D01*
X6651396Y-7493406D01*
X6661861Y-7502906D01*
X6673494Y-7511034D01*
X6686042Y-7517587D01*
X6699300Y-7522464D01*
X6713118Y-7525613D01*
X6727190Y-7526985D01*
X6741363Y-7526528D01*
X6755333Y-7524242D01*
X6768896Y-7520228D01*
X6781850Y-7514488D01*
X6793941Y-7507173D01*
X6799173Y-7503007D01*
X6802526Y-7501229D01*
X6806285Y-7500823D01*
X6809943Y-7501839D01*
X6813803Y-7504988D01*
X6896303Y-7587488D01*
X6899706Y-7590586D01*
X6903212Y-7593279D01*
X6906920Y-7595666D01*
X6910831Y-7597698D01*
X6914896Y-7599375D01*
X6919112Y-7600696D01*
X6923379Y-7601661D01*
X6927748Y-7602220D01*
X6932371Y-7602423D01*
X7357160Y-7602423D01*
X7361783Y-7602220D01*
X7366152Y-7601661D01*
X7370419Y-7600696D01*
X7374636Y-7599375D01*
X7378700Y-7597698D01*
X7382611Y-7595666D01*
X7386320Y-7593279D01*
X7389825Y-7590586D01*
X7393228Y-7587488D01*
X7454849Y-7525867D01*
X7457643Y-7523886D01*
X7460894Y-7522972D01*
X7464298Y-7523124D01*
X7475118Y-7525613D01*
X7489190Y-7526985D01*
X7503363Y-7526528D01*
X7517333Y-7524242D01*
X7530896Y-7520228D01*
X7543850Y-7514488D01*
X7555941Y-7507173D01*
X7567015Y-7498334D01*
X7576870Y-7488174D01*
X7585354Y-7476845D01*
X7592314Y-7464501D01*
X7597597Y-7451344D01*
X7601203Y-7437678D01*
X7602981Y-7423607D01*
X7602981Y-7409484D01*
X7601203Y-7395413D01*
X7597597Y-7381748D01*
X7592314Y-7368590D01*
X7585354Y-7356246D01*
X7576870Y-7344918D01*
X7567015Y-7334758D01*
X7555941Y-7325918D01*
X7543850Y-7318603D01*
X7530896Y-7312863D01*
X7517333Y-7308850D01*
X7503363Y-7306564D01*
X7489190Y-7306106D01*
X7475118Y-7307478D01*
X7461300Y-7310628D01*
X7448042Y-7315504D01*
X7435494Y-7322058D01*
X7423861Y-7330186D01*
X7413396Y-7339685D01*
X7404201Y-7350455D01*
X7396480Y-7362342D01*
X7390333Y-7375093D01*
X7385862Y-7388504D01*
X7383170Y-7402423D01*
X7382256Y-7416546D01*
X7383170Y-7430668D01*
X7386066Y-7445451D01*
X7386167Y-7448753D01*
X7385202Y-7451902D01*
X7383272Y-7454595D01*
X7343394Y-7494473D01*
X7339787Y-7496809D01*
X7335520Y-7497419D01*
X7331354Y-7496200D01*
X7328103Y-7493355D01*
X7326274Y-7489444D01*
X7326274Y-7485125D01*
X7328052Y-7481214D01*
X7331354Y-7476845D01*
X7338314Y-7464501D01*
X7338923Y-7462875D01*
X7285075Y-7462875D01*
X7285075Y-7491272D01*
X7284313Y-7495133D01*
X7282129Y-7498435D01*
X7278827Y-7500670D01*
X7274915Y-7501432D01*
X7202576Y-7501432D01*
X7198664Y-7500670D01*
X7195362Y-7498435D01*
X7193178Y-7495133D01*
X7192416Y-7491272D01*
X7192416Y-7462875D01*
X7138670Y-7462875D01*
X7142480Y-7470749D01*
X7150201Y-7482636D01*
X7151928Y-7484668D01*
X7153808Y-7488021D01*
X7154367Y-7491780D01*
X7153452Y-7495540D01*
X7151217Y-7498638D01*
X7147966Y-7500721D01*
X7144207Y-7501432D01*
X7079234Y-7501432D01*
X7074916Y-7500416D01*
X7071359Y-7497673D01*
X7069378Y-7493711D01*
X7069277Y-7489240D01*
X7071106Y-7485176D01*
X7077354Y-7476845D01*
X7084314Y-7464501D01*
X7089597Y-7451344D01*
X7093203Y-7437678D01*
X7094981Y-7423607D01*
X7094981Y-7409484D01*
X7093203Y-7395413D01*
X7089597Y-7381748D01*
X7084314Y-7368590D01*
X7077354Y-7356246D01*
X7068870Y-7344918D01*
X7059015Y-7334758D01*
X7047941Y-7325918D01*
X7035850Y-7318603D01*
X7022896Y-7312863D01*
X7009333Y-7308850D01*
X6995363Y-7306564D01*
X6981190Y-7306106D01*
X6967118Y-7307478D01*
X6953300Y-7310628D01*
X6940042Y-7315504D01*
X6927494Y-7322058D01*
X6915861Y-7330186D01*
X6911797Y-7331862D01*
X6907377Y-7331659D01*
X6903516Y-7329627D01*
X6900824Y-7326122D01*
X6899859Y-7321854D01*
X6899859Y-7274153D01*
X6900621Y-7270292D01*
X6902856Y-7266990D01*
X7167016Y-7002830D01*
X7170115Y-6999376D01*
X7172807Y-6995922D01*
X7175195Y-6992213D01*
X7177227Y-6988302D01*
X7178903Y-6984187D01*
X7180224Y-6980021D01*
X7181189Y-6975703D01*
X7181748Y-6971334D01*
X7181951Y-6966712D01*
X7181951Y-6600393D01*
X7182662Y-6596684D01*
X7184694Y-6593484D01*
X7187692Y-6591249D01*
X7191349Y-6590233D01*
X7195108Y-6590690D01*
X7211314Y-6600342D01*
X7224268Y-6606082D01*
X7237831Y-6610096D01*
X7251801Y-6612381D01*
X7265924Y-6612839D01*
X7280046Y-6611467D01*
X7293813Y-6608318D01*
X7307122Y-6603441D01*
X7319670Y-6596888D01*
X7331303Y-6588759D01*
X7341768Y-6579260D01*
X7350963Y-6568490D01*
X7358684Y-6556603D01*
X7364831Y-6543852D01*
X7369251Y-6530441D01*
X7371994Y-6516522D01*
X7372908Y-6502400D01*
X7371994Y-6488277D01*
X7369251Y-6474358D01*
X7364831Y-6460947D01*
X7358684Y-6448196D01*
X7350963Y-6436309D01*
X7341768Y-6425539D01*
X7331303Y-6416040D01*
X7319670Y-6407912D01*
X7307122Y-6401358D01*
X7293813Y-6396482D01*
X7280046Y-6393332D01*
X7265924Y-6391960D01*
X7251801Y-6392418D01*
X7237831Y-6394704D01*
X7224268Y-6398717D01*
X7211314Y-6404457D01*
X7195108Y-6414109D01*
X7191349Y-6414566D01*
X7187692Y-6413550D01*
X7184694Y-6411315D01*
X7182662Y-6408115D01*
X7181951Y-6404406D01*
X7181951Y-5191760D01*
X7182713Y-5187848D01*
X7184948Y-5184597D01*
X7188250Y-5182362D01*
X7192111Y-5181600D01*
X8382558Y-5181600D01*
X8386470Y-5182362D01*
X8389721Y-5184597D01*
X8392007Y-5186832D01*
X8394242Y-5190134D01*
X8395004Y-5194046D01*
X8395004Y-5331409D01*
X8394141Y-5335524D01*
X8391652Y-5338927D01*
X8388045Y-5341061D01*
X8383879Y-5341518D01*
X8379866Y-5340299D01*
X8376666Y-5337505D01*
X8374938Y-5333695D01*
X8373618Y-5327954D01*
X8368741Y-5314696D01*
X8362188Y-5302148D01*
X8354059Y-5290515D01*
X8344560Y-5280050D01*
X8333790Y-5270855D01*
X8321903Y-5263134D01*
X8309152Y-5256987D01*
X8295741Y-5252516D01*
X8281822Y-5249824D01*
X8267700Y-5248910D01*
X8253577Y-5249824D01*
X8239658Y-5252516D01*
X8226247Y-5256987D01*
X8213496Y-5263134D01*
X8201609Y-5270855D01*
X8190839Y-5280050D01*
X8181340Y-5290515D01*
X8173212Y-5302148D01*
X8166658Y-5314696D01*
X8161781Y-5327954D01*
X8158632Y-5341772D01*
X8157260Y-5355844D01*
X8157718Y-5370017D01*
X8160003Y-5383987D01*
X8164017Y-5397550D01*
X8169757Y-5410504D01*
X8177072Y-5422595D01*
X8185912Y-5433669D01*
X8196072Y-5443524D01*
X8207400Y-5452008D01*
X8219744Y-5458968D01*
X8232902Y-5464251D01*
X8246567Y-5467858D01*
X8260638Y-5469636D01*
X8274761Y-5469636D01*
X8288832Y-5467858D01*
X8302498Y-5464251D01*
X8315655Y-5458968D01*
X8327999Y-5452008D01*
X8339328Y-5443524D01*
X8349488Y-5433669D01*
X8358327Y-5422595D01*
X8365642Y-5410504D01*
X8371382Y-5397550D01*
X8375091Y-5385104D01*
X8377021Y-5381447D01*
X8380272Y-5378907D01*
X8384235Y-5377840D01*
X8388299Y-5378399D01*
X8391804Y-5380583D01*
X8394141Y-5383936D01*
X8395004Y-5387949D01*
X8395004Y-5585409D01*
X8394141Y-5589524D01*
X8391652Y-5592927D01*
X8388045Y-5595061D01*
X8383879Y-5595518D01*
X8379866Y-5594299D01*
X8376666Y-5591505D01*
X8374938Y-5587695D01*
X8373618Y-5581954D01*
X8368741Y-5568696D01*
X8362188Y-5556148D01*
X8354059Y-5544515D01*
X8344560Y-5534050D01*
X8333790Y-5524855D01*
X8321903Y-5517134D01*
X8309152Y-5510987D01*
X8295741Y-5506516D01*
X8281822Y-5503824D01*
X8267700Y-5502910D01*
X8253577Y-5503824D01*
X8239658Y-5506516D01*
X8226247Y-5510987D01*
X8213496Y-5517134D01*
X8201609Y-5524855D01*
X8190839Y-5534050D01*
X8181340Y-5544515D01*
X8173212Y-5556148D01*
X8166658Y-5568696D01*
X8161781Y-5581954D01*
X8158632Y-5595772D01*
X8157260Y-5609844D01*
X8157718Y-5624017D01*
X8160003Y-5637987D01*
X8164017Y-5651550D01*
X8169757Y-5664504D01*
X8177072Y-5676595D01*
X8185912Y-5687669D01*
X8196072Y-5697524D01*
X8207400Y-5706008D01*
X8219744Y-5712968D01*
X8232902Y-5718251D01*
X8246567Y-5721858D01*
X8260638Y-5723636D01*
X8274761Y-5723636D01*
X8288832Y-5721858D01*
X8302498Y-5718251D01*
X8315655Y-5712968D01*
X8327999Y-5706008D01*
X8339328Y-5697524D01*
X8349488Y-5687669D01*
X8358327Y-5676595D01*
X8365642Y-5664504D01*
X8371382Y-5651550D01*
X8375091Y-5639104D01*
X8377021Y-5635447D01*
X8380272Y-5632907D01*
X8384235Y-5631840D01*
X8388299Y-5632399D01*
X8391804Y-5634583D01*
X8394141Y-5637936D01*
X8395004Y-5641949D01*
X8395004Y-5839409D01*
X8394141Y-5843524D01*
X8391652Y-5846927D01*
X8388045Y-5849061D01*
X8383879Y-5849518D01*
X8379866Y-5848299D01*
X8376666Y-5845505D01*
X8374938Y-5841695D01*
X8373618Y-5835954D01*
X8368741Y-5822696D01*
X8362188Y-5810148D01*
X8354059Y-5798515D01*
X8344560Y-5788050D01*
X8333790Y-5778855D01*
X8321903Y-5771134D01*
X8309152Y-5764987D01*
X8295741Y-5760516D01*
X8281822Y-5757824D01*
X8267700Y-5756910D01*
X8253577Y-5757824D01*
X8239658Y-5760516D01*
X8226247Y-5764987D01*
X8213496Y-5771134D01*
X8201609Y-5778855D01*
X8190839Y-5788050D01*
X8181340Y-5798515D01*
X8173212Y-5810148D01*
X8166658Y-5822696D01*
X8161781Y-5835954D01*
X8158632Y-5849772D01*
X8157260Y-5863844D01*
X8157718Y-5878017D01*
X8160003Y-5891987D01*
X8164017Y-5905550D01*
X8169757Y-5918504D01*
X8177072Y-5930595D01*
X8185912Y-5941669D01*
X8196072Y-5951524D01*
X8207400Y-5960008D01*
X8219744Y-5966968D01*
X8232902Y-5972251D01*
X8246567Y-5975858D01*
X8260638Y-5977636D01*
X8274761Y-5977636D01*
X8288832Y-5975858D01*
X8302498Y-5972251D01*
X8315655Y-5966968D01*
X8327999Y-5960008D01*
X8339328Y-5951524D01*
X8349488Y-5941669D01*
X8358327Y-5930595D01*
X8365642Y-5918504D01*
X8371382Y-5905550D01*
X8375091Y-5893104D01*
X8377021Y-5889447D01*
X8380272Y-5886907D01*
X8384235Y-5885840D01*
X8388299Y-5886399D01*
X8391804Y-5888583D01*
X8394141Y-5891936D01*
X8395004Y-5895949D01*
X8395004Y-6025032D01*
X8394039Y-6029350D01*
X8391296Y-6032855D01*
X8387283Y-6034887D01*
X8382863Y-6034989D01*
X8378799Y-6033160D01*
X8375853Y-6029807D01*
X8373008Y-6024473D01*
X8369249Y-6019850D01*
X8364626Y-6016091D01*
X8359343Y-6013246D01*
X8353653Y-6011519D01*
X8347202Y-6010910D01*
X8314029Y-6010910D01*
X8314029Y-6075070D01*
X8384844Y-6075070D01*
X8388705Y-6075832D01*
X8392007Y-6078016D01*
X8394242Y-6081318D01*
X8395004Y-6085230D01*
X8395004Y-6157569D01*
X8394242Y-6161481D01*
X8392007Y-6164783D01*
X8388705Y-6166967D01*
X8384844Y-6167729D01*
X8314029Y-6167729D01*
X8314029Y-6231890D01*
X8347202Y-6231890D01*
X8353653Y-6231280D01*
X8359343Y-6229553D01*
X8364626Y-6226708D01*
X8369249Y-6222949D01*
X8373008Y-6218326D01*
X8375853Y-6212992D01*
X8378799Y-6209639D01*
X8382863Y-6207810D01*
X8387283Y-6207912D01*
X8391296Y-6209944D01*
X8394039Y-6213449D01*
X8395004Y-6217767D01*
X8395004Y-6692646D01*
X8394242Y-6696557D01*
X8392007Y-6699859D01*
X7784642Y-7307224D01*
X7781645Y-7309307D01*
X7778140Y-7310170D01*
X7774533Y-7309764D01*
X7771333Y-7308850D01*
X7757363Y-7306564D01*
X7743190Y-7306106D01*
X7729118Y-7307478D01*
X7715300Y-7310628D01*
X7702042Y-7315504D01*
X7689494Y-7322058D01*
X7677861Y-7330186D01*
X7667396Y-7339685D01*
X7658201Y-7350455D01*
X7650480Y-7362342D01*
X7644333Y-7375093D01*
X7639862Y-7388504D01*
X7637170Y-7402423D01*
X7636256Y-7416546D01*
X7637170Y-7430668D01*
X7639862Y-7444587D01*
X7644333Y-7457998D01*
X7650480Y-7470749D01*
X7658201Y-7482636D01*
X7667396Y-7493406D01*
X7677861Y-7502906D01*
X7689494Y-7511034D01*
X7702042Y-7517587D01*
X7715300Y-7522464D01*
X7729118Y-7525613D01*
X7743190Y-7526985D01*
X7757363Y-7526528D01*
X7771333Y-7524242D01*
X7784896Y-7520228D01*
X7797850Y-7514488D01*
X7809941Y-7507173D01*
X7821015Y-7498334D01*
X7830870Y-7488174D01*
X7839354Y-7476845D01*
X7846314Y-7464501D01*
X7851597Y-7451344D01*
X7855203Y-7437678D01*
X7856981Y-7423607D01*
X7856981Y-7409484D01*
X7855203Y-7395413D01*
X7853375Y-7388453D01*
X7853070Y-7384948D01*
X7853984Y-7381595D01*
X7856016Y-7378700D01*
X7895590Y-7339126D01*
X7899146Y-7336840D01*
X7903311Y-7336180D01*
X7907375Y-7337247D01*
X7910677Y-7339939D01*
X7912608Y-7343698D01*
X7912811Y-7347915D01*
X7911287Y-7351826D01*
X7904480Y-7362342D01*
X7898333Y-7375093D01*
X7893862Y-7388504D01*
X7891170Y-7402423D01*
X7890256Y-7416546D01*
X7891170Y-7430668D01*
X7893862Y-7444587D01*
X7898333Y-7457998D01*
X7904480Y-7470749D01*
X7912201Y-7482636D01*
X7921396Y-7493406D01*
X7931861Y-7502906D01*
X7943494Y-7511034D01*
X7956042Y-7517587D01*
X7969300Y-7522464D01*
X7983118Y-7525613D01*
X7997190Y-7526985D01*
X8011363Y-7526528D01*
X8025333Y-7524242D01*
X8038896Y-7520228D01*
X8051850Y-7514488D01*
X8063941Y-7507173D01*
X8075015Y-7498334D01*
X8084870Y-7488174D01*
X8093354Y-7476845D01*
X8100314Y-7464501D01*
X8105597Y-7451344D01*
X8109203Y-7437678D01*
X8110981Y-7423607D01*
X8110981Y-7409484D01*
X8109203Y-7395413D01*
X8105597Y-7381748D01*
X8100314Y-7368590D01*
X8093354Y-7356246D01*
X8084870Y-7344918D01*
X8075015Y-7334758D01*
X8063941Y-7325918D01*
X8051850Y-7318603D01*
X8038896Y-7312863D01*
X8025333Y-7308850D01*
X8011363Y-7306564D01*
X7997190Y-7306106D01*
X7983118Y-7307478D01*
X7969300Y-7310628D01*
X7956042Y-7315504D01*
X7943494Y-7322058D01*
X7935874Y-7327392D01*
X7931912Y-7329017D01*
X7927644Y-7328916D01*
X7923834Y-7327036D01*
X7921091Y-7323785D01*
X7919923Y-7319670D01*
X7920532Y-7315453D01*
X7922869Y-7311847D01*
X8481060Y-6753656D01*
X8484158Y-6750253D01*
X8486851Y-6746748D01*
X8489238Y-6743039D01*
X8491270Y-6739128D01*
X8492947Y-6735064D01*
X8494268Y-6730847D01*
X8495233Y-6726580D01*
X8495792Y-6722211D01*
X8495995Y-6717588D01*
X8495995Y-5191760D01*
X8496757Y-5187848D01*
X8498992Y-5184597D01*
X8502294Y-5182362D01*
X8506155Y-5181600D01*
X8599932Y-5181600D01*
X8603843Y-5182362D01*
X8607094Y-5184597D01*
X8609330Y-5187848D01*
X8610092Y-5191760D01*
X8610092Y-7837931D01*
X8609330Y-7841843D01*
X8607094Y-7845094D01*
X8603843Y-7847330D01*
X8599932Y-7848092D01*
G37*

%LPC*%
G36*
X4145940Y-7429753D02*
G01*
X4159859Y-7429753D01*
X4173626Y-7428026D01*
X4187037Y-7424572D01*
X4199940Y-7419492D01*
X4212082Y-7412786D01*
X4223308Y-7404658D01*
X4233418Y-7395159D01*
X4242308Y-7384440D01*
X4249724Y-7372705D01*
X4255617Y-7360158D01*
X4259935Y-7347000D01*
X4262526Y-7333335D01*
X4263390Y-7319162D01*
X4263390Y-7279843D01*
X4262526Y-7265670D01*
X4259935Y-7252004D01*
X4255617Y-7238847D01*
X4249724Y-7226300D01*
X4242308Y-7214565D01*
X4233418Y-7203846D01*
X4223308Y-7194346D01*
X4212082Y-7186218D01*
X4199940Y-7179513D01*
X4187037Y-7174433D01*
X4173626Y-7170978D01*
X4159859Y-7169251D01*
X4145940Y-7169251D01*
X4132173Y-7170978D01*
X4118762Y-7174433D01*
X4105859Y-7179513D01*
X4093718Y-7186218D01*
X4082491Y-7194346D01*
X4072382Y-7203846D01*
X4063492Y-7214565D01*
X4056075Y-7226300D01*
X4050182Y-7238847D01*
X4045864Y-7252004D01*
X4043273Y-7265670D01*
X4042410Y-7279843D01*
X4042410Y-7319162D01*
X4043273Y-7333335D01*
X4045864Y-7347000D01*
X4050182Y-7360158D01*
X4056075Y-7372705D01*
X4063492Y-7384440D01*
X4072382Y-7395159D01*
X4082491Y-7404658D01*
X4093718Y-7412786D01*
X4105859Y-7419492D01*
X4118762Y-7424572D01*
X4132173Y-7428026D01*
G37*
G36*
X3383940Y-7429753D02*
G01*
X3397859Y-7429753D01*
X3411626Y-7428026D01*
X3425037Y-7424572D01*
X3437940Y-7419492D01*
X3450082Y-7412786D01*
X3461308Y-7404658D01*
X3471418Y-7395159D01*
X3480308Y-7384440D01*
X3487724Y-7372705D01*
X3493617Y-7360158D01*
X3497935Y-7347000D01*
X3500526Y-7333335D01*
X3501390Y-7319162D01*
X3501390Y-7279843D01*
X3500526Y-7265670D01*
X3497935Y-7252004D01*
X3493617Y-7238847D01*
X3487724Y-7226300D01*
X3480308Y-7214565D01*
X3471418Y-7203846D01*
X3461308Y-7194346D01*
X3450082Y-7186218D01*
X3437940Y-7179513D01*
X3425037Y-7174433D01*
X3411626Y-7170978D01*
X3397859Y-7169251D01*
X3383940Y-7169251D01*
X3370173Y-7170978D01*
X3356762Y-7174433D01*
X3343859Y-7179513D01*
X3331718Y-7186218D01*
X3320491Y-7194346D01*
X3310382Y-7203846D01*
X3301492Y-7214565D01*
X3294075Y-7226300D01*
X3288182Y-7238847D01*
X3283864Y-7252004D01*
X3281273Y-7265670D01*
X3280410Y-7279843D01*
X3280410Y-7319162D01*
X3281273Y-7333335D01*
X3283864Y-7347000D01*
X3288182Y-7360158D01*
X3294075Y-7372705D01*
X3301492Y-7384440D01*
X3310382Y-7395159D01*
X3320491Y-7404658D01*
X3331718Y-7412786D01*
X3343859Y-7419492D01*
X3356762Y-7424572D01*
X3370173Y-7428026D01*
G37*
G36*
X3891940Y-7429753D02*
G01*
X3905859Y-7429753D01*
X3919626Y-7428026D01*
X3933037Y-7424572D01*
X3945940Y-7419492D01*
X3958082Y-7412786D01*
X3969308Y-7404658D01*
X3979418Y-7395159D01*
X3988308Y-7384440D01*
X3995724Y-7372705D01*
X4001617Y-7360158D01*
X4005935Y-7347000D01*
X4008526Y-7333335D01*
X4009390Y-7319162D01*
X4009390Y-7279843D01*
X4008526Y-7265670D01*
X4005935Y-7252004D01*
X4001617Y-7238847D01*
X3995724Y-7226300D01*
X3988308Y-7214565D01*
X3979418Y-7203846D01*
X3969308Y-7194346D01*
X3958082Y-7186218D01*
X3945940Y-7179513D01*
X3933037Y-7174433D01*
X3919626Y-7170978D01*
X3905859Y-7169251D01*
X3891940Y-7169251D01*
X3878173Y-7170978D01*
X3864762Y-7174433D01*
X3856990Y-7177481D01*
X3853129Y-7178192D01*
X3849319Y-7177430D01*
X3846068Y-7175246D01*
X2796184Y-6125362D01*
X2794000Y-6122060D01*
X2793238Y-6118199D01*
X2793238Y-4496765D01*
X2794101Y-4492650D01*
X2796590Y-4489246D01*
X2800197Y-4487113D01*
X2804414Y-4486656D01*
X2808427Y-4487926D01*
X2811576Y-4490720D01*
X2813304Y-4494580D01*
X2815234Y-4501438D01*
X2816910Y-4505553D01*
X2818942Y-4509465D01*
X2821330Y-4513173D01*
X2824022Y-4516628D01*
X2827121Y-4520082D01*
X5425490Y-7118451D01*
X5427726Y-7121753D01*
X5428488Y-7125614D01*
X5428488Y-7178802D01*
X5481675Y-7178802D01*
X5485587Y-7179614D01*
X5488838Y-7181799D01*
X5524347Y-7217257D01*
X5526532Y-7220559D01*
X5527294Y-7224471D01*
X5527294Y-7297928D01*
X5528259Y-7312202D01*
X5530951Y-7325868D01*
X5535472Y-7339075D01*
X5541619Y-7351623D01*
X5549392Y-7363206D01*
X5558586Y-7373721D01*
X5569102Y-7382916D01*
X5580684Y-7390688D01*
X5593181Y-7396835D01*
X5606389Y-7401306D01*
X5620105Y-7404049D01*
X5634024Y-7404963D01*
X5647944Y-7404049D01*
X5661660Y-7401306D01*
X5674868Y-7396835D01*
X5687364Y-7390688D01*
X5698947Y-7382916D01*
X5709462Y-7373721D01*
X5718657Y-7363206D01*
X5726430Y-7351623D01*
X5732576Y-7339075D01*
X5737098Y-7325868D01*
X5739790Y-7312202D01*
X5740755Y-7297928D01*
X5740755Y-7198614D01*
X5739790Y-7184339D01*
X5737098Y-7170674D01*
X5732576Y-7157466D01*
X5726430Y-7144918D01*
X5718657Y-7133336D01*
X5709462Y-7122820D01*
X5698947Y-7113625D01*
X5687364Y-7105903D01*
X5674868Y-7099706D01*
X5661660Y-7095236D01*
X5647944Y-7092492D01*
X5634024Y-7091578D01*
X5620105Y-7092492D01*
X5606389Y-7095236D01*
X5593181Y-7099706D01*
X5580684Y-7105903D01*
X5572709Y-7111238D01*
X5569508Y-7112609D01*
X5566054Y-7112863D01*
X5562701Y-7111949D01*
X5559856Y-7109968D01*
X3963314Y-5513374D01*
X3960977Y-5509869D01*
X3960317Y-5505704D01*
X3961434Y-5501589D01*
X3964076Y-5498338D01*
X3971950Y-5491886D01*
X3978910Y-5484012D01*
X3984548Y-5475071D01*
X3988714Y-5465419D01*
X3992118Y-5451398D01*
X3994200Y-5448503D01*
X4168241Y-5274462D01*
X4171340Y-5271008D01*
X4174032Y-5267553D01*
X4176420Y-5263845D01*
X4178452Y-5259933D01*
X4180128Y-5255818D01*
X4181449Y-5251653D01*
X4182414Y-5247335D01*
X4182973Y-5242966D01*
X4183176Y-5238343D01*
X4183176Y-3893210D01*
X4183735Y-3889908D01*
X4185310Y-3887012D01*
X4187698Y-3884726D01*
X4196892Y-3878579D01*
X4207306Y-3869486D01*
X4216400Y-3859123D01*
X4224070Y-3847642D01*
X4230166Y-3835298D01*
X4234586Y-3822192D01*
X4237278Y-3808679D01*
X4238193Y-3794556D01*
X4238193Y-3745229D01*
X4237278Y-3731158D01*
X4234586Y-3717594D01*
X4230166Y-3704539D01*
X4224070Y-3692144D01*
X4216400Y-3680714D01*
X4207306Y-3670300D01*
X4196892Y-3661206D01*
X4185462Y-3653536D01*
X4173067Y-3647440D01*
X4160012Y-3643020D01*
X4146448Y-3640328D01*
X4132681Y-3639413D01*
X4118914Y-3640328D01*
X4105401Y-3643020D01*
X4092346Y-3647440D01*
X4079951Y-3653536D01*
X4068470Y-3661206D01*
X4058107Y-3670300D01*
X4049014Y-3680714D01*
X4041343Y-3692144D01*
X4035247Y-3704539D01*
X4030827Y-3717594D01*
X4028135Y-3731158D01*
X4027170Y-3745229D01*
X4027170Y-3794556D01*
X4028135Y-3808679D01*
X4030827Y-3822192D01*
X4035247Y-3835298D01*
X4041343Y-3847642D01*
X4049014Y-3859123D01*
X4058107Y-3869486D01*
X4068470Y-3878579D01*
X4077665Y-3884726D01*
X4080052Y-3887012D01*
X4081627Y-3889908D01*
X4082186Y-3893159D01*
X4082186Y-5213451D01*
X4081424Y-5217312D01*
X4079189Y-5220614D01*
X3922572Y-5377230D01*
X3919880Y-5379161D01*
X3916629Y-5380126D01*
X3913479Y-5380532D01*
X3903370Y-5383428D01*
X3893870Y-5387949D01*
X3885184Y-5393944D01*
X3877564Y-5401259D01*
X3873296Y-5406948D01*
X3869994Y-5409793D01*
X3865879Y-5411012D01*
X3861612Y-5410403D01*
X3857955Y-5408066D01*
X2916174Y-4466234D01*
X2913938Y-4462932D01*
X2913176Y-4459071D01*
X2913176Y-3910584D01*
X2913938Y-3906672D01*
X2916174Y-3903370D01*
X2919476Y-3901186D01*
X2923336Y-3900424D01*
X2937205Y-3900424D01*
X2943656Y-3899763D01*
X2949346Y-3898036D01*
X2954629Y-3895242D01*
X2959252Y-3891432D01*
X2963011Y-3886809D01*
X2965856Y-3881577D01*
X2967583Y-3875836D01*
X2968193Y-3869385D01*
X2968193Y-3717391D01*
X2968955Y-3713479D01*
X2971190Y-3710178D01*
X2974492Y-3707993D01*
X2978353Y-3707231D01*
X2982264Y-3707993D01*
X2985566Y-3710178D01*
X3008528Y-3733139D01*
X3010814Y-3736746D01*
X3011474Y-3741013D01*
X3011170Y-3745229D01*
X3011170Y-3794556D01*
X3012135Y-3808679D01*
X3014827Y-3822192D01*
X3019247Y-3835298D01*
X3025343Y-3847642D01*
X3033014Y-3859123D01*
X3042107Y-3869486D01*
X3052470Y-3878579D01*
X3063951Y-3886250D01*
X3076346Y-3892346D01*
X3089402Y-3896817D01*
X3102914Y-3899509D01*
X3116681Y-3900373D01*
X3130448Y-3899509D01*
X3144012Y-3896817D01*
X3157067Y-3892346D01*
X3169462Y-3886250D01*
X3180892Y-3878579D01*
X3191306Y-3869486D01*
X3200400Y-3859123D01*
X3208070Y-3847642D01*
X3214166Y-3835298D01*
X3218586Y-3822192D01*
X3221278Y-3808679D01*
X3222193Y-3794556D01*
X3222193Y-3745229D01*
X3221278Y-3731158D01*
X3218586Y-3717594D01*
X3214166Y-3704539D01*
X3208070Y-3692144D01*
X3200400Y-3680714D01*
X3191306Y-3670300D01*
X3180892Y-3661206D01*
X3169462Y-3653536D01*
X3157067Y-3647440D01*
X3144012Y-3643020D01*
X3130448Y-3640328D01*
X3116681Y-3639413D01*
X3102914Y-3640328D01*
X3089402Y-3643020D01*
X3075736Y-3647744D01*
X3071672Y-3648811D01*
X3067558Y-3648100D01*
X3064052Y-3645814D01*
X3004820Y-3586581D01*
X3001365Y-3583482D01*
X2997911Y-3580790D01*
X2994202Y-3578402D01*
X2990291Y-3576370D01*
X2986176Y-3574694D01*
X2982010Y-3573373D01*
X2977692Y-3572408D01*
X2973324Y-3571849D01*
X2968701Y-3571646D01*
X2762605Y-3571646D01*
X2757982Y-3571849D01*
X2753614Y-3572408D01*
X2749346Y-3573373D01*
X2745130Y-3574694D01*
X2741066Y-3576370D01*
X2737154Y-3578402D01*
X2733446Y-3580790D01*
X2729941Y-3583482D01*
X2726537Y-3586581D01*
X2707182Y-3605936D01*
X2704033Y-3609390D01*
X2701340Y-3612845D01*
X2699004Y-3616553D01*
X2696972Y-3620465D01*
X2695244Y-3624579D01*
X2693924Y-3628745D01*
X2693009Y-3633063D01*
X2692400Y-3637432D01*
X2692196Y-3642055D01*
X2692196Y-4626660D01*
X2691434Y-4630521D01*
X2689301Y-4633772D01*
X2686100Y-4636008D01*
X2682290Y-4636820D01*
X2678430Y-4636160D01*
X2671978Y-4633722D01*
X2661666Y-4631639D01*
X2651150Y-4631182D01*
X2640685Y-4632452D01*
X2630525Y-4635398D01*
X2621026Y-4639919D01*
X2612339Y-4645914D01*
X2604770Y-4653178D01*
X2598420Y-4661611D01*
X2593543Y-4670958D01*
X2590190Y-4680966D01*
X2588514Y-4691329D01*
X2588514Y-4701895D01*
X2590190Y-4712258D01*
X2593543Y-4722266D01*
X2598420Y-4731613D01*
X2601214Y-4735322D01*
X2602738Y-4738217D01*
X2603246Y-4741418D01*
X2603246Y-6515912D01*
X2602484Y-6519773D01*
X2600299Y-6523075D01*
X1965198Y-7158177D01*
X1962505Y-7160107D01*
X1959356Y-7161072D01*
X1956054Y-7160971D01*
X1944319Y-7158634D01*
X1930400Y-7157720D01*
X1916480Y-7158634D01*
X1902815Y-7161326D01*
X1889556Y-7165848D01*
X1877060Y-7171994D01*
X1865477Y-7179767D01*
X1854962Y-7188962D01*
X1845767Y-7199426D01*
X1837994Y-7211059D01*
X1831848Y-7223556D01*
X1827326Y-7236764D01*
X1824634Y-7250480D01*
X1823720Y-7264400D01*
X1824634Y-7278319D01*
X1827326Y-7292035D01*
X1831848Y-7305243D01*
X1837994Y-7317740D01*
X1845767Y-7329322D01*
X1854962Y-7339838D01*
X1865477Y-7349032D01*
X1877060Y-7356805D01*
X1889556Y-7362952D01*
X1902815Y-7367473D01*
X1916480Y-7370165D01*
X1930400Y-7371080D01*
X1944319Y-7370165D01*
X1958035Y-7367473D01*
X1971243Y-7362952D01*
X1983739Y-7356805D01*
X1995373Y-7349032D01*
X2005838Y-7339838D01*
X2015032Y-7329322D01*
X2022805Y-7317740D01*
X2028952Y-7305243D01*
X2033473Y-7292035D01*
X2036165Y-7278319D01*
X2037080Y-7264400D01*
X2036165Y-7250480D01*
X2033828Y-7238746D01*
X2033727Y-7235444D01*
X2034692Y-7232294D01*
X2036622Y-7229602D01*
X2689301Y-6576923D01*
X2692450Y-6573469D01*
X2695143Y-6570014D01*
X2697480Y-6566306D01*
X2699512Y-6562394D01*
X2701239Y-6558280D01*
X2702560Y-6554114D01*
X2703474Y-6549796D01*
X2704084Y-6545427D01*
X2704287Y-6540804D01*
X2704287Y-6200851D01*
X2705049Y-6196939D01*
X2707233Y-6193637D01*
X2710535Y-6191453D01*
X2714447Y-6190691D01*
X2718308Y-6191453D01*
X2721610Y-6193637D01*
X3688283Y-7160310D01*
X3690467Y-7163612D01*
X3691229Y-7167473D01*
X3691229Y-7243165D01*
X3751986Y-7243165D01*
X3754272Y-7240066D01*
X3757574Y-7238034D01*
X3761384Y-7237374D01*
X3765143Y-7238187D01*
X3768344Y-7240371D01*
X3786276Y-7258303D01*
X3788613Y-7261910D01*
X3789273Y-7266127D01*
X3788410Y-7279843D01*
X3788410Y-7319162D01*
X3789273Y-7333335D01*
X3791864Y-7347000D01*
X3796182Y-7360158D01*
X3802075Y-7372705D01*
X3809492Y-7384440D01*
X3818382Y-7395159D01*
X3828491Y-7404658D01*
X3839718Y-7412786D01*
X3851859Y-7419492D01*
X3864762Y-7424572D01*
X3878173Y-7428026D01*
G37*
G36*
X3691229Y-7419746D02*
G01*
X3704082Y-7412786D01*
X3715308Y-7404658D01*
X3725418Y-7395159D01*
X3734308Y-7384440D01*
X3741724Y-7372705D01*
X3747617Y-7360158D01*
X3749040Y-7355840D01*
X3691229Y-7355840D01*
G37*
G36*
X3598570Y-7419746D02*
G01*
X3598570Y-7355840D01*
X3540760Y-7355840D01*
X3542182Y-7360158D01*
X3548075Y-7372705D01*
X3555492Y-7384440D01*
X3564382Y-7395159D01*
X3574491Y-7404658D01*
X3585718Y-7412786D01*
G37*
G36*
X5884062Y-7404963D02*
G01*
X5897981Y-7404049D01*
X5911646Y-7401306D01*
X5924854Y-7396835D01*
X5937402Y-7390688D01*
X5948984Y-7382916D01*
X5959500Y-7373721D01*
X5968695Y-7363206D01*
X5976416Y-7351623D01*
X5982614Y-7339075D01*
X5987084Y-7325868D01*
X5989828Y-7312202D01*
X5990742Y-7297928D01*
X5990742Y-7198614D01*
X5989828Y-7184339D01*
X5987084Y-7170674D01*
X5982614Y-7157466D01*
X5976416Y-7144918D01*
X5968695Y-7133336D01*
X5959500Y-7122820D01*
X5948984Y-7113625D01*
X5937402Y-7105903D01*
X5924854Y-7099706D01*
X5911646Y-7095236D01*
X5897981Y-7092492D01*
X5884062Y-7091578D01*
X5870092Y-7092492D01*
X5856427Y-7095236D01*
X5843219Y-7099706D01*
X5830671Y-7105903D01*
X5819089Y-7113625D01*
X5808573Y-7122820D01*
X5799378Y-7133336D01*
X5791657Y-7144918D01*
X5785459Y-7157466D01*
X5780989Y-7170674D01*
X5778246Y-7184339D01*
X5777331Y-7198614D01*
X5777331Y-7297928D01*
X5778246Y-7312202D01*
X5780989Y-7325868D01*
X5785459Y-7339075D01*
X5791657Y-7351623D01*
X5799378Y-7363206D01*
X5808573Y-7373721D01*
X5819089Y-7382916D01*
X5830671Y-7390688D01*
X5843219Y-7396835D01*
X5856427Y-7401306D01*
X5870092Y-7404049D01*
G37*
G36*
X5428488Y-7395057D02*
G01*
X5437378Y-7390688D01*
X5448960Y-7382916D01*
X5459476Y-7373721D01*
X5468670Y-7363206D01*
X5476443Y-7351623D01*
X5482590Y-7339075D01*
X5487111Y-7325868D01*
X5488736Y-7317740D01*
X5428488Y-7317740D01*
G37*
G36*
X5339588Y-7395057D02*
G01*
X5339588Y-7317740D01*
X5279339Y-7317740D01*
X5280964Y-7325868D01*
X5285486Y-7339075D01*
X5291632Y-7351623D01*
X5299405Y-7363206D01*
X5308600Y-7373721D01*
X5319115Y-7382916D01*
X5330698Y-7390688D01*
G37*
G36*
X914400Y-7371080D02*
G01*
X928319Y-7370165D01*
X942035Y-7367473D01*
X955243Y-7362952D01*
X967740Y-7356805D01*
X979373Y-7349032D01*
X989837Y-7339838D01*
X999032Y-7329322D01*
X1006805Y-7317740D01*
X1012952Y-7305243D01*
X1017473Y-7292035D01*
X1020165Y-7278319D01*
X1021080Y-7264400D01*
X1020165Y-7250480D01*
X1017473Y-7236764D01*
X1012952Y-7223556D01*
X1006805Y-7211059D01*
X999032Y-7199426D01*
X989837Y-7188962D01*
X979373Y-7179767D01*
X967740Y-7171994D01*
X955243Y-7165848D01*
X942035Y-7161326D01*
X928319Y-7158634D01*
X914400Y-7157720D01*
X900480Y-7158634D01*
X886815Y-7161326D01*
X873556Y-7165848D01*
X861060Y-7171994D01*
X849477Y-7179767D01*
X838962Y-7188962D01*
X829767Y-7199426D01*
X821994Y-7211059D01*
X815848Y-7223556D01*
X811326Y-7236764D01*
X808634Y-7250480D01*
X807720Y-7264400D01*
X808634Y-7278319D01*
X811326Y-7292035D01*
X815848Y-7305243D01*
X821994Y-7317740D01*
X829767Y-7329322D01*
X838962Y-7339838D01*
X849477Y-7349032D01*
X861060Y-7356805D01*
X873556Y-7362952D01*
X886815Y-7367473D01*
X900480Y-7370165D01*
G37*
G36*
X1422400Y-7371080D02*
G01*
X1436319Y-7370165D01*
X1450035Y-7367473D01*
X1463243Y-7362952D01*
X1475740Y-7356805D01*
X1487373Y-7349032D01*
X1497838Y-7339838D01*
X1507032Y-7329322D01*
X1514805Y-7317740D01*
X1520952Y-7305243D01*
X1525473Y-7292035D01*
X1528165Y-7278319D01*
X1529080Y-7264400D01*
X1528165Y-7250480D01*
X1525828Y-7238746D01*
X1525727Y-7235444D01*
X1526692Y-7232294D01*
X1528622Y-7229602D01*
X1618132Y-7140092D01*
X1621434Y-7137857D01*
X1625346Y-7137095D01*
X1638096Y-7137095D01*
X1642719Y-7136892D01*
X1647088Y-7136333D01*
X1651355Y-7135368D01*
X1655572Y-7134047D01*
X1659636Y-7132370D01*
X1663547Y-7130338D01*
X1667256Y-7127951D01*
X1670761Y-7125258D01*
X1674164Y-7122159D01*
X2358288Y-6438036D01*
X2361590Y-6435852D01*
X2365502Y-6435090D01*
X2369362Y-6435852D01*
X2372664Y-6438087D01*
X2374900Y-6441389D01*
X2375611Y-6445300D01*
X2375357Y-6489852D01*
X2374544Y-6493713D01*
X2372360Y-6497015D01*
X1711198Y-7158177D01*
X1708505Y-7160107D01*
X1705356Y-7161072D01*
X1702054Y-7160971D01*
X1690319Y-7158634D01*
X1676400Y-7157720D01*
X1662480Y-7158634D01*
X1648815Y-7161326D01*
X1635556Y-7165848D01*
X1623060Y-7171994D01*
X1611477Y-7179767D01*
X1600962Y-7188962D01*
X1591767Y-7199426D01*
X1583994Y-7211059D01*
X1577848Y-7223556D01*
X1573326Y-7236764D01*
X1570634Y-7250480D01*
X1569720Y-7264400D01*
X1570634Y-7278319D01*
X1573326Y-7292035D01*
X1577848Y-7305243D01*
X1583994Y-7317740D01*
X1591767Y-7329322D01*
X1600962Y-7339838D01*
X1611477Y-7349032D01*
X1623060Y-7356805D01*
X1635556Y-7362952D01*
X1648815Y-7367473D01*
X1662480Y-7370165D01*
X1676400Y-7371080D01*
X1690319Y-7370165D01*
X1704035Y-7367473D01*
X1717243Y-7362952D01*
X1729739Y-7356805D01*
X1741373Y-7349032D01*
X1751838Y-7339838D01*
X1761032Y-7329322D01*
X1768805Y-7317740D01*
X1774952Y-7305243D01*
X1779473Y-7292035D01*
X1782165Y-7278319D01*
X1783080Y-7264400D01*
X1782165Y-7250480D01*
X1779828Y-7238746D01*
X1779727Y-7235444D01*
X1780692Y-7232294D01*
X1782622Y-7229602D01*
X2461260Y-6550964D01*
X2464155Y-6547815D01*
X2467102Y-6544056D01*
X2469235Y-6540652D01*
X2471470Y-6536435D01*
X2473045Y-6532676D01*
X2474468Y-6528155D01*
X2475382Y-6524193D01*
X2475992Y-6519468D01*
X2476195Y-6515201D01*
X2488742Y-4519676D01*
X2489454Y-4516018D01*
X2491486Y-4512868D01*
X2571445Y-4426610D01*
X2573934Y-4424680D01*
X2576880Y-4423562D01*
X2583129Y-4422292D01*
X2592984Y-4418533D01*
X2602077Y-4413300D01*
X2610256Y-4406646D01*
X2617216Y-4398721D01*
X2622854Y-4389831D01*
X2627020Y-4380128D01*
X2629509Y-4369917D01*
X2630373Y-4359402D01*
X2629509Y-4348886D01*
X2627020Y-4338675D01*
X2622854Y-4328972D01*
X2617216Y-4320082D01*
X2610256Y-4312158D01*
X2602077Y-4305503D01*
X2592984Y-4300270D01*
X2583129Y-4296511D01*
X2572766Y-4294428D01*
X2562250Y-4293971D01*
X2551785Y-4295241D01*
X2541676Y-4298188D01*
X2532176Y-4302709D01*
X2523490Y-4308703D01*
X2515870Y-4315968D01*
X2509570Y-4324400D01*
X2504643Y-4333748D01*
X2501341Y-4343755D01*
X2499868Y-4352747D01*
X2498953Y-4355592D01*
X2497277Y-4358030D01*
X2400147Y-4462830D01*
X2394864Y-4470298D01*
X2393950Y-4472178D01*
X2391613Y-4475327D01*
X2388311Y-4477359D01*
X2384501Y-4478020D01*
X2380691Y-4477156D01*
X2377490Y-4474921D01*
X2375357Y-4471670D01*
X2374595Y-4467860D01*
X2374595Y-3515055D01*
X2375357Y-3511194D01*
X2377592Y-3507892D01*
X2380894Y-3505657D01*
X2384755Y-3504895D01*
X3149854Y-3504895D01*
X3153765Y-3505657D01*
X3157067Y-3507892D01*
X3300882Y-3651707D01*
X3303168Y-3655161D01*
X3303879Y-3659225D01*
X3302914Y-3663238D01*
X3300425Y-3666540D01*
X3296107Y-3670300D01*
X3287014Y-3680714D01*
X3279343Y-3692144D01*
X3273247Y-3704539D01*
X3268827Y-3717594D01*
X3266135Y-3731158D01*
X3265170Y-3745229D01*
X3265170Y-3794556D01*
X3266135Y-3808679D01*
X3268827Y-3822192D01*
X3273247Y-3835298D01*
X3279343Y-3847642D01*
X3287014Y-3859123D01*
X3296107Y-3869486D01*
X3306470Y-3878579D01*
X3317951Y-3886250D01*
X3330346Y-3892346D01*
X3343401Y-3896817D01*
X3356914Y-3899509D01*
X3370681Y-3900373D01*
X3384448Y-3899509D01*
X3398012Y-3896817D01*
X3411067Y-3892346D01*
X3423462Y-3886250D01*
X3434892Y-3878579D01*
X3445306Y-3869486D01*
X3454400Y-3859123D01*
X3462070Y-3847642D01*
X3468166Y-3835298D01*
X3472586Y-3822192D01*
X3475278Y-3808679D01*
X3476193Y-3794556D01*
X3476193Y-3745229D01*
X3475278Y-3731158D01*
X3472586Y-3717594D01*
X3468166Y-3704539D01*
X3462070Y-3692144D01*
X3454400Y-3680714D01*
X3445306Y-3670300D01*
X3434892Y-3661206D01*
X3425494Y-3654907D01*
X3422396Y-3651707D01*
X3421024Y-3647490D01*
X3420364Y-3641191D01*
X3419449Y-3637026D01*
X3418128Y-3632809D01*
X3416452Y-3628745D01*
X3414420Y-3624834D01*
X3412032Y-3621125D01*
X3409391Y-3617620D01*
X3406241Y-3614216D01*
X3210864Y-3418840D01*
X3207461Y-3415741D01*
X3203956Y-3413048D01*
X3200247Y-3410661D01*
X3196336Y-3408629D01*
X3192272Y-3406952D01*
X3188055Y-3405632D01*
X3183788Y-3404666D01*
X3179419Y-3404108D01*
X3174796Y-3403904D01*
X2324557Y-3403904D01*
X2315311Y-3404717D01*
X2306828Y-3406952D01*
X2298852Y-3410712D01*
X2291638Y-3415741D01*
X2285441Y-3421938D01*
X2280412Y-3429152D01*
X2276652Y-3437128D01*
X2274417Y-3445611D01*
X2273604Y-3454857D01*
X2273604Y-6375654D01*
X2272842Y-6379565D01*
X2270607Y-6382867D01*
X2180691Y-6472783D01*
X2177491Y-6474917D01*
X2173732Y-6475730D01*
X2169922Y-6475069D01*
X2166670Y-6473088D01*
X2164334Y-6469989D01*
X2163368Y-6466230D01*
X2163165Y-6463080D01*
X2160473Y-6449364D01*
X2155952Y-6436156D01*
X2149805Y-6423660D01*
X2142032Y-6412077D01*
X2132838Y-6401562D01*
X2122322Y-6392367D01*
X2110740Y-6384594D01*
X2098243Y-6378448D01*
X2085035Y-6373926D01*
X2071319Y-6371234D01*
X2057400Y-6370320D01*
X2043480Y-6371234D01*
X2029764Y-6373926D01*
X2016556Y-6378448D01*
X2004060Y-6384594D01*
X1992477Y-6392367D01*
X1981962Y-6401562D01*
X1972767Y-6412077D01*
X1964994Y-6423660D01*
X1958848Y-6436156D01*
X1954326Y-6449364D01*
X1951634Y-6463080D01*
X1950720Y-6477000D01*
X1951634Y-6490919D01*
X1954326Y-6504635D01*
X1958848Y-6517843D01*
X1964994Y-6530340D01*
X1972767Y-6541922D01*
X1981962Y-6552438D01*
X1992477Y-6561632D01*
X2004060Y-6569405D01*
X2016556Y-6575552D01*
X2029764Y-6580073D01*
X2043480Y-6582765D01*
X2046630Y-6582968D01*
X2050389Y-6583934D01*
X2053488Y-6586270D01*
X2055469Y-6589522D01*
X2056130Y-6593331D01*
X2055317Y-6597091D01*
X2053183Y-6600291D01*
X1620367Y-7033107D01*
X1617065Y-7035342D01*
X1613154Y-7036104D01*
X1600403Y-7036104D01*
X1595780Y-7036308D01*
X1591411Y-7036866D01*
X1587144Y-7037831D01*
X1582928Y-7039152D01*
X1578864Y-7040829D01*
X1574952Y-7042861D01*
X1571244Y-7045248D01*
X1567738Y-7047941D01*
X1564335Y-7051040D01*
X1457198Y-7158177D01*
X1454505Y-7160107D01*
X1451356Y-7161072D01*
X1448054Y-7160971D01*
X1436319Y-7158634D01*
X1422400Y-7157720D01*
X1408480Y-7158634D01*
X1394815Y-7161326D01*
X1381556Y-7165848D01*
X1369060Y-7171994D01*
X1357477Y-7179767D01*
X1346962Y-7188962D01*
X1337767Y-7199426D01*
X1329994Y-7211059D01*
X1323848Y-7223556D01*
X1319326Y-7236764D01*
X1316634Y-7250480D01*
X1315720Y-7264400D01*
X1316634Y-7278319D01*
X1319326Y-7292035D01*
X1323848Y-7305243D01*
X1329994Y-7317740D01*
X1337767Y-7329322D01*
X1346962Y-7339838D01*
X1357477Y-7349032D01*
X1369060Y-7356805D01*
X1381556Y-7362952D01*
X1394815Y-7367473D01*
X1408480Y-7370165D01*
G37*
G36*
X7138670Y-7370216D02*
G01*
X7192416Y-7370216D01*
X7192416Y-7316368D01*
X7181494Y-7322058D01*
X7169861Y-7330186D01*
X7159396Y-7339685D01*
X7150201Y-7350455D01*
X7142480Y-7362342D01*
G37*
G36*
X7285075Y-7370216D02*
G01*
X7338923Y-7370216D01*
X7338314Y-7368590D01*
X7331354Y-7356246D01*
X7322870Y-7344918D01*
X7313015Y-7334758D01*
X7301941Y-7325918D01*
X7289850Y-7318603D01*
X7285075Y-7316470D01*
G37*
G36*
X1212850Y-7361174D02*
G01*
X1221740Y-7356805D01*
X1233373Y-7349032D01*
X1243838Y-7339838D01*
X1253032Y-7329322D01*
X1260805Y-7317740D01*
X1265174Y-7308850D01*
X1212850Y-7308850D01*
G37*
G36*
X1123950Y-7361174D02*
G01*
X1123950Y-7308850D01*
X1071626Y-7308850D01*
X1075994Y-7317740D01*
X1083767Y-7329322D01*
X1092962Y-7339838D01*
X1103477Y-7349032D01*
X1115060Y-7356805D01*
G37*
G36*
X3540760Y-7243165D02*
G01*
X3598570Y-7243165D01*
X3598570Y-7179259D01*
X3585718Y-7186218D01*
X3574491Y-7194346D01*
X3564382Y-7203846D01*
X3555492Y-7214565D01*
X3548075Y-7226300D01*
X3542182Y-7238847D01*
G37*
G36*
X1071626Y-7219950D02*
G01*
X1123950Y-7219950D01*
X1123950Y-7167625D01*
X1115060Y-7171994D01*
X1103477Y-7179767D01*
X1092962Y-7188962D01*
X1083767Y-7199426D01*
X1075994Y-7211059D01*
G37*
G36*
X1212850Y-7219950D02*
G01*
X1265174Y-7219950D01*
X1260805Y-7211059D01*
X1253032Y-7199426D01*
X1243838Y-7188962D01*
X1233373Y-7179767D01*
X1221740Y-7171994D01*
X1212850Y-7167625D01*
G37*
G36*
X5279339Y-7178802D02*
G01*
X5339588Y-7178802D01*
X5339588Y-7101484D01*
X5330698Y-7105903D01*
X5319115Y-7113625D01*
X5308600Y-7122820D01*
X5299405Y-7133336D01*
X5291632Y-7144918D01*
X5285486Y-7157466D01*
X5280964Y-7170674D01*
G37*
G36*
X6629247Y-6602577D02*
G01*
X6640169Y-6596888D01*
X6651802Y-6588759D01*
X6662267Y-6579260D01*
X6671462Y-6568490D01*
X6679184Y-6556603D01*
X6682943Y-6548729D01*
X6629247Y-6548729D01*
G37*
G36*
X6536537Y-6602475D02*
G01*
X6536537Y-6548729D01*
X6482689Y-6548729D01*
X6483350Y-6550355D01*
X6490309Y-6562699D01*
X6498742Y-6574028D01*
X6508597Y-6584188D01*
X6519672Y-6593027D01*
X6531813Y-6600342D01*
G37*
G36*
X533400Y-6583680D02*
G01*
X547319Y-6582765D01*
X561035Y-6580073D01*
X574243Y-6575552D01*
X586740Y-6569405D01*
X598322Y-6561632D01*
X608838Y-6552438D01*
X618032Y-6541922D01*
X625805Y-6530340D01*
X631952Y-6517843D01*
X636473Y-6504635D01*
X639165Y-6490919D01*
X640080Y-6477000D01*
X639165Y-6463080D01*
X636473Y-6449364D01*
X631952Y-6436156D01*
X625805Y-6423660D01*
X618032Y-6412077D01*
X608838Y-6401562D01*
X598322Y-6392367D01*
X586740Y-6384594D01*
X574243Y-6378448D01*
X561035Y-6373926D01*
X547319Y-6371234D01*
X533400Y-6370320D01*
X519480Y-6371234D01*
X505764Y-6373926D01*
X492556Y-6378448D01*
X480059Y-6384594D01*
X468477Y-6392367D01*
X457962Y-6401562D01*
X448767Y-6412077D01*
X440994Y-6423660D01*
X434848Y-6436156D01*
X430326Y-6449364D01*
X427634Y-6463080D01*
X426720Y-6477000D01*
X427634Y-6490919D01*
X430326Y-6504635D01*
X434848Y-6517843D01*
X440994Y-6530340D01*
X448767Y-6541922D01*
X457962Y-6552438D01*
X468477Y-6561632D01*
X480059Y-6569405D01*
X492556Y-6575552D01*
X505764Y-6580073D01*
X519480Y-6582765D01*
G37*
G36*
X6629247Y-6456070D02*
G01*
X6682943Y-6456070D01*
X6679184Y-6448196D01*
X6671462Y-6436309D01*
X6662267Y-6425539D01*
X6651802Y-6416040D01*
X6640169Y-6407912D01*
X6629247Y-6402222D01*
G37*
G36*
X6482689Y-6456070D02*
G01*
X6536537Y-6456070D01*
X6536537Y-6402324D01*
X6531813Y-6404457D01*
X6519672Y-6411772D01*
X6508597Y-6420612D01*
X6498742Y-6430772D01*
X6490309Y-6442100D01*
X6483350Y-6454444D01*
G37*
G36*
X533400Y-6329680D02*
G01*
X547319Y-6328765D01*
X561035Y-6326073D01*
X574243Y-6321552D01*
X586740Y-6315405D01*
X598322Y-6307632D01*
X608838Y-6298438D01*
X618032Y-6287922D01*
X625805Y-6276340D01*
X631952Y-6263843D01*
X636473Y-6250635D01*
X639165Y-6236919D01*
X640080Y-6223000D01*
X639165Y-6209080D01*
X636473Y-6195364D01*
X631952Y-6182156D01*
X625805Y-6169660D01*
X618032Y-6158077D01*
X608838Y-6147562D01*
X598322Y-6138367D01*
X586740Y-6130594D01*
X574243Y-6124448D01*
X561035Y-6119926D01*
X547319Y-6117234D01*
X533400Y-6116320D01*
X519480Y-6117234D01*
X505764Y-6119926D01*
X492556Y-6124448D01*
X480059Y-6130594D01*
X468477Y-6138367D01*
X457962Y-6147562D01*
X448767Y-6158077D01*
X440994Y-6169660D01*
X434848Y-6182156D01*
X430326Y-6195364D01*
X427634Y-6209080D01*
X426720Y-6223000D01*
X427634Y-6236919D01*
X430326Y-6250635D01*
X434848Y-6263843D01*
X440994Y-6276340D01*
X448767Y-6287922D01*
X457962Y-6298438D01*
X468477Y-6307632D01*
X480059Y-6315405D01*
X492556Y-6321552D01*
X505764Y-6326073D01*
X519480Y-6328765D01*
G37*
G36*
X2057400Y-6329680D02*
G01*
X2071319Y-6328765D01*
X2085035Y-6326073D01*
X2098243Y-6321552D01*
X2110740Y-6315405D01*
X2122322Y-6307632D01*
X2132838Y-6298438D01*
X2142032Y-6287922D01*
X2149805Y-6276340D01*
X2155952Y-6263843D01*
X2160473Y-6250635D01*
X2163165Y-6236919D01*
X2164080Y-6223000D01*
X2163165Y-6209080D01*
X2160473Y-6195364D01*
X2155952Y-6182156D01*
X2149805Y-6169660D01*
X2142032Y-6158077D01*
X2132838Y-6147562D01*
X2122322Y-6138367D01*
X2110740Y-6130594D01*
X2098243Y-6124448D01*
X2085035Y-6119926D01*
X2071319Y-6117234D01*
X2057400Y-6116320D01*
X2043480Y-6117234D01*
X2029764Y-6119926D01*
X2016556Y-6124448D01*
X2004060Y-6130594D01*
X1992477Y-6138367D01*
X1981962Y-6147562D01*
X1972767Y-6158077D01*
X1964994Y-6169660D01*
X1958848Y-6182156D01*
X1954326Y-6195364D01*
X1951634Y-6209080D01*
X1950720Y-6223000D01*
X1951634Y-6236919D01*
X1954326Y-6250635D01*
X1958848Y-6263843D01*
X1964994Y-6276340D01*
X1972767Y-6287922D01*
X1981962Y-6298438D01*
X1992477Y-6307632D01*
X2004060Y-6315405D01*
X2016556Y-6321552D01*
X2029764Y-6326073D01*
X2043480Y-6328765D01*
G37*
G36*
X8188198Y-6231890D02*
G01*
X8221370Y-6231890D01*
X8221370Y-6167729D01*
X8157209Y-6167729D01*
X8157209Y-6200902D01*
X8157819Y-6207353D01*
X8159546Y-6213043D01*
X8162391Y-6218326D01*
X8166150Y-6222949D01*
X8170773Y-6226708D01*
X8176056Y-6229553D01*
X8181746Y-6231280D01*
G37*
G36*
X8006638Y-6231636D02*
G01*
X8020761Y-6231636D01*
X8034832Y-6229858D01*
X8048498Y-6226251D01*
X8061655Y-6220968D01*
X8073999Y-6214008D01*
X8085328Y-6205524D01*
X8095488Y-6195669D01*
X8104327Y-6184595D01*
X8111642Y-6172504D01*
X8117382Y-6159550D01*
X8121396Y-6145987D01*
X8123681Y-6132017D01*
X8124139Y-6117844D01*
X8122767Y-6103772D01*
X8119618Y-6089954D01*
X8114741Y-6076696D01*
X8108188Y-6064148D01*
X8100059Y-6052515D01*
X8090560Y-6042050D01*
X8079790Y-6032855D01*
X8067903Y-6025134D01*
X8055152Y-6018987D01*
X8041741Y-6014516D01*
X8027822Y-6011824D01*
X8013700Y-6010910D01*
X8008162Y-6011265D01*
X8003946Y-6010656D01*
X8000339Y-6008319D01*
X7985252Y-5993282D01*
X7983016Y-5989777D01*
X7982305Y-5985662D01*
X7983321Y-5981598D01*
X7985912Y-5978296D01*
X7989570Y-5976315D01*
X7993735Y-5976010D01*
X8006638Y-5977636D01*
X8020761Y-5977636D01*
X8034832Y-5975858D01*
X8048498Y-5972251D01*
X8061655Y-5966968D01*
X8073999Y-5960008D01*
X8085328Y-5951524D01*
X8095488Y-5941669D01*
X8104327Y-5930595D01*
X8111642Y-5918504D01*
X8117382Y-5905550D01*
X8121396Y-5891987D01*
X8123681Y-5878017D01*
X8124139Y-5863844D01*
X8122767Y-5849772D01*
X8119618Y-5835954D01*
X8114741Y-5822696D01*
X8108188Y-5810148D01*
X8100059Y-5798515D01*
X8090560Y-5788050D01*
X8079790Y-5778855D01*
X8067903Y-5771134D01*
X8055152Y-5764987D01*
X8041741Y-5760516D01*
X8027822Y-5757824D01*
X8013700Y-5756910D01*
X7999577Y-5757824D01*
X7985658Y-5760516D01*
X7972247Y-5764987D01*
X7959496Y-5771134D01*
X7947609Y-5778855D01*
X7936839Y-5788050D01*
X7927340Y-5798515D01*
X7919212Y-5810148D01*
X7912658Y-5822696D01*
X7907781Y-5835954D01*
X7904632Y-5849772D01*
X7903260Y-5863844D01*
X7903718Y-5878017D01*
X7905191Y-5887161D01*
X7904988Y-5891377D01*
X7903108Y-5895187D01*
X7899806Y-5897829D01*
X7895742Y-5898946D01*
X7891525Y-5898286D01*
X7887970Y-5896000D01*
X7811160Y-5819140D01*
X7808975Y-5815838D01*
X7808163Y-5811977D01*
X7808163Y-5613298D01*
X7807299Y-5601868D01*
X7804708Y-5591098D01*
X7800492Y-5580888D01*
X7794701Y-5571490D01*
X7787233Y-5562752D01*
X7619136Y-5394604D01*
X7617307Y-5392166D01*
X7616291Y-5389270D01*
X7616190Y-5386222D01*
X7618069Y-5370728D01*
X7618069Y-5355285D01*
X7616240Y-5339943D01*
X7612583Y-5324906D01*
X7607198Y-5310428D01*
X7600137Y-5296662D01*
X7591501Y-5283809D01*
X7581442Y-5272125D01*
X7570012Y-5261660D01*
X7557465Y-5252669D01*
X7543901Y-5245201D01*
X7529575Y-5239410D01*
X7514691Y-5235295D01*
X7499400Y-5233009D01*
X7483906Y-5232552D01*
X7468514Y-5233924D01*
X7453375Y-5237124D01*
X7438745Y-5242102D01*
X7424775Y-5248757D01*
X7411720Y-5256987D01*
X7399731Y-5266740D01*
X7388961Y-5277815D01*
X7379563Y-5290108D01*
X7371689Y-5303418D01*
X7365492Y-5317591D01*
X7360970Y-5332374D01*
X7358227Y-5347563D01*
X7357313Y-5363006D01*
X7358227Y-5378450D01*
X7360970Y-5393639D01*
X7365492Y-5408422D01*
X7371689Y-5422595D01*
X7379563Y-5435904D01*
X7388961Y-5448198D01*
X7399731Y-5459272D01*
X7411720Y-5469026D01*
X7424775Y-5477306D01*
X7438745Y-5483910D01*
X7453375Y-5488889D01*
X7468514Y-5492089D01*
X7483906Y-5493461D01*
X7499400Y-5493004D01*
X7510576Y-5491327D01*
X7513726Y-5491327D01*
X7516723Y-5492343D01*
X7519263Y-5494172D01*
X7664196Y-5639104D01*
X7666380Y-5642406D01*
X7667193Y-5646318D01*
X7667193Y-5844997D01*
X7668056Y-5856427D01*
X7670647Y-5867146D01*
X7674864Y-5877356D01*
X7680655Y-5886805D01*
X7688122Y-5895492D01*
X7900517Y-6107938D01*
X7902905Y-6111697D01*
X7903464Y-6116066D01*
X7903260Y-6117844D01*
X7903718Y-6132017D01*
X7906003Y-6145987D01*
X7910017Y-6159550D01*
X7915757Y-6172504D01*
X7923072Y-6184595D01*
X7931912Y-6195669D01*
X7942072Y-6205524D01*
X7953400Y-6214008D01*
X7965744Y-6220968D01*
X7978902Y-6226251D01*
X7992567Y-6229858D01*
G37*
G36*
X533400Y-6075680D02*
G01*
X547319Y-6074765D01*
X561035Y-6072073D01*
X574243Y-6067552D01*
X586740Y-6061405D01*
X598322Y-6053632D01*
X608838Y-6044438D01*
X618032Y-6033922D01*
X625805Y-6022340D01*
X631952Y-6009843D01*
X636473Y-5996635D01*
X639165Y-5982919D01*
X640080Y-5969000D01*
X639165Y-5955080D01*
X636473Y-5941364D01*
X631952Y-5928156D01*
X625805Y-5915660D01*
X618032Y-5904077D01*
X608838Y-5893562D01*
X598322Y-5884367D01*
X586740Y-5876594D01*
X574243Y-5870448D01*
X561035Y-5865926D01*
X547319Y-5863234D01*
X533400Y-5862320D01*
X519480Y-5863234D01*
X505764Y-5865926D01*
X492556Y-5870448D01*
X480059Y-5876594D01*
X468477Y-5884367D01*
X457962Y-5893562D01*
X448767Y-5904077D01*
X440994Y-5915660D01*
X434848Y-5928156D01*
X430326Y-5941364D01*
X427634Y-5955080D01*
X426720Y-5969000D01*
X427634Y-5982919D01*
X430326Y-5996635D01*
X434848Y-6009843D01*
X440994Y-6022340D01*
X448767Y-6033922D01*
X457962Y-6044438D01*
X468477Y-6053632D01*
X480059Y-6061405D01*
X492556Y-6067552D01*
X505764Y-6072073D01*
X519480Y-6074765D01*
G37*
G36*
X2057400Y-6075680D02*
G01*
X2071319Y-6074765D01*
X2085035Y-6072073D01*
X2098243Y-6067552D01*
X2110740Y-6061405D01*
X2122322Y-6053632D01*
X2132838Y-6044438D01*
X2142032Y-6033922D01*
X2149805Y-6022340D01*
X2155952Y-6009843D01*
X2160473Y-5996635D01*
X2163165Y-5982919D01*
X2164080Y-5969000D01*
X2163165Y-5955080D01*
X2160473Y-5941364D01*
X2155952Y-5928156D01*
X2149805Y-5915660D01*
X2142032Y-5904077D01*
X2132838Y-5893562D01*
X2122322Y-5884367D01*
X2110740Y-5876594D01*
X2098243Y-5870448D01*
X2085035Y-5865926D01*
X2071319Y-5863234D01*
X2057400Y-5862320D01*
X2043480Y-5863234D01*
X2029764Y-5865926D01*
X2016556Y-5870448D01*
X2004060Y-5876594D01*
X1992477Y-5884367D01*
X1981962Y-5893562D01*
X1972767Y-5904077D01*
X1964994Y-5915660D01*
X1958848Y-5928156D01*
X1954326Y-5941364D01*
X1951634Y-5955080D01*
X1950720Y-5969000D01*
X1951634Y-5982919D01*
X1954326Y-5996635D01*
X1958848Y-6009843D01*
X1964994Y-6022340D01*
X1972767Y-6033922D01*
X1981962Y-6044438D01*
X1992477Y-6053632D01*
X2004060Y-6061405D01*
X2016556Y-6067552D01*
X2029764Y-6072073D01*
X2043480Y-6074765D01*
G37*
G36*
X8157209Y-6075070D02*
G01*
X8221370Y-6075070D01*
X8221370Y-6010910D01*
X8188198Y-6010910D01*
X8181746Y-6011519D01*
X8176056Y-6013246D01*
X8170773Y-6016091D01*
X8166150Y-6019850D01*
X8162391Y-6024473D01*
X8159546Y-6029756D01*
X8157819Y-6035446D01*
X8157209Y-6041898D01*
G37*
G36*
X7483906Y-5943447D02*
G01*
X7499400Y-5942990D01*
X7514691Y-5940704D01*
X7529575Y-5936589D01*
X7543901Y-5930798D01*
X7557465Y-5923330D01*
X7570012Y-5914339D01*
X7581442Y-5903874D01*
X7591501Y-5892190D01*
X7600137Y-5879338D01*
X7607198Y-5865622D01*
X7612583Y-5851093D01*
X7616240Y-5836056D01*
X7618069Y-5820714D01*
X7618069Y-5805271D01*
X7616240Y-5789930D01*
X7612583Y-5774893D01*
X7607198Y-5760415D01*
X7600137Y-5746648D01*
X7591501Y-5733796D01*
X7581442Y-5722112D01*
X7570012Y-5711647D01*
X7557465Y-5702655D01*
X7543901Y-5695188D01*
X7529575Y-5689396D01*
X7514691Y-5685282D01*
X7499400Y-5682996D01*
X7483906Y-5682538D01*
X7468514Y-5683910D01*
X7453375Y-5687110D01*
X7438745Y-5692089D01*
X7424775Y-5698744D01*
X7411720Y-5706973D01*
X7399731Y-5716727D01*
X7388961Y-5727801D01*
X7379563Y-5740095D01*
X7371689Y-5753404D01*
X7365492Y-5767578D01*
X7360970Y-5782360D01*
X7358227Y-5797550D01*
X7357313Y-5812993D01*
X7358227Y-5828436D01*
X7360970Y-5843625D01*
X7365492Y-5858408D01*
X7371689Y-5872581D01*
X7379563Y-5885891D01*
X7388961Y-5898184D01*
X7399731Y-5909259D01*
X7411720Y-5919012D01*
X7424775Y-5927293D01*
X7438745Y-5933897D01*
X7453375Y-5938875D01*
X7468514Y-5942076D01*
G37*
G36*
X533400Y-5821680D02*
G01*
X547319Y-5820765D01*
X561035Y-5818073D01*
X574243Y-5813552D01*
X586740Y-5807405D01*
X598322Y-5799632D01*
X608838Y-5790438D01*
X618032Y-5779922D01*
X625805Y-5768340D01*
X631952Y-5755843D01*
X636473Y-5742635D01*
X639165Y-5728919D01*
X640080Y-5715000D01*
X639165Y-5701080D01*
X636473Y-5687364D01*
X631952Y-5674156D01*
X625805Y-5661660D01*
X618032Y-5650077D01*
X608838Y-5639562D01*
X598322Y-5630367D01*
X586740Y-5622594D01*
X574243Y-5616448D01*
X561035Y-5611926D01*
X547319Y-5609234D01*
X533400Y-5608320D01*
X519480Y-5609234D01*
X505764Y-5611926D01*
X492556Y-5616448D01*
X480059Y-5622594D01*
X468477Y-5630367D01*
X457962Y-5639562D01*
X448767Y-5650077D01*
X440994Y-5661660D01*
X434848Y-5674156D01*
X430326Y-5687364D01*
X427634Y-5701080D01*
X426720Y-5715000D01*
X427634Y-5728919D01*
X430326Y-5742635D01*
X434848Y-5755843D01*
X440994Y-5768340D01*
X448767Y-5779922D01*
X457962Y-5790438D01*
X468477Y-5799632D01*
X480059Y-5807405D01*
X492556Y-5813552D01*
X505764Y-5818073D01*
X519480Y-5820765D01*
G37*
G36*
X2057400Y-5821680D02*
G01*
X2071319Y-5820765D01*
X2085035Y-5818073D01*
X2098243Y-5813552D01*
X2110740Y-5807405D01*
X2122322Y-5799632D01*
X2132838Y-5790438D01*
X2142032Y-5779922D01*
X2149805Y-5768340D01*
X2155952Y-5755843D01*
X2160473Y-5742635D01*
X2163165Y-5728919D01*
X2164080Y-5715000D01*
X2163165Y-5701080D01*
X2160473Y-5687364D01*
X2155952Y-5674156D01*
X2149805Y-5661660D01*
X2142032Y-5650077D01*
X2132838Y-5639562D01*
X2122322Y-5630367D01*
X2110740Y-5622594D01*
X2098243Y-5616448D01*
X2085035Y-5611926D01*
X2071319Y-5609234D01*
X2057400Y-5608320D01*
X2043480Y-5609234D01*
X2029764Y-5611926D01*
X2016556Y-5616448D01*
X2004060Y-5622594D01*
X1992477Y-5630367D01*
X1981962Y-5639562D01*
X1972767Y-5650077D01*
X1964994Y-5661660D01*
X1958848Y-5674156D01*
X1954326Y-5687364D01*
X1951634Y-5701080D01*
X1950720Y-5715000D01*
X1951634Y-5728919D01*
X1954326Y-5742635D01*
X1958848Y-5755843D01*
X1964994Y-5768340D01*
X1972767Y-5779922D01*
X1981962Y-5790438D01*
X1992477Y-5799632D01*
X2004060Y-5807405D01*
X2016556Y-5813552D01*
X2029764Y-5818073D01*
X2043480Y-5820765D01*
G37*
G36*
X3323742Y-5723839D02*
G01*
X3337915Y-5723382D01*
X3351885Y-5721146D01*
X3365449Y-5717082D01*
X3378403Y-5711342D01*
X3390493Y-5704027D01*
X3401568Y-5695188D01*
X3411423Y-5685028D01*
X3419906Y-5673699D01*
X3426866Y-5661355D01*
X3432149Y-5648198D01*
X3435756Y-5634532D01*
X3437585Y-5620512D01*
X3437585Y-5606338D01*
X3435756Y-5592267D01*
X3432149Y-5578602D01*
X3426866Y-5565444D01*
X3419906Y-5553151D01*
X3411423Y-5541772D01*
X3401568Y-5531612D01*
X3390493Y-5522772D01*
X3378403Y-5515457D01*
X3365449Y-5509717D01*
X3351885Y-5505704D01*
X3337915Y-5503418D01*
X3323742Y-5502960D01*
X3309670Y-5504332D01*
X3295853Y-5507482D01*
X3282594Y-5512358D01*
X3270046Y-5518912D01*
X3258413Y-5527040D01*
X3247948Y-5536539D01*
X3238754Y-5547309D01*
X3231032Y-5559196D01*
X3224885Y-5571947D01*
X3220415Y-5585358D01*
X3217722Y-5599277D01*
X3216808Y-5613400D01*
X3217722Y-5627522D01*
X3220415Y-5641441D01*
X3224885Y-5654852D01*
X3231032Y-5667603D01*
X3238754Y-5679490D01*
X3247948Y-5690260D01*
X3258413Y-5699810D01*
X3270046Y-5707888D01*
X3282594Y-5714441D01*
X3295853Y-5719318D01*
X3309670Y-5722467D01*
G37*
G36*
X4263745Y-5723839D02*
G01*
X4277918Y-5723382D01*
X4291888Y-5721146D01*
X4305452Y-5717082D01*
X4318406Y-5711342D01*
X4330496Y-5704027D01*
X4341571Y-5695188D01*
X4351426Y-5685028D01*
X4359910Y-5673699D01*
X4366869Y-5661355D01*
X4372152Y-5648198D01*
X4375759Y-5634532D01*
X4377537Y-5620512D01*
X4377537Y-5606338D01*
X4375759Y-5592267D01*
X4372152Y-5578602D01*
X4366869Y-5565444D01*
X4359910Y-5553151D01*
X4351426Y-5541772D01*
X4341571Y-5531612D01*
X4330496Y-5522772D01*
X4318406Y-5515457D01*
X4305452Y-5509717D01*
X4291888Y-5505704D01*
X4277918Y-5503418D01*
X4263745Y-5502960D01*
X4249674Y-5504332D01*
X4235856Y-5507482D01*
X4222597Y-5512358D01*
X4210050Y-5518912D01*
X4198416Y-5527040D01*
X4187951Y-5536539D01*
X4178757Y-5547309D01*
X4171035Y-5559196D01*
X4164888Y-5571947D01*
X4160418Y-5585358D01*
X4157726Y-5599277D01*
X4156811Y-5613400D01*
X4157726Y-5627522D01*
X4160418Y-5641441D01*
X4164888Y-5654852D01*
X4171035Y-5667603D01*
X4178757Y-5679490D01*
X4187951Y-5690260D01*
X4198416Y-5699810D01*
X4210050Y-5707888D01*
X4222597Y-5714441D01*
X4235856Y-5719318D01*
X4249674Y-5722467D01*
G37*
G36*
X8006638Y-5723636D02*
G01*
X8020761Y-5723636D01*
X8034832Y-5721858D01*
X8048498Y-5718251D01*
X8061655Y-5712968D01*
X8073999Y-5706008D01*
X8085328Y-5697524D01*
X8095488Y-5687669D01*
X8104327Y-5676595D01*
X8111642Y-5664504D01*
X8117382Y-5651550D01*
X8121396Y-5637987D01*
X8123681Y-5624017D01*
X8124139Y-5609844D01*
X8122767Y-5595772D01*
X8119618Y-5581954D01*
X8114741Y-5568696D01*
X8108188Y-5556148D01*
X8100059Y-5544515D01*
X8090560Y-5534050D01*
X8079790Y-5524855D01*
X8067903Y-5517134D01*
X8055152Y-5510987D01*
X8041741Y-5506516D01*
X8027822Y-5503824D01*
X8013700Y-5502910D01*
X7999577Y-5503824D01*
X7985658Y-5506516D01*
X7972247Y-5510987D01*
X7959496Y-5517134D01*
X7947609Y-5524855D01*
X7936839Y-5534050D01*
X7927340Y-5544515D01*
X7919212Y-5556148D01*
X7912658Y-5568696D01*
X7907781Y-5581954D01*
X7904632Y-5595772D01*
X7903260Y-5609844D01*
X7903718Y-5624017D01*
X7906003Y-5637987D01*
X7910017Y-5651550D01*
X7915757Y-5664504D01*
X7923072Y-5676595D01*
X7931912Y-5687669D01*
X7942072Y-5697524D01*
X7953400Y-5706008D01*
X7965744Y-5712968D01*
X7978902Y-5718251D01*
X7992567Y-5721858D01*
G37*
G36*
X5483961Y-5700877D02*
G01*
X5494883Y-5695188D01*
X5506466Y-5687060D01*
X5516981Y-5677560D01*
X5526125Y-5666790D01*
X5533847Y-5654903D01*
X5537657Y-5647029D01*
X5483961Y-5647029D01*
G37*
G36*
X6403238Y-5700877D02*
G01*
X6403238Y-5647029D01*
X6349542Y-5647029D01*
X6353352Y-5654903D01*
X6361074Y-5666790D01*
X6370218Y-5677560D01*
X6380734Y-5687060D01*
X6392316Y-5695188D01*
G37*
G36*
X6495948Y-5700776D02*
G01*
X6500723Y-5698642D01*
X6512814Y-5691327D01*
X6523888Y-5682488D01*
X6533743Y-5672328D01*
X6542176Y-5660999D01*
X6549135Y-5648655D01*
X6549796Y-5647029D01*
X6495948Y-5647029D01*
G37*
G36*
X5391251Y-5700776D02*
G01*
X5391251Y-5647029D01*
X5337403Y-5647029D01*
X5338064Y-5648655D01*
X5345023Y-5660999D01*
X5353456Y-5672328D01*
X5363311Y-5682488D01*
X5374386Y-5691327D01*
X5386476Y-5698642D01*
G37*
G36*
X533400Y-5567680D02*
G01*
X547319Y-5566765D01*
X561035Y-5564073D01*
X574243Y-5559552D01*
X586740Y-5553405D01*
X598322Y-5545632D01*
X608838Y-5536438D01*
X618032Y-5525922D01*
X625805Y-5514340D01*
X631952Y-5501843D01*
X636473Y-5488635D01*
X639165Y-5474919D01*
X640080Y-5461000D01*
X639165Y-5447080D01*
X636473Y-5433364D01*
X631952Y-5420156D01*
X625805Y-5407660D01*
X618032Y-5396077D01*
X608838Y-5385562D01*
X598322Y-5376367D01*
X586740Y-5368594D01*
X574243Y-5362448D01*
X561035Y-5357926D01*
X547319Y-5355234D01*
X533400Y-5354320D01*
X519480Y-5355234D01*
X505764Y-5357926D01*
X492556Y-5362448D01*
X480059Y-5368594D01*
X468477Y-5376367D01*
X457962Y-5385562D01*
X448767Y-5396077D01*
X440994Y-5407660D01*
X434848Y-5420156D01*
X430326Y-5433364D01*
X427634Y-5447080D01*
X426720Y-5461000D01*
X427634Y-5474919D01*
X430326Y-5488635D01*
X434848Y-5501843D01*
X440994Y-5514340D01*
X448767Y-5525922D01*
X457962Y-5536438D01*
X468477Y-5545632D01*
X480059Y-5553405D01*
X492556Y-5559552D01*
X505764Y-5564073D01*
X519480Y-5566765D01*
G37*
G36*
X2012950Y-5557774D02*
G01*
X2012950Y-5505450D01*
X1960625Y-5505450D01*
X1964994Y-5514340D01*
X1972767Y-5525922D01*
X1981962Y-5536438D01*
X1992477Y-5545632D01*
X2004060Y-5553405D01*
G37*
G36*
X2101850Y-5557774D02*
G01*
X2110740Y-5553405D01*
X2122322Y-5545632D01*
X2132838Y-5536438D01*
X2142032Y-5525922D01*
X2149805Y-5514340D01*
X2154174Y-5505450D01*
X2101850Y-5505450D01*
G37*
G36*
X6349542Y-5554370D02*
G01*
X6403238Y-5554370D01*
X6403238Y-5500522D01*
X6392316Y-5506212D01*
X6380734Y-5514340D01*
X6370218Y-5523839D01*
X6361074Y-5534609D01*
X6353352Y-5546496D01*
G37*
G36*
X5483961Y-5554370D02*
G01*
X5537657Y-5554370D01*
X5533847Y-5546496D01*
X5526125Y-5534609D01*
X5516981Y-5523839D01*
X5506466Y-5514340D01*
X5494883Y-5506212D01*
X5483961Y-5500522D01*
G37*
G36*
X5337403Y-5554370D02*
G01*
X5391251Y-5554370D01*
X5391251Y-5500624D01*
X5386476Y-5502757D01*
X5374386Y-5510072D01*
X5363311Y-5518912D01*
X5353456Y-5529072D01*
X5345023Y-5540400D01*
X5338064Y-5552744D01*
G37*
G36*
X6495948Y-5554370D02*
G01*
X6549796Y-5554370D01*
X6549135Y-5552744D01*
X6542176Y-5540400D01*
X6533743Y-5529072D01*
X6523888Y-5518912D01*
X6512814Y-5510072D01*
X6500723Y-5502757D01*
X6495948Y-5500624D01*
G37*
G36*
X6833920Y-5493461D02*
G01*
X6849414Y-5493004D01*
X6864705Y-5490718D01*
X6879590Y-5486603D01*
X6893915Y-5480812D01*
X6907479Y-5473344D01*
X6920026Y-5464352D01*
X6931456Y-5453888D01*
X6941515Y-5442204D01*
X6950151Y-5429351D01*
X6957212Y-5415635D01*
X6962597Y-5401106D01*
X6966254Y-5386070D01*
X6968083Y-5370728D01*
X6968083Y-5355285D01*
X6966254Y-5339943D01*
X6962597Y-5324906D01*
X6957212Y-5310428D01*
X6950151Y-5296662D01*
X6941515Y-5283809D01*
X6931456Y-5272125D01*
X6920026Y-5261660D01*
X6907479Y-5252669D01*
X6893915Y-5245201D01*
X6879590Y-5239410D01*
X6864705Y-5235295D01*
X6849414Y-5233009D01*
X6833920Y-5232552D01*
X6818528Y-5233924D01*
X6803390Y-5237124D01*
X6788759Y-5242102D01*
X6774789Y-5248757D01*
X6761734Y-5256987D01*
X6749745Y-5266740D01*
X6738975Y-5277815D01*
X6729577Y-5290108D01*
X6721703Y-5303418D01*
X6715506Y-5317591D01*
X6710984Y-5332374D01*
X6708241Y-5347563D01*
X6707327Y-5363006D01*
X6708241Y-5378450D01*
X6710984Y-5393639D01*
X6715506Y-5408422D01*
X6721703Y-5422595D01*
X6729577Y-5435904D01*
X6738975Y-5448198D01*
X6749745Y-5459272D01*
X6761734Y-5469026D01*
X6774789Y-5477306D01*
X6788759Y-5483910D01*
X6803390Y-5488889D01*
X6818528Y-5492089D01*
G37*
G36*
X8006638Y-5469636D02*
G01*
X8020761Y-5469636D01*
X8034832Y-5467858D01*
X8048498Y-5464251D01*
X8061655Y-5458968D01*
X8073999Y-5452008D01*
X8085328Y-5443524D01*
X8095488Y-5433669D01*
X8104327Y-5422595D01*
X8111642Y-5410504D01*
X8117382Y-5397550D01*
X8121396Y-5383987D01*
X8123681Y-5370017D01*
X8124139Y-5355844D01*
X8122767Y-5341772D01*
X8119618Y-5327954D01*
X8114741Y-5314696D01*
X8108188Y-5302148D01*
X8100059Y-5290515D01*
X8090560Y-5280050D01*
X8079790Y-5270855D01*
X8067903Y-5263134D01*
X8055152Y-5256987D01*
X8041741Y-5252516D01*
X8027822Y-5249824D01*
X8013700Y-5248910D01*
X7999577Y-5249824D01*
X7985658Y-5252516D01*
X7972247Y-5256987D01*
X7959496Y-5263134D01*
X7947609Y-5270855D01*
X7936839Y-5280050D01*
X7927340Y-5290515D01*
X7919212Y-5302148D01*
X7912658Y-5314696D01*
X7907781Y-5327954D01*
X7904632Y-5341772D01*
X7903260Y-5355844D01*
X7903718Y-5370017D01*
X7906003Y-5383987D01*
X7910017Y-5397550D01*
X7915757Y-5410504D01*
X7923072Y-5422595D01*
X7931912Y-5433669D01*
X7942072Y-5443524D01*
X7953400Y-5452008D01*
X7965744Y-5458968D01*
X7978902Y-5464251D01*
X7992567Y-5467858D01*
G37*
G36*
X2101850Y-5416550D02*
G01*
X2154174Y-5416550D01*
X2149805Y-5407660D01*
X2142032Y-5396077D01*
X2132838Y-5385562D01*
X2122322Y-5376367D01*
X2110740Y-5368594D01*
X2101850Y-5364226D01*
G37*
G36*
X1960625Y-5416550D02*
G01*
X2012950Y-5416550D01*
X2012950Y-5364226D01*
X2004060Y-5368594D01*
X1992477Y-5376367D01*
X1981962Y-5385562D01*
X1972767Y-5396077D01*
X1964994Y-5407660D01*
G37*
G36*
X533400Y-5313680D02*
G01*
X547319Y-5312765D01*
X561035Y-5310073D01*
X574243Y-5305552D01*
X586740Y-5299405D01*
X598322Y-5291632D01*
X608838Y-5282438D01*
X618032Y-5271922D01*
X625805Y-5260340D01*
X631952Y-5247843D01*
X636473Y-5234635D01*
X639165Y-5220919D01*
X640080Y-5207000D01*
X639165Y-5193080D01*
X636473Y-5179364D01*
X631952Y-5166156D01*
X625805Y-5153660D01*
X618032Y-5142077D01*
X608838Y-5131562D01*
X598322Y-5122367D01*
X586740Y-5114594D01*
X574243Y-5108448D01*
X561035Y-5103926D01*
X547319Y-5101234D01*
X533400Y-5100320D01*
X519480Y-5101234D01*
X505764Y-5103926D01*
X492556Y-5108448D01*
X480059Y-5114594D01*
X468477Y-5122367D01*
X457962Y-5131562D01*
X448767Y-5142077D01*
X440994Y-5153660D01*
X434848Y-5166156D01*
X430326Y-5179364D01*
X427634Y-5193080D01*
X426720Y-5207000D01*
X427634Y-5220919D01*
X430326Y-5234635D01*
X434848Y-5247843D01*
X440994Y-5260340D01*
X448767Y-5271922D01*
X457962Y-5282438D01*
X468477Y-5291632D01*
X480059Y-5299405D01*
X492556Y-5305552D01*
X505764Y-5310073D01*
X519480Y-5312765D01*
G37*
G36*
X2057400Y-5313680D02*
G01*
X2071319Y-5312765D01*
X2085035Y-5310073D01*
X2098243Y-5305552D01*
X2110740Y-5299405D01*
X2122322Y-5291632D01*
X2132838Y-5282438D01*
X2142032Y-5271922D01*
X2149805Y-5260340D01*
X2155952Y-5247843D01*
X2160473Y-5234635D01*
X2163165Y-5220919D01*
X2164080Y-5207000D01*
X2163165Y-5193080D01*
X2160473Y-5179364D01*
X2155952Y-5166156D01*
X2149805Y-5153660D01*
X2142032Y-5142077D01*
X2132838Y-5131562D01*
X2122322Y-5122367D01*
X2110740Y-5114594D01*
X2098243Y-5108448D01*
X2085035Y-5103926D01*
X2071319Y-5101234D01*
X2057400Y-5100320D01*
X2055469Y-5100421D01*
X2051202Y-5099812D01*
X2047595Y-5097475D01*
X2023973Y-5073853D01*
X2021636Y-5070246D01*
X2021027Y-5066030D01*
X2022195Y-5061915D01*
X2024989Y-5058613D01*
X2028850Y-5056784D01*
X2033168Y-5056733D01*
X2043480Y-5058765D01*
X2057400Y-5059680D01*
X2071319Y-5058765D01*
X2085035Y-5056073D01*
X2098243Y-5051552D01*
X2110740Y-5045405D01*
X2122322Y-5037632D01*
X2132838Y-5028438D01*
X2142032Y-5017922D01*
X2149805Y-5006340D01*
X2155952Y-4993843D01*
X2160473Y-4980635D01*
X2163165Y-4966919D01*
X2164080Y-4953000D01*
X2163165Y-4939080D01*
X2160473Y-4925364D01*
X2155952Y-4912156D01*
X2149805Y-4899660D01*
X2142032Y-4888077D01*
X2132838Y-4877562D01*
X2122322Y-4868367D01*
X2110740Y-4860594D01*
X2098243Y-4854448D01*
X2085035Y-4849926D01*
X2071319Y-4847234D01*
X2057400Y-4846320D01*
X2043480Y-4847234D01*
X2029764Y-4849926D01*
X2016556Y-4854448D01*
X2004060Y-4860594D01*
X1992477Y-4868367D01*
X1983486Y-4876190D01*
X1980184Y-4878171D01*
X1976374Y-4878730D01*
X1972614Y-4877816D01*
X1969465Y-4875580D01*
X1967382Y-4872380D01*
X1966620Y-4868570D01*
X1966620Y-4783429D01*
X1967382Y-4779619D01*
X1969465Y-4776419D01*
X1972614Y-4774184D01*
X1976374Y-4773269D01*
X1980184Y-4773828D01*
X1983486Y-4775809D01*
X1992477Y-4783632D01*
X2004060Y-4791405D01*
X2016556Y-4797552D01*
X2029764Y-4802073D01*
X2043480Y-4804765D01*
X2057400Y-4805680D01*
X2071319Y-4804765D01*
X2085035Y-4802073D01*
X2098243Y-4797552D01*
X2110740Y-4791405D01*
X2122322Y-4783632D01*
X2132838Y-4774438D01*
X2142032Y-4763922D01*
X2149805Y-4752340D01*
X2155952Y-4739843D01*
X2160473Y-4726635D01*
X2163165Y-4712919D01*
X2164080Y-4699000D01*
X2163165Y-4685080D01*
X2160473Y-4671364D01*
X2155952Y-4658156D01*
X2149805Y-4645660D01*
X2142032Y-4634077D01*
X2132838Y-4623562D01*
X2122322Y-4614367D01*
X2110740Y-4606594D01*
X2098243Y-4600448D01*
X2085035Y-4595926D01*
X2071319Y-4593234D01*
X2057400Y-4592320D01*
X2043480Y-4593234D01*
X2029764Y-4595926D01*
X2016556Y-4600448D01*
X2004060Y-4606594D01*
X1992477Y-4614367D01*
X1983486Y-4622190D01*
X1980184Y-4624171D01*
X1976374Y-4624730D01*
X1972614Y-4623816D01*
X1969465Y-4621580D01*
X1967382Y-4618380D01*
X1966620Y-4614570D01*
X1966620Y-2080209D01*
X1967433Y-2076297D01*
X1969617Y-2072995D01*
X2271928Y-1770735D01*
X2275230Y-1768500D01*
X2280666Y-1767738D01*
X2284526Y-1768500D01*
X2287828Y-1770735D01*
X2754223Y-2237079D01*
X2756408Y-2240381D01*
X2757170Y-2244242D01*
X2757170Y-2270506D01*
X2758084Y-2284628D01*
X2760776Y-2298141D01*
X2765247Y-2311247D01*
X2771343Y-2323592D01*
X2779014Y-2335072D01*
X2788107Y-2345436D01*
X2798470Y-2354529D01*
X2809951Y-2362200D01*
X2822295Y-2368296D01*
X2835402Y-2372766D01*
X2848914Y-2375458D01*
X2862681Y-2376373D01*
X2876448Y-2375458D01*
X2890012Y-2372766D01*
X2903067Y-2368296D01*
X2915412Y-2362200D01*
X2926892Y-2354529D01*
X2937256Y-2345436D01*
X2946349Y-2335072D01*
X2954020Y-2323592D01*
X2960166Y-2311247D01*
X2964586Y-2298141D01*
X2967278Y-2284628D01*
X2968193Y-2270506D01*
X2968193Y-2221179D01*
X2967278Y-2207107D01*
X2964586Y-2193544D01*
X2960166Y-2180488D01*
X2954020Y-2168144D01*
X2946349Y-2156663D01*
X2937256Y-2146249D01*
X2926892Y-2137156D01*
X2915412Y-2129485D01*
X2903067Y-2123389D01*
X2890012Y-2118969D01*
X2876448Y-2116277D01*
X2862681Y-2115362D01*
X2848914Y-2116277D01*
X2840837Y-2117902D01*
X2837535Y-2118004D01*
X2834335Y-2117039D01*
X2831642Y-2115108D01*
X2364181Y-1647647D01*
X2355494Y-1640230D01*
X2346045Y-1634439D01*
X2335834Y-1630222D01*
X2325116Y-1627632D01*
X2313686Y-1626717D01*
X2279091Y-1626717D01*
X2275230Y-1625955D01*
X2271928Y-1623720D01*
X2197963Y-1549857D01*
X2195830Y-1546707D01*
X2195017Y-1542999D01*
X2195626Y-1539240D01*
X2197557Y-1535938D01*
X2200503Y-1533601D01*
X2204161Y-1532534D01*
X2206853Y-1532280D01*
X2212543Y-1530553D01*
X2217826Y-1527708D01*
X2222449Y-1523949D01*
X2226208Y-1519326D01*
X2229053Y-1514043D01*
X2230780Y-1508353D01*
X2231390Y-1501902D01*
X2231390Y-1342898D01*
X2230780Y-1336446D01*
X2229053Y-1330756D01*
X2226208Y-1325473D01*
X2222449Y-1320850D01*
X2217826Y-1317091D01*
X2212543Y-1314246D01*
X2206853Y-1312519D01*
X2200402Y-1311910D01*
X2041398Y-1311910D01*
X2034946Y-1312519D01*
X2029256Y-1314246D01*
X2023973Y-1317091D01*
X2019350Y-1320850D01*
X2015591Y-1325473D01*
X2012746Y-1330756D01*
X2011019Y-1336446D01*
X2010410Y-1342898D01*
X2010410Y-1501902D01*
X2011019Y-1508353D01*
X2012746Y-1514043D01*
X2015591Y-1519326D01*
X2019350Y-1523949D01*
X2023973Y-1527708D01*
X2029256Y-1530553D01*
X2034946Y-1532280D01*
X2041245Y-1532890D01*
X2044801Y-1533906D01*
X2047748Y-1536192D01*
X2049729Y-1539341D01*
X2050389Y-1542999D01*
X2050389Y-1572056D01*
X2051304Y-1583486D01*
X2053894Y-1594256D01*
X2058111Y-1604467D01*
X2063902Y-1613865D01*
X2071319Y-1622602D01*
X2138781Y-1690065D01*
X2140966Y-1693367D01*
X2141778Y-1697228D01*
X2140966Y-1701139D01*
X2138781Y-1704441D01*
X1846580Y-1996643D01*
X1839112Y-2005380D01*
X1833321Y-2014778D01*
X1829104Y-2024989D01*
X1826514Y-2035759D01*
X1825650Y-2047189D01*
X1825650Y-5045354D01*
X1826514Y-5056784D01*
X1829104Y-5067503D01*
X1833321Y-5077714D01*
X1839112Y-5087162D01*
X1846580Y-5095849D01*
X1947875Y-5197195D01*
X1950212Y-5200802D01*
X1950821Y-5205069D01*
X1950720Y-5207000D01*
X1951634Y-5220919D01*
X1954326Y-5234635D01*
X1958848Y-5247843D01*
X1964994Y-5260340D01*
X1972767Y-5271922D01*
X1981962Y-5282438D01*
X1992477Y-5291632D01*
X2004060Y-5299405D01*
X2016556Y-5305552D01*
X2029764Y-5310073D01*
X2043480Y-5312765D01*
G37*
G36*
X533400Y-5059680D02*
G01*
X547319Y-5058765D01*
X561035Y-5056073D01*
X574243Y-5051552D01*
X586740Y-5045405D01*
X598322Y-5037632D01*
X608838Y-5028438D01*
X618032Y-5017922D01*
X625805Y-5006340D01*
X631952Y-4993843D01*
X636473Y-4980635D01*
X639165Y-4966919D01*
X640080Y-4953000D01*
X639165Y-4939080D01*
X636473Y-4925364D01*
X631952Y-4912156D01*
X625805Y-4899660D01*
X618032Y-4888077D01*
X608838Y-4877562D01*
X598322Y-4868367D01*
X586740Y-4860594D01*
X574243Y-4854448D01*
X561035Y-4849926D01*
X547319Y-4847234D01*
X533400Y-4846320D01*
X519480Y-4847234D01*
X505764Y-4849926D01*
X492556Y-4854448D01*
X480059Y-4860594D01*
X468477Y-4868367D01*
X457962Y-4877562D01*
X448767Y-4888077D01*
X440994Y-4899660D01*
X434848Y-4912156D01*
X430326Y-4925364D01*
X427634Y-4939080D01*
X426720Y-4953000D01*
X427634Y-4966919D01*
X430326Y-4980635D01*
X434848Y-4993843D01*
X440994Y-5006340D01*
X448767Y-5017922D01*
X457962Y-5028438D01*
X468477Y-5037632D01*
X480059Y-5045405D01*
X492556Y-5051552D01*
X505764Y-5056073D01*
X519480Y-5058765D01*
G37*
G36*
X533400Y-4805680D02*
G01*
X547319Y-4804765D01*
X561035Y-4802073D01*
X574243Y-4797552D01*
X586740Y-4791405D01*
X598322Y-4783632D01*
X608838Y-4774438D01*
X618032Y-4763922D01*
X625805Y-4752340D01*
X631952Y-4739843D01*
X636473Y-4726635D01*
X639165Y-4712919D01*
X640080Y-4699000D01*
X639165Y-4685080D01*
X636473Y-4671364D01*
X631952Y-4658156D01*
X625805Y-4645660D01*
X618032Y-4634077D01*
X608838Y-4623562D01*
X598322Y-4614367D01*
X586740Y-4606594D01*
X574243Y-4600448D01*
X561035Y-4595926D01*
X547319Y-4593234D01*
X533400Y-4592320D01*
X519480Y-4593234D01*
X505764Y-4595926D01*
X492556Y-4600448D01*
X480059Y-4606594D01*
X468477Y-4614367D01*
X457962Y-4623562D01*
X448767Y-4634077D01*
X440994Y-4645660D01*
X434848Y-4658156D01*
X430326Y-4671364D01*
X427634Y-4685080D01*
X426720Y-4699000D01*
X427634Y-4712919D01*
X430326Y-4726635D01*
X434848Y-4739843D01*
X440994Y-4752340D01*
X448767Y-4763922D01*
X457962Y-4774438D01*
X468477Y-4783632D01*
X480059Y-4791405D01*
X492556Y-4797552D01*
X505764Y-4802073D01*
X519480Y-4804765D01*
G37*
G36*
X854506Y-4241647D02*
G01*
X870000Y-4241190D01*
X885291Y-4238904D01*
X900176Y-4234789D01*
X914501Y-4228998D01*
X928065Y-4221530D01*
X940612Y-4212539D01*
X952042Y-4202074D01*
X962101Y-4190390D01*
X970737Y-4177537D01*
X977798Y-4163822D01*
X983183Y-4149293D01*
X986840Y-4134256D01*
X988669Y-4118914D01*
X988669Y-4103471D01*
X986840Y-4088129D01*
X983183Y-4073093D01*
X977798Y-4058615D01*
X970737Y-4044848D01*
X962101Y-4031996D01*
X952042Y-4020312D01*
X940612Y-4009847D01*
X928065Y-4000855D01*
X914501Y-3993387D01*
X900176Y-3987596D01*
X885291Y-3983482D01*
X870000Y-3981196D01*
X854506Y-3980738D01*
X839114Y-3982110D01*
X823976Y-3985310D01*
X809345Y-3990289D01*
X795375Y-3996944D01*
X782320Y-4005173D01*
X770331Y-4014927D01*
X759561Y-4026001D01*
X750163Y-4038295D01*
X742289Y-4051604D01*
X736092Y-4065778D01*
X731570Y-4080560D01*
X728827Y-4095750D01*
X727913Y-4111193D01*
X728827Y-4126636D01*
X731570Y-4141825D01*
X736092Y-4156608D01*
X742289Y-4170781D01*
X750163Y-4184091D01*
X759561Y-4196384D01*
X770331Y-4207459D01*
X782320Y-4217212D01*
X795375Y-4225493D01*
X809345Y-4232097D01*
X823976Y-4237075D01*
X839114Y-4240276D01*
G37*
G36*
X204520Y-4241647D02*
G01*
X220014Y-4241190D01*
X235305Y-4238904D01*
X250190Y-4234789D01*
X264515Y-4228998D01*
X278079Y-4221530D01*
X290626Y-4212539D01*
X302056Y-4202074D01*
X312115Y-4190390D01*
X320751Y-4177537D01*
X327812Y-4163822D01*
X333197Y-4149293D01*
X336854Y-4134256D01*
X338683Y-4118914D01*
X338683Y-4103471D01*
X336854Y-4088129D01*
X333197Y-4073093D01*
X327812Y-4058615D01*
X320751Y-4044848D01*
X312115Y-4031996D01*
X302056Y-4020312D01*
X290626Y-4009847D01*
X278079Y-4000855D01*
X264515Y-3993387D01*
X250190Y-3987596D01*
X235305Y-3983482D01*
X220014Y-3981196D01*
X204520Y-3980738D01*
X189128Y-3982110D01*
X173990Y-3985310D01*
X159359Y-3990289D01*
X145389Y-3996944D01*
X132334Y-4005173D01*
X120345Y-4014927D01*
X109575Y-4026001D01*
X100177Y-4038295D01*
X92303Y-4051604D01*
X86106Y-4065778D01*
X81584Y-4080560D01*
X78841Y-4095750D01*
X77927Y-4111193D01*
X78841Y-4126636D01*
X81584Y-4141825D01*
X86106Y-4156608D01*
X92303Y-4170781D01*
X100177Y-4184091D01*
X109575Y-4196384D01*
X120345Y-4207459D01*
X132334Y-4217212D01*
X145389Y-4225493D01*
X159359Y-4232097D01*
X173990Y-4237075D01*
X189128Y-4240276D01*
G37*
G36*
X5656681Y-3900373D02*
G01*
X5670448Y-3899509D01*
X5684012Y-3896817D01*
X5697067Y-3892346D01*
X5709462Y-3886250D01*
X5720892Y-3878579D01*
X5731306Y-3869486D01*
X5740400Y-3859123D01*
X5748070Y-3847642D01*
X5754166Y-3835298D01*
X5758586Y-3822192D01*
X5761278Y-3808679D01*
X5762193Y-3794556D01*
X5762193Y-3745229D01*
X5761278Y-3731158D01*
X5758586Y-3717594D01*
X5754166Y-3704539D01*
X5748070Y-3692144D01*
X5740400Y-3680714D01*
X5731306Y-3670300D01*
X5720892Y-3661206D01*
X5709462Y-3653536D01*
X5697067Y-3647440D01*
X5684012Y-3643020D01*
X5670448Y-3640328D01*
X5656681Y-3639413D01*
X5642914Y-3640328D01*
X5629402Y-3643020D01*
X5616346Y-3647440D01*
X5603951Y-3653536D01*
X5592470Y-3661206D01*
X5582107Y-3670300D01*
X5573014Y-3680714D01*
X5565343Y-3692144D01*
X5559247Y-3704539D01*
X5554827Y-3717594D01*
X5552135Y-3731158D01*
X5551170Y-3745229D01*
X5551170Y-3794556D01*
X5552135Y-3808679D01*
X5554827Y-3822192D01*
X5559247Y-3835298D01*
X5565343Y-3847642D01*
X5573014Y-3859123D01*
X5582107Y-3869486D01*
X5592470Y-3878579D01*
X5603951Y-3886250D01*
X5616346Y-3892346D01*
X5629402Y-3896817D01*
X5642914Y-3899509D01*
G37*
G36*
X6164681Y-3900373D02*
G01*
X6178448Y-3899509D01*
X6192012Y-3896817D01*
X6205067Y-3892346D01*
X6217462Y-3886250D01*
X6228892Y-3878579D01*
X6239306Y-3869486D01*
X6248400Y-3859123D01*
X6256070Y-3847642D01*
X6262166Y-3835298D01*
X6266586Y-3822192D01*
X6269278Y-3808679D01*
X6270193Y-3794556D01*
X6270193Y-3745229D01*
X6269278Y-3731158D01*
X6266586Y-3717594D01*
X6262166Y-3704539D01*
X6256070Y-3692144D01*
X6248400Y-3680714D01*
X6239306Y-3670300D01*
X6228892Y-3661206D01*
X6217462Y-3653536D01*
X6205067Y-3647440D01*
X6192012Y-3643020D01*
X6178448Y-3640328D01*
X6164681Y-3639413D01*
X6150914Y-3640328D01*
X6137402Y-3643020D01*
X6124346Y-3647440D01*
X6111951Y-3653536D01*
X6100470Y-3661206D01*
X6090107Y-3670300D01*
X6081014Y-3680714D01*
X6073343Y-3692144D01*
X6067247Y-3704539D01*
X6062827Y-3717594D01*
X6060135Y-3731158D01*
X6059170Y-3745229D01*
X6059170Y-3794556D01*
X6060135Y-3808679D01*
X6062827Y-3822192D01*
X6067247Y-3835298D01*
X6073343Y-3847642D01*
X6081014Y-3859123D01*
X6090107Y-3869486D01*
X6100470Y-3878579D01*
X6111951Y-3886250D01*
X6124346Y-3892346D01*
X6137402Y-3896817D01*
X6150914Y-3899509D01*
G37*
G36*
X5910681Y-3900373D02*
G01*
X5924448Y-3899509D01*
X5938012Y-3896817D01*
X5951067Y-3892346D01*
X5963462Y-3886250D01*
X5974892Y-3878579D01*
X5985306Y-3869486D01*
X5994400Y-3859123D01*
X6002070Y-3847642D01*
X6008166Y-3835298D01*
X6012586Y-3822192D01*
X6015278Y-3808679D01*
X6016193Y-3794556D01*
X6016193Y-3745229D01*
X6015278Y-3731158D01*
X6012586Y-3717594D01*
X6008166Y-3704539D01*
X6002070Y-3692144D01*
X5994400Y-3680714D01*
X5985306Y-3670300D01*
X5974892Y-3661206D01*
X5963462Y-3653536D01*
X5951067Y-3647440D01*
X5938012Y-3643020D01*
X5924448Y-3640328D01*
X5910681Y-3639413D01*
X5896914Y-3640328D01*
X5883402Y-3643020D01*
X5870346Y-3647440D01*
X5857951Y-3653536D01*
X5846470Y-3661206D01*
X5836107Y-3670300D01*
X5827014Y-3680714D01*
X5819343Y-3692144D01*
X5813247Y-3704539D01*
X5808827Y-3717594D01*
X5806135Y-3731158D01*
X5805170Y-3745229D01*
X5805170Y-3794556D01*
X5806135Y-3808679D01*
X5808827Y-3822192D01*
X5813247Y-3835298D01*
X5819343Y-3847642D01*
X5827014Y-3859123D01*
X5836107Y-3869486D01*
X5846470Y-3878579D01*
X5857951Y-3886250D01*
X5870346Y-3892346D01*
X5883402Y-3896817D01*
X5896914Y-3899509D01*
G37*
G36*
X5402681Y-3900373D02*
G01*
X5416448Y-3899509D01*
X5430012Y-3896817D01*
X5443067Y-3892346D01*
X5455462Y-3886250D01*
X5466892Y-3878579D01*
X5477306Y-3869486D01*
X5486400Y-3859123D01*
X5494070Y-3847642D01*
X5500166Y-3835298D01*
X5504586Y-3822192D01*
X5507278Y-3808679D01*
X5508193Y-3794556D01*
X5508193Y-3745229D01*
X5507278Y-3731158D01*
X5504586Y-3717594D01*
X5500166Y-3704539D01*
X5494070Y-3692144D01*
X5486400Y-3680714D01*
X5477306Y-3670300D01*
X5466892Y-3661206D01*
X5455462Y-3653536D01*
X5443067Y-3647440D01*
X5430012Y-3643020D01*
X5416448Y-3640328D01*
X5402681Y-3639413D01*
X5388914Y-3640328D01*
X5375402Y-3643020D01*
X5362346Y-3647440D01*
X5349951Y-3653536D01*
X5338470Y-3661206D01*
X5328107Y-3670300D01*
X5319014Y-3680714D01*
X5311343Y-3692144D01*
X5305247Y-3704539D01*
X5300827Y-3717594D01*
X5298135Y-3731158D01*
X5297170Y-3745229D01*
X5297170Y-3794556D01*
X5298135Y-3808679D01*
X5300827Y-3822192D01*
X5305247Y-3835298D01*
X5311343Y-3847642D01*
X5319014Y-3859123D01*
X5328107Y-3869486D01*
X5338470Y-3878579D01*
X5349951Y-3886250D01*
X5362346Y-3892346D01*
X5375402Y-3896817D01*
X5388914Y-3899509D01*
G37*
G36*
X6418681Y-3900373D02*
G01*
X6432448Y-3899509D01*
X6446012Y-3896817D01*
X6459067Y-3892346D01*
X6471462Y-3886250D01*
X6482892Y-3878579D01*
X6493306Y-3869486D01*
X6502400Y-3859123D01*
X6510070Y-3847642D01*
X6516166Y-3835298D01*
X6520586Y-3822192D01*
X6523278Y-3808679D01*
X6524193Y-3794556D01*
X6524193Y-3745229D01*
X6523278Y-3731158D01*
X6520586Y-3717594D01*
X6516166Y-3704539D01*
X6510070Y-3692144D01*
X6502400Y-3680714D01*
X6493306Y-3670300D01*
X6482892Y-3661206D01*
X6471462Y-3653536D01*
X6459067Y-3647440D01*
X6446012Y-3643020D01*
X6432448Y-3640328D01*
X6418681Y-3639413D01*
X6404914Y-3640328D01*
X6391402Y-3643020D01*
X6378346Y-3647440D01*
X6365951Y-3653536D01*
X6354470Y-3661206D01*
X6344107Y-3670300D01*
X6335014Y-3680714D01*
X6327343Y-3692144D01*
X6321247Y-3704539D01*
X6316827Y-3717594D01*
X6314135Y-3731158D01*
X6313170Y-3745229D01*
X6313170Y-3794556D01*
X6314135Y-3808679D01*
X6316827Y-3822192D01*
X6321247Y-3835298D01*
X6327343Y-3847642D01*
X6335014Y-3859123D01*
X6344107Y-3869486D01*
X6354470Y-3878579D01*
X6365951Y-3886250D01*
X6378346Y-3892346D01*
X6391402Y-3896817D01*
X6404914Y-3899509D01*
G37*
G36*
X3878681Y-3900373D02*
G01*
X3892448Y-3899509D01*
X3906012Y-3896817D01*
X3919067Y-3892346D01*
X3931462Y-3886250D01*
X3942892Y-3878579D01*
X3953306Y-3869486D01*
X3962400Y-3859123D01*
X3970070Y-3847642D01*
X3976166Y-3835298D01*
X3980586Y-3822192D01*
X3983278Y-3808679D01*
X3984193Y-3794556D01*
X3984193Y-3745229D01*
X3983278Y-3731158D01*
X3980586Y-3717594D01*
X3976166Y-3704539D01*
X3970070Y-3692144D01*
X3962400Y-3680714D01*
X3953306Y-3670300D01*
X3942892Y-3661206D01*
X3931462Y-3653536D01*
X3919067Y-3647440D01*
X3906012Y-3643020D01*
X3892448Y-3640328D01*
X3878681Y-3639413D01*
X3864914Y-3640328D01*
X3851401Y-3643020D01*
X3838346Y-3647440D01*
X3825951Y-3653536D01*
X3814470Y-3661206D01*
X3804107Y-3670300D01*
X3795014Y-3680714D01*
X3787343Y-3692144D01*
X3781247Y-3704539D01*
X3776827Y-3717594D01*
X3774135Y-3731158D01*
X3773170Y-3745229D01*
X3773170Y-3794556D01*
X3774135Y-3808679D01*
X3776827Y-3822192D01*
X3781247Y-3835298D01*
X3787343Y-3847642D01*
X3795014Y-3859123D01*
X3804107Y-3869486D01*
X3814470Y-3878579D01*
X3825951Y-3886250D01*
X3838346Y-3892346D01*
X3851401Y-3896817D01*
X3864914Y-3899509D01*
G37*
G36*
X4386681Y-3900373D02*
G01*
X4400448Y-3899509D01*
X4414012Y-3896817D01*
X4427067Y-3892346D01*
X4439462Y-3886250D01*
X4450892Y-3878579D01*
X4461306Y-3869486D01*
X4470400Y-3859123D01*
X4478070Y-3847642D01*
X4484166Y-3835298D01*
X4488586Y-3822192D01*
X4491278Y-3808679D01*
X4492193Y-3794556D01*
X4492193Y-3745229D01*
X4491278Y-3731158D01*
X4488586Y-3717594D01*
X4484166Y-3704539D01*
X4478070Y-3692144D01*
X4470400Y-3680714D01*
X4461306Y-3670300D01*
X4450892Y-3661206D01*
X4439462Y-3653536D01*
X4427067Y-3647440D01*
X4414012Y-3643020D01*
X4400448Y-3640328D01*
X4386681Y-3639413D01*
X4372914Y-3640328D01*
X4359402Y-3643020D01*
X4346346Y-3647440D01*
X4333951Y-3653536D01*
X4322470Y-3661206D01*
X4312107Y-3670300D01*
X4303014Y-3680714D01*
X4295343Y-3692144D01*
X4289247Y-3704539D01*
X4284827Y-3717594D01*
X4282135Y-3731158D01*
X4281170Y-3745229D01*
X4281170Y-3794556D01*
X4282135Y-3808679D01*
X4284827Y-3822192D01*
X4289247Y-3835298D01*
X4295343Y-3847642D01*
X4303014Y-3859123D01*
X4312107Y-3869486D01*
X4322470Y-3878579D01*
X4333951Y-3886250D01*
X4346346Y-3892346D01*
X4359402Y-3896817D01*
X4372914Y-3899509D01*
G37*
G36*
X6672681Y-3900373D02*
G01*
X6686448Y-3899509D01*
X6700012Y-3896817D01*
X6713067Y-3892346D01*
X6725462Y-3886250D01*
X6736892Y-3878579D01*
X6747306Y-3869486D01*
X6756400Y-3859123D01*
X6764070Y-3847642D01*
X6770166Y-3835298D01*
X6774586Y-3822192D01*
X6777278Y-3808679D01*
X6778193Y-3794556D01*
X6778193Y-3745229D01*
X6777278Y-3731158D01*
X6774586Y-3717594D01*
X6770166Y-3704539D01*
X6764070Y-3692144D01*
X6756400Y-3680714D01*
X6747306Y-3670300D01*
X6736892Y-3661206D01*
X6725462Y-3653536D01*
X6713067Y-3647440D01*
X6700012Y-3643020D01*
X6686448Y-3640328D01*
X6672681Y-3639413D01*
X6658914Y-3640328D01*
X6645402Y-3643020D01*
X6632346Y-3647440D01*
X6619951Y-3653536D01*
X6608470Y-3661206D01*
X6598107Y-3670300D01*
X6589014Y-3680714D01*
X6581343Y-3692144D01*
X6575247Y-3704539D01*
X6570827Y-3717594D01*
X6568135Y-3731158D01*
X6567170Y-3745229D01*
X6567170Y-3794556D01*
X6568135Y-3808679D01*
X6570827Y-3822192D01*
X6575247Y-3835298D01*
X6581343Y-3847642D01*
X6589014Y-3859123D01*
X6598107Y-3869486D01*
X6608470Y-3878579D01*
X6619951Y-3886250D01*
X6632346Y-3892346D01*
X6645402Y-3896817D01*
X6658914Y-3899509D01*
G37*
G36*
X5148681Y-3900373D02*
G01*
X5162448Y-3899509D01*
X5176012Y-3896817D01*
X5189067Y-3892346D01*
X5201462Y-3886250D01*
X5212892Y-3878579D01*
X5223306Y-3869486D01*
X5232400Y-3859123D01*
X5240070Y-3847642D01*
X5246166Y-3835298D01*
X5250586Y-3822192D01*
X5253278Y-3808679D01*
X5254193Y-3794556D01*
X5254193Y-3745229D01*
X5253278Y-3731158D01*
X5250586Y-3717594D01*
X5246166Y-3704539D01*
X5240070Y-3692144D01*
X5232400Y-3680714D01*
X5223306Y-3670300D01*
X5212892Y-3661206D01*
X5201462Y-3653536D01*
X5189067Y-3647440D01*
X5176012Y-3643020D01*
X5162448Y-3640328D01*
X5148681Y-3639413D01*
X5134914Y-3640328D01*
X5121402Y-3643020D01*
X5108346Y-3647440D01*
X5095951Y-3653536D01*
X5084470Y-3661206D01*
X5074107Y-3670300D01*
X5065014Y-3680714D01*
X5057343Y-3692144D01*
X5051247Y-3704539D01*
X5046827Y-3717594D01*
X5044135Y-3731158D01*
X5043170Y-3745229D01*
X5043170Y-3794556D01*
X5044135Y-3808679D01*
X5046827Y-3822192D01*
X5051247Y-3835298D01*
X5057343Y-3847642D01*
X5065014Y-3859123D01*
X5074107Y-3869486D01*
X5084470Y-3878579D01*
X5095951Y-3886250D01*
X5108346Y-3892346D01*
X5121402Y-3896817D01*
X5134914Y-3899509D01*
G37*
G36*
X3624681Y-3900373D02*
G01*
X3638448Y-3899509D01*
X3652012Y-3896817D01*
X3665067Y-3892346D01*
X3677462Y-3886250D01*
X3688892Y-3878579D01*
X3699306Y-3869486D01*
X3708400Y-3859123D01*
X3716070Y-3847642D01*
X3722166Y-3835298D01*
X3726586Y-3822192D01*
X3729278Y-3808679D01*
X3730193Y-3794556D01*
X3730193Y-3745229D01*
X3729278Y-3731158D01*
X3726586Y-3717594D01*
X3722166Y-3704539D01*
X3716070Y-3692144D01*
X3708400Y-3680714D01*
X3699306Y-3670300D01*
X3688892Y-3661206D01*
X3677462Y-3653536D01*
X3665067Y-3647440D01*
X3652012Y-3643020D01*
X3638448Y-3640328D01*
X3624681Y-3639413D01*
X3610914Y-3640328D01*
X3597401Y-3643020D01*
X3584346Y-3647440D01*
X3571951Y-3653536D01*
X3560470Y-3661206D01*
X3550107Y-3670300D01*
X3541014Y-3680714D01*
X3533343Y-3692144D01*
X3527247Y-3704539D01*
X3522827Y-3717594D01*
X3520135Y-3731158D01*
X3519170Y-3745229D01*
X3519170Y-3794556D01*
X3520135Y-3808679D01*
X3522827Y-3822192D01*
X3527247Y-3835298D01*
X3533343Y-3847642D01*
X3541014Y-3859123D01*
X3550107Y-3869486D01*
X3560470Y-3878579D01*
X3571951Y-3886250D01*
X3584346Y-3892346D01*
X3597401Y-3896817D01*
X3610914Y-3899509D01*
G37*
G36*
X4640681Y-3900373D02*
G01*
X4654448Y-3899509D01*
X4668012Y-3896817D01*
X4681067Y-3892346D01*
X4693462Y-3886250D01*
X4704892Y-3878579D01*
X4715306Y-3869486D01*
X4724400Y-3859123D01*
X4732070Y-3847642D01*
X4738166Y-3835298D01*
X4742586Y-3822192D01*
X4745278Y-3808679D01*
X4746193Y-3794556D01*
X4746193Y-3745229D01*
X4745278Y-3731158D01*
X4742586Y-3717594D01*
X4738166Y-3704539D01*
X4732070Y-3692144D01*
X4724400Y-3680714D01*
X4715306Y-3670300D01*
X4704892Y-3661206D01*
X4693462Y-3653536D01*
X4681067Y-3647440D01*
X4668012Y-3643020D01*
X4654448Y-3640328D01*
X4640681Y-3639413D01*
X4626914Y-3640328D01*
X4613402Y-3643020D01*
X4600346Y-3647440D01*
X4587951Y-3653536D01*
X4576470Y-3661206D01*
X4566107Y-3670300D01*
X4557014Y-3680714D01*
X4549343Y-3692144D01*
X4543247Y-3704539D01*
X4538827Y-3717594D01*
X4536135Y-3731158D01*
X4535170Y-3745229D01*
X4535170Y-3794556D01*
X4536135Y-3808679D01*
X4538827Y-3822192D01*
X4543247Y-3835298D01*
X4549343Y-3847642D01*
X4557014Y-3859123D01*
X4566107Y-3869486D01*
X4576470Y-3878579D01*
X4587951Y-3886250D01*
X4600346Y-3892346D01*
X4613402Y-3896817D01*
X4626914Y-3899509D01*
G37*
G36*
X7732522Y-3890670D02*
G01*
X7741462Y-3886250D01*
X7752892Y-3878579D01*
X7763306Y-3869486D01*
X7772400Y-3859123D01*
X7780070Y-3847642D01*
X7786166Y-3835298D01*
X7789214Y-3826256D01*
X7732522Y-3826256D01*
G37*
G36*
X7644841Y-3890670D02*
G01*
X7644841Y-3826256D01*
X7588199Y-3826256D01*
X7591247Y-3835298D01*
X7597343Y-3847642D01*
X7605014Y-3859123D01*
X7614107Y-3869486D01*
X7624470Y-3878579D01*
X7635951Y-3886250D01*
G37*
G36*
X264769Y-3778910D02*
G01*
X278079Y-3771544D01*
X290626Y-3762552D01*
X302056Y-3752087D01*
X312115Y-3740404D01*
X320751Y-3727551D01*
X325882Y-3717544D01*
X264769Y-3717544D01*
G37*
G36*
X914755Y-3778910D02*
G01*
X928065Y-3771544D01*
X940612Y-3762552D01*
X952042Y-3752087D01*
X962101Y-3740404D01*
X970737Y-3727551D01*
X975868Y-3717544D01*
X914755Y-3717544D01*
G37*
G36*
X802030Y-3778656D02*
G01*
X802030Y-3717544D01*
X740867Y-3717544D01*
X742289Y-3720795D01*
X750163Y-3734104D01*
X759561Y-3746398D01*
X770331Y-3757472D01*
X782320Y-3767226D01*
X795375Y-3775506D01*
G37*
G36*
X152044Y-3778656D02*
G01*
X152044Y-3717544D01*
X90881Y-3717544D01*
X92303Y-3720795D01*
X100177Y-3734104D01*
X109575Y-3746398D01*
X120345Y-3757472D01*
X132334Y-3767226D01*
X145389Y-3775506D01*
G37*
G36*
X7732522Y-3713581D02*
G01*
X7789214Y-3713581D01*
X7786166Y-3704539D01*
X7780070Y-3692144D01*
X7772400Y-3680714D01*
X7763306Y-3670300D01*
X7752892Y-3661206D01*
X7741462Y-3653536D01*
X7732522Y-3649167D01*
G37*
G36*
X7588199Y-3713581D02*
G01*
X7644841Y-3713581D01*
X7644841Y-3649167D01*
X7635951Y-3653536D01*
X7624470Y-3661206D01*
X7614107Y-3670300D01*
X7605014Y-3680714D01*
X7597343Y-3692144D01*
X7591247Y-3704539D01*
G37*
G36*
X740867Y-3604869D02*
G01*
X802030Y-3604869D01*
X802030Y-3543757D01*
X795375Y-3546957D01*
X782320Y-3555187D01*
X770331Y-3564940D01*
X759561Y-3576015D01*
X750163Y-3588308D01*
X742289Y-3601618D01*
G37*
G36*
X90881Y-3604869D02*
G01*
X152044Y-3604869D01*
X152044Y-3543757D01*
X145389Y-3546957D01*
X132334Y-3555187D01*
X120345Y-3564940D01*
X109575Y-3576015D01*
X100177Y-3588308D01*
X92303Y-3601618D01*
G37*
G36*
X914755Y-3604869D02*
G01*
X975868Y-3604869D01*
X970737Y-3594862D01*
X962101Y-3582009D01*
X952042Y-3570325D01*
X940612Y-3559860D01*
X928065Y-3550869D01*
X914755Y-3543503D01*
G37*
G36*
X264769Y-3604869D02*
G01*
X325882Y-3604869D01*
X320751Y-3594862D01*
X312115Y-3582009D01*
X302056Y-3570325D01*
X290626Y-3559860D01*
X278079Y-3550869D01*
X264769Y-3543503D01*
G37*
G36*
X867206Y-3428847D02*
G01*
X882700Y-3428390D01*
X897991Y-3426104D01*
X912876Y-3421989D01*
X927201Y-3416198D01*
X940765Y-3408730D01*
X953312Y-3399739D01*
X964742Y-3389274D01*
X974801Y-3377590D01*
X983437Y-3364737D01*
X990498Y-3351022D01*
X995883Y-3336493D01*
X999540Y-3321456D01*
X1001369Y-3306114D01*
X1001369Y-3290671D01*
X999540Y-3275329D01*
X995883Y-3260293D01*
X990498Y-3245815D01*
X983437Y-3232048D01*
X974801Y-3219196D01*
X964742Y-3207512D01*
X953312Y-3197047D01*
X940765Y-3188055D01*
X927201Y-3180588D01*
X912876Y-3174796D01*
X897991Y-3170682D01*
X882700Y-3168396D01*
X867206Y-3167938D01*
X851814Y-3169310D01*
X836676Y-3172510D01*
X822045Y-3177489D01*
X808075Y-3184144D01*
X795020Y-3192373D01*
X783031Y-3202127D01*
X772261Y-3213201D01*
X762863Y-3225495D01*
X754989Y-3238804D01*
X748792Y-3252978D01*
X744270Y-3267760D01*
X741527Y-3282950D01*
X740613Y-3298393D01*
X741527Y-3313836D01*
X744270Y-3329025D01*
X748792Y-3343808D01*
X754989Y-3357981D01*
X762863Y-3371291D01*
X772261Y-3383584D01*
X783031Y-3394659D01*
X795020Y-3404412D01*
X808075Y-3412693D01*
X822045Y-3419297D01*
X836676Y-3424275D01*
X851814Y-3427476D01*
G37*
G36*
X217220Y-3428847D02*
G01*
X232714Y-3428390D01*
X248005Y-3426104D01*
X262890Y-3421989D01*
X277215Y-3416198D01*
X290779Y-3408730D01*
X303326Y-3399739D01*
X314756Y-3389274D01*
X324815Y-3377590D01*
X333451Y-3364737D01*
X340512Y-3351022D01*
X345897Y-3336493D01*
X349554Y-3321456D01*
X351383Y-3306114D01*
X351383Y-3290671D01*
X349554Y-3275329D01*
X345897Y-3260293D01*
X340512Y-3245815D01*
X333451Y-3232048D01*
X324815Y-3219196D01*
X314756Y-3207512D01*
X303326Y-3197047D01*
X290779Y-3188055D01*
X277215Y-3180588D01*
X262890Y-3174796D01*
X248005Y-3170682D01*
X232714Y-3168396D01*
X217220Y-3167938D01*
X201828Y-3169310D01*
X186690Y-3172510D01*
X172059Y-3177489D01*
X158089Y-3184144D01*
X145034Y-3192373D01*
X133045Y-3202127D01*
X122275Y-3213201D01*
X112877Y-3225495D01*
X105003Y-3238804D01*
X98806Y-3252978D01*
X94284Y-3267760D01*
X91541Y-3282950D01*
X90627Y-3298393D01*
X91541Y-3313836D01*
X94284Y-3329025D01*
X98806Y-3343808D01*
X105003Y-3357981D01*
X112877Y-3371291D01*
X122275Y-3383584D01*
X133045Y-3394659D01*
X145034Y-3404412D01*
X158089Y-3412693D01*
X172059Y-3419297D01*
X186690Y-3424275D01*
X201828Y-3427476D01*
G37*
G36*
X927455Y-2966110D02*
G01*
X940765Y-2958744D01*
X953312Y-2949752D01*
X964742Y-2939288D01*
X974801Y-2927604D01*
X983437Y-2914751D01*
X988568Y-2904744D01*
X927455Y-2904744D01*
G37*
G36*
X277469Y-2966110D02*
G01*
X290779Y-2958744D01*
X303326Y-2949752D01*
X314756Y-2939288D01*
X324815Y-2927604D01*
X333451Y-2914751D01*
X338582Y-2904744D01*
X277469Y-2904744D01*
G37*
G36*
X814730Y-2965856D02*
G01*
X814730Y-2904744D01*
X753567Y-2904744D01*
X754989Y-2907995D01*
X762863Y-2921304D01*
X772261Y-2933598D01*
X783031Y-2944672D01*
X795020Y-2954426D01*
X808075Y-2962706D01*
G37*
G36*
X164744Y-2965856D02*
G01*
X164744Y-2904744D01*
X103581Y-2904744D01*
X105003Y-2907995D01*
X112877Y-2921304D01*
X122275Y-2933598D01*
X133045Y-2944672D01*
X145034Y-2954426D01*
X158089Y-2962706D01*
G37*
G36*
X753567Y-2792069D02*
G01*
X814730Y-2792069D01*
X814730Y-2730957D01*
X808075Y-2734157D01*
X795020Y-2742387D01*
X783031Y-2752140D01*
X772261Y-2763215D01*
X762863Y-2775508D01*
X754989Y-2788818D01*
G37*
G36*
X103581Y-2792069D02*
G01*
X164744Y-2792069D01*
X164744Y-2730957D01*
X158089Y-2734157D01*
X145034Y-2742387D01*
X133045Y-2752140D01*
X122275Y-2763215D01*
X112877Y-2775508D01*
X105003Y-2788818D01*
G37*
G36*
X927455Y-2792069D02*
G01*
X988568Y-2792069D01*
X983437Y-2782062D01*
X974801Y-2769209D01*
X964742Y-2757525D01*
X953312Y-2747060D01*
X940765Y-2738069D01*
X927455Y-2730703D01*
G37*
G36*
X277469Y-2792069D02*
G01*
X338582Y-2792069D01*
X333451Y-2782062D01*
X324815Y-2769209D01*
X314756Y-2757525D01*
X303326Y-2747060D01*
X290779Y-2738069D01*
X277469Y-2730703D01*
G37*
G36*
X2425903Y-2742895D02*
G01*
X6225844Y-2742895D01*
X6230467Y-2742692D01*
X6234836Y-2742133D01*
X6239103Y-2741168D01*
X6243320Y-2739847D01*
X6247384Y-2738170D01*
X6251295Y-2736138D01*
X6255004Y-2733751D01*
X6258509Y-2731058D01*
X6261912Y-2727960D01*
X6619951Y-2369921D01*
X6623456Y-2367635D01*
X6627571Y-2366924D01*
X6632295Y-2368296D01*
X6645402Y-2372766D01*
X6658914Y-2375458D01*
X6672681Y-2376373D01*
X6686448Y-2375458D01*
X6700012Y-2372766D01*
X6713067Y-2368296D01*
X6725412Y-2362200D01*
X6736892Y-2354529D01*
X6747256Y-2345436D01*
X6756349Y-2335072D01*
X6764020Y-2323592D01*
X6770166Y-2311247D01*
X6774586Y-2298141D01*
X6777278Y-2284628D01*
X6778193Y-2270506D01*
X6778193Y-2221179D01*
X6777278Y-2207107D01*
X6774586Y-2193544D01*
X6773976Y-2191816D01*
X6773519Y-2187346D01*
X6775043Y-2183130D01*
X6778244Y-2179929D01*
X6782511Y-2178456D01*
X6786981Y-2178964D01*
X6790791Y-2181402D01*
X6818528Y-2209088D01*
X6820814Y-2212695D01*
X6821474Y-2216962D01*
X6821170Y-2221179D01*
X6821170Y-2270506D01*
X6822084Y-2284628D01*
X6824776Y-2298141D01*
X6829247Y-2311247D01*
X6835343Y-2323592D01*
X6843014Y-2335072D01*
X6852107Y-2345436D01*
X6862470Y-2354529D01*
X6873951Y-2362200D01*
X6886295Y-2368296D01*
X6899402Y-2372766D01*
X6912914Y-2375458D01*
X6926681Y-2376373D01*
X6940448Y-2375458D01*
X6954012Y-2372766D01*
X6967067Y-2368296D01*
X6979412Y-2362200D01*
X6990892Y-2354529D01*
X7001256Y-2345436D01*
X7010349Y-2335072D01*
X7018020Y-2323592D01*
X7024166Y-2311247D01*
X7028586Y-2298141D01*
X7031278Y-2284628D01*
X7032193Y-2270506D01*
X7032193Y-2221179D01*
X7031278Y-2207107D01*
X7028586Y-2193544D01*
X7024166Y-2180488D01*
X7018020Y-2168144D01*
X7010349Y-2156663D01*
X7001256Y-2146249D01*
X6990892Y-2137156D01*
X6979412Y-2129485D01*
X6967067Y-2123389D01*
X6954012Y-2118969D01*
X6940448Y-2116277D01*
X6926681Y-2115362D01*
X6912914Y-2116277D01*
X6899402Y-2118969D01*
X6885736Y-2123694D01*
X6881672Y-2124760D01*
X6877558Y-2124049D01*
X6874052Y-2121763D01*
X6804609Y-2052370D01*
X6801205Y-2049221D01*
X6797700Y-2046528D01*
X6793992Y-2044192D01*
X6790080Y-2042160D01*
X6786016Y-2040432D01*
X6781800Y-2039112D01*
X6777532Y-2038197D01*
X6773164Y-2037588D01*
X6768541Y-2037384D01*
X6579260Y-2037384D01*
X6575399Y-2036622D01*
X6572097Y-2034438D01*
X5452770Y-915111D01*
X5450433Y-911504D01*
X5449824Y-907237D01*
X5450992Y-903122D01*
X5453786Y-899820D01*
X5457698Y-897991D01*
X5467756Y-895705D01*
X5481320Y-890727D01*
X5494172Y-884021D01*
X5506059Y-875741D01*
X5516778Y-865987D01*
X5526125Y-854964D01*
X5534050Y-842822D01*
X5540349Y-829818D01*
X5544870Y-816051D01*
X5547664Y-801827D01*
X5548579Y-787400D01*
X5547664Y-772972D01*
X5544870Y-758748D01*
X5540349Y-744982D01*
X5534050Y-731977D01*
X5526125Y-719836D01*
X5516778Y-708812D01*
X5506059Y-699058D01*
X5494172Y-690778D01*
X5481320Y-684072D01*
X5467756Y-679094D01*
X5453634Y-675843D01*
X5439206Y-674471D01*
X5424728Y-674928D01*
X5410454Y-677265D01*
X5396585Y-681380D01*
X5383326Y-687222D01*
X5370982Y-694740D01*
X5361686Y-702157D01*
X5358282Y-703935D01*
X5354523Y-704342D01*
X5350814Y-703326D01*
X5347817Y-701040D01*
X5344160Y-696976D01*
X5257393Y-610209D01*
X5253939Y-607110D01*
X5250484Y-604418D01*
X5246776Y-602030D01*
X5242864Y-599998D01*
X5238750Y-598322D01*
X5234584Y-597001D01*
X5230266Y-596036D01*
X5225897Y-595477D01*
X5221274Y-595274D01*
X3545433Y-595274D01*
X3540810Y-595477D01*
X3536442Y-596036D01*
X3532174Y-597001D01*
X3527958Y-598322D01*
X3523894Y-599998D01*
X3519982Y-602030D01*
X3516274Y-604418D01*
X3512769Y-607110D01*
X3509365Y-610209D01*
X3443579Y-675995D01*
X3440785Y-677976D01*
X3437534Y-678891D01*
X3434130Y-678738D01*
X3421634Y-675843D01*
X3407206Y-674471D01*
X3392728Y-674928D01*
X3378454Y-677265D01*
X3364585Y-681380D01*
X3351326Y-687222D01*
X3338982Y-694740D01*
X3327654Y-703783D01*
X3317544Y-714146D01*
X3308908Y-725779D01*
X3301796Y-738378D01*
X3296361Y-751789D01*
X3292703Y-765810D01*
X3290824Y-780135D01*
X3290824Y-794664D01*
X3292703Y-808990D01*
X3296361Y-823010D01*
X3301796Y-836421D01*
X3308908Y-849020D01*
X3317544Y-860653D01*
X3327654Y-871067D01*
X3338982Y-880059D01*
X3351326Y-887577D01*
X3364585Y-893419D01*
X3378454Y-897534D01*
X3392728Y-899871D01*
X3407206Y-900328D01*
X3421634Y-898956D01*
X3435756Y-895705D01*
X3449320Y-890727D01*
X3462172Y-884021D01*
X3474059Y-875741D01*
X3484778Y-865987D01*
X3494125Y-854964D01*
X3502050Y-842822D01*
X3508349Y-829818D01*
X3512870Y-816051D01*
X3515664Y-801827D01*
X3516579Y-787400D01*
X3515664Y-772972D01*
X3512058Y-754075D01*
X3512921Y-750468D01*
X3515055Y-747420D01*
X3544315Y-718108D01*
X3547770Y-715822D01*
X3551885Y-715111D01*
X3555898Y-716127D01*
X3559200Y-718616D01*
X3561181Y-722223D01*
X3561638Y-726338D01*
X3560368Y-730250D01*
X3555796Y-738378D01*
X3550361Y-751789D01*
X3546703Y-765810D01*
X3544824Y-780135D01*
X3544824Y-794664D01*
X3546703Y-808990D01*
X3550361Y-823010D01*
X3555796Y-836421D01*
X3562908Y-849020D01*
X3571544Y-860653D01*
X3581654Y-871067D01*
X3592982Y-880059D01*
X3605326Y-887577D01*
X3618585Y-893419D01*
X3632454Y-897534D01*
X3646728Y-899871D01*
X3661206Y-900328D01*
X3675634Y-898956D01*
X3689756Y-895705D01*
X3703320Y-890727D01*
X3716172Y-884021D01*
X3728059Y-875741D01*
X3738778Y-865987D01*
X3748125Y-854964D01*
X3756050Y-842822D01*
X3762349Y-829818D01*
X3766870Y-816051D01*
X3769664Y-801827D01*
X3770579Y-787400D01*
X3769664Y-772972D01*
X3766870Y-758748D01*
X3762349Y-744982D01*
X3756050Y-731977D01*
X3748125Y-719836D01*
X3742385Y-713028D01*
X3740454Y-709676D01*
X3739946Y-705916D01*
X3740861Y-702157D01*
X3743096Y-699058D01*
X3746347Y-696976D01*
X3750106Y-696264D01*
X3818890Y-696264D01*
X3822750Y-697026D01*
X3826052Y-699211D01*
X3828237Y-702462D01*
X3829050Y-706323D01*
X3828338Y-710184D01*
X3816908Y-725779D01*
X3809796Y-738378D01*
X3804361Y-751789D01*
X3800703Y-765810D01*
X3798824Y-780135D01*
X3798824Y-794664D01*
X3800703Y-808990D01*
X3804361Y-823010D01*
X3809796Y-836421D01*
X3816908Y-849020D01*
X3825544Y-860653D01*
X3835654Y-871067D01*
X3846982Y-880059D01*
X3859326Y-887577D01*
X3872585Y-893419D01*
X3886454Y-897534D01*
X3900728Y-899871D01*
X3915206Y-900328D01*
X3929634Y-898956D01*
X3943756Y-895705D01*
X3957320Y-890727D01*
X3968699Y-884783D01*
X3972661Y-883666D01*
X3976725Y-884174D01*
X3980230Y-886256D01*
X3982669Y-889558D01*
X3983583Y-893521D01*
X3982872Y-897534D01*
X3980586Y-900988D01*
X3736340Y-1145235D01*
X3733241Y-1148638D01*
X3730548Y-1152144D01*
X3728161Y-1155852D01*
X3726129Y-1159764D01*
X3724452Y-1163828D01*
X3723132Y-1168044D01*
X3722166Y-1172311D01*
X3721608Y-1176680D01*
X3721404Y-1181303D01*
X3721404Y-1321866D01*
X3720439Y-1326134D01*
X3717747Y-1329639D01*
X3713886Y-1331671D01*
X3709466Y-1331874D01*
X3705402Y-1330198D01*
X3702151Y-1327912D01*
X3689604Y-1321358D01*
X3676345Y-1316482D01*
X3662527Y-1313332D01*
X3648456Y-1311960D01*
X3634282Y-1312418D01*
X3620312Y-1314704D01*
X3606749Y-1318717D01*
X3593795Y-1324457D01*
X3581704Y-1331772D01*
X3570630Y-1340612D01*
X3560775Y-1350772D01*
X3552291Y-1362100D01*
X3545332Y-1374444D01*
X3540048Y-1387602D01*
X3536442Y-1401267D01*
X3534664Y-1415338D01*
X3534664Y-1429461D01*
X3536442Y-1443532D01*
X3540048Y-1457198D01*
X3545332Y-1470355D01*
X3552291Y-1482699D01*
X3560775Y-1494028D01*
X3570630Y-1504188D01*
X3581704Y-1513027D01*
X3593795Y-1520342D01*
X3606749Y-1526082D01*
X3620312Y-1530096D01*
X3634282Y-1532382D01*
X3648456Y-1532839D01*
X3662527Y-1531467D01*
X3676345Y-1528318D01*
X3689604Y-1523441D01*
X3702151Y-1516888D01*
X3705402Y-1514602D01*
X3709466Y-1512925D01*
X3713886Y-1513128D01*
X3717747Y-1515160D01*
X3720439Y-1518666D01*
X3721404Y-1522933D01*
X3721404Y-1565503D01*
X3720642Y-1569364D01*
X3718407Y-1572666D01*
X3169310Y-2121763D01*
X3165805Y-2124049D01*
X3161690Y-2124760D01*
X3157067Y-2123389D01*
X3144012Y-2118969D01*
X3130448Y-2116277D01*
X3116681Y-2115362D01*
X3102914Y-2116277D01*
X3089402Y-2118969D01*
X3076295Y-2123389D01*
X3063951Y-2129485D01*
X3052470Y-2137156D01*
X3042107Y-2146249D01*
X3033014Y-2156663D01*
X3025343Y-2168144D01*
X3019247Y-2180488D01*
X3014776Y-2193544D01*
X3012084Y-2207107D01*
X3011170Y-2221179D01*
X3011170Y-2270506D01*
X3012084Y-2284628D01*
X3014776Y-2298141D01*
X3019247Y-2311247D01*
X3025343Y-2323592D01*
X3033014Y-2335072D01*
X3042107Y-2345436D01*
X3052470Y-2354529D01*
X3063951Y-2362200D01*
X3076295Y-2368296D01*
X3089402Y-2372766D01*
X3102914Y-2375458D01*
X3116681Y-2376373D01*
X3130448Y-2375458D01*
X3144012Y-2372766D01*
X3157067Y-2368296D01*
X3169412Y-2362200D01*
X3180892Y-2354529D01*
X3191256Y-2345436D01*
X3200349Y-2335072D01*
X3208020Y-2323592D01*
X3214166Y-2311247D01*
X3218586Y-2298141D01*
X3221278Y-2284628D01*
X3222193Y-2270506D01*
X3222193Y-2221179D01*
X3221939Y-2216912D01*
X3222548Y-2212695D01*
X3224885Y-2209088D01*
X3252571Y-2181352D01*
X3256381Y-2178964D01*
X3260852Y-2178456D01*
X3265119Y-2179929D01*
X3268319Y-2183079D01*
X3269843Y-2187346D01*
X3269386Y-2191816D01*
X3268776Y-2193544D01*
X3266084Y-2207107D01*
X3265170Y-2221179D01*
X3265170Y-2270506D01*
X3266084Y-2284628D01*
X3268776Y-2298141D01*
X3273247Y-2311247D01*
X3279343Y-2323592D01*
X3287014Y-2335072D01*
X3296107Y-2345436D01*
X3306470Y-2354529D01*
X3317951Y-2362200D01*
X3330295Y-2368296D01*
X3343401Y-2372766D01*
X3356914Y-2375458D01*
X3370681Y-2376373D01*
X3384448Y-2375458D01*
X3398012Y-2372766D01*
X3411067Y-2368296D01*
X3423412Y-2362200D01*
X3434892Y-2354529D01*
X3445256Y-2345436D01*
X3454349Y-2335072D01*
X3462020Y-2323592D01*
X3468166Y-2311247D01*
X3472586Y-2298141D01*
X3475278Y-2284628D01*
X3476193Y-2270506D01*
X3476193Y-2221179D01*
X3475278Y-2207107D01*
X3472586Y-2193544D01*
X3468166Y-2180488D01*
X3462020Y-2168144D01*
X3454349Y-2156663D01*
X3445256Y-2146249D01*
X3434892Y-2137156D01*
X3423412Y-2129485D01*
X3411067Y-2123389D01*
X3398012Y-2118969D01*
X3384448Y-2116277D01*
X3370681Y-2115362D01*
X3356914Y-2116277D01*
X3343401Y-2118969D01*
X3341624Y-2119579D01*
X3337153Y-2120036D01*
X3332937Y-2118512D01*
X3329736Y-2115312D01*
X3328263Y-2111044D01*
X3328771Y-2106574D01*
X3331210Y-2102764D01*
X3807460Y-1626514D01*
X3810558Y-1623060D01*
X3813251Y-1619605D01*
X3815638Y-1615897D01*
X3817670Y-1611985D01*
X3819347Y-1607870D01*
X3820668Y-1603705D01*
X3821633Y-1599387D01*
X3822192Y-1595018D01*
X3822395Y-1590395D01*
X3822395Y-1522984D01*
X3823309Y-1518818D01*
X3825849Y-1515414D01*
X3829558Y-1513281D01*
X3833825Y-1512925D01*
X3837838Y-1514297D01*
X3847795Y-1520342D01*
X3860749Y-1526082D01*
X3874312Y-1530096D01*
X3888282Y-1532382D01*
X3902456Y-1532839D01*
X3916527Y-1531467D01*
X3930345Y-1528318D01*
X3943604Y-1523441D01*
X3956151Y-1516888D01*
X3967784Y-1508760D01*
X3978249Y-1499260D01*
X3987444Y-1488490D01*
X3995165Y-1476603D01*
X4001312Y-1463852D01*
X4005783Y-1450441D01*
X4008475Y-1436522D01*
X4009390Y-1422400D01*
X4008475Y-1408277D01*
X4005783Y-1394358D01*
X4001312Y-1380947D01*
X3995165Y-1368196D01*
X3987444Y-1356309D01*
X3978249Y-1345539D01*
X3967784Y-1336040D01*
X3956151Y-1327912D01*
X3943604Y-1321358D01*
X3930345Y-1316482D01*
X3916527Y-1313332D01*
X3902456Y-1311960D01*
X3888282Y-1312418D01*
X3874312Y-1314704D01*
X3860749Y-1318717D01*
X3847795Y-1324457D01*
X3837838Y-1330502D01*
X3833825Y-1331874D01*
X3829558Y-1331518D01*
X3825849Y-1329385D01*
X3823309Y-1325981D01*
X3822395Y-1321816D01*
X3822395Y-1206246D01*
X3823157Y-1202334D01*
X3825392Y-1199032D01*
X4125722Y-898702D01*
X4128668Y-896670D01*
X4132173Y-895756D01*
X4135780Y-896162D01*
X4140454Y-897534D01*
X4154728Y-899871D01*
X4169206Y-900328D01*
X4183634Y-898956D01*
X4197756Y-895705D01*
X4211320Y-890727D01*
X4224172Y-884021D01*
X4236059Y-875741D01*
X4246778Y-865987D01*
X4256125Y-854964D01*
X4264050Y-842822D01*
X4270349Y-829818D01*
X4274870Y-816051D01*
X4277664Y-801827D01*
X4278579Y-787400D01*
X4277664Y-772972D01*
X4274870Y-758748D01*
X4270349Y-744982D01*
X4264050Y-731977D01*
X4256125Y-719836D01*
X4250385Y-713028D01*
X4248454Y-709676D01*
X4247946Y-705916D01*
X4248861Y-702157D01*
X4251096Y-699058D01*
X4254347Y-696976D01*
X4258106Y-696264D01*
X4326890Y-696264D01*
X4330750Y-697026D01*
X4334052Y-699211D01*
X4336237Y-702462D01*
X4337050Y-706323D01*
X4336338Y-710184D01*
X4324908Y-725779D01*
X4317796Y-738378D01*
X4312361Y-751789D01*
X4308703Y-765810D01*
X4306824Y-780135D01*
X4306824Y-794664D01*
X4308703Y-808990D01*
X4312361Y-823010D01*
X4317796Y-836421D01*
X4324908Y-849020D01*
X4333544Y-860653D01*
X4343654Y-871067D01*
X4354982Y-880059D01*
X4367326Y-887577D01*
X4380585Y-893419D01*
X4394454Y-897534D01*
X4408728Y-899871D01*
X4423206Y-900328D01*
X4437634Y-898956D01*
X4451756Y-895705D01*
X4465320Y-890727D01*
X4478172Y-884021D01*
X4490059Y-875741D01*
X4500778Y-865987D01*
X4510125Y-854964D01*
X4518050Y-842822D01*
X4524349Y-829818D01*
X4528870Y-816051D01*
X4531664Y-801827D01*
X4532579Y-787400D01*
X4531664Y-772972D01*
X4528870Y-758748D01*
X4524349Y-744982D01*
X4518050Y-731977D01*
X4510125Y-719836D01*
X4504385Y-713028D01*
X4502454Y-709676D01*
X4501946Y-705916D01*
X4502861Y-702157D01*
X4505096Y-699058D01*
X4508347Y-696976D01*
X4512106Y-696264D01*
X4580890Y-696264D01*
X4584750Y-697026D01*
X4588052Y-699211D01*
X4590237Y-702462D01*
X4591050Y-706323D01*
X4590338Y-710184D01*
X4578908Y-725779D01*
X4571796Y-738378D01*
X4566361Y-751789D01*
X4562703Y-765810D01*
X4560824Y-780135D01*
X4560824Y-794664D01*
X4562703Y-808990D01*
X4566361Y-823010D01*
X4571796Y-836421D01*
X4578908Y-849020D01*
X4587544Y-860653D01*
X4597654Y-871067D01*
X4608982Y-880059D01*
X4618177Y-885647D01*
X4620818Y-887933D01*
X4622495Y-890930D01*
X4623104Y-894384D01*
X4623104Y-1130046D01*
X4622342Y-1133906D01*
X4620107Y-1137208D01*
X4259021Y-1498295D01*
X4255516Y-1500581D01*
X4251299Y-1501241D01*
X4247235Y-1500174D01*
X4243933Y-1497482D01*
X4242054Y-1493723D01*
X4241800Y-1489506D01*
X4243324Y-1485544D01*
X4249166Y-1476603D01*
X4255312Y-1463852D01*
X4259783Y-1450441D01*
X4262475Y-1436522D01*
X4263390Y-1422400D01*
X4262475Y-1408277D01*
X4259783Y-1394358D01*
X4255312Y-1380947D01*
X4249166Y-1368196D01*
X4241444Y-1356309D01*
X4232249Y-1345539D01*
X4221784Y-1336040D01*
X4210151Y-1327912D01*
X4197604Y-1321358D01*
X4184345Y-1316482D01*
X4170527Y-1313332D01*
X4156456Y-1311960D01*
X4142282Y-1312418D01*
X4128312Y-1314704D01*
X4114749Y-1318717D01*
X4101795Y-1324457D01*
X4089704Y-1331772D01*
X4078630Y-1340612D01*
X4068775Y-1350772D01*
X4060291Y-1362100D01*
X4053332Y-1374444D01*
X4048048Y-1387602D01*
X4044442Y-1401267D01*
X4042664Y-1415338D01*
X4042664Y-1429461D01*
X4044442Y-1443532D01*
X4048048Y-1457198D01*
X4053332Y-1470355D01*
X4060291Y-1482699D01*
X4068775Y-1494028D01*
X4078630Y-1504188D01*
X4089704Y-1513027D01*
X4101795Y-1520342D01*
X4114749Y-1526082D01*
X4128312Y-1530096D01*
X4142282Y-1532382D01*
X4156456Y-1532839D01*
X4170527Y-1531467D01*
X4184345Y-1528318D01*
X4197604Y-1523441D01*
X4210151Y-1516888D01*
X4215993Y-1512824D01*
X4219956Y-1511147D01*
X4224223Y-1511249D01*
X4228084Y-1513128D01*
X4230827Y-1516380D01*
X4231944Y-1520494D01*
X4231335Y-1524762D01*
X4228998Y-1528318D01*
X3644137Y-2113178D01*
X3640531Y-2115515D01*
X3636314Y-2116124D01*
X3624681Y-2115362D01*
X3610914Y-2116277D01*
X3597401Y-2118969D01*
X3584295Y-2123389D01*
X3571951Y-2129485D01*
X3560470Y-2137156D01*
X3550107Y-2146249D01*
X3541014Y-2156663D01*
X3533343Y-2168144D01*
X3527247Y-2180488D01*
X3522776Y-2193544D01*
X3520084Y-2207107D01*
X3519170Y-2221179D01*
X3519170Y-2270506D01*
X3520084Y-2284628D01*
X3522776Y-2298141D01*
X3527247Y-2311247D01*
X3533343Y-2323592D01*
X3541014Y-2335072D01*
X3550107Y-2345436D01*
X3560470Y-2354529D01*
X3571951Y-2362200D01*
X3584295Y-2368296D01*
X3597401Y-2372766D01*
X3610914Y-2375458D01*
X3624681Y-2376373D01*
X3638448Y-2375458D01*
X3652012Y-2372766D01*
X3665067Y-2368296D01*
X3677412Y-2362200D01*
X3688892Y-2354529D01*
X3699256Y-2345436D01*
X3708349Y-2335072D01*
X3716020Y-2323592D01*
X3722166Y-2311247D01*
X3726586Y-2298141D01*
X3729278Y-2284628D01*
X3730193Y-2270506D01*
X3730193Y-2221179D01*
X3729278Y-2207107D01*
X3726586Y-2193544D01*
X3723538Y-2184654D01*
X3723030Y-2180945D01*
X3723894Y-2177288D01*
X3725976Y-2174189D01*
X4064812Y-1835353D01*
X4068114Y-1833168D01*
X4072026Y-1832406D01*
X4075887Y-1833168D01*
X4079189Y-1835353D01*
X4081424Y-1838655D01*
X4082186Y-1842566D01*
X4082186Y-2122576D01*
X4081627Y-2125878D01*
X4080052Y-2128774D01*
X4077665Y-2131060D01*
X4068470Y-2137156D01*
X4058107Y-2146249D01*
X4049014Y-2156663D01*
X4041343Y-2168144D01*
X4035247Y-2180488D01*
X4030776Y-2193544D01*
X4028084Y-2207107D01*
X4027170Y-2221179D01*
X4027170Y-2270506D01*
X4028084Y-2284628D01*
X4030776Y-2298141D01*
X4035247Y-2311247D01*
X4041343Y-2323592D01*
X4049014Y-2335072D01*
X4058107Y-2345436D01*
X4068470Y-2354529D01*
X4079951Y-2362200D01*
X4092295Y-2368296D01*
X4105401Y-2372766D01*
X4118914Y-2375458D01*
X4132681Y-2376373D01*
X4146448Y-2375458D01*
X4160012Y-2372766D01*
X4173067Y-2368296D01*
X4185412Y-2362200D01*
X4196892Y-2354529D01*
X4207256Y-2345436D01*
X4216349Y-2335072D01*
X4224020Y-2323592D01*
X4230166Y-2311247D01*
X4234586Y-2298141D01*
X4237278Y-2284628D01*
X4238193Y-2270506D01*
X4238193Y-2221179D01*
X4237278Y-2207107D01*
X4234586Y-2193544D01*
X4230166Y-2180488D01*
X4224020Y-2168144D01*
X4216349Y-2156663D01*
X4207256Y-2146249D01*
X4196892Y-2137156D01*
X4187698Y-2131009D01*
X4185310Y-2128774D01*
X4183735Y-2125827D01*
X4183176Y-2122576D01*
X4183176Y-1861464D01*
X4183938Y-1857552D01*
X4186174Y-1854250D01*
X5141722Y-898702D01*
X5144668Y-896670D01*
X5148173Y-895756D01*
X5151780Y-896162D01*
X5156454Y-897534D01*
X5170728Y-899871D01*
X5185206Y-900328D01*
X5199634Y-898956D01*
X5213756Y-895705D01*
X5227320Y-890727D01*
X5240172Y-884021D01*
X5252059Y-875741D01*
X5254802Y-873201D01*
X5258257Y-871169D01*
X5262168Y-870610D01*
X5266029Y-871575D01*
X5269230Y-873963D01*
X5273090Y-878281D01*
X6518249Y-2123440D01*
X6521704Y-2126589D01*
X6525158Y-2129282D01*
X6528866Y-2131618D01*
X6532778Y-2133650D01*
X6536893Y-2135378D01*
X6541058Y-2136698D01*
X6545376Y-2137613D01*
X6549745Y-2138222D01*
X6554368Y-2138426D01*
X6582562Y-2138426D01*
X6586372Y-2139137D01*
X6589572Y-2141220D01*
X6591808Y-2144369D01*
X6592722Y-2148128D01*
X6592163Y-2151938D01*
X6590182Y-2155291D01*
X6589014Y-2156663D01*
X6581343Y-2168144D01*
X6575247Y-2180488D01*
X6570776Y-2193544D01*
X6568084Y-2207107D01*
X6567170Y-2221179D01*
X6567170Y-2270506D01*
X6567474Y-2274671D01*
X6566814Y-2278938D01*
X6564477Y-2282545D01*
X6536842Y-2310180D01*
X6533032Y-2312568D01*
X6528562Y-2313076D01*
X6524294Y-2311603D01*
X6521094Y-2308453D01*
X6519570Y-2304186D01*
X6520078Y-2299716D01*
X6520586Y-2298141D01*
X6523278Y-2284628D01*
X6524193Y-2270506D01*
X6524193Y-2221179D01*
X6523278Y-2207107D01*
X6520586Y-2193544D01*
X6516166Y-2180488D01*
X6510020Y-2168144D01*
X6502349Y-2156663D01*
X6493256Y-2146249D01*
X6482892Y-2137156D01*
X6471412Y-2129485D01*
X6459067Y-2123389D01*
X6446012Y-2118969D01*
X6432448Y-2116277D01*
X6418681Y-2115362D01*
X6404914Y-2116277D01*
X6391402Y-2118969D01*
X6378295Y-2123389D01*
X6365951Y-2129485D01*
X6354470Y-2137156D01*
X6344107Y-2146249D01*
X6335014Y-2156663D01*
X6327343Y-2168144D01*
X6321247Y-2180488D01*
X6316776Y-2193544D01*
X6314084Y-2207107D01*
X6313170Y-2221179D01*
X6313170Y-2270506D01*
X6313474Y-2274671D01*
X6312814Y-2278938D01*
X6310477Y-2282545D01*
X6282842Y-2310180D01*
X6279032Y-2312568D01*
X6274562Y-2313076D01*
X6270294Y-2311603D01*
X6267094Y-2308453D01*
X6265570Y-2304186D01*
X6266078Y-2299716D01*
X6266586Y-2298141D01*
X6269278Y-2284628D01*
X6270193Y-2270506D01*
X6270193Y-2221179D01*
X6269278Y-2207107D01*
X6266586Y-2193544D01*
X6262166Y-2180488D01*
X6256020Y-2168144D01*
X6248349Y-2156663D01*
X6239256Y-2146249D01*
X6228892Y-2137156D01*
X6217412Y-2129485D01*
X6205067Y-2123389D01*
X6192012Y-2118969D01*
X6178448Y-2116277D01*
X6164681Y-2115362D01*
X6150914Y-2116277D01*
X6137402Y-2118969D01*
X6124295Y-2123389D01*
X6111951Y-2129485D01*
X6100470Y-2137156D01*
X6090107Y-2146249D01*
X6081014Y-2156663D01*
X6073343Y-2168144D01*
X6067247Y-2180488D01*
X6062776Y-2193544D01*
X6060084Y-2207107D01*
X6059170Y-2221179D01*
X6059170Y-2270506D01*
X6060084Y-2284628D01*
X6062776Y-2298141D01*
X6067247Y-2311247D01*
X6073343Y-2323592D01*
X6081014Y-2335072D01*
X6090107Y-2345436D01*
X6100470Y-2354529D01*
X6111951Y-2362200D01*
X6124295Y-2368296D01*
X6137402Y-2372766D01*
X6150914Y-2375458D01*
X6164681Y-2376373D01*
X6178448Y-2375458D01*
X6192012Y-2372766D01*
X6193536Y-2372207D01*
X6198006Y-2371750D01*
X6202273Y-2373274D01*
X6205423Y-2376474D01*
X6206896Y-2380742D01*
X6206388Y-2385212D01*
X6204000Y-2389022D01*
X6157315Y-2435707D01*
X6154013Y-2437942D01*
X6150102Y-2438704D01*
X2584958Y-2438704D01*
X2581554Y-2438095D01*
X2577185Y-2435301D01*
X2568092Y-2430068D01*
X2558237Y-2426309D01*
X2547874Y-2424226D01*
X2537358Y-2423769D01*
X2526893Y-2425039D01*
X2516784Y-2427986D01*
X2507284Y-2432507D01*
X2498598Y-2438501D01*
X2490978Y-2445766D01*
X2484678Y-2454198D01*
X2479751Y-2463546D01*
X2476449Y-2473553D01*
X2474722Y-2483916D01*
X2474722Y-2494483D01*
X2476449Y-2504846D01*
X2479751Y-2514854D01*
X2484678Y-2524201D01*
X2490978Y-2532634D01*
X2498598Y-2539898D01*
X2507284Y-2545892D01*
X2516784Y-2550414D01*
X2526893Y-2553360D01*
X2537358Y-2554630D01*
X2547874Y-2554224D01*
X2558237Y-2552090D01*
X2568092Y-2548331D01*
X2577185Y-2543098D01*
X2581554Y-2540304D01*
X2584958Y-2539695D01*
X6175044Y-2539695D01*
X6179667Y-2539492D01*
X6184036Y-2538933D01*
X6188303Y-2537968D01*
X6192520Y-2536647D01*
X6196584Y-2534970D01*
X6200495Y-2532938D01*
X6204204Y-2530551D01*
X6207709Y-2527858D01*
X6211112Y-2524760D01*
X6365951Y-2369921D01*
X6369456Y-2367635D01*
X6373571Y-2366924D01*
X6378295Y-2368296D01*
X6391402Y-2372766D01*
X6404914Y-2375458D01*
X6418681Y-2376373D01*
X6432448Y-2375458D01*
X6446012Y-2372766D01*
X6447536Y-2372207D01*
X6452006Y-2371750D01*
X6456273Y-2373274D01*
X6459423Y-2376474D01*
X6460896Y-2380742D01*
X6460388Y-2385212D01*
X6458000Y-2389022D01*
X6208115Y-2638907D01*
X6204813Y-2641142D01*
X6200902Y-2641904D01*
X2450846Y-2641904D01*
X2446934Y-2641142D01*
X2443632Y-2638907D01*
X2250592Y-2445867D01*
X2248357Y-2442565D01*
X2247595Y-2438654D01*
X2247595Y-2191461D01*
X2248001Y-2188667D01*
X2249170Y-2186076D01*
X2255062Y-2176729D01*
X2259228Y-2167026D01*
X2261717Y-2156815D01*
X2262581Y-2146300D01*
X2261717Y-2135784D01*
X2259228Y-2125573D01*
X2255062Y-2115870D01*
X2249424Y-2106980D01*
X2242464Y-2099056D01*
X2234285Y-2092401D01*
X2225192Y-2087168D01*
X2215337Y-2083409D01*
X2204974Y-2081326D01*
X2194458Y-2080869D01*
X2183993Y-2082139D01*
X2173884Y-2085086D01*
X2164384Y-2089607D01*
X2155698Y-2095601D01*
X2148078Y-2102866D01*
X2141778Y-2111298D01*
X2136851Y-2120646D01*
X2133549Y-2130653D01*
X2131822Y-2141016D01*
X2131822Y-2151583D01*
X2133549Y-2161946D01*
X2136851Y-2171954D01*
X2141778Y-2181301D01*
X2144572Y-2185009D01*
X2146046Y-2187905D01*
X2146604Y-2191105D01*
X2146604Y-2463596D01*
X2146808Y-2468219D01*
X2147366Y-2472588D01*
X2148332Y-2476855D01*
X2149652Y-2481072D01*
X2151329Y-2485136D01*
X2153361Y-2489047D01*
X2155748Y-2492756D01*
X2158441Y-2496261D01*
X2161540Y-2499664D01*
X2389835Y-2727960D01*
X2393238Y-2731058D01*
X2396744Y-2733751D01*
X2400452Y-2736138D01*
X2404364Y-2738170D01*
X2408428Y-2739847D01*
X2412644Y-2741168D01*
X2416911Y-2742133D01*
X2421280Y-2742692D01*
G37*
G36*
X867206Y-2616047D02*
G01*
X882700Y-2615590D01*
X897991Y-2613304D01*
X912876Y-2609189D01*
X927201Y-2603398D01*
X940765Y-2595930D01*
X953312Y-2586939D01*
X964742Y-2576474D01*
X974801Y-2564790D01*
X983437Y-2551938D01*
X990498Y-2538222D01*
X995883Y-2523693D01*
X999540Y-2508656D01*
X1001369Y-2493314D01*
X1001369Y-2477871D01*
X999540Y-2462530D01*
X995883Y-2447493D01*
X990498Y-2433015D01*
X983437Y-2419248D01*
X974801Y-2406396D01*
X964742Y-2394712D01*
X953312Y-2384247D01*
X940765Y-2375255D01*
X927201Y-2367788D01*
X912876Y-2361996D01*
X897991Y-2357882D01*
X882700Y-2355596D01*
X867206Y-2355138D01*
X851814Y-2356510D01*
X836676Y-2359710D01*
X822045Y-2364689D01*
X808075Y-2371344D01*
X795020Y-2379573D01*
X783031Y-2389327D01*
X772261Y-2400401D01*
X762863Y-2412695D01*
X754989Y-2426004D01*
X748792Y-2440178D01*
X744270Y-2454960D01*
X741527Y-2470150D01*
X740613Y-2485593D01*
X741527Y-2501036D01*
X744270Y-2516225D01*
X748792Y-2531008D01*
X754989Y-2545181D01*
X762863Y-2558491D01*
X772261Y-2570784D01*
X783031Y-2581859D01*
X795020Y-2591612D01*
X808075Y-2599893D01*
X822045Y-2606497D01*
X836676Y-2611475D01*
X851814Y-2614676D01*
G37*
G36*
X217220Y-2616047D02*
G01*
X232714Y-2615590D01*
X248005Y-2613304D01*
X262890Y-2609189D01*
X277215Y-2603398D01*
X290779Y-2595930D01*
X303326Y-2586939D01*
X314756Y-2576474D01*
X324815Y-2564790D01*
X333451Y-2551938D01*
X340512Y-2538222D01*
X345897Y-2523693D01*
X349554Y-2508656D01*
X351383Y-2493314D01*
X351383Y-2477871D01*
X349554Y-2462530D01*
X345897Y-2447493D01*
X340512Y-2433015D01*
X333451Y-2419248D01*
X324815Y-2406396D01*
X314756Y-2394712D01*
X303326Y-2384247D01*
X290779Y-2375255D01*
X277215Y-2367788D01*
X262890Y-2361996D01*
X248005Y-2357882D01*
X232714Y-2355596D01*
X217220Y-2355138D01*
X201828Y-2356510D01*
X186690Y-2359710D01*
X172059Y-2364689D01*
X158089Y-2371344D01*
X145034Y-2379573D01*
X133045Y-2389327D01*
X122275Y-2400401D01*
X112877Y-2412695D01*
X105003Y-2426004D01*
X98806Y-2440178D01*
X94284Y-2454960D01*
X91541Y-2470150D01*
X90627Y-2485593D01*
X91541Y-2501036D01*
X94284Y-2516225D01*
X98806Y-2531008D01*
X105003Y-2545181D01*
X112877Y-2558491D01*
X122275Y-2570784D01*
X133045Y-2581859D01*
X145034Y-2591612D01*
X158089Y-2599893D01*
X172059Y-2606497D01*
X186690Y-2611475D01*
X201828Y-2614676D01*
G37*
G36*
X3878681Y-2376373D02*
G01*
X3892448Y-2375458D01*
X3906012Y-2372766D01*
X3919067Y-2368296D01*
X3931412Y-2362200D01*
X3942892Y-2354529D01*
X3953256Y-2345436D01*
X3962349Y-2335072D01*
X3970020Y-2323592D01*
X3976166Y-2311247D01*
X3980586Y-2298141D01*
X3983278Y-2284628D01*
X3984193Y-2270506D01*
X3984193Y-2221179D01*
X3983278Y-2207107D01*
X3980586Y-2193544D01*
X3976166Y-2180488D01*
X3970020Y-2168144D01*
X3962349Y-2156663D01*
X3953256Y-2146249D01*
X3942892Y-2137156D01*
X3931412Y-2129485D01*
X3919067Y-2123389D01*
X3906012Y-2118969D01*
X3892448Y-2116277D01*
X3878681Y-2115362D01*
X3864914Y-2116277D01*
X3851401Y-2118969D01*
X3838295Y-2123389D01*
X3825951Y-2129485D01*
X3814470Y-2137156D01*
X3804107Y-2146249D01*
X3795014Y-2156663D01*
X3787343Y-2168144D01*
X3781247Y-2180488D01*
X3776776Y-2193544D01*
X3774084Y-2207107D01*
X3773170Y-2221179D01*
X3773170Y-2270506D01*
X3774084Y-2284628D01*
X3776776Y-2298141D01*
X3781247Y-2311247D01*
X3787343Y-2323592D01*
X3795014Y-2335072D01*
X3804107Y-2345436D01*
X3814470Y-2354529D01*
X3825951Y-2362200D01*
X3838295Y-2368296D01*
X3851401Y-2372766D01*
X3864914Y-2375458D01*
G37*
G36*
X4386681Y-2376373D02*
G01*
X4400448Y-2375458D01*
X4414012Y-2372766D01*
X4427067Y-2368296D01*
X4439412Y-2362200D01*
X4450892Y-2354529D01*
X4461256Y-2345436D01*
X4470349Y-2335072D01*
X4478020Y-2323592D01*
X4484166Y-2311247D01*
X4488586Y-2298141D01*
X4491278Y-2284628D01*
X4492193Y-2270506D01*
X4492193Y-2221179D01*
X4491278Y-2207107D01*
X4488586Y-2193544D01*
X4484166Y-2180488D01*
X4478020Y-2168144D01*
X4470349Y-2156663D01*
X4461256Y-2146249D01*
X4450892Y-2137156D01*
X4439412Y-2129485D01*
X4427067Y-2123389D01*
X4414012Y-2118969D01*
X4400448Y-2116277D01*
X4386681Y-2115362D01*
X4372914Y-2116277D01*
X4359402Y-2118969D01*
X4346295Y-2123389D01*
X4333951Y-2129485D01*
X4322470Y-2137156D01*
X4312107Y-2146249D01*
X4303014Y-2156663D01*
X4295343Y-2168144D01*
X4289247Y-2180488D01*
X4284776Y-2193544D01*
X4282084Y-2207107D01*
X4281170Y-2221179D01*
X4281170Y-2270506D01*
X4282084Y-2284628D01*
X4284776Y-2298141D01*
X4289247Y-2311247D01*
X4295343Y-2323592D01*
X4303014Y-2335072D01*
X4312107Y-2345436D01*
X4322470Y-2354529D01*
X4333951Y-2362200D01*
X4346295Y-2368296D01*
X4359402Y-2372766D01*
X4372914Y-2375458D01*
G37*
G36*
X5910681Y-2376373D02*
G01*
X5924448Y-2375458D01*
X5938012Y-2372766D01*
X5951067Y-2368296D01*
X5963412Y-2362200D01*
X5974892Y-2354529D01*
X5985256Y-2345436D01*
X5994349Y-2335072D01*
X6002020Y-2323592D01*
X6008166Y-2311247D01*
X6012586Y-2298141D01*
X6015278Y-2284628D01*
X6016193Y-2270506D01*
X6016193Y-2221179D01*
X6015278Y-2207107D01*
X6012586Y-2193544D01*
X6008166Y-2180488D01*
X6002020Y-2168144D01*
X5994349Y-2156663D01*
X5985256Y-2146249D01*
X5974892Y-2137156D01*
X5963412Y-2129485D01*
X5951067Y-2123389D01*
X5938012Y-2118969D01*
X5924448Y-2116277D01*
X5910681Y-2115362D01*
X5896914Y-2116277D01*
X5883402Y-2118969D01*
X5870295Y-2123389D01*
X5857951Y-2129485D01*
X5846470Y-2137156D01*
X5836107Y-2146249D01*
X5827014Y-2156663D01*
X5819343Y-2168144D01*
X5813247Y-2180488D01*
X5808776Y-2193544D01*
X5806084Y-2207107D01*
X5805170Y-2221179D01*
X5805170Y-2270506D01*
X5806084Y-2284628D01*
X5808776Y-2298141D01*
X5813247Y-2311247D01*
X5819343Y-2323592D01*
X5827014Y-2335072D01*
X5836107Y-2345436D01*
X5846470Y-2354529D01*
X5857951Y-2362200D01*
X5870295Y-2368296D01*
X5883402Y-2372766D01*
X5896914Y-2375458D01*
G37*
G36*
X5656681Y-2376373D02*
G01*
X5670448Y-2375458D01*
X5684012Y-2372766D01*
X5697067Y-2368296D01*
X5709412Y-2362200D01*
X5720892Y-2354529D01*
X5731256Y-2345436D01*
X5740349Y-2335072D01*
X5748020Y-2323592D01*
X5754166Y-2311247D01*
X5758586Y-2298141D01*
X5761278Y-2284628D01*
X5762193Y-2270506D01*
X5762193Y-2221179D01*
X5761278Y-2207107D01*
X5758586Y-2193544D01*
X5754166Y-2180488D01*
X5748020Y-2168144D01*
X5740349Y-2156663D01*
X5731256Y-2146249D01*
X5720892Y-2137156D01*
X5709412Y-2129485D01*
X5697067Y-2123389D01*
X5684012Y-2118969D01*
X5670448Y-2116277D01*
X5656681Y-2115362D01*
X5642914Y-2116277D01*
X5629402Y-2118969D01*
X5616295Y-2123389D01*
X5603951Y-2129485D01*
X5592470Y-2137156D01*
X5582107Y-2146249D01*
X5573014Y-2156663D01*
X5565343Y-2168144D01*
X5559247Y-2180488D01*
X5554776Y-2193544D01*
X5552084Y-2207107D01*
X5551170Y-2221179D01*
X5551170Y-2270506D01*
X5552084Y-2284628D01*
X5554776Y-2298141D01*
X5559247Y-2311247D01*
X5565343Y-2323592D01*
X5573014Y-2335072D01*
X5582107Y-2345436D01*
X5592470Y-2354529D01*
X5603951Y-2362200D01*
X5616295Y-2368296D01*
X5629402Y-2372766D01*
X5642914Y-2375458D01*
G37*
G36*
X4640681Y-2376373D02*
G01*
X4654448Y-2375458D01*
X4668012Y-2372766D01*
X4681067Y-2368296D01*
X4693412Y-2362200D01*
X4704892Y-2354529D01*
X4715256Y-2345436D01*
X4724349Y-2335072D01*
X4732020Y-2323592D01*
X4738166Y-2311247D01*
X4742586Y-2298141D01*
X4745278Y-2284628D01*
X4746193Y-2270506D01*
X4746193Y-2221179D01*
X4745278Y-2207107D01*
X4742586Y-2193544D01*
X4738166Y-2180488D01*
X4732020Y-2168144D01*
X4724349Y-2156663D01*
X4715256Y-2146249D01*
X4704892Y-2137156D01*
X4693412Y-2129485D01*
X4681067Y-2123389D01*
X4668012Y-2118969D01*
X4654448Y-2116277D01*
X4640681Y-2115362D01*
X4626914Y-2116277D01*
X4613402Y-2118969D01*
X4600295Y-2123389D01*
X4587951Y-2129485D01*
X4576470Y-2137156D01*
X4566107Y-2146249D01*
X4557014Y-2156663D01*
X4549343Y-2168144D01*
X4543247Y-2180488D01*
X4538776Y-2193544D01*
X4536084Y-2207107D01*
X4535170Y-2221179D01*
X4535170Y-2270506D01*
X4536084Y-2284628D01*
X4538776Y-2298141D01*
X4543247Y-2311247D01*
X4549343Y-2323592D01*
X4557014Y-2335072D01*
X4566107Y-2345436D01*
X4576470Y-2354529D01*
X4587951Y-2362200D01*
X4600295Y-2368296D01*
X4613402Y-2372766D01*
X4626914Y-2375458D01*
G37*
G36*
X5402681Y-2376373D02*
G01*
X5416448Y-2375458D01*
X5430012Y-2372766D01*
X5443067Y-2368296D01*
X5455412Y-2362200D01*
X5466892Y-2354529D01*
X5477256Y-2345436D01*
X5486349Y-2335072D01*
X5494020Y-2323592D01*
X5500166Y-2311247D01*
X5504586Y-2298141D01*
X5507278Y-2284628D01*
X5508193Y-2270506D01*
X5508193Y-2221179D01*
X5507278Y-2207107D01*
X5504586Y-2193544D01*
X5500166Y-2180488D01*
X5494020Y-2168144D01*
X5486349Y-2156663D01*
X5477256Y-2146249D01*
X5466892Y-2137156D01*
X5455412Y-2129485D01*
X5443067Y-2123389D01*
X5430012Y-2118969D01*
X5416448Y-2116277D01*
X5402681Y-2115362D01*
X5388914Y-2116277D01*
X5375402Y-2118969D01*
X5362295Y-2123389D01*
X5349951Y-2129485D01*
X5338470Y-2137156D01*
X5328107Y-2146249D01*
X5319014Y-2156663D01*
X5311343Y-2168144D01*
X5305247Y-2180488D01*
X5300776Y-2193544D01*
X5298084Y-2207107D01*
X5297170Y-2221179D01*
X5297170Y-2270506D01*
X5298084Y-2284628D01*
X5300776Y-2298141D01*
X5305247Y-2311247D01*
X5311343Y-2323592D01*
X5319014Y-2335072D01*
X5328107Y-2345436D01*
X5338470Y-2354529D01*
X5349951Y-2362200D01*
X5362295Y-2368296D01*
X5375402Y-2372766D01*
X5388914Y-2375458D01*
G37*
G36*
X4894681Y-2376373D02*
G01*
X4908448Y-2375458D01*
X4922012Y-2372766D01*
X4935067Y-2368296D01*
X4947412Y-2362200D01*
X4958892Y-2354529D01*
X4969256Y-2345436D01*
X4978349Y-2335072D01*
X4986020Y-2323592D01*
X4992166Y-2311247D01*
X4996586Y-2298141D01*
X4999278Y-2284628D01*
X5000193Y-2270506D01*
X5000193Y-2221179D01*
X4999278Y-2207107D01*
X4996586Y-2193544D01*
X4992166Y-2180488D01*
X4986020Y-2168144D01*
X4978349Y-2156663D01*
X4969256Y-2146249D01*
X4958892Y-2137156D01*
X4947412Y-2129485D01*
X4935067Y-2123389D01*
X4922012Y-2118969D01*
X4908448Y-2116277D01*
X4894681Y-2115362D01*
X4880914Y-2116277D01*
X4867402Y-2118969D01*
X4854295Y-2123389D01*
X4841951Y-2129485D01*
X4830470Y-2137156D01*
X4820107Y-2146249D01*
X4811014Y-2156663D01*
X4803343Y-2168144D01*
X4797247Y-2180488D01*
X4792776Y-2193544D01*
X4790084Y-2207107D01*
X4789170Y-2221179D01*
X4789170Y-2270506D01*
X4790084Y-2284628D01*
X4792776Y-2298141D01*
X4797247Y-2311247D01*
X4803343Y-2323592D01*
X4811014Y-2335072D01*
X4820107Y-2345436D01*
X4830470Y-2354529D01*
X4841951Y-2362200D01*
X4854295Y-2368296D01*
X4867402Y-2372766D01*
X4880914Y-2375458D01*
G37*
G36*
X5148681Y-2376373D02*
G01*
X5162448Y-2375458D01*
X5176012Y-2372766D01*
X5189067Y-2368296D01*
X5201412Y-2362200D01*
X5212892Y-2354529D01*
X5223256Y-2345436D01*
X5232349Y-2335072D01*
X5240020Y-2323592D01*
X5246166Y-2311247D01*
X5250586Y-2298141D01*
X5253278Y-2284628D01*
X5254193Y-2270506D01*
X5254193Y-2221179D01*
X5253278Y-2207107D01*
X5250586Y-2193544D01*
X5246166Y-2180488D01*
X5240020Y-2168144D01*
X5232349Y-2156663D01*
X5223256Y-2146249D01*
X5212892Y-2137156D01*
X5201412Y-2129485D01*
X5189067Y-2123389D01*
X5176012Y-2118969D01*
X5162448Y-2116277D01*
X5148681Y-2115362D01*
X5134914Y-2116277D01*
X5121402Y-2118969D01*
X5108295Y-2123389D01*
X5095951Y-2129485D01*
X5084470Y-2137156D01*
X5074107Y-2146249D01*
X5065014Y-2156663D01*
X5057343Y-2168144D01*
X5051247Y-2180488D01*
X5046776Y-2193544D01*
X5044084Y-2207107D01*
X5043170Y-2221179D01*
X5043170Y-2270506D01*
X5044084Y-2284628D01*
X5046776Y-2298141D01*
X5051247Y-2311247D01*
X5057343Y-2323592D01*
X5065014Y-2335072D01*
X5074107Y-2345436D01*
X5084470Y-2354529D01*
X5095951Y-2362200D01*
X5108295Y-2368296D01*
X5121402Y-2372766D01*
X5134914Y-2375458D01*
G37*
G36*
X7180681Y-2376373D02*
G01*
X7194448Y-2375458D01*
X7208012Y-2372766D01*
X7221067Y-2368296D01*
X7233412Y-2362200D01*
X7244892Y-2354529D01*
X7255256Y-2345436D01*
X7264349Y-2335072D01*
X7272020Y-2323592D01*
X7278166Y-2311247D01*
X7282586Y-2298141D01*
X7285278Y-2284628D01*
X7286193Y-2270506D01*
X7286193Y-2221179D01*
X7285278Y-2207107D01*
X7282586Y-2193544D01*
X7278166Y-2180488D01*
X7272020Y-2168144D01*
X7264349Y-2156663D01*
X7255256Y-2146249D01*
X7244892Y-2137156D01*
X7235698Y-2131009D01*
X7233310Y-2128774D01*
X7231735Y-2125827D01*
X7231176Y-2122576D01*
X7231176Y-1770684D01*
X7230973Y-1766062D01*
X7230414Y-1761693D01*
X7229449Y-1757425D01*
X7228128Y-1753209D01*
X7226452Y-1749145D01*
X7224420Y-1745234D01*
X7222032Y-1741525D01*
X7219340Y-1738020D01*
X7216241Y-1734616D01*
X6382308Y-900633D01*
X6380022Y-897178D01*
X6379311Y-893013D01*
X6380378Y-889000D01*
X6382918Y-885698D01*
X6386626Y-883716D01*
X6390792Y-883412D01*
X6394754Y-884783D01*
X6399326Y-887577D01*
X6412585Y-893419D01*
X6426454Y-897534D01*
X6440728Y-899871D01*
X6455206Y-900328D01*
X6469634Y-898956D01*
X6482130Y-896061D01*
X6485534Y-895908D01*
X6488785Y-896823D01*
X6491579Y-898804D01*
X7381189Y-1788414D01*
X7383424Y-1791716D01*
X7384186Y-1795627D01*
X7384186Y-2122576D01*
X7383627Y-2125878D01*
X7382052Y-2128774D01*
X7379665Y-2131060D01*
X7370470Y-2137156D01*
X7360107Y-2146249D01*
X7351014Y-2156663D01*
X7343343Y-2168144D01*
X7337247Y-2180488D01*
X7332776Y-2193544D01*
X7330084Y-2207107D01*
X7329170Y-2221179D01*
X7329170Y-2270506D01*
X7330084Y-2284628D01*
X7332776Y-2298141D01*
X7337247Y-2311247D01*
X7343343Y-2323592D01*
X7351014Y-2335072D01*
X7360107Y-2345436D01*
X7370470Y-2354529D01*
X7381951Y-2362200D01*
X7394295Y-2368296D01*
X7407402Y-2372766D01*
X7420914Y-2375458D01*
X7434681Y-2376373D01*
X7448448Y-2375458D01*
X7462012Y-2372766D01*
X7475067Y-2368296D01*
X7487412Y-2362200D01*
X7498892Y-2354529D01*
X7509256Y-2345436D01*
X7518349Y-2335072D01*
X7526020Y-2323592D01*
X7532166Y-2311247D01*
X7536586Y-2298141D01*
X7539278Y-2284628D01*
X7540193Y-2270506D01*
X7540193Y-2221179D01*
X7539278Y-2207107D01*
X7536586Y-2193544D01*
X7532166Y-2180488D01*
X7526020Y-2168144D01*
X7518349Y-2156663D01*
X7509256Y-2146249D01*
X7498892Y-2137156D01*
X7489698Y-2131009D01*
X7487310Y-2128774D01*
X7485735Y-2125827D01*
X7485176Y-2122576D01*
X7485176Y-1770684D01*
X7484973Y-1766062D01*
X7484414Y-1761693D01*
X7483449Y-1757425D01*
X7482128Y-1753209D01*
X7480452Y-1749145D01*
X7478420Y-1745234D01*
X7476032Y-1741525D01*
X7473340Y-1738020D01*
X7470241Y-1734616D01*
X6636308Y-900633D01*
X6634022Y-897178D01*
X6633311Y-893013D01*
X6634378Y-889000D01*
X6636918Y-885698D01*
X6640626Y-883716D01*
X6644792Y-883412D01*
X6648754Y-884783D01*
X6653326Y-887577D01*
X6666585Y-893419D01*
X6680453Y-897534D01*
X6694728Y-899871D01*
X6709206Y-900328D01*
X6723634Y-898956D01*
X6736130Y-896061D01*
X6739534Y-895908D01*
X6742785Y-896823D01*
X6745579Y-898804D01*
X7635189Y-1788414D01*
X7637424Y-1791716D01*
X7638186Y-1795627D01*
X7638186Y-2122576D01*
X7637627Y-2125878D01*
X7636052Y-2128774D01*
X7633665Y-2131060D01*
X7624470Y-2137156D01*
X7614107Y-2146249D01*
X7605014Y-2156663D01*
X7597343Y-2168144D01*
X7591247Y-2180488D01*
X7586776Y-2193544D01*
X7584084Y-2207107D01*
X7583170Y-2221179D01*
X7583170Y-2270506D01*
X7584084Y-2284628D01*
X7586776Y-2298141D01*
X7591247Y-2311247D01*
X7597343Y-2323592D01*
X7605014Y-2335072D01*
X7614107Y-2345436D01*
X7624470Y-2354529D01*
X7635951Y-2362200D01*
X7648295Y-2368296D01*
X7661402Y-2372766D01*
X7674914Y-2375458D01*
X7688681Y-2376373D01*
X7702448Y-2375458D01*
X7716012Y-2372766D01*
X7729067Y-2368296D01*
X7741412Y-2362200D01*
X7752892Y-2354529D01*
X7763256Y-2345436D01*
X7772349Y-2335072D01*
X7780020Y-2323592D01*
X7786166Y-2311247D01*
X7790586Y-2298141D01*
X7793278Y-2284628D01*
X7794193Y-2270506D01*
X7794193Y-2221179D01*
X7793278Y-2207107D01*
X7790586Y-2193544D01*
X7786166Y-2180488D01*
X7780020Y-2168144D01*
X7772349Y-2156663D01*
X7763256Y-2146249D01*
X7752892Y-2137156D01*
X7743698Y-2131009D01*
X7741310Y-2128774D01*
X7739735Y-2125827D01*
X7739176Y-2122576D01*
X7739176Y-1770684D01*
X7738973Y-1766062D01*
X7738414Y-1761693D01*
X7737449Y-1757425D01*
X7736128Y-1753209D01*
X7734452Y-1749145D01*
X7732420Y-1745234D01*
X7730032Y-1741525D01*
X7727340Y-1738020D01*
X7724241Y-1734616D01*
X6890308Y-900633D01*
X6888022Y-897178D01*
X6887311Y-893013D01*
X6888378Y-889000D01*
X6890918Y-885698D01*
X6894626Y-883716D01*
X6898792Y-883412D01*
X6902754Y-884783D01*
X6907326Y-887577D01*
X6920585Y-893419D01*
X6934453Y-897534D01*
X6948728Y-899871D01*
X6963206Y-900328D01*
X6977634Y-898956D01*
X6991756Y-895705D01*
X7005320Y-890727D01*
X7018172Y-884021D01*
X7030059Y-875741D01*
X7040778Y-865987D01*
X7050125Y-854964D01*
X7058050Y-842822D01*
X7064349Y-829818D01*
X7068870Y-816051D01*
X7071664Y-801827D01*
X7072579Y-787400D01*
X7071664Y-772972D01*
X7068870Y-758748D01*
X7064349Y-744982D01*
X7058050Y-731977D01*
X7050125Y-719836D01*
X7040778Y-708812D01*
X7030059Y-699058D01*
X7018172Y-690778D01*
X7005320Y-684072D01*
X6991756Y-679094D01*
X6977634Y-675843D01*
X6963206Y-674471D01*
X6948728Y-674928D01*
X6934453Y-677265D01*
X6920585Y-681380D01*
X6907326Y-687222D01*
X6894982Y-694740D01*
X6883653Y-703783D01*
X6873544Y-714146D01*
X6864908Y-725779D01*
X6857796Y-738378D01*
X6852361Y-751789D01*
X6848703Y-765810D01*
X6846824Y-780135D01*
X6846824Y-794664D01*
X6848703Y-808990D01*
X6852361Y-823010D01*
X6857796Y-836421D01*
X6862368Y-844550D01*
X6863638Y-848461D01*
X6863181Y-852576D01*
X6861200Y-856183D01*
X6857898Y-858672D01*
X6853885Y-859688D01*
X6849770Y-858977D01*
X6846316Y-856691D01*
X6817055Y-827379D01*
X6814921Y-824331D01*
X6814058Y-820724D01*
X6817664Y-801827D01*
X6818579Y-787400D01*
X6817664Y-772972D01*
X6814870Y-758748D01*
X6810349Y-744982D01*
X6804050Y-731977D01*
X6796125Y-719836D01*
X6786778Y-708812D01*
X6776059Y-699058D01*
X6764172Y-690778D01*
X6751320Y-684072D01*
X6737756Y-679094D01*
X6723634Y-675843D01*
X6709206Y-674471D01*
X6694728Y-674928D01*
X6680453Y-677265D01*
X6666585Y-681380D01*
X6653326Y-687222D01*
X6640982Y-694740D01*
X6629653Y-703783D01*
X6619544Y-714146D01*
X6610908Y-725779D01*
X6603796Y-738378D01*
X6598361Y-751789D01*
X6594703Y-765810D01*
X6592824Y-780135D01*
X6592824Y-794664D01*
X6594703Y-808990D01*
X6598361Y-823010D01*
X6603796Y-836421D01*
X6608368Y-844550D01*
X6609638Y-848461D01*
X6609181Y-852576D01*
X6607200Y-856183D01*
X6603898Y-858672D01*
X6599885Y-859688D01*
X6595770Y-858977D01*
X6592316Y-856691D01*
X6563055Y-827379D01*
X6560921Y-824331D01*
X6560058Y-820724D01*
X6563664Y-801827D01*
X6564579Y-787400D01*
X6563664Y-772972D01*
X6560870Y-758748D01*
X6556349Y-744982D01*
X6550050Y-731977D01*
X6542125Y-719836D01*
X6532778Y-708812D01*
X6522059Y-699058D01*
X6510172Y-690778D01*
X6497320Y-684072D01*
X6483756Y-679094D01*
X6469634Y-675843D01*
X6455206Y-674471D01*
X6440728Y-674928D01*
X6426454Y-677265D01*
X6412585Y-681380D01*
X6399326Y-687222D01*
X6386982Y-694740D01*
X6375654Y-703783D01*
X6365544Y-714146D01*
X6356908Y-725779D01*
X6349796Y-738378D01*
X6344361Y-751789D01*
X6340703Y-765810D01*
X6338824Y-780135D01*
X6338824Y-794664D01*
X6340703Y-808990D01*
X6344361Y-823010D01*
X6349796Y-836421D01*
X6354368Y-844550D01*
X6355638Y-848461D01*
X6355181Y-852576D01*
X6353200Y-856183D01*
X6349898Y-858672D01*
X6345885Y-859688D01*
X6341770Y-858977D01*
X6338316Y-856691D01*
X6309055Y-827379D01*
X6306921Y-824331D01*
X6306058Y-820724D01*
X6309664Y-801827D01*
X6310579Y-787400D01*
X6309664Y-772972D01*
X6306870Y-758748D01*
X6302349Y-744982D01*
X6296050Y-731977D01*
X6288125Y-719836D01*
X6278778Y-708812D01*
X6268059Y-699058D01*
X6256172Y-690778D01*
X6243320Y-684072D01*
X6229756Y-679094D01*
X6215634Y-675843D01*
X6201206Y-674471D01*
X6186728Y-674928D01*
X6172454Y-677265D01*
X6158585Y-681380D01*
X6145326Y-687222D01*
X6132982Y-694740D01*
X6121654Y-703783D01*
X6111544Y-714146D01*
X6102908Y-725779D01*
X6095796Y-738378D01*
X6090361Y-751789D01*
X6086703Y-765810D01*
X6084824Y-780135D01*
X6084824Y-794664D01*
X6086703Y-808990D01*
X6090361Y-823010D01*
X6095796Y-836421D01*
X6102908Y-849020D01*
X6111544Y-860653D01*
X6121654Y-871067D01*
X6132982Y-880059D01*
X6145326Y-887577D01*
X6158585Y-893419D01*
X6172454Y-897534D01*
X6186728Y-899871D01*
X6201206Y-900328D01*
X6215634Y-898956D01*
X6228130Y-896061D01*
X6231534Y-895908D01*
X6234785Y-896823D01*
X6237579Y-898804D01*
X7127189Y-1788414D01*
X7129424Y-1791716D01*
X7130186Y-1795627D01*
X7130186Y-2122576D01*
X7129627Y-2125878D01*
X7128052Y-2128774D01*
X7125665Y-2131060D01*
X7116470Y-2137156D01*
X7106107Y-2146249D01*
X7097014Y-2156663D01*
X7089343Y-2168144D01*
X7083247Y-2180488D01*
X7078776Y-2193544D01*
X7076084Y-2207107D01*
X7075170Y-2221179D01*
X7075170Y-2270506D01*
X7076084Y-2284628D01*
X7078776Y-2298141D01*
X7083247Y-2311247D01*
X7089343Y-2323592D01*
X7097014Y-2335072D01*
X7106107Y-2345436D01*
X7116470Y-2354529D01*
X7127951Y-2362200D01*
X7140295Y-2368296D01*
X7153402Y-2372766D01*
X7166914Y-2375458D01*
G37*
G36*
X927455Y-2153310D02*
G01*
X940765Y-2145944D01*
X953312Y-2136952D01*
X964742Y-2126488D01*
X974801Y-2114804D01*
X983437Y-2101951D01*
X988568Y-2091943D01*
X927455Y-2091943D01*
G37*
G36*
X277469Y-2153310D02*
G01*
X290779Y-2145944D01*
X303326Y-2136952D01*
X314756Y-2126488D01*
X324815Y-2114804D01*
X333451Y-2101951D01*
X338582Y-2091943D01*
X277469Y-2091943D01*
G37*
G36*
X814730Y-2153056D02*
G01*
X814730Y-2091943D01*
X753567Y-2091943D01*
X754989Y-2095195D01*
X762863Y-2108504D01*
X772261Y-2120798D01*
X783031Y-2131872D01*
X795020Y-2141626D01*
X808075Y-2149906D01*
G37*
G36*
X164744Y-2153056D02*
G01*
X164744Y-2091943D01*
X103581Y-2091943D01*
X105003Y-2095195D01*
X112877Y-2108504D01*
X122275Y-2120798D01*
X133045Y-2131872D01*
X145034Y-2141626D01*
X158089Y-2149906D01*
G37*
G36*
X103581Y-1979269D02*
G01*
X164744Y-1979269D01*
X164744Y-1918157D01*
X158089Y-1921357D01*
X145034Y-1929587D01*
X133045Y-1939340D01*
X122275Y-1950415D01*
X112877Y-1962708D01*
X105003Y-1976018D01*
G37*
G36*
X753567Y-1979269D02*
G01*
X814730Y-1979269D01*
X814730Y-1918157D01*
X808075Y-1921357D01*
X795020Y-1929587D01*
X783031Y-1939340D01*
X772261Y-1950415D01*
X762863Y-1962708D01*
X754989Y-1976018D01*
G37*
G36*
X927455Y-1979269D02*
G01*
X988568Y-1979269D01*
X983437Y-1969262D01*
X974801Y-1956409D01*
X964742Y-1944725D01*
X953312Y-1934260D01*
X940765Y-1925269D01*
X927455Y-1917903D01*
G37*
G36*
X277469Y-1979269D02*
G01*
X338582Y-1979269D01*
X333451Y-1969262D01*
X324815Y-1956409D01*
X314756Y-1944725D01*
X303326Y-1934260D01*
X290779Y-1925269D01*
X277469Y-1917903D01*
G37*
G36*
X217220Y-1803247D02*
G01*
X232714Y-1802790D01*
X248005Y-1800504D01*
X262890Y-1796389D01*
X277215Y-1790598D01*
X290779Y-1783130D01*
X303326Y-1774139D01*
X314756Y-1763674D01*
X324815Y-1751990D01*
X333451Y-1739138D01*
X340512Y-1725422D01*
X345897Y-1710893D01*
X349554Y-1695856D01*
X351383Y-1680514D01*
X351383Y-1665071D01*
X349554Y-1649730D01*
X345897Y-1634693D01*
X340512Y-1620215D01*
X333451Y-1606448D01*
X324815Y-1593596D01*
X314756Y-1581912D01*
X303326Y-1571447D01*
X290779Y-1562455D01*
X277215Y-1554988D01*
X262890Y-1549196D01*
X248005Y-1545082D01*
X232714Y-1542796D01*
X217220Y-1542338D01*
X201828Y-1543710D01*
X186690Y-1546910D01*
X172059Y-1551889D01*
X158089Y-1558544D01*
X145034Y-1566773D01*
X133045Y-1576527D01*
X122275Y-1587601D01*
X112877Y-1599895D01*
X105003Y-1613204D01*
X98806Y-1627378D01*
X94284Y-1642160D01*
X91541Y-1657350D01*
X90627Y-1672793D01*
X91541Y-1688236D01*
X94284Y-1703425D01*
X98806Y-1718208D01*
X105003Y-1732381D01*
X112877Y-1745691D01*
X122275Y-1757984D01*
X133045Y-1769059D01*
X145034Y-1778812D01*
X158089Y-1787093D01*
X172059Y-1793697D01*
X186690Y-1798675D01*
X201828Y-1801875D01*
G37*
G36*
X867206Y-1803247D02*
G01*
X882700Y-1802790D01*
X897991Y-1800504D01*
X912876Y-1796389D01*
X927201Y-1790598D01*
X940765Y-1783130D01*
X953312Y-1774139D01*
X964742Y-1763674D01*
X974801Y-1751990D01*
X983437Y-1739138D01*
X990498Y-1725422D01*
X995883Y-1710893D01*
X999540Y-1695856D01*
X1001369Y-1680514D01*
X1001369Y-1665071D01*
X999540Y-1649730D01*
X995883Y-1634693D01*
X990498Y-1620215D01*
X983437Y-1606448D01*
X974801Y-1593596D01*
X964742Y-1581912D01*
X953312Y-1571447D01*
X940765Y-1562455D01*
X927201Y-1554988D01*
X912876Y-1549196D01*
X897991Y-1545082D01*
X882700Y-1542796D01*
X867206Y-1542338D01*
X851814Y-1543710D01*
X836676Y-1546910D01*
X822045Y-1551889D01*
X808075Y-1558544D01*
X795020Y-1566773D01*
X783031Y-1576527D01*
X772261Y-1587601D01*
X762863Y-1599895D01*
X754989Y-1613204D01*
X748792Y-1627378D01*
X744270Y-1642160D01*
X741527Y-1657350D01*
X740613Y-1672793D01*
X741527Y-1688236D01*
X744270Y-1703425D01*
X748792Y-1718208D01*
X754989Y-1732381D01*
X762863Y-1745691D01*
X772261Y-1757984D01*
X783031Y-1769059D01*
X795020Y-1778812D01*
X808075Y-1787093D01*
X822045Y-1793697D01*
X836676Y-1798675D01*
X851814Y-1801875D01*
G37*
G36*
X2632456Y-1532839D02*
G01*
X2646527Y-1531467D01*
X2660345Y-1528318D01*
X2673604Y-1523441D01*
X2686151Y-1516888D01*
X2697784Y-1508760D01*
X2708249Y-1499260D01*
X2717444Y-1488490D01*
X2725166Y-1476603D01*
X2731312Y-1463852D01*
X2735783Y-1450441D01*
X2738475Y-1436522D01*
X2739390Y-1422400D01*
X2738475Y-1408277D01*
X2735783Y-1394358D01*
X2731312Y-1380947D01*
X2725166Y-1368196D01*
X2717444Y-1356309D01*
X2708249Y-1345539D01*
X2697784Y-1336040D01*
X2686151Y-1327912D01*
X2673604Y-1321358D01*
X2660345Y-1316482D01*
X2646527Y-1313332D01*
X2632456Y-1311960D01*
X2618282Y-1312418D01*
X2604312Y-1314704D01*
X2590749Y-1318717D01*
X2577795Y-1324457D01*
X2565704Y-1331772D01*
X2554630Y-1340612D01*
X2544775Y-1350772D01*
X2536291Y-1362100D01*
X2529332Y-1374444D01*
X2524048Y-1387602D01*
X2520442Y-1401267D01*
X2518664Y-1415338D01*
X2518664Y-1429461D01*
X2520442Y-1443532D01*
X2524048Y-1457198D01*
X2529332Y-1470355D01*
X2536291Y-1482699D01*
X2544775Y-1494028D01*
X2554630Y-1504188D01*
X2565704Y-1513027D01*
X2577795Y-1520342D01*
X2590749Y-1526082D01*
X2604312Y-1530096D01*
X2618282Y-1532382D01*
G37*
G36*
X3140456Y-1532839D02*
G01*
X3154527Y-1531467D01*
X3168345Y-1528318D01*
X3181604Y-1523441D01*
X3194151Y-1516888D01*
X3205784Y-1508760D01*
X3216249Y-1499260D01*
X3225444Y-1488490D01*
X3233166Y-1476603D01*
X3239312Y-1463852D01*
X3243783Y-1450441D01*
X3246475Y-1436522D01*
X3247390Y-1422400D01*
X3246475Y-1408277D01*
X3243783Y-1394358D01*
X3239312Y-1380947D01*
X3233166Y-1368196D01*
X3225444Y-1356309D01*
X3216249Y-1345539D01*
X3205784Y-1336040D01*
X3194151Y-1327912D01*
X3181604Y-1321358D01*
X3168345Y-1316482D01*
X3154527Y-1313332D01*
X3140456Y-1311960D01*
X3126282Y-1312418D01*
X3112312Y-1314704D01*
X3098749Y-1318717D01*
X3085795Y-1324457D01*
X3073704Y-1331772D01*
X3062630Y-1340612D01*
X3052775Y-1350772D01*
X3044291Y-1362100D01*
X3037332Y-1374444D01*
X3032048Y-1387602D01*
X3028442Y-1401267D01*
X3026664Y-1415338D01*
X3026664Y-1429461D01*
X3028442Y-1443532D01*
X3032048Y-1457198D01*
X3037332Y-1470355D01*
X3044291Y-1482699D01*
X3052775Y-1494028D01*
X3062630Y-1504188D01*
X3073704Y-1513027D01*
X3085795Y-1520342D01*
X3098749Y-1526082D01*
X3112312Y-1530096D01*
X3126282Y-1532382D01*
G37*
G36*
X2886456Y-1532839D02*
G01*
X2900527Y-1531467D01*
X2914345Y-1528318D01*
X2927604Y-1523441D01*
X2940151Y-1516888D01*
X2951784Y-1508760D01*
X2962249Y-1499260D01*
X2971444Y-1488490D01*
X2979166Y-1476603D01*
X2985312Y-1463852D01*
X2989783Y-1450441D01*
X2992475Y-1436522D01*
X2993390Y-1422400D01*
X2992475Y-1408277D01*
X2989783Y-1394358D01*
X2985312Y-1380947D01*
X2979166Y-1368196D01*
X2971444Y-1356309D01*
X2962249Y-1345539D01*
X2951784Y-1336040D01*
X2940151Y-1327912D01*
X2927604Y-1321358D01*
X2914345Y-1316482D01*
X2900527Y-1313332D01*
X2886456Y-1311960D01*
X2872282Y-1312418D01*
X2858312Y-1314704D01*
X2844749Y-1318717D01*
X2831795Y-1324457D01*
X2819704Y-1331772D01*
X2808630Y-1340612D01*
X2798775Y-1350772D01*
X2790291Y-1362100D01*
X2783332Y-1374444D01*
X2778048Y-1387602D01*
X2774442Y-1401267D01*
X2772664Y-1415338D01*
X2772664Y-1429461D01*
X2774442Y-1443532D01*
X2778048Y-1457198D01*
X2783332Y-1470355D01*
X2790291Y-1482699D01*
X2798775Y-1494028D01*
X2808630Y-1504188D01*
X2819704Y-1513027D01*
X2831795Y-1520342D01*
X2844749Y-1526082D01*
X2858312Y-1530096D01*
X2872282Y-1532382D01*
G37*
G36*
X2378456Y-1532839D02*
G01*
X2392527Y-1531467D01*
X2406345Y-1528318D01*
X2419604Y-1523441D01*
X2432151Y-1516888D01*
X2443784Y-1508760D01*
X2454249Y-1499260D01*
X2463444Y-1488490D01*
X2471166Y-1476603D01*
X2477312Y-1463852D01*
X2481783Y-1450441D01*
X2484475Y-1436522D01*
X2485390Y-1422400D01*
X2484475Y-1408277D01*
X2481783Y-1394358D01*
X2477312Y-1380947D01*
X2471166Y-1368196D01*
X2463444Y-1356309D01*
X2454249Y-1345539D01*
X2443784Y-1336040D01*
X2432151Y-1327912D01*
X2419604Y-1321358D01*
X2406345Y-1316482D01*
X2392527Y-1313332D01*
X2378456Y-1311960D01*
X2364282Y-1312418D01*
X2350312Y-1314704D01*
X2336749Y-1318717D01*
X2323795Y-1324457D01*
X2311704Y-1331772D01*
X2300630Y-1340612D01*
X2290775Y-1350772D01*
X2282291Y-1362100D01*
X2275332Y-1374444D01*
X2270048Y-1387602D01*
X2266442Y-1401267D01*
X2264664Y-1415338D01*
X2264664Y-1429461D01*
X2266442Y-1443532D01*
X2270048Y-1457198D01*
X2275332Y-1470355D01*
X2282291Y-1482699D01*
X2290775Y-1494028D01*
X2300630Y-1504188D01*
X2311704Y-1513027D01*
X2323795Y-1520342D01*
X2336749Y-1526082D01*
X2350312Y-1530096D01*
X2364282Y-1532382D01*
G37*
G36*
X3394456Y-1532839D02*
G01*
X3408527Y-1531467D01*
X3422345Y-1528318D01*
X3435604Y-1523441D01*
X3448151Y-1516888D01*
X3459784Y-1508760D01*
X3470249Y-1499260D01*
X3479444Y-1488490D01*
X3487165Y-1476603D01*
X3493312Y-1463852D01*
X3497783Y-1450441D01*
X3500475Y-1436522D01*
X3501390Y-1422400D01*
X3500475Y-1408277D01*
X3497783Y-1394358D01*
X3493312Y-1380947D01*
X3487165Y-1368196D01*
X3479444Y-1356309D01*
X3470249Y-1345539D01*
X3459784Y-1336040D01*
X3448151Y-1327912D01*
X3435604Y-1321358D01*
X3422345Y-1316482D01*
X3408527Y-1313332D01*
X3394456Y-1311960D01*
X3380282Y-1312418D01*
X3366312Y-1314704D01*
X3352749Y-1318717D01*
X3339795Y-1324457D01*
X3327704Y-1331772D01*
X3316630Y-1340612D01*
X3306775Y-1350772D01*
X3298291Y-1362100D01*
X3291332Y-1374444D01*
X3286048Y-1387602D01*
X3282442Y-1401267D01*
X3280664Y-1415338D01*
X3280664Y-1429461D01*
X3282442Y-1443532D01*
X3286048Y-1457198D01*
X3291332Y-1470355D01*
X3298291Y-1482699D01*
X3306775Y-1494028D01*
X3316630Y-1504188D01*
X3327704Y-1513027D01*
X3339795Y-1520342D01*
X3352749Y-1526082D01*
X3366312Y-1530096D01*
X3380282Y-1532382D01*
G37*
G36*
X277469Y-1340510D02*
G01*
X290779Y-1333144D01*
X303326Y-1324152D01*
X314756Y-1313688D01*
X324815Y-1302004D01*
X333451Y-1289151D01*
X338582Y-1279144D01*
X277469Y-1279144D01*
G37*
G36*
X927455Y-1340510D02*
G01*
X940765Y-1333144D01*
X953312Y-1324152D01*
X964742Y-1313688D01*
X974801Y-1302004D01*
X983437Y-1289151D01*
X988568Y-1279144D01*
X927455Y-1279144D01*
G37*
G36*
X164744Y-1340256D02*
G01*
X164744Y-1279144D01*
X103581Y-1279144D01*
X105003Y-1282395D01*
X112877Y-1295704D01*
X122275Y-1307998D01*
X133045Y-1319072D01*
X145034Y-1328826D01*
X158089Y-1337106D01*
G37*
G36*
X814730Y-1340256D02*
G01*
X814730Y-1279144D01*
X753567Y-1279144D01*
X754989Y-1282395D01*
X762863Y-1295704D01*
X772261Y-1307998D01*
X783031Y-1319072D01*
X795020Y-1328826D01*
X808075Y-1337106D01*
G37*
G36*
X103581Y-1166469D02*
G01*
X164744Y-1166469D01*
X164744Y-1105357D01*
X158089Y-1108557D01*
X145034Y-1116787D01*
X133045Y-1126540D01*
X122275Y-1137615D01*
X112877Y-1149908D01*
X105003Y-1163218D01*
G37*
G36*
X753567Y-1166469D02*
G01*
X814730Y-1166469D01*
X814730Y-1105357D01*
X808075Y-1108557D01*
X795020Y-1116787D01*
X783031Y-1126540D01*
X772261Y-1137615D01*
X762863Y-1149908D01*
X754989Y-1163218D01*
G37*
G36*
X927455Y-1166469D02*
G01*
X988568Y-1166469D01*
X983437Y-1156462D01*
X974801Y-1143609D01*
X964742Y-1131925D01*
X953312Y-1121460D01*
X940765Y-1112469D01*
X927455Y-1105103D01*
G37*
G36*
X277469Y-1166469D02*
G01*
X338582Y-1166469D01*
X333451Y-1156462D01*
X324815Y-1143609D01*
X314756Y-1131925D01*
X303326Y-1121460D01*
X290779Y-1112469D01*
X277469Y-1105103D01*
G37*
G36*
X2689199Y-900430D02*
G01*
X2723591Y-900430D01*
X2730042Y-899769D01*
X2735732Y-898042D01*
X2741015Y-895248D01*
X2745638Y-891438D01*
X2749448Y-886815D01*
X2752242Y-881532D01*
X2753969Y-875842D01*
X2754630Y-869391D01*
X2754630Y-834999D01*
X2689199Y-834999D01*
G37*
G36*
X2559608Y-900430D02*
G01*
X2594000Y-900430D01*
X2594000Y-834999D01*
X2528570Y-834999D01*
X2528570Y-869391D01*
X2529230Y-875842D01*
X2530957Y-881532D01*
X2533751Y-886815D01*
X2537561Y-891438D01*
X2542184Y-895248D01*
X2547467Y-898042D01*
X2553157Y-899769D01*
G37*
G36*
X3153206Y-900328D02*
G01*
X3167634Y-898956D01*
X3181756Y-895705D01*
X3195320Y-890727D01*
X3208172Y-884021D01*
X3220059Y-875741D01*
X3230778Y-865987D01*
X3240125Y-854964D01*
X3248050Y-842822D01*
X3254349Y-829818D01*
X3258870Y-816051D01*
X3261664Y-801827D01*
X3262579Y-787400D01*
X3261664Y-772972D01*
X3258870Y-758748D01*
X3254349Y-744982D01*
X3248050Y-731977D01*
X3240125Y-719836D01*
X3230778Y-708812D01*
X3220059Y-699058D01*
X3208172Y-690778D01*
X3195320Y-684072D01*
X3181756Y-679094D01*
X3167634Y-675843D01*
X3153206Y-674471D01*
X3138728Y-674928D01*
X3124454Y-677265D01*
X3110585Y-681380D01*
X3097326Y-687222D01*
X3084982Y-694740D01*
X3073654Y-703783D01*
X3063544Y-714146D01*
X3054908Y-725779D01*
X3047796Y-738378D01*
X3042361Y-751789D01*
X3038703Y-765810D01*
X3036824Y-780135D01*
X3036824Y-794664D01*
X3038703Y-808990D01*
X3042361Y-823010D01*
X3047796Y-836421D01*
X3054908Y-849020D01*
X3063544Y-860653D01*
X3073654Y-871067D01*
X3084982Y-880059D01*
X3097326Y-887577D01*
X3110585Y-893419D01*
X3124454Y-897534D01*
X3138728Y-899871D01*
G37*
G36*
X5693206Y-900328D02*
G01*
X5707634Y-898956D01*
X5721756Y-895705D01*
X5735320Y-890727D01*
X5748172Y-884021D01*
X5760059Y-875741D01*
X5770778Y-865987D01*
X5780125Y-854964D01*
X5788050Y-842822D01*
X5794349Y-829818D01*
X5798870Y-816051D01*
X5801664Y-801827D01*
X5802579Y-787400D01*
X5801664Y-772972D01*
X5798870Y-758748D01*
X5794349Y-744982D01*
X5788050Y-731977D01*
X5780125Y-719836D01*
X5770778Y-708812D01*
X5760059Y-699058D01*
X5748172Y-690778D01*
X5735320Y-684072D01*
X5721756Y-679094D01*
X5707634Y-675843D01*
X5693206Y-674471D01*
X5678728Y-674928D01*
X5664454Y-677265D01*
X5650585Y-681380D01*
X5637326Y-687222D01*
X5624982Y-694740D01*
X5613654Y-703783D01*
X5603544Y-714146D01*
X5594908Y-725779D01*
X5587796Y-738378D01*
X5582361Y-751789D01*
X5578703Y-765810D01*
X5576824Y-780135D01*
X5576824Y-794664D01*
X5578703Y-808990D01*
X5582361Y-823010D01*
X5587796Y-836421D01*
X5594908Y-849020D01*
X5603544Y-860653D01*
X5613654Y-871067D01*
X5624982Y-880059D01*
X5637326Y-887577D01*
X5650585Y-893419D01*
X5664454Y-897534D01*
X5678728Y-899871D01*
G37*
G36*
X5947206Y-900328D02*
G01*
X5961634Y-898956D01*
X5975756Y-895705D01*
X5989320Y-890727D01*
X6002172Y-884021D01*
X6014059Y-875741D01*
X6024778Y-865987D01*
X6034125Y-854964D01*
X6042050Y-842822D01*
X6048349Y-829818D01*
X6052870Y-816051D01*
X6055664Y-801827D01*
X6056579Y-787400D01*
X6055664Y-772972D01*
X6052870Y-758748D01*
X6048349Y-744982D01*
X6042050Y-731977D01*
X6034125Y-719836D01*
X6024778Y-708812D01*
X6014059Y-699058D01*
X6002172Y-690778D01*
X5989320Y-684072D01*
X5975756Y-679094D01*
X5961634Y-675843D01*
X5947206Y-674471D01*
X5932728Y-674928D01*
X5918454Y-677265D01*
X5904585Y-681380D01*
X5891326Y-687222D01*
X5878982Y-694740D01*
X5867654Y-703783D01*
X5857544Y-714146D01*
X5848908Y-725779D01*
X5841796Y-738378D01*
X5836361Y-751789D01*
X5832703Y-765810D01*
X5830824Y-780135D01*
X5830824Y-794664D01*
X5832703Y-808990D01*
X5836361Y-823010D01*
X5841796Y-836421D01*
X5848908Y-849020D01*
X5857544Y-860653D01*
X5867654Y-871067D01*
X5878982Y-880059D01*
X5891326Y-887577D01*
X5904585Y-893419D01*
X5918454Y-897534D01*
X5932728Y-899871D01*
G37*
G36*
X7217206Y-900328D02*
G01*
X7231634Y-898956D01*
X7245756Y-895705D01*
X7259320Y-890727D01*
X7272172Y-884021D01*
X7284059Y-875741D01*
X7294778Y-865987D01*
X7304125Y-854964D01*
X7312050Y-842822D01*
X7318349Y-829818D01*
X7322870Y-816051D01*
X7325664Y-801827D01*
X7326579Y-787400D01*
X7325664Y-772972D01*
X7322870Y-758748D01*
X7318349Y-744982D01*
X7312050Y-731977D01*
X7304125Y-719836D01*
X7294778Y-708812D01*
X7284059Y-699058D01*
X7272172Y-690778D01*
X7259320Y-684072D01*
X7245756Y-679094D01*
X7231634Y-675843D01*
X7217206Y-674471D01*
X7202728Y-674928D01*
X7188453Y-677265D01*
X7174585Y-681380D01*
X7161326Y-687222D01*
X7148982Y-694740D01*
X7137653Y-703783D01*
X7127544Y-714146D01*
X7118908Y-725779D01*
X7111796Y-738378D01*
X7106361Y-751789D01*
X7102703Y-765810D01*
X7100824Y-780135D01*
X7100824Y-794664D01*
X7102703Y-808990D01*
X7106361Y-823010D01*
X7111796Y-836421D01*
X7118908Y-849020D01*
X7127544Y-860653D01*
X7137653Y-871067D01*
X7148982Y-880059D01*
X7161326Y-887577D01*
X7174585Y-893419D01*
X7188453Y-897534D01*
X7202728Y-899871D01*
G37*
G36*
X2899206Y-900328D02*
G01*
X2913634Y-898956D01*
X2927756Y-895705D01*
X2941320Y-890727D01*
X2954172Y-884021D01*
X2966059Y-875741D01*
X2976778Y-865987D01*
X2986125Y-854964D01*
X2994050Y-842822D01*
X3000349Y-829818D01*
X3004870Y-816051D01*
X3007664Y-801827D01*
X3008579Y-787400D01*
X3007664Y-772972D01*
X3004870Y-758748D01*
X3000349Y-744982D01*
X2994050Y-731977D01*
X2986125Y-719836D01*
X2976778Y-708812D01*
X2966059Y-699058D01*
X2954172Y-690778D01*
X2941320Y-684072D01*
X2927756Y-679094D01*
X2913634Y-675843D01*
X2899206Y-674471D01*
X2884728Y-674928D01*
X2870454Y-677265D01*
X2856585Y-681380D01*
X2843326Y-687222D01*
X2830982Y-694740D01*
X2819654Y-703783D01*
X2809544Y-714146D01*
X2800908Y-725779D01*
X2793796Y-738378D01*
X2788361Y-751789D01*
X2784703Y-765810D01*
X2782824Y-780135D01*
X2782824Y-794664D01*
X2784703Y-808990D01*
X2788361Y-823010D01*
X2793796Y-836421D01*
X2800908Y-849020D01*
X2809544Y-860653D01*
X2819654Y-871067D01*
X2830982Y-880059D01*
X2843326Y-887577D01*
X2856585Y-893419D01*
X2870454Y-897534D01*
X2884728Y-899871D01*
G37*
G36*
X7515199Y-889762D02*
G01*
X7526172Y-884021D01*
X7538059Y-875741D01*
X7548778Y-865987D01*
X7558125Y-854964D01*
X7566050Y-842822D01*
X7569809Y-834999D01*
X7515199Y-834999D01*
G37*
G36*
X7420000Y-889660D02*
G01*
X7420000Y-834999D01*
X7365238Y-834999D01*
X7365796Y-836421D01*
X7372908Y-849020D01*
X7381544Y-860653D01*
X7391653Y-871067D01*
X7402982Y-880059D01*
X7415326Y-887577D01*
G37*
G36*
X7515199Y-739800D02*
G01*
X7569809Y-739800D01*
X7566050Y-731977D01*
X7558125Y-719836D01*
X7548778Y-708812D01*
X7538059Y-699058D01*
X7526172Y-690778D01*
X7515199Y-685038D01*
G37*
G36*
X7365238Y-739800D02*
G01*
X7420000Y-739800D01*
X7420000Y-685139D01*
X7415326Y-687222D01*
X7402982Y-694740D01*
X7391653Y-703783D01*
X7381544Y-714146D01*
X7372908Y-725779D01*
X7365796Y-738378D01*
G37*
G36*
X2689199Y-739800D02*
G01*
X2754630Y-739800D01*
X2754630Y-705408D01*
X2753969Y-698957D01*
X2752242Y-693267D01*
X2749448Y-687984D01*
X2745638Y-683361D01*
X2741015Y-679551D01*
X2735732Y-676757D01*
X2730042Y-675030D01*
X2723591Y-674370D01*
X2689199Y-674370D01*
G37*
G36*
X2528570Y-739800D02*
G01*
X2594000Y-739800D01*
X2594000Y-674370D01*
X2559608Y-674370D01*
X2553157Y-675030D01*
X2547467Y-676757D01*
X2542184Y-679551D01*
X2537561Y-683361D01*
X2533751Y-687984D01*
X2530957Y-693267D01*
X2529230Y-698957D01*
X2528570Y-705408D01*
G37*

%LPD*%
D10*
X3116681Y-3769893D02*
G01*
X2968929Y-3622141D01*
X2762402Y-3622141D01*
X2742717Y-3641826D01*
X2742717Y-6143320D01*
X3898900Y-7299502D01*
X6672579Y-2245868D02*
G01*
X6226047Y-2692400D01*
X2425700Y-2692400D01*
X2197100Y-2463800D01*
X2197100Y-2146300D01*
D11*
X7487793Y-5363006D02*
G01*
X7737678Y-5612892D01*
X7737678Y-5845378D01*
X8013700Y-6121400D01*
D10*
X3370691Y-3769888D02*
G01*
X3370691Y-3650091D01*
X3175000Y-3454400D01*
X2324100Y-3454400D01*
X2324100Y-6400800D01*
X1638300Y-7086600D01*
X1600200Y-7086600D01*
X1422400Y-7264400D01*
X2564891Y-4359402D02*
G01*
X2438400Y-4495800D01*
X2425700Y-6515100D01*
X1676400Y-7264400D01*
X7010400Y-4773599D02*
G01*
X7131456Y-4894656D01*
X7131456Y-6966940D01*
X6849363Y-7249033D01*
X6849363Y-7469123D01*
X6932168Y-7551928D01*
X7357363Y-7551928D01*
X7492745Y-7416545D01*
X7378700Y-4773599D02*
G01*
X8050199Y-4773599D01*
X8445500Y-5168900D01*
X8445500Y-6717792D01*
X7746745Y-7416545D01*
X4132681Y-1924659D02*
G01*
X4132681Y-2245842D01*
X4673600Y-787400D02*
G01*
X4673600Y-1155166D01*
X3624681Y-2204085D01*
X3624681Y-2245842D01*
X6418579Y-2245868D02*
G01*
X6175247Y-2489200D01*
X2540000Y-2489200D01*
X7434681Y-3769893D02*
G01*
X6199606Y-5004968D01*
X6199606Y-5600700D01*
X5687593Y-5253380D02*
G01*
X5687593Y-5600700D01*
X7180681Y-3769893D02*
G01*
X5697194Y-5253380D01*
X5687593Y-5253380D01*
X5687593Y-5253380D02*
G01*
X5618988Y-5253380D01*
X5305907Y-4940300D01*
X6197600Y-787400D02*
G01*
X7180681Y-1770481D01*
X7180681Y-2245842D01*
X5181600Y-787400D02*
G01*
X4132681Y-1836318D01*
X4132681Y-1924659D01*
X4165600Y-787400D02*
G01*
X3771900Y-1181100D01*
X3771900Y-1590624D01*
X3116681Y-2245842D01*
X2862681Y-3769918D02*
G01*
X2862681Y-4484192D01*
X5626760Y-7248270D01*
X5634024Y-7248270D01*
D11*
X221106Y-2035606D02*
G01*
X221106Y-2198420D01*
X871093Y-2848406D01*
X871093Y-2035606D02*
G01*
X221106Y-1385620D01*
X221106Y-1222806D01*
X221106Y-2848406D02*
G01*
X221106Y-3023920D01*
X858393Y-3661206D01*
X8267700Y-6121400D02*
G01*
X8267700Y-6271463D01*
X7467600Y-787400D02*
G01*
X7850657Y-1170457D01*
X7850657Y-3607917D01*
X7688681Y-3769893D01*
X1168400Y-7264400D02*
G01*
X1168400Y-6281597D01*
X2023211Y-5426786D01*
X858393Y-3661206D02*
G01*
X1675409Y-4478223D01*
X1675409Y-5079009D01*
X2023211Y-5426786D01*
X2023211Y-5426786D02*
G01*
X2057400Y-5461000D01*
X6582918Y-6502400D02*
G01*
X6449593Y-6369075D01*
X6449593Y-5600700D01*
X7688681Y-3769893D02*
G01*
X7230541Y-4228033D01*
X7230541Y-4228033D02*
G01*
X7049947Y-4408627D01*
X6923328Y-4408627D01*
X6449593Y-4882362D01*
X6449593Y-5600700D01*
X8267700Y-6271463D02*
G01*
X7947583Y-6591579D01*
X7755356Y-6591579D01*
X7230541Y-4228033D02*
G01*
X7230541Y-6066764D01*
X7755356Y-6591579D01*
X7755356Y-6591579D02*
G01*
X7755356Y-6899935D01*
X7238745Y-7416545D01*
D10*
X6451600Y-787400D02*
G01*
X7434681Y-1770481D01*
X7434681Y-2245842D01*
X3403600Y-787400D02*
G01*
X3545230Y-645769D01*
X5221503Y-645769D01*
X5308600Y-732866D01*
X5308600Y-842365D01*
X6554139Y-2087905D01*
X6768744Y-2087905D01*
X6926681Y-2245842D01*
X6705600Y-787400D02*
G01*
X7688681Y-1770481D01*
X7688681Y-2245842D01*
X6837806Y-5812993D02*
G01*
X7012406Y-5987592D01*
X7012406Y-6502400D01*
X4894681Y-3769893D02*
G01*
X4894681Y-5864174D01*
X5532907Y-6502400D01*
D11*
X2120900Y-1422400D02*
G01*
X2120900Y-1572463D01*
X2245690Y-1697228D02*
G01*
X2120900Y-1572463D01*
X2057400Y-5207000D02*
G01*
X1896135Y-5045735D01*
X1896135Y-2046782D01*
X2245690Y-1697228D01*
X2245690Y-1697228D02*
G01*
X2314066Y-1697228D01*
X2862681Y-2245842D01*
D10*
X3926586Y-5444667D02*
G01*
X4132681Y-5238572D01*
X4132681Y-3769893D01*
X2653766Y-4696612D02*
G01*
X2653766Y-6541033D01*
X1930400Y-7264400D01*
D12*
G01*
X5793892Y-4940300D03*
G01*
X5305907Y-4940300D03*
D13*
G01*
X8000745Y-7416545D03*
G01*
X7746745Y-7416545D03*
G01*
X7492745Y-7416545D03*
G01*
X7238745Y-7416545D03*
G01*
X6984745Y-7416545D03*
G01*
X6730745Y-7416545D03*
D14*
G01*
X5634024Y-7248270D03*
G01*
X5384038Y-7248270D03*
G01*
X5884036Y-7248270D03*
D13*
G01*
X5437606Y-5600700D03*
G01*
X5687593Y-5600700D03*
G01*
X6449593Y-5600700D03*
G01*
X6199606Y-5600700D03*
G01*
X7012406Y-6502400D03*
G01*
X7262393Y-6502400D03*
D15*
G01*
X7010400Y-4773599D03*
D16*
G01*
X7010400Y-4573600D03*
D15*
G01*
X7378700Y-4773599D03*
D16*
G01*
X7378700Y-4573600D03*
D13*
G01*
X5532894Y-6502400D03*
G01*
X6582905Y-6502400D03*
D17*
G01*
X2120900Y-1422400D03*
D13*
G01*
X2374900Y-1422400D03*
G01*
X2628900Y-1422400D03*
G01*
X2882900Y-1422400D03*
G01*
X3136900Y-1422400D03*
G01*
X3390900Y-1422400D03*
G01*
X3644900Y-1422400D03*
G01*
X3898900Y-1422400D03*
G01*
X4152900Y-1422400D03*
G01*
X4267301Y-5613400D03*
G01*
X3327298Y-5613400D03*
D18*
G01*
X2057400Y-6477000D03*
G01*
X2057400Y-6223000D03*
G01*
X2057400Y-5969000D03*
G01*
X2057400Y-5715000D03*
G01*
X2057400Y-5461000D03*
G01*
X2057400Y-5207000D03*
G01*
X2057400Y-4953000D03*
G01*
X2057400Y-4699000D03*
G01*
X533400Y-4699000D03*
G01*
X533400Y-4953000D03*
G01*
X533400Y-5207000D03*
G01*
X533400Y-5461000D03*
G01*
X533400Y-5715000D03*
G01*
X533400Y-5969000D03*
G01*
X533400Y-6223000D03*
G01*
X533400Y-6477000D03*
D19*
G01*
X4152900Y-7299502D03*
G01*
X3898900Y-7299502D03*
G01*
X3644900Y-7299502D03*
G01*
X3390900Y-7299502D03*
D18*
G01*
X1930400Y-7264400D03*
G01*
X1676400Y-7264400D03*
G01*
X1422400Y-7264400D03*
G01*
X1168400Y-7264400D03*
G01*
X914400Y-7264400D03*
D20*
G01*
X2862691Y-2245837D03*
G01*
X3116691Y-2245837D03*
G01*
X3370691Y-2245837D03*
G01*
X3624691Y-2245837D03*
G01*
X3878691Y-2245837D03*
G01*
X4132691Y-2245837D03*
G01*
X4386691Y-2245837D03*
G01*
X4640691Y-2245837D03*
G01*
X4894691Y-2245837D03*
G01*
X5148691Y-2245837D03*
G01*
X5402691Y-2245837D03*
G01*
X5656691Y-2245837D03*
G01*
X5910691Y-2245837D03*
G01*
X6164691Y-2245837D03*
G01*
X6418691Y-2245837D03*
G01*
X6672691Y-2245837D03*
G01*
X6926691Y-2245837D03*
G01*
X7180691Y-2245837D03*
G01*
X7434691Y-2245837D03*
G01*
X7688691Y-2245837D03*
G01*
X7688691Y-3769888D03*
G01*
X7434691Y-3769888D03*
G01*
X7180691Y-3769888D03*
G01*
X6926691Y-3769888D03*
G01*
X6672691Y-3769888D03*
G01*
X6418691Y-3769888D03*
G01*
X6164691Y-3769888D03*
G01*
X5910691Y-3769888D03*
G01*
X5656691Y-3769888D03*
G01*
X5402691Y-3769888D03*
G01*
X5148691Y-3769888D03*
G01*
X4894691Y-3769888D03*
G01*
X4640691Y-3769888D03*
G01*
X4386691Y-3769888D03*
G01*
X4132691Y-3769888D03*
G01*
X3878691Y-3769888D03*
G01*
X3624691Y-3769888D03*
G01*
X3370691Y-3769888D03*
G01*
X3116691Y-3769888D03*
D21*
G01*
X2862691Y-3769913D03*
D13*
G01*
X8013700Y-5359400D03*
G01*
X8267700Y-5359400D03*
G01*
X8013700Y-5613400D03*
G01*
X8267700Y-5613400D03*
G01*
X8013700Y-5867400D03*
G01*
X8267700Y-5867400D03*
G01*
X8013700Y-6121400D03*
D17*
G01*
X8267700Y-6121400D03*
D22*
G01*
X871093Y-1672793D03*
G01*
X871093Y-1222806D03*
G01*
X221106Y-1222806D03*
G01*
X221106Y-1672793D03*
G01*
X871093Y-3298393D03*
G01*
X871093Y-2848406D03*
G01*
X221106Y-2848406D03*
G01*
X221106Y-3298393D03*
G01*
X871093Y-2485593D03*
G01*
X871093Y-2035606D03*
G01*
X221106Y-2035606D03*
G01*
X221106Y-2485593D03*
G01*
X858393Y-4111193D03*
G01*
X858393Y-3661206D03*
G01*
X208406Y-3661206D03*
G01*
X208406Y-4111193D03*
G01*
X7487793Y-5812993D03*
G01*
X7487793Y-5363006D03*
G01*
X6837806Y-5363006D03*
G01*
X6837806Y-5812993D03*
D23*
G01*
X2641600Y-787400D03*
D24*
G01*
X2895600Y-787400D03*
G01*
X3149600Y-787400D03*
G01*
X3403600Y-787400D03*
G01*
X3657600Y-787400D03*
G01*
X3911600Y-787400D03*
G01*
X4165600Y-787400D03*
G01*
X4419600Y-787400D03*
G01*
X4673600Y-787400D03*
G01*
X4927600Y-787400D03*
G01*
X5181600Y-787400D03*
G01*
X5435600Y-787400D03*
G01*
X5689600Y-787400D03*
G01*
X5943600Y-787400D03*
G01*
X6197600Y-787400D03*
G01*
X6451600Y-787400D03*
G01*
X6705600Y-787400D03*
G01*
X6959600Y-787400D03*
G01*
X7213600Y-787400D03*
G01*
X7467600Y-787400D03*
D25*
G01*
X2653766Y-4696612D03*
G01*
X3926586Y-5444667D03*
G01*
X2197100Y-2146300D03*
G01*
X2540000Y-2489200D03*
G01*
X2564891Y-4359402D03*
M02*
