G04 Layer: TopSilkscreenLayer*
G04 EasyEDA v6.5.39, 2024-06-02 20:32:35*
G04 ef2d4929fbef40f6970fe1db0f733495,10*
G04 Gerber Generator version 0.2*
G04 Scale: 100 percent, Rotated: No, Reflected: No *
G04 Dimensions in millimeters *
G04 leading zeros omitted , absolute positions ,4 integer and 5 decimal *
%FSLAX45Y45*%
%MOMM*%

%ADD10C,0.1524*%
%ADD11C,0.2032*%
%ADD12C,0.2540*%
%ADD13C,0.2581*%
%ADD14C,0.5000*%
%ADD15C,0.3000*%
%ADD16C,0.0164*%

%LPD*%
G36*
X5755132Y-1148588D02*
G01*
X5753354Y-1150366D01*
X5758281Y-1155496D01*
X5763158Y-1161694D01*
X5767324Y-1168349D01*
X5770118Y-1174750D01*
X5773013Y-1176223D01*
X5775807Y-1176883D01*
X5778347Y-1176782D01*
X5780633Y-1175969D01*
X5782513Y-1174648D01*
X5783935Y-1172768D01*
X5784850Y-1170584D01*
X5785104Y-1168044D01*
X5784646Y-1165352D01*
X5783427Y-1162507D01*
X5781344Y-1159662D01*
X5778347Y-1156919D01*
X5774283Y-1154328D01*
X5769102Y-1152042D01*
X5762752Y-1150061D01*
G37*
G36*
X6200140Y-1151636D02*
G01*
X6200140Y-1234948D01*
X6147816Y-1234948D01*
X6147816Y-1176782D01*
X6164376Y-1172210D01*
X6178804Y-1167638D01*
X6182360Y-1168349D01*
X6185357Y-1168552D01*
X6187643Y-1168247D01*
X6189218Y-1167384D01*
X6171184Y-1152144D01*
X6163411Y-1156360D01*
X6154216Y-1160780D01*
X6143904Y-1165301D01*
X6132728Y-1169771D01*
X6120993Y-1174089D01*
X6109004Y-1178102D01*
X6097016Y-1181760D01*
X6085332Y-1184910D01*
X6086348Y-1188212D01*
X6097676Y-1186738D01*
X6109055Y-1184960D01*
X6120384Y-1182928D01*
X6131560Y-1180592D01*
X6131560Y-1234948D01*
X6078474Y-1234948D01*
X6080252Y-1240790D01*
X6131306Y-1240790D01*
X6131001Y-1247292D01*
X6129731Y-1260144D01*
X6128715Y-1266444D01*
X6127445Y-1272692D01*
X6125870Y-1278839D01*
X6123889Y-1284935D01*
X6121603Y-1290929D01*
X6118860Y-1296822D01*
X6115659Y-1302613D01*
X6112052Y-1308252D01*
X6107887Y-1313840D01*
X6103162Y-1319276D01*
X6097930Y-1324559D01*
X6092088Y-1329740D01*
X6085586Y-1334770D01*
X6087618Y-1337056D01*
X6094628Y-1333449D01*
X6101130Y-1329639D01*
X6107023Y-1325676D01*
X6112459Y-1321511D01*
X6117386Y-1317193D01*
X6121857Y-1312722D01*
X6125819Y-1308100D01*
X6129426Y-1303375D01*
X6132576Y-1298549D01*
X6135420Y-1293571D01*
X6137859Y-1288542D01*
X6139942Y-1283411D01*
X6141770Y-1278229D01*
X6143294Y-1272946D01*
X6145530Y-1262329D01*
X6146901Y-1251559D01*
X6147562Y-1240790D01*
X6200140Y-1240790D01*
X6200140Y-1337310D01*
X6203188Y-1337310D01*
X6207963Y-1336598D01*
X6212281Y-1334922D01*
X6215430Y-1332788D01*
X6216650Y-1330960D01*
X6216650Y-1240790D01*
X6261354Y-1240790D01*
X6263284Y-1240586D01*
X6264910Y-1239977D01*
X6266129Y-1238961D01*
X6266942Y-1237488D01*
X6260490Y-1231849D01*
X6246876Y-1220724D01*
X6235700Y-1234948D01*
X6216650Y-1234948D01*
X6216650Y-1159764D01*
X6219952Y-1158951D01*
X6222034Y-1157732D01*
X6223203Y-1156106D01*
X6223762Y-1154176D01*
G37*
G36*
X6035802Y-1154684D02*
G01*
X6025388Y-1167892D01*
X5883148Y-1167892D01*
X5884926Y-1173734D01*
X5991860Y-1173734D01*
X5991860Y-1236218D01*
X5945378Y-1236218D01*
X5945378Y-1173734D01*
X5928614Y-1173734D01*
X5928614Y-1236218D01*
X5875020Y-1236218D01*
X5877052Y-1242060D01*
X5928360Y-1242060D01*
X5927699Y-1252880D01*
X5926378Y-1263294D01*
X5925464Y-1268374D01*
X5922924Y-1278331D01*
X5921248Y-1283157D01*
X5917133Y-1292555D01*
X5914593Y-1297127D01*
X5911748Y-1301597D01*
X5908548Y-1305966D01*
X5904992Y-1310284D01*
X5901080Y-1314500D01*
X5896711Y-1318615D01*
X5891987Y-1322679D01*
X5886805Y-1326642D01*
X5881116Y-1330502D01*
X5875020Y-1334262D01*
X5877052Y-1336548D01*
X5885078Y-1333246D01*
X5892444Y-1329740D01*
X5899200Y-1326032D01*
X5905347Y-1322120D01*
X5910986Y-1318056D01*
X5916066Y-1313840D01*
X5920587Y-1309420D01*
X5924702Y-1304899D01*
X5928309Y-1300226D01*
X5931458Y-1295400D01*
X5934252Y-1290472D01*
X5936640Y-1285392D01*
X5938672Y-1280261D01*
X5940348Y-1275029D01*
X5941771Y-1269695D01*
X5942888Y-1264259D01*
X5944412Y-1253286D01*
X5945124Y-1242060D01*
X5991860Y-1242060D01*
X5991860Y-1336548D01*
X5994908Y-1336548D01*
X6000750Y-1335887D01*
X6005118Y-1334363D01*
X6007912Y-1332687D01*
X6008878Y-1331468D01*
X6008878Y-1242060D01*
X6059424Y-1242060D01*
X6061354Y-1241856D01*
X6062980Y-1241298D01*
X6064199Y-1240332D01*
X6065012Y-1239012D01*
X6046216Y-1221740D01*
X6036056Y-1236218D01*
X6008878Y-1236218D01*
X6008878Y-1173734D01*
X6049010Y-1173734D01*
X6050940Y-1173530D01*
X6052566Y-1172921D01*
X6053785Y-1171905D01*
X6054598Y-1170432D01*
X6042456Y-1160068D01*
G37*
G36*
X5841492Y-1163828D02*
G01*
X5830824Y-1177544D01*
X5709666Y-1177544D01*
X5691378Y-1169924D01*
X5691276Y-1247343D01*
X5690819Y-1260805D01*
X5689803Y-1274267D01*
X5689092Y-1280922D01*
X5686958Y-1294028D01*
X5685586Y-1300429D01*
X5683910Y-1306779D01*
X5681929Y-1312976D01*
X5679694Y-1319072D01*
X5677103Y-1324965D01*
X5674156Y-1330706D01*
X5670804Y-1336294D01*
X5673598Y-1338072D01*
X5678068Y-1333754D01*
X5682132Y-1329232D01*
X5685790Y-1324508D01*
X5689092Y-1319631D01*
X5692038Y-1314602D01*
X5694629Y-1309471D01*
X5696915Y-1304239D01*
X5698896Y-1298905D01*
X5700623Y-1293469D01*
X5703316Y-1282496D01*
X5705144Y-1271422D01*
X5706262Y-1260398D01*
X5706872Y-1249527D01*
X5707126Y-1239012D01*
X5707126Y-1183640D01*
X5855208Y-1183640D01*
X5857189Y-1183436D01*
X5858865Y-1182827D01*
X5860084Y-1181811D01*
X5860796Y-1180338D01*
X5848400Y-1169517D01*
G37*
G36*
X6380480Y-1168908D02*
G01*
X6374993Y-1169162D01*
X6369710Y-1169822D01*
X6364579Y-1170990D01*
X6359753Y-1172616D01*
X6355181Y-1174750D01*
X6350965Y-1177290D01*
X6347155Y-1180338D01*
X6343802Y-1183792D01*
X6340957Y-1187754D01*
X6338620Y-1192174D01*
X6336893Y-1197102D01*
X6335776Y-1202436D01*
X6337757Y-1205230D01*
X6340246Y-1207363D01*
X6343192Y-1208786D01*
X6346444Y-1209294D01*
X6350457Y-1208532D01*
X6353759Y-1206144D01*
X6356502Y-1201775D01*
X6358636Y-1195324D01*
X6363208Y-1179068D01*
X6369659Y-1177899D01*
X6375146Y-1177544D01*
X6381140Y-1178102D01*
X6386474Y-1179830D01*
X6391097Y-1182573D01*
X6395008Y-1186281D01*
X6398158Y-1190853D01*
X6400444Y-1196289D01*
X6401866Y-1202436D01*
X6402324Y-1209294D01*
X6402120Y-1213713D01*
X6401460Y-1218184D01*
X6400393Y-1222603D01*
X6398869Y-1227124D01*
X6396939Y-1231747D01*
X6394551Y-1236421D01*
X6391706Y-1241298D01*
X6388404Y-1246327D01*
X6380429Y-1256995D01*
X6370574Y-1268730D01*
X6336792Y-1307084D01*
X6336792Y-1320800D01*
X6428232Y-1320800D01*
X6428232Y-1303528D01*
X6351016Y-1303528D01*
X6377178Y-1276604D01*
X6392062Y-1260805D01*
X6403543Y-1247698D01*
X6408166Y-1241958D01*
X6412026Y-1236624D01*
X6415176Y-1231595D01*
X6417665Y-1226820D01*
X6419596Y-1222197D01*
X6420866Y-1217625D01*
X6421628Y-1213002D01*
X6421882Y-1208278D01*
X6421628Y-1202639D01*
X6420815Y-1197356D01*
X6419443Y-1192377D01*
X6417513Y-1187805D01*
X6415024Y-1183640D01*
X6411925Y-1179931D01*
X6408267Y-1176680D01*
X6403949Y-1173988D01*
X6399072Y-1171803D01*
X6393535Y-1170228D01*
X6387338Y-1169263D01*
G37*
G36*
X6493510Y-1168908D02*
G01*
X6488988Y-1169162D01*
X6484569Y-1169924D01*
X6480200Y-1171194D01*
X6475984Y-1172972D01*
X6471920Y-1175359D01*
X6468059Y-1178356D01*
X6464401Y-1181912D01*
X6460947Y-1186129D01*
X6457848Y-1191006D01*
X6455003Y-1196543D01*
X6452565Y-1202791D01*
X6450482Y-1209751D01*
X6448806Y-1217422D01*
X6447536Y-1225854D01*
X6446774Y-1235100D01*
X6446520Y-1245108D01*
X6466332Y-1245108D01*
X6466586Y-1232560D01*
X6467348Y-1221587D01*
X6468567Y-1212088D01*
X6470192Y-1203960D01*
X6472224Y-1197102D01*
X6474561Y-1191463D01*
X6477254Y-1186891D01*
X6480149Y-1183386D01*
X6483248Y-1180795D01*
X6486550Y-1179068D01*
X6490004Y-1178102D01*
X6493510Y-1177798D01*
X6496862Y-1178102D01*
X6500164Y-1179068D01*
X6503314Y-1180795D01*
X6506362Y-1183386D01*
X6509156Y-1186891D01*
X6511747Y-1191463D01*
X6514084Y-1197102D01*
X6516065Y-1203960D01*
X6517690Y-1212088D01*
X6518909Y-1221587D01*
X6519672Y-1232560D01*
X6519926Y-1245108D01*
X6519672Y-1258112D01*
X6518909Y-1269542D01*
X6517690Y-1279398D01*
X6516065Y-1287881D01*
X6514084Y-1295044D01*
X6511747Y-1300937D01*
X6509156Y-1305661D01*
X6506362Y-1309319D01*
X6503314Y-1312062D01*
X6500164Y-1313840D01*
X6496862Y-1314907D01*
X6493510Y-1315212D01*
X6490868Y-1315059D01*
X6488277Y-1314500D01*
X6485737Y-1313484D01*
X6483248Y-1312062D01*
X6480911Y-1310132D01*
X6478676Y-1307693D01*
X6476542Y-1304645D01*
X6474561Y-1301038D01*
X6472783Y-1296720D01*
X6471158Y-1291742D01*
X6469786Y-1286002D01*
X6468567Y-1279550D01*
X6467602Y-1272235D01*
X6466941Y-1264107D01*
X6466484Y-1255064D01*
X6466332Y-1245108D01*
X6446520Y-1245108D01*
X6446774Y-1255471D01*
X6447536Y-1265021D01*
X6448806Y-1273759D01*
X6450482Y-1281684D01*
X6452565Y-1288846D01*
X6455003Y-1295298D01*
X6457848Y-1300988D01*
X6460947Y-1305966D01*
X6464401Y-1310284D01*
X6468059Y-1313942D01*
X6471920Y-1316990D01*
X6475984Y-1319428D01*
X6480200Y-1321308D01*
X6484569Y-1322578D01*
X6488988Y-1323340D01*
X6493510Y-1323594D01*
X6497878Y-1323340D01*
X6502196Y-1322578D01*
X6506464Y-1321308D01*
X6510578Y-1319428D01*
X6514592Y-1316990D01*
X6518402Y-1313942D01*
X6522008Y-1310284D01*
X6525361Y-1305966D01*
X6528460Y-1300988D01*
X6531254Y-1295298D01*
X6533743Y-1288846D01*
X6535826Y-1281684D01*
X6537452Y-1273759D01*
X6538722Y-1265021D01*
X6539484Y-1255471D01*
X6539738Y-1245108D01*
X6539484Y-1235100D01*
X6538722Y-1225854D01*
X6537452Y-1217422D01*
X6535826Y-1209751D01*
X6533743Y-1202791D01*
X6531254Y-1196543D01*
X6528460Y-1191006D01*
X6525361Y-1186129D01*
X6522008Y-1181912D01*
X6518402Y-1178356D01*
X6514592Y-1175359D01*
X6510578Y-1172972D01*
X6506464Y-1171194D01*
X6502196Y-1169924D01*
X6497878Y-1169162D01*
G37*
G36*
X6603492Y-1168908D02*
G01*
X6598005Y-1169162D01*
X6592722Y-1169822D01*
X6587591Y-1170990D01*
X6582765Y-1172616D01*
X6578193Y-1174750D01*
X6573977Y-1177290D01*
X6570167Y-1180338D01*
X6566814Y-1183792D01*
X6563969Y-1187754D01*
X6561632Y-1192174D01*
X6559905Y-1197102D01*
X6558788Y-1202436D01*
X6560769Y-1205230D01*
X6563309Y-1207363D01*
X6566306Y-1208786D01*
X6569709Y-1209294D01*
X6573570Y-1208532D01*
X6576872Y-1206144D01*
X6579616Y-1201775D01*
X6581902Y-1195324D01*
X6586220Y-1179068D01*
X6592874Y-1177899D01*
X6598412Y-1177544D01*
X6604304Y-1178102D01*
X6609638Y-1179830D01*
X6614261Y-1182573D01*
X6618173Y-1186281D01*
X6621322Y-1190853D01*
X6623659Y-1196289D01*
X6625081Y-1202436D01*
X6625590Y-1209294D01*
X6625386Y-1213713D01*
X6624726Y-1218184D01*
X6623659Y-1222603D01*
X6622135Y-1227124D01*
X6620205Y-1231747D01*
X6617766Y-1236421D01*
X6614922Y-1241298D01*
X6607809Y-1251559D01*
X6598818Y-1262735D01*
X6559803Y-1307084D01*
X6559803Y-1320800D01*
X6651244Y-1320800D01*
X6651244Y-1303528D01*
X6574028Y-1303528D01*
X6600444Y-1276604D01*
X6615328Y-1260805D01*
X6626809Y-1247698D01*
X6631431Y-1241958D01*
X6635292Y-1236624D01*
X6638442Y-1231595D01*
X6640931Y-1226820D01*
X6642862Y-1222197D01*
X6644131Y-1217625D01*
X6644894Y-1213002D01*
X6645148Y-1208278D01*
X6644894Y-1202639D01*
X6644030Y-1197356D01*
X6642658Y-1192377D01*
X6640728Y-1187805D01*
X6638188Y-1183640D01*
X6635089Y-1179931D01*
X6631381Y-1176680D01*
X6627063Y-1173988D01*
X6622084Y-1171803D01*
X6616547Y-1170228D01*
X6610350Y-1169263D01*
G37*
G36*
X6715252Y-1168908D02*
G01*
X6709714Y-1169162D01*
X6704380Y-1169822D01*
X6699250Y-1170990D01*
X6694424Y-1172616D01*
X6689852Y-1174750D01*
X6685686Y-1177290D01*
X6681876Y-1180338D01*
X6678523Y-1183792D01*
X6675678Y-1187754D01*
X6673342Y-1192174D01*
X6671665Y-1197102D01*
X6670548Y-1202436D01*
X6672427Y-1205230D01*
X6674916Y-1207363D01*
X6677914Y-1208786D01*
X6681216Y-1209294D01*
X6685127Y-1208532D01*
X6688480Y-1206144D01*
X6691223Y-1201775D01*
X6693408Y-1195324D01*
X6697980Y-1179068D01*
X6704431Y-1177899D01*
X6709918Y-1177544D01*
X6715810Y-1178102D01*
X6721144Y-1179830D01*
X6725767Y-1182573D01*
X6729679Y-1186281D01*
X6732828Y-1190853D01*
X6735165Y-1196289D01*
X6736588Y-1202436D01*
X6737096Y-1209294D01*
X6736892Y-1213713D01*
X6736232Y-1218184D01*
X6735165Y-1222603D01*
X6733641Y-1227124D01*
X6731711Y-1231747D01*
X6729272Y-1236421D01*
X6726428Y-1241298D01*
X6719316Y-1251559D01*
X6710324Y-1262735D01*
X6671564Y-1307084D01*
X6671564Y-1320800D01*
X6763003Y-1320800D01*
X6763003Y-1303528D01*
X6685788Y-1303528D01*
X6711950Y-1276604D01*
X6726834Y-1260805D01*
X6738315Y-1247698D01*
X6742938Y-1241958D01*
X6746798Y-1236624D01*
X6749948Y-1231595D01*
X6752437Y-1226820D01*
X6754368Y-1222197D01*
X6755638Y-1217625D01*
X6756400Y-1213002D01*
X6756653Y-1208278D01*
X6756400Y-1202639D01*
X6755587Y-1197356D01*
X6754164Y-1192377D01*
X6752234Y-1187805D01*
X6749745Y-1183640D01*
X6746595Y-1179931D01*
X6742938Y-1176680D01*
X6738620Y-1173988D01*
X6733743Y-1171803D01*
X6728206Y-1170228D01*
X6722059Y-1169263D01*
G37*
G36*
X6828028Y-1168908D02*
G01*
X6823557Y-1169162D01*
X6819188Y-1169924D01*
X6814870Y-1171194D01*
X6810654Y-1172972D01*
X6806590Y-1175359D01*
X6802729Y-1178356D01*
X6799122Y-1181912D01*
X6795719Y-1186129D01*
X6792569Y-1191006D01*
X6789775Y-1196543D01*
X6787337Y-1202791D01*
X6785254Y-1209751D01*
X6783578Y-1217422D01*
X6782308Y-1225854D01*
X6781546Y-1235100D01*
X6781292Y-1245108D01*
X6800850Y-1245108D01*
X6801103Y-1232560D01*
X6801866Y-1221587D01*
X6803085Y-1212088D01*
X6804710Y-1203960D01*
X6806742Y-1197102D01*
X6809079Y-1191463D01*
X6811772Y-1186891D01*
X6814667Y-1183386D01*
X6817766Y-1180795D01*
X6821068Y-1179068D01*
X6824522Y-1178102D01*
X6828028Y-1177798D01*
X6831431Y-1178102D01*
X6834733Y-1179068D01*
X6837934Y-1180795D01*
X6840981Y-1183386D01*
X6843775Y-1186891D01*
X6846366Y-1191463D01*
X6848652Y-1197102D01*
X6850634Y-1203960D01*
X6852259Y-1212088D01*
X6853428Y-1221587D01*
X6854190Y-1232560D01*
X6854444Y-1245108D01*
X6854190Y-1258112D01*
X6853428Y-1269542D01*
X6852259Y-1279398D01*
X6850634Y-1287881D01*
X6848652Y-1295044D01*
X6846366Y-1300937D01*
X6843775Y-1305661D01*
X6840981Y-1309319D01*
X6837934Y-1312062D01*
X6834733Y-1313840D01*
X6831431Y-1314907D01*
X6828028Y-1315212D01*
X6825386Y-1315059D01*
X6822795Y-1314500D01*
X6820255Y-1313484D01*
X6817766Y-1312062D01*
X6815429Y-1310132D01*
X6813194Y-1307693D01*
X6811060Y-1304645D01*
X6809079Y-1301038D01*
X6807301Y-1296720D01*
X6805675Y-1291742D01*
X6804304Y-1286002D01*
X6803085Y-1279550D01*
X6802120Y-1272235D01*
X6801459Y-1264107D01*
X6801002Y-1255064D01*
X6800850Y-1245108D01*
X6781292Y-1245108D01*
X6781546Y-1255471D01*
X6782308Y-1265021D01*
X6783578Y-1273759D01*
X6785254Y-1281684D01*
X6787337Y-1288846D01*
X6789775Y-1295298D01*
X6792569Y-1300988D01*
X6795719Y-1305966D01*
X6799122Y-1310284D01*
X6802729Y-1313942D01*
X6806590Y-1316990D01*
X6810654Y-1319428D01*
X6814870Y-1321308D01*
X6819188Y-1322578D01*
X6823557Y-1323340D01*
X6828028Y-1323594D01*
X6832396Y-1323340D01*
X6836714Y-1322578D01*
X6840981Y-1321308D01*
X6845147Y-1319428D01*
X6849160Y-1316990D01*
X6853021Y-1313942D01*
X6856628Y-1310284D01*
X6860031Y-1305966D01*
X6863130Y-1300988D01*
X6865975Y-1295298D01*
X6868414Y-1288846D01*
X6870547Y-1281684D01*
X6872224Y-1273759D01*
X6873494Y-1265021D01*
X6874256Y-1255471D01*
X6874509Y-1245108D01*
X6874256Y-1235100D01*
X6873494Y-1225854D01*
X6872224Y-1217422D01*
X6870547Y-1209751D01*
X6868414Y-1202791D01*
X6865975Y-1196543D01*
X6863130Y-1191006D01*
X6860031Y-1186129D01*
X6856628Y-1181912D01*
X6853021Y-1178356D01*
X6849160Y-1175359D01*
X6845147Y-1172972D01*
X6840981Y-1171194D01*
X6836714Y-1169924D01*
X6832396Y-1169162D01*
G37*
G36*
X6939788Y-1168908D02*
G01*
X6935266Y-1169162D01*
X6930847Y-1169924D01*
X6926478Y-1171194D01*
X6922262Y-1172972D01*
X6918198Y-1175359D01*
X6914337Y-1178356D01*
X6910679Y-1181912D01*
X6907225Y-1186129D01*
X6904126Y-1191006D01*
X6901281Y-1196543D01*
X6898843Y-1202791D01*
X6896760Y-1209751D01*
X6895084Y-1217422D01*
X6893814Y-1225854D01*
X6893052Y-1235100D01*
X6892798Y-1245108D01*
X6912356Y-1245108D01*
X6912609Y-1232560D01*
X6913422Y-1221587D01*
X6914642Y-1212088D01*
X6916318Y-1203960D01*
X6918350Y-1197102D01*
X6920738Y-1191463D01*
X6923430Y-1186891D01*
X6926376Y-1183386D01*
X6929526Y-1180795D01*
X6932828Y-1179068D01*
X6936282Y-1178102D01*
X6939788Y-1177798D01*
X6943140Y-1178102D01*
X6946442Y-1179068D01*
X6949592Y-1180795D01*
X6952640Y-1183386D01*
X6955434Y-1186891D01*
X6958025Y-1191463D01*
X6960362Y-1197102D01*
X6962343Y-1203960D01*
X6963968Y-1212088D01*
X6965188Y-1221587D01*
X6965950Y-1232560D01*
X6966203Y-1245108D01*
X6965950Y-1258112D01*
X6965188Y-1269542D01*
X6963968Y-1279398D01*
X6962343Y-1287881D01*
X6960362Y-1295044D01*
X6958025Y-1300937D01*
X6955434Y-1305661D01*
X6952640Y-1309319D01*
X6949592Y-1312062D01*
X6946442Y-1313840D01*
X6943140Y-1314907D01*
X6939788Y-1315212D01*
X6937146Y-1315059D01*
X6934504Y-1314500D01*
X6931964Y-1313484D01*
X6929526Y-1312062D01*
X6927138Y-1310132D01*
X6924852Y-1307693D01*
X6922719Y-1304645D01*
X6920738Y-1301038D01*
X6918909Y-1296720D01*
X6917283Y-1291742D01*
X6915861Y-1286002D01*
X6914642Y-1279550D01*
X6913676Y-1272235D01*
X6912965Y-1264107D01*
X6912508Y-1255064D01*
X6912356Y-1245108D01*
X6892798Y-1245108D01*
X6893052Y-1255471D01*
X6893814Y-1265021D01*
X6895084Y-1273759D01*
X6896760Y-1281684D01*
X6898843Y-1288846D01*
X6901281Y-1295298D01*
X6904126Y-1300988D01*
X6907225Y-1305966D01*
X6910679Y-1310284D01*
X6914337Y-1313942D01*
X6918198Y-1316990D01*
X6922262Y-1319428D01*
X6926478Y-1321308D01*
X6930847Y-1322578D01*
X6935266Y-1323340D01*
X6939788Y-1323594D01*
X6944156Y-1323340D01*
X6948474Y-1322578D01*
X6952742Y-1321308D01*
X6956856Y-1319428D01*
X6960870Y-1316990D01*
X6964680Y-1313942D01*
X6968286Y-1310284D01*
X6971690Y-1305966D01*
X6974738Y-1300988D01*
X6977532Y-1295298D01*
X6980021Y-1288846D01*
X6982104Y-1281684D01*
X6983730Y-1273759D01*
X6985000Y-1265021D01*
X6985762Y-1255471D01*
X6986016Y-1245108D01*
X6985762Y-1235100D01*
X6985000Y-1225854D01*
X6983730Y-1217422D01*
X6982053Y-1209751D01*
X6980021Y-1202791D01*
X6977532Y-1196543D01*
X6974738Y-1191006D01*
X6971690Y-1186129D01*
X6968286Y-1181912D01*
X6964680Y-1178356D01*
X6960870Y-1175359D01*
X6956856Y-1172972D01*
X6952742Y-1171194D01*
X6948474Y-1169924D01*
X6944156Y-1169162D01*
G37*
G36*
X7274306Y-1168908D02*
G01*
X7269835Y-1169162D01*
X7265416Y-1169924D01*
X7261098Y-1171194D01*
X7256881Y-1172972D01*
X7252817Y-1175359D01*
X7248956Y-1178356D01*
X7245299Y-1181912D01*
X7241844Y-1186129D01*
X7238695Y-1191006D01*
X7235901Y-1196543D01*
X7233412Y-1202791D01*
X7231278Y-1209751D01*
X7229602Y-1217422D01*
X7228331Y-1225854D01*
X7227570Y-1235100D01*
X7227316Y-1245108D01*
X7247128Y-1245108D01*
X7247381Y-1232560D01*
X7248144Y-1221587D01*
X7249363Y-1212088D01*
X7250988Y-1203960D01*
X7253020Y-1197102D01*
X7255357Y-1191463D01*
X7258050Y-1186891D01*
X7260945Y-1183386D01*
X7264044Y-1180795D01*
X7267346Y-1179068D01*
X7270800Y-1178102D01*
X7274306Y-1177798D01*
X7277709Y-1178102D01*
X7281011Y-1179068D01*
X7284212Y-1180795D01*
X7287259Y-1183386D01*
X7290053Y-1186891D01*
X7292644Y-1191463D01*
X7294930Y-1197102D01*
X7296912Y-1203960D01*
X7298537Y-1212088D01*
X7299706Y-1221587D01*
X7300468Y-1232560D01*
X7300722Y-1245108D01*
X7300468Y-1258112D01*
X7299706Y-1269542D01*
X7298537Y-1279398D01*
X7296912Y-1287881D01*
X7294930Y-1295044D01*
X7292644Y-1300937D01*
X7290053Y-1305661D01*
X7287259Y-1309319D01*
X7284212Y-1312062D01*
X7281011Y-1313840D01*
X7277709Y-1314907D01*
X7274306Y-1315212D01*
X7271664Y-1315059D01*
X7269073Y-1314500D01*
X7266533Y-1313484D01*
X7264044Y-1312062D01*
X7261707Y-1310132D01*
X7259472Y-1307693D01*
X7257338Y-1304645D01*
X7255408Y-1301038D01*
X7253579Y-1296720D01*
X7251953Y-1291742D01*
X7250582Y-1286002D01*
X7249363Y-1279550D01*
X7248398Y-1272235D01*
X7247737Y-1264107D01*
X7247280Y-1255064D01*
X7247128Y-1245108D01*
X7227316Y-1245108D01*
X7227570Y-1255471D01*
X7228331Y-1265021D01*
X7229602Y-1273759D01*
X7231278Y-1281684D01*
X7233412Y-1288846D01*
X7235901Y-1295298D01*
X7238695Y-1300988D01*
X7241844Y-1305966D01*
X7245299Y-1310284D01*
X7248956Y-1313942D01*
X7252817Y-1316990D01*
X7256881Y-1319428D01*
X7261098Y-1321308D01*
X7265416Y-1322578D01*
X7269835Y-1323340D01*
X7274306Y-1323594D01*
X7278674Y-1323340D01*
X7282992Y-1322578D01*
X7287259Y-1321308D01*
X7291425Y-1319428D01*
X7295438Y-1316990D01*
X7299299Y-1313942D01*
X7302906Y-1310284D01*
X7306309Y-1305966D01*
X7309408Y-1300988D01*
X7312253Y-1295298D01*
X7314692Y-1288846D01*
X7316825Y-1281684D01*
X7318502Y-1273759D01*
X7319772Y-1265021D01*
X7320534Y-1255471D01*
X7320788Y-1245108D01*
X7320534Y-1235100D01*
X7319772Y-1225854D01*
X7318502Y-1217422D01*
X7316825Y-1209751D01*
X7314692Y-1202791D01*
X7312253Y-1196543D01*
X7309408Y-1191006D01*
X7306309Y-1186129D01*
X7302906Y-1181912D01*
X7299299Y-1178356D01*
X7295438Y-1175359D01*
X7291425Y-1172972D01*
X7287259Y-1171194D01*
X7282992Y-1169924D01*
X7278674Y-1169162D01*
G37*
G36*
X7609078Y-1168908D02*
G01*
X7604556Y-1169162D01*
X7600137Y-1169924D01*
X7595768Y-1171194D01*
X7591552Y-1172972D01*
X7587488Y-1175359D01*
X7583627Y-1178356D01*
X7579969Y-1181912D01*
X7576515Y-1186129D01*
X7573416Y-1191006D01*
X7570571Y-1196543D01*
X7568133Y-1202791D01*
X7566050Y-1209751D01*
X7564374Y-1217422D01*
X7563103Y-1225854D01*
X7562342Y-1235100D01*
X7562088Y-1245108D01*
X7581900Y-1245108D01*
X7582153Y-1232560D01*
X7582916Y-1221587D01*
X7584135Y-1212088D01*
X7585760Y-1203960D01*
X7587792Y-1197102D01*
X7590129Y-1191463D01*
X7592822Y-1186891D01*
X7595717Y-1183386D01*
X7598816Y-1180795D01*
X7602118Y-1179068D01*
X7605572Y-1178102D01*
X7609078Y-1177798D01*
X7612430Y-1178102D01*
X7615732Y-1179068D01*
X7618882Y-1180795D01*
X7621930Y-1183386D01*
X7624724Y-1186891D01*
X7627315Y-1191463D01*
X7629652Y-1197102D01*
X7631633Y-1203960D01*
X7633258Y-1212088D01*
X7634478Y-1221587D01*
X7635240Y-1232560D01*
X7635494Y-1245108D01*
X7635240Y-1258112D01*
X7634478Y-1269542D01*
X7633258Y-1279398D01*
X7631633Y-1287881D01*
X7629652Y-1295044D01*
X7627315Y-1300937D01*
X7624724Y-1305661D01*
X7621930Y-1309319D01*
X7618882Y-1312062D01*
X7615732Y-1313840D01*
X7612430Y-1314907D01*
X7609078Y-1315212D01*
X7606436Y-1315059D01*
X7603845Y-1314500D01*
X7601305Y-1313484D01*
X7598816Y-1312062D01*
X7596479Y-1310132D01*
X7594244Y-1307693D01*
X7592110Y-1304645D01*
X7590129Y-1301038D01*
X7588351Y-1296720D01*
X7586725Y-1291742D01*
X7585354Y-1286002D01*
X7584135Y-1279550D01*
X7583170Y-1272235D01*
X7582509Y-1264107D01*
X7582052Y-1255064D01*
X7581900Y-1245108D01*
X7562088Y-1245108D01*
X7562342Y-1255471D01*
X7563103Y-1265021D01*
X7564374Y-1273759D01*
X7566050Y-1281684D01*
X7568133Y-1288846D01*
X7570571Y-1295298D01*
X7573416Y-1300988D01*
X7576515Y-1305966D01*
X7579969Y-1310284D01*
X7583627Y-1313942D01*
X7587488Y-1316990D01*
X7591552Y-1319428D01*
X7595768Y-1321308D01*
X7600137Y-1322578D01*
X7604556Y-1323340D01*
X7609078Y-1323594D01*
X7613446Y-1323340D01*
X7617764Y-1322578D01*
X7622031Y-1321308D01*
X7626146Y-1319428D01*
X7630159Y-1316990D01*
X7633970Y-1313942D01*
X7637576Y-1310284D01*
X7640980Y-1305966D01*
X7644028Y-1300988D01*
X7646822Y-1295298D01*
X7649311Y-1288846D01*
X7651394Y-1281684D01*
X7653020Y-1273759D01*
X7654290Y-1265021D01*
X7655052Y-1255471D01*
X7655306Y-1245108D01*
X7655052Y-1235100D01*
X7654290Y-1225854D01*
X7653020Y-1217422D01*
X7651394Y-1209751D01*
X7649311Y-1202791D01*
X7646822Y-1196543D01*
X7644028Y-1191006D01*
X7640929Y-1186129D01*
X7637576Y-1181912D01*
X7633970Y-1178356D01*
X7630159Y-1175359D01*
X7626146Y-1172972D01*
X7622031Y-1171194D01*
X7617764Y-1169924D01*
X7613446Y-1169162D01*
G37*
G36*
X7059930Y-1169670D02*
G01*
X7014209Y-1181608D01*
X7014209Y-1189228D01*
X7043928Y-1186434D01*
X7043877Y-1282750D01*
X7043420Y-1309370D01*
X7011924Y-1313942D01*
X7011924Y-1320800D01*
X7093966Y-1320800D01*
X7093966Y-1313942D01*
X7062724Y-1309370D01*
X7062216Y-1273810D01*
X7062216Y-1203960D01*
X7062978Y-1171956D01*
G37*
G36*
X7394702Y-1169670D02*
G01*
X7348981Y-1181608D01*
X7348981Y-1189228D01*
X7378700Y-1186434D01*
X7378649Y-1282750D01*
X7378192Y-1309370D01*
X7346442Y-1313942D01*
X7346442Y-1320800D01*
X7428484Y-1320800D01*
X7428484Y-1313942D01*
X7397242Y-1309370D01*
X7397038Y-1291691D01*
X7396988Y-1203960D01*
X7397750Y-1171956D01*
G37*
G36*
X7506208Y-1169670D02*
G01*
X7460488Y-1181608D01*
X7460488Y-1189228D01*
X7490206Y-1186434D01*
X7490155Y-1282750D01*
X7489698Y-1309370D01*
X7457948Y-1313942D01*
X7457948Y-1320800D01*
X7540244Y-1320800D01*
X7540244Y-1313942D01*
X7508748Y-1309370D01*
X7508494Y-1203960D01*
X7509256Y-1171956D01*
G37*
G36*
X7131812Y-1171956D02*
G01*
X7127240Y-1241298D01*
X7132828Y-1243076D01*
X7138212Y-1241755D01*
X7143597Y-1240790D01*
X7148931Y-1240231D01*
X7154164Y-1240028D01*
X7159345Y-1240282D01*
X7164171Y-1241094D01*
X7168642Y-1242466D01*
X7172756Y-1244295D01*
X7176414Y-1246682D01*
X7179665Y-1249578D01*
X7182510Y-1252931D01*
X7184847Y-1256741D01*
X7186726Y-1261008D01*
X7188098Y-1265783D01*
X7188911Y-1270965D01*
X7189216Y-1276604D01*
X7188962Y-1282293D01*
X7188250Y-1287576D01*
X7187031Y-1292504D01*
X7185304Y-1296974D01*
X7183120Y-1301089D01*
X7180529Y-1304645D01*
X7177430Y-1307795D01*
X7173925Y-1310386D01*
X7169912Y-1312468D01*
X7165543Y-1313992D01*
X7160666Y-1314907D01*
X7155434Y-1315212D01*
X7151878Y-1315059D01*
X7144918Y-1314043D01*
X7141464Y-1313180D01*
X7137908Y-1299718D01*
X7135774Y-1292910D01*
X7133234Y-1288643D01*
X7130034Y-1286408D01*
X7125716Y-1285748D01*
X7122312Y-1286205D01*
X7119366Y-1287475D01*
X7116978Y-1289710D01*
X7115302Y-1292860D01*
X7117384Y-1300022D01*
X7120432Y-1306220D01*
X7124344Y-1311503D01*
X7129170Y-1315821D01*
X7134809Y-1319225D01*
X7141311Y-1321663D01*
X7148626Y-1323086D01*
X7156703Y-1323594D01*
X7162495Y-1323390D01*
X7167981Y-1322679D01*
X7173214Y-1321612D01*
X7178141Y-1320088D01*
X7182713Y-1318158D01*
X7187031Y-1315872D01*
X7190943Y-1313180D01*
X7194550Y-1310182D01*
X7197750Y-1306779D01*
X7200595Y-1303070D01*
X7203033Y-1299057D01*
X7205065Y-1294790D01*
X7206691Y-1290167D01*
X7207808Y-1285290D01*
X7208520Y-1280210D01*
X7208774Y-1274826D01*
X7208367Y-1267663D01*
X7207148Y-1261059D01*
X7205218Y-1254963D01*
X7202576Y-1249476D01*
X7199223Y-1244600D01*
X7195261Y-1240332D01*
X7190740Y-1236624D01*
X7185609Y-1233627D01*
X7179970Y-1231188D01*
X7173823Y-1229512D01*
X7167219Y-1228445D01*
X7160259Y-1228090D01*
X7154316Y-1228293D01*
X7148677Y-1228902D01*
X7143140Y-1229918D01*
X7137653Y-1231392D01*
X7140448Y-1189228D01*
X7204709Y-1189228D01*
X7204709Y-1171956D01*
G37*
G36*
X5748274Y-1188974D02*
G01*
X5748020Y-1223264D01*
X5711952Y-1223264D01*
X5713476Y-1229106D01*
X5748020Y-1229106D01*
X5747258Y-1242060D01*
X5745937Y-1254506D01*
X5743854Y-1266393D01*
X5740806Y-1277670D01*
X5738876Y-1283157D01*
X5736691Y-1288491D01*
X5734151Y-1293672D01*
X5731256Y-1298752D01*
X5728004Y-1303680D01*
X5724398Y-1308455D01*
X5720334Y-1313129D01*
X5715863Y-1317650D01*
X5710936Y-1322070D01*
X5705500Y-1326337D01*
X5699607Y-1330502D01*
X5693156Y-1334516D01*
X5695696Y-1337564D01*
X5702503Y-1334363D01*
X5708853Y-1331010D01*
X5714695Y-1327607D01*
X5720181Y-1324051D01*
X5725160Y-1320342D01*
X5729782Y-1316532D01*
X5734050Y-1312621D01*
X5737910Y-1308608D01*
X5741416Y-1304442D01*
X5744616Y-1300175D01*
X5747461Y-1295806D01*
X5750001Y-1291336D01*
X5752287Y-1286764D01*
X5754319Y-1282039D01*
X5756097Y-1277213D01*
X5758942Y-1267256D01*
X5761075Y-1256893D01*
X5762498Y-1246073D01*
X5763768Y-1229106D01*
X5781294Y-1229106D01*
X5781294Y-1294892D01*
X5770321Y-1304239D01*
X5758688Y-1312824D01*
X5746496Y-1320698D01*
X5733796Y-1327912D01*
X5735828Y-1331214D01*
X5747816Y-1326032D01*
X5759399Y-1320444D01*
X5770575Y-1314196D01*
X5781294Y-1307338D01*
X5781294Y-1314704D01*
X5782106Y-1322070D01*
X5785154Y-1326845D01*
X5791250Y-1329436D01*
X5801360Y-1330198D01*
X5831332Y-1330045D01*
X5839714Y-1329639D01*
X5846216Y-1328928D01*
X5851093Y-1327912D01*
X5854547Y-1326540D01*
X5856732Y-1324864D01*
X5857900Y-1322781D01*
X5858256Y-1320292D01*
X5857951Y-1318209D01*
X5856884Y-1316380D01*
X5854954Y-1314805D01*
X5851906Y-1313434D01*
X5851144Y-1296670D01*
X5848604Y-1296670D01*
X5845606Y-1306931D01*
X5844133Y-1310792D01*
X5842762Y-1313180D01*
X5840882Y-1314551D01*
X5838444Y-1314958D01*
X5832043Y-1315161D01*
X5804916Y-1315212D01*
X5800648Y-1315008D01*
X5798159Y-1314246D01*
X5797042Y-1312722D01*
X5796788Y-1310386D01*
X5796788Y-1295908D01*
X5802426Y-1290929D01*
X5807862Y-1285748D01*
X5813094Y-1280363D01*
X5823102Y-1268831D01*
X5827877Y-1262684D01*
X5832449Y-1256334D01*
X5836920Y-1249680D01*
X5840171Y-1249984D01*
X5842558Y-1249781D01*
X5844184Y-1249019D01*
X5845302Y-1247648D01*
X5825236Y-1237234D01*
X5818733Y-1248816D01*
X5811875Y-1259636D01*
X5804560Y-1269695D01*
X5796788Y-1279144D01*
X5796788Y-1229106D01*
X5850636Y-1229106D01*
X5852566Y-1228902D01*
X5854141Y-1228293D01*
X5855208Y-1227277D01*
X5855716Y-1225804D01*
X5849924Y-1220724D01*
X5837174Y-1210564D01*
X5827014Y-1223264D01*
X5764276Y-1223264D01*
X5764784Y-1196594D01*
X5767730Y-1195933D01*
X5769813Y-1194765D01*
X5771083Y-1193190D01*
X5771642Y-1191260D01*
G37*
G36*
X5784596Y-1191260D02*
G01*
X5782818Y-1193038D01*
X5789930Y-1198321D01*
X5797245Y-1204823D01*
X5803798Y-1211884D01*
X5808472Y-1218692D01*
X5811367Y-1219606D01*
X5813958Y-1219708D01*
X5816193Y-1219149D01*
X5818073Y-1217930D01*
X5819444Y-1216253D01*
X5820257Y-1214120D01*
X5820511Y-1211732D01*
X5820054Y-1209090D01*
X5818886Y-1206296D01*
X5816904Y-1203502D01*
X5814060Y-1200759D01*
X5810300Y-1198168D01*
X5805525Y-1195832D01*
X5799683Y-1193800D01*
X5792724Y-1192276D01*
G37*
G36*
X5935472Y-1403350D02*
G01*
X5933186Y-1404620D01*
X5937453Y-1409954D01*
X5941415Y-1416304D01*
X5944666Y-1423060D01*
X5946648Y-1429512D01*
X5949340Y-1431188D01*
X5951982Y-1432001D01*
X5954420Y-1432052D01*
X5956655Y-1431442D01*
X5958535Y-1430274D01*
X5960059Y-1428648D01*
X5961075Y-1426565D01*
X5961532Y-1424127D01*
X5961380Y-1421485D01*
X5960465Y-1418691D01*
X5958738Y-1415846D01*
X5956198Y-1412951D01*
X5952642Y-1410208D01*
X5948070Y-1407617D01*
X5942380Y-1405331D01*
G37*
G36*
X6182868Y-1403604D02*
G01*
X6180582Y-1404874D01*
X6183071Y-1408531D01*
X6187744Y-1416862D01*
X6189827Y-1421384D01*
X6191605Y-1426057D01*
X6192977Y-1430782D01*
X6193891Y-1435557D01*
X6194298Y-1440180D01*
X6197142Y-1442212D01*
X6199886Y-1443278D01*
X6202527Y-1443431D01*
X6204966Y-1442770D01*
X6207099Y-1441348D01*
X6208776Y-1439316D01*
X6209995Y-1436725D01*
X6210604Y-1433677D01*
X6210503Y-1430274D01*
X6209639Y-1426616D01*
X6207912Y-1422704D01*
X6205169Y-1418742D01*
X6201410Y-1414780D01*
X6196533Y-1410868D01*
X6190335Y-1407109D01*
G37*
G36*
X6392164Y-1403604D02*
G01*
X6392164Y-1443990D01*
X6335268Y-1443990D01*
X6334150Y-1438859D01*
X6332220Y-1433322D01*
X6329172Y-1433576D01*
X6328816Y-1442770D01*
X6326174Y-1450949D01*
X6321856Y-1457655D01*
X6316472Y-1462278D01*
X6313068Y-1464411D01*
X6310630Y-1467205D01*
X6309563Y-1470660D01*
X6310122Y-1474470D01*
X6312560Y-1477772D01*
X6316421Y-1479296D01*
X6320993Y-1479092D01*
X6325616Y-1477264D01*
X6330086Y-1473352D01*
X6333693Y-1467510D01*
X6335928Y-1459687D01*
X6336284Y-1450086D01*
X6467348Y-1450086D01*
X6463690Y-1461058D01*
X6461607Y-1466392D01*
X6459474Y-1470914D01*
X6462014Y-1472438D01*
X6468465Y-1468272D01*
X6475222Y-1463344D01*
X6481572Y-1458163D01*
X6486906Y-1453134D01*
X6491681Y-1452575D01*
X6493357Y-1452016D01*
X6494780Y-1451102D01*
X6476746Y-1434084D01*
X6467094Y-1443990D01*
X6432804Y-1443990D01*
X6440627Y-1437843D01*
X6448247Y-1431493D01*
X6455257Y-1425194D01*
X6461252Y-1419352D01*
X6464096Y-1419352D01*
X6466484Y-1418742D01*
X6468262Y-1417624D01*
X6469380Y-1416050D01*
X6444742Y-1407668D01*
X6440982Y-1416456D01*
X6436512Y-1425905D01*
X6431584Y-1435354D01*
X6426708Y-1443990D01*
X6408928Y-1443990D01*
X6408928Y-1411478D01*
X6412026Y-1410665D01*
X6414109Y-1409446D01*
X6415379Y-1407820D01*
X6416040Y-1405890D01*
G37*
G36*
X5782564Y-1403858D02*
G01*
X5782564Y-1441704D01*
X5736082Y-1441704D01*
X5736082Y-1419860D01*
X5739333Y-1418945D01*
X5741619Y-1417675D01*
X5742990Y-1416050D01*
X5743702Y-1414018D01*
X5720080Y-1411478D01*
X5720080Y-1439926D01*
X5715863Y-1442262D01*
X5712460Y-1445006D01*
X5731256Y-1456182D01*
X5737606Y-1447546D01*
X5846572Y-1447546D01*
X5846572Y-1456436D01*
X5849366Y-1456436D01*
X5854141Y-1456029D01*
X5858459Y-1454962D01*
X5861608Y-1453642D01*
X5862828Y-1452372D01*
X5862828Y-1419860D01*
X5866079Y-1418894D01*
X5868365Y-1417624D01*
X5869736Y-1415948D01*
X5870448Y-1414018D01*
X5846572Y-1411732D01*
X5846572Y-1441704D01*
X5798820Y-1441704D01*
X5798820Y-1411732D01*
X5802071Y-1410919D01*
X5804306Y-1409700D01*
X5805627Y-1408074D01*
X5806186Y-1406144D01*
G37*
G36*
X6067044Y-1404112D02*
G01*
X6058306Y-1409446D01*
X6047587Y-1415237D01*
X6035649Y-1421028D01*
X6023356Y-1426210D01*
X6005068Y-1420114D01*
X6005017Y-1494129D01*
X6004509Y-1507998D01*
X6003340Y-1521612D01*
X6001207Y-1534871D01*
X5999734Y-1541373D01*
X5997956Y-1547774D01*
X5995822Y-1554022D01*
X5993384Y-1560169D01*
X5990488Y-1566164D01*
X5987186Y-1572006D01*
X5983478Y-1577695D01*
X5979261Y-1583182D01*
X5974588Y-1588516D01*
X5976874Y-1591056D01*
X5982614Y-1586941D01*
X5987846Y-1582572D01*
X5992571Y-1578051D01*
X5996838Y-1573377D01*
X6000648Y-1568602D01*
X6004052Y-1563624D01*
X6007049Y-1558544D01*
X6009690Y-1553311D01*
X6011926Y-1548028D01*
X6013907Y-1542694D01*
X6016904Y-1531721D01*
X6018885Y-1520647D01*
X6020104Y-1509471D01*
X6020663Y-1498346D01*
X6020816Y-1480820D01*
X6047740Y-1480820D01*
X6047740Y-1591564D01*
X6050280Y-1591564D01*
X6055817Y-1590903D01*
X6060084Y-1589379D01*
X6062776Y-1587703D01*
X6063742Y-1586484D01*
X6063742Y-1480820D01*
X6084824Y-1480820D01*
X6086805Y-1480616D01*
X6088481Y-1480007D01*
X6089700Y-1478991D01*
X6090412Y-1477518D01*
X6078016Y-1466697D01*
X6071108Y-1461008D01*
X6060440Y-1474724D01*
X6020816Y-1474724D01*
X6020816Y-1432052D01*
X6035700Y-1429410D01*
X6050127Y-1426311D01*
X6063488Y-1422958D01*
X6074918Y-1419606D01*
X6078524Y-1420418D01*
X6081471Y-1420571D01*
X6083808Y-1420164D01*
X6085586Y-1419098D01*
G37*
G36*
X6244844Y-1404112D02*
G01*
X6240221Y-1414678D01*
X6234531Y-1426006D01*
X6228232Y-1437132D01*
X6221730Y-1447292D01*
X6131814Y-1447292D01*
X6130391Y-1440738D01*
X6128004Y-1433576D01*
X6124956Y-1433830D01*
X6125210Y-1439367D01*
X6124702Y-1444752D01*
X6123533Y-1449832D01*
X6121755Y-1454556D01*
X6119520Y-1458823D01*
X6116828Y-1462532D01*
X6113881Y-1465580D01*
X6107734Y-1470304D01*
X6105601Y-1473352D01*
X6104788Y-1476806D01*
X6105652Y-1480566D01*
X6108141Y-1483563D01*
X6112103Y-1484731D01*
X6116777Y-1484122D01*
X6121400Y-1481836D01*
X6125768Y-1477568D01*
X6129426Y-1471320D01*
X6131814Y-1463243D01*
X6132322Y-1453388D01*
X6264148Y-1453388D01*
X6258610Y-1465884D01*
X6252718Y-1477264D01*
X6255004Y-1478788D01*
X6262624Y-1474063D01*
X6270701Y-1468424D01*
X6278422Y-1462481D01*
X6284722Y-1456944D01*
X6287465Y-1456740D01*
X6289598Y-1456334D01*
X6291275Y-1455623D01*
X6292596Y-1454404D01*
X6274308Y-1437132D01*
X6264148Y-1447292D01*
X6228842Y-1447292D01*
X6237782Y-1439824D01*
X6246317Y-1431747D01*
X6254089Y-1423670D01*
X6260592Y-1416050D01*
X6263640Y-1416050D01*
X6265976Y-1415440D01*
X6267551Y-1414322D01*
X6268466Y-1412748D01*
G37*
G36*
X6137148Y-1406652D02*
G01*
X6135116Y-1408176D01*
X6140907Y-1415542D01*
X6146342Y-1424228D01*
X6148679Y-1428800D01*
X6150660Y-1433372D01*
X6152184Y-1437894D01*
X6153150Y-1442212D01*
X6156045Y-1443990D01*
X6158788Y-1444802D01*
X6161328Y-1444752D01*
X6163614Y-1443888D01*
X6165494Y-1442364D01*
X6166967Y-1440281D01*
X6167831Y-1437640D01*
X6168085Y-1434642D01*
X6167628Y-1431290D01*
X6166408Y-1427683D01*
X6164224Y-1423974D01*
X6161125Y-1420266D01*
X6156909Y-1416558D01*
X6151575Y-1413002D01*
X6145022Y-1409649D01*
G37*
G36*
X6341364Y-1408684D02*
G01*
X6339332Y-1410208D01*
X6345478Y-1416710D01*
X6351219Y-1424381D01*
X6355689Y-1432712D01*
X6358128Y-1441196D01*
X6361023Y-1442770D01*
X6363817Y-1443431D01*
X6366357Y-1443278D01*
X6368592Y-1442364D01*
X6370421Y-1440789D01*
X6371793Y-1438706D01*
X6372606Y-1436116D01*
X6372809Y-1433220D01*
X6372250Y-1430070D01*
X6370929Y-1426718D01*
X6368694Y-1423314D01*
X6365494Y-1419961D01*
X6361226Y-1416710D01*
X6355842Y-1413662D01*
X6349238Y-1410970D01*
G37*
G36*
X5982716Y-1420876D02*
G01*
X5973318Y-1433068D01*
X5903976Y-1433068D01*
X5905500Y-1438910D01*
X5994400Y-1438910D01*
X5996279Y-1438706D01*
X5997854Y-1438097D01*
X5998972Y-1437081D01*
X5999734Y-1435608D01*
X5988761Y-1425854D01*
G37*
G36*
X6557009Y-1422908D02*
G01*
X6551523Y-1423162D01*
X6546240Y-1423822D01*
X6541109Y-1424990D01*
X6536283Y-1426616D01*
X6531711Y-1428750D01*
X6527495Y-1431290D01*
X6523685Y-1434338D01*
X6520332Y-1437792D01*
X6517487Y-1441754D01*
X6515150Y-1446174D01*
X6513423Y-1451102D01*
X6512306Y-1456436D01*
X6514287Y-1459230D01*
X6516827Y-1461363D01*
X6519824Y-1462786D01*
X6523228Y-1463294D01*
X6527088Y-1462532D01*
X6530390Y-1460144D01*
X6533134Y-1455775D01*
X6535420Y-1449324D01*
X6539738Y-1433068D01*
X6546392Y-1431899D01*
X6551676Y-1431544D01*
X6557670Y-1432102D01*
X6563055Y-1433830D01*
X6567728Y-1436573D01*
X6571691Y-1440281D01*
X6574840Y-1444853D01*
X6577177Y-1450289D01*
X6578600Y-1456436D01*
X6579108Y-1463294D01*
X6578904Y-1467713D01*
X6578244Y-1472184D01*
X6577177Y-1476603D01*
X6575653Y-1481124D01*
X6573723Y-1485747D01*
X6571284Y-1490421D01*
X6568440Y-1495298D01*
X6561328Y-1505559D01*
X6552336Y-1516735D01*
X6513322Y-1561084D01*
X6513322Y-1574800D01*
X6604762Y-1574800D01*
X6604762Y-1557528D01*
X6527546Y-1557528D01*
X6553708Y-1530604D01*
X6568643Y-1514805D01*
X6580174Y-1501698D01*
X6584797Y-1495958D01*
X6588658Y-1490624D01*
X6591808Y-1485595D01*
X6594297Y-1480820D01*
X6596125Y-1476197D01*
X6597446Y-1471625D01*
X6598158Y-1467002D01*
X6598412Y-1462278D01*
X6598158Y-1456639D01*
X6597345Y-1451356D01*
X6595973Y-1446377D01*
X6594043Y-1441805D01*
X6591553Y-1437640D01*
X6588455Y-1433931D01*
X6584797Y-1430680D01*
X6580479Y-1427988D01*
X6575602Y-1425803D01*
X6570065Y-1424228D01*
X6563868Y-1423263D01*
G37*
G36*
X6668516Y-1422908D02*
G01*
X6663029Y-1423162D01*
X6657746Y-1423822D01*
X6652615Y-1424990D01*
X6647789Y-1426616D01*
X6643217Y-1428750D01*
X6639001Y-1431290D01*
X6635191Y-1434338D01*
X6631838Y-1437792D01*
X6628993Y-1441754D01*
X6626656Y-1446174D01*
X6624929Y-1451102D01*
X6623812Y-1456436D01*
X6625793Y-1459230D01*
X6628333Y-1461363D01*
X6631330Y-1462786D01*
X6634734Y-1463294D01*
X6638594Y-1462532D01*
X6641896Y-1460144D01*
X6644640Y-1455775D01*
X6646925Y-1449324D01*
X6651244Y-1433068D01*
X6657898Y-1431899D01*
X6663436Y-1431544D01*
X6669328Y-1432102D01*
X6674662Y-1433830D01*
X6679285Y-1436573D01*
X6683197Y-1440281D01*
X6686346Y-1444853D01*
X6688683Y-1450289D01*
X6690106Y-1456436D01*
X6690614Y-1463294D01*
X6690410Y-1467713D01*
X6689750Y-1472184D01*
X6688683Y-1476603D01*
X6687159Y-1481124D01*
X6685229Y-1485747D01*
X6682790Y-1490421D01*
X6679946Y-1495298D01*
X6672834Y-1505559D01*
X6663842Y-1516735D01*
X6624828Y-1561084D01*
X6624828Y-1574800D01*
X6716268Y-1574800D01*
X6716268Y-1557528D01*
X6639052Y-1557528D01*
X6665468Y-1530604D01*
X6680352Y-1514805D01*
X6691833Y-1501698D01*
X6696456Y-1495958D01*
X6700316Y-1490624D01*
X6703466Y-1485595D01*
X6705955Y-1480820D01*
X6707886Y-1476197D01*
X6709156Y-1471625D01*
X6709918Y-1467002D01*
X6710172Y-1462278D01*
X6709918Y-1456639D01*
X6709054Y-1451356D01*
X6707682Y-1446377D01*
X6705752Y-1441805D01*
X6703212Y-1437640D01*
X6700113Y-1433931D01*
X6696405Y-1430680D01*
X6692087Y-1427988D01*
X6687108Y-1425803D01*
X6681571Y-1424228D01*
X6675374Y-1423263D01*
G37*
G36*
X7062724Y-1422908D02*
G01*
X7057186Y-1423162D01*
X7051852Y-1423822D01*
X7046722Y-1424990D01*
X7041896Y-1426616D01*
X7037324Y-1428750D01*
X7033158Y-1431290D01*
X7029348Y-1434338D01*
X7025995Y-1437792D01*
X7023150Y-1441754D01*
X7020814Y-1446174D01*
X7019137Y-1451102D01*
X7018020Y-1456436D01*
X7019899Y-1459230D01*
X7022388Y-1461363D01*
X7025386Y-1462786D01*
X7028688Y-1463294D01*
X7032599Y-1462532D01*
X7035952Y-1460144D01*
X7038695Y-1455775D01*
X7040880Y-1449324D01*
X7045452Y-1433068D01*
X7051903Y-1431899D01*
X7057390Y-1431544D01*
X7063282Y-1432102D01*
X7068616Y-1433830D01*
X7073239Y-1436573D01*
X7077151Y-1440281D01*
X7080300Y-1444853D01*
X7082637Y-1450289D01*
X7084059Y-1456436D01*
X7084568Y-1463294D01*
X7084364Y-1467713D01*
X7083704Y-1472184D01*
X7082637Y-1476603D01*
X7081113Y-1481124D01*
X7079183Y-1485747D01*
X7076744Y-1490421D01*
X7073900Y-1495298D01*
X7066788Y-1505559D01*
X7057796Y-1516735D01*
X7019036Y-1561084D01*
X7019036Y-1574800D01*
X7110475Y-1574800D01*
X7110475Y-1557528D01*
X7033259Y-1557528D01*
X7059422Y-1530604D01*
X7074306Y-1514805D01*
X7085787Y-1501698D01*
X7090409Y-1495958D01*
X7094270Y-1490624D01*
X7097420Y-1485595D01*
X7099909Y-1480820D01*
X7101840Y-1476197D01*
X7103109Y-1471625D01*
X7103872Y-1467002D01*
X7104125Y-1462278D01*
X7103872Y-1456639D01*
X7103059Y-1451356D01*
X7101636Y-1446377D01*
X7099706Y-1441805D01*
X7097217Y-1437640D01*
X7094118Y-1433931D01*
X7090409Y-1430680D01*
X7086092Y-1427988D01*
X7081215Y-1425803D01*
X7075678Y-1424228D01*
X7069531Y-1423263D01*
G37*
G36*
X7175500Y-1422908D02*
G01*
X7171029Y-1423162D01*
X7166660Y-1423924D01*
X7162342Y-1425194D01*
X7158126Y-1426972D01*
X7154062Y-1429359D01*
X7150201Y-1432356D01*
X7146594Y-1435912D01*
X7143191Y-1440129D01*
X7140041Y-1445006D01*
X7137247Y-1450543D01*
X7134809Y-1456791D01*
X7132726Y-1463751D01*
X7131050Y-1471422D01*
X7129780Y-1479854D01*
X7129018Y-1489100D01*
X7128764Y-1499108D01*
X7148322Y-1499108D01*
X7148575Y-1486560D01*
X7149338Y-1475587D01*
X7150557Y-1466088D01*
X7152182Y-1457960D01*
X7154214Y-1451102D01*
X7156602Y-1445463D01*
X7159244Y-1440891D01*
X7162139Y-1437386D01*
X7165238Y-1434795D01*
X7168540Y-1433068D01*
X7171994Y-1432102D01*
X7175500Y-1431798D01*
X7178903Y-1432102D01*
X7182205Y-1433068D01*
X7185406Y-1434795D01*
X7188453Y-1437386D01*
X7191248Y-1440891D01*
X7193838Y-1445463D01*
X7196124Y-1451102D01*
X7198106Y-1457960D01*
X7199731Y-1466088D01*
X7200900Y-1475587D01*
X7201662Y-1486560D01*
X7201916Y-1499108D01*
X7201662Y-1512112D01*
X7200900Y-1523542D01*
X7199731Y-1533398D01*
X7198106Y-1541881D01*
X7196124Y-1549044D01*
X7193838Y-1554937D01*
X7191248Y-1559661D01*
X7188453Y-1563319D01*
X7185406Y-1566062D01*
X7182205Y-1567840D01*
X7178903Y-1568907D01*
X7175500Y-1569212D01*
X7172858Y-1569059D01*
X7170267Y-1568500D01*
X7167727Y-1567484D01*
X7165238Y-1566062D01*
X7162901Y-1564132D01*
X7160666Y-1561693D01*
X7158532Y-1558645D01*
X7156602Y-1555038D01*
X7154773Y-1550720D01*
X7153148Y-1545742D01*
X7151776Y-1540002D01*
X7150557Y-1533550D01*
X7149592Y-1526235D01*
X7148931Y-1518107D01*
X7148474Y-1509064D01*
X7148322Y-1499108D01*
X7128764Y-1499108D01*
X7129018Y-1509471D01*
X7129780Y-1519021D01*
X7131050Y-1527759D01*
X7132726Y-1535684D01*
X7134809Y-1542846D01*
X7137247Y-1549298D01*
X7140041Y-1554988D01*
X7143191Y-1559966D01*
X7146594Y-1564284D01*
X7150201Y-1567942D01*
X7154062Y-1570990D01*
X7158126Y-1573428D01*
X7162342Y-1575308D01*
X7166660Y-1576578D01*
X7171029Y-1577340D01*
X7175500Y-1577594D01*
X7179868Y-1577340D01*
X7184186Y-1576578D01*
X7188453Y-1575308D01*
X7192619Y-1573428D01*
X7196632Y-1570990D01*
X7200493Y-1567942D01*
X7204100Y-1564284D01*
X7207503Y-1559966D01*
X7210602Y-1554988D01*
X7213447Y-1549298D01*
X7215886Y-1542846D01*
X7218019Y-1535684D01*
X7219696Y-1527759D01*
X7220966Y-1519021D01*
X7221728Y-1509471D01*
X7221981Y-1499108D01*
X7221728Y-1489100D01*
X7220966Y-1479854D01*
X7219696Y-1471422D01*
X7218019Y-1463751D01*
X7215886Y-1456791D01*
X7213447Y-1450543D01*
X7210602Y-1445006D01*
X7207503Y-1440129D01*
X7204100Y-1435912D01*
X7200493Y-1432356D01*
X7196632Y-1429359D01*
X7192619Y-1426972D01*
X7188453Y-1425194D01*
X7184186Y-1423924D01*
X7179868Y-1423162D01*
G37*
G36*
X7285736Y-1422908D02*
G01*
X7280249Y-1423162D01*
X7274966Y-1423822D01*
X7269835Y-1424990D01*
X7265009Y-1426616D01*
X7260437Y-1428750D01*
X7256221Y-1431290D01*
X7252411Y-1434338D01*
X7249058Y-1437792D01*
X7246213Y-1441754D01*
X7243876Y-1446174D01*
X7242149Y-1451102D01*
X7241031Y-1456436D01*
X7243013Y-1459230D01*
X7245502Y-1461363D01*
X7248448Y-1462786D01*
X7251700Y-1463294D01*
X7255713Y-1462532D01*
X7259015Y-1460144D01*
X7261758Y-1455775D01*
X7263892Y-1449324D01*
X7268464Y-1433068D01*
X7274915Y-1431899D01*
X7280402Y-1431544D01*
X7286396Y-1432102D01*
X7291730Y-1433830D01*
X7296353Y-1436573D01*
X7300264Y-1440281D01*
X7303414Y-1444853D01*
X7305700Y-1450289D01*
X7307122Y-1456436D01*
X7307580Y-1463294D01*
X7307376Y-1467713D01*
X7306716Y-1472184D01*
X7305649Y-1476603D01*
X7304125Y-1481124D01*
X7302195Y-1485747D01*
X7299807Y-1490421D01*
X7296962Y-1495298D01*
X7293660Y-1500327D01*
X7285685Y-1510995D01*
X7275830Y-1522730D01*
X7242048Y-1561084D01*
X7242048Y-1574800D01*
X7333488Y-1574800D01*
X7333488Y-1557528D01*
X7256272Y-1557528D01*
X7282434Y-1530604D01*
X7297318Y-1514805D01*
X7308799Y-1501698D01*
X7313422Y-1495958D01*
X7317282Y-1490624D01*
X7320432Y-1485595D01*
X7322921Y-1480820D01*
X7324852Y-1476197D01*
X7326122Y-1471625D01*
X7326884Y-1467002D01*
X7327138Y-1462278D01*
X7326884Y-1456639D01*
X7326071Y-1451356D01*
X7324699Y-1446377D01*
X7322769Y-1441805D01*
X7320280Y-1437640D01*
X7317181Y-1433931D01*
X7313523Y-1430680D01*
X7309205Y-1427988D01*
X7304328Y-1425803D01*
X7298791Y-1424228D01*
X7292594Y-1423263D01*
G37*
G36*
X7615681Y-1422908D02*
G01*
X7608925Y-1423873D01*
X7602423Y-1425143D01*
X7596174Y-1426768D01*
X7590180Y-1428648D01*
X7584490Y-1430832D01*
X7579055Y-1433322D01*
X7573873Y-1436065D01*
X7568996Y-1439113D01*
X7564374Y-1442364D01*
X7560056Y-1445869D01*
X7555992Y-1449578D01*
X7552232Y-1453489D01*
X7548727Y-1457655D01*
X7545527Y-1462024D01*
X7542631Y-1466545D01*
X7540040Y-1471218D01*
X7537703Y-1476095D01*
X7535722Y-1481124D01*
X7533995Y-1486306D01*
X7532573Y-1491589D01*
X7531506Y-1496974D01*
X7530693Y-1502511D01*
X7530158Y-1511046D01*
X7549388Y-1511046D01*
X7549388Y-1506474D01*
X7556296Y-1501495D01*
X7563561Y-1498193D01*
X7570876Y-1496364D01*
X7578090Y-1495806D01*
X7583830Y-1496314D01*
X7588961Y-1497939D01*
X7593482Y-1500632D01*
X7597292Y-1504492D01*
X7600391Y-1509471D01*
X7602626Y-1515618D01*
X7604048Y-1522984D01*
X7604506Y-1531620D01*
X7604048Y-1540459D01*
X7602626Y-1548079D01*
X7600391Y-1554581D01*
X7597394Y-1559864D01*
X7593685Y-1563928D01*
X7589266Y-1566875D01*
X7584338Y-1568653D01*
X7578852Y-1569212D01*
X7574432Y-1568805D01*
X7570317Y-1567586D01*
X7566507Y-1565554D01*
X7563103Y-1562709D01*
X7560005Y-1559052D01*
X7557262Y-1554581D01*
X7554925Y-1549349D01*
X7552944Y-1543304D01*
X7551420Y-1536446D01*
X7550302Y-1528775D01*
X7549642Y-1520291D01*
X7549388Y-1511046D01*
X7530158Y-1511046D01*
X7530287Y-1521155D01*
X7530947Y-1528114D01*
X7531963Y-1534617D01*
X7533386Y-1540713D01*
X7535214Y-1546402D01*
X7537450Y-1551635D01*
X7539990Y-1556461D01*
X7542936Y-1560779D01*
X7546238Y-1564640D01*
X7549845Y-1567992D01*
X7553807Y-1570888D01*
X7558074Y-1573276D01*
X7562646Y-1575155D01*
X7567472Y-1576476D01*
X7572654Y-1577340D01*
X7578090Y-1577594D01*
X7584643Y-1577238D01*
X7590790Y-1576120D01*
X7596530Y-1574342D01*
X7601864Y-1571802D01*
X7606639Y-1568653D01*
X7610906Y-1564792D01*
X7614615Y-1560322D01*
X7617764Y-1555191D01*
X7620253Y-1549400D01*
X7622082Y-1543050D01*
X7623200Y-1536090D01*
X7623556Y-1528572D01*
X7623200Y-1521917D01*
X7622235Y-1515719D01*
X7620660Y-1510030D01*
X7618425Y-1504797D01*
X7615681Y-1500073D01*
X7612430Y-1495907D01*
X7608620Y-1492351D01*
X7604353Y-1489354D01*
X7599680Y-1487017D01*
X7594549Y-1485290D01*
X7589012Y-1484223D01*
X7583170Y-1483868D01*
X7574178Y-1484833D01*
X7565593Y-1487576D01*
X7557566Y-1492097D01*
X7550150Y-1498346D01*
X7551064Y-1491691D01*
X7552385Y-1485341D01*
X7554112Y-1479296D01*
X7556246Y-1473555D01*
X7558786Y-1468120D01*
X7561783Y-1462989D01*
X7565186Y-1458163D01*
X7569047Y-1453642D01*
X7573416Y-1449425D01*
X7578191Y-1445564D01*
X7583424Y-1441958D01*
X7589164Y-1438706D01*
X7595362Y-1435760D01*
X7602067Y-1433118D01*
X7609230Y-1430782D01*
X7616952Y-1428750D01*
G37*
G36*
X6857238Y-1423670D02*
G01*
X6811518Y-1435608D01*
X6811518Y-1443228D01*
X6841236Y-1440434D01*
X6841185Y-1536750D01*
X6840728Y-1563370D01*
X6808978Y-1567942D01*
X6808978Y-1574800D01*
X6891020Y-1574800D01*
X6891020Y-1567942D01*
X6859778Y-1563370D01*
X6859574Y-1545691D01*
X6859524Y-1457960D01*
X6860286Y-1425956D01*
G37*
G36*
X7414514Y-1423670D02*
G01*
X7350328Y-1515364D01*
X7359903Y-1515364D01*
X7409180Y-1444498D01*
X7409180Y-1515364D01*
X7350328Y-1515364D01*
X7348728Y-1517650D01*
X7348728Y-1528572D01*
X7409180Y-1528572D01*
X7409180Y-1574800D01*
X7426959Y-1574800D01*
X7426959Y-1528572D01*
X7450581Y-1528572D01*
X7450581Y-1515364D01*
X7426959Y-1515364D01*
X7426959Y-1423670D01*
G37*
G36*
X5920232Y-1439164D02*
G01*
X5917692Y-1440180D01*
X5920943Y-1447596D01*
X5923889Y-1456029D01*
X5926023Y-1464767D01*
X5926836Y-1473200D01*
X5929934Y-1475536D01*
X5932982Y-1476400D01*
X5935776Y-1475994D01*
X5938164Y-1474419D01*
X5939942Y-1471879D01*
X5940958Y-1468475D01*
X5941009Y-1464411D01*
X5939891Y-1459788D01*
X5937453Y-1454810D01*
X5933490Y-1449628D01*
X5927801Y-1444345D01*
G37*
G36*
X5967476Y-1439926D02*
G01*
X5965850Y-1448816D01*
X5963666Y-1458518D01*
X5961126Y-1468374D01*
X5958332Y-1477518D01*
X5899912Y-1477518D01*
X5901436Y-1483360D01*
X5942076Y-1483360D01*
X5942076Y-1507744D01*
X5904738Y-1507744D01*
X5906516Y-1513586D01*
X5942076Y-1513586D01*
X5942076Y-1528064D01*
X5920486Y-1519428D01*
X5919216Y-1525676D01*
X5915507Y-1539697D01*
X5913069Y-1547063D01*
X5910275Y-1554429D01*
X5907125Y-1561592D01*
X5903671Y-1568399D01*
X5899912Y-1574546D01*
X5902198Y-1576832D01*
X5907532Y-1571802D01*
X5912561Y-1566367D01*
X5917234Y-1560626D01*
X5921502Y-1554632D01*
X5925413Y-1548587D01*
X5928918Y-1542592D01*
X5934710Y-1531112D01*
X5937504Y-1531213D01*
X5939536Y-1530807D01*
X5941009Y-1529994D01*
X5942076Y-1528826D01*
X5942076Y-1569974D01*
X5941872Y-1571599D01*
X5941161Y-1572717D01*
X5939942Y-1573326D01*
X5938012Y-1573530D01*
X5919978Y-1572514D01*
X5919978Y-1575562D01*
X5925108Y-1576476D01*
X5928918Y-1577594D01*
X5931712Y-1578914D01*
X5933694Y-1580388D01*
X5935014Y-1582470D01*
X5935878Y-1584960D01*
X5936437Y-1587804D01*
X5936742Y-1591056D01*
X5947714Y-1588566D01*
X5954014Y-1584248D01*
X5956909Y-1578102D01*
X5957570Y-1570228D01*
X5957570Y-1513586D01*
X5993384Y-1513586D01*
X5995314Y-1513382D01*
X5996940Y-1512773D01*
X5998159Y-1511757D01*
X5998972Y-1510284D01*
X5982208Y-1495806D01*
X5973318Y-1507744D01*
X5957570Y-1507744D01*
X5957570Y-1483360D01*
X5997702Y-1483360D01*
X5999480Y-1483156D01*
X6001054Y-1482547D01*
X6002223Y-1481531D01*
X6003036Y-1480058D01*
X5985256Y-1464818D01*
X5975858Y-1477518D01*
X5963412Y-1477518D01*
X5968847Y-1470660D01*
X5973927Y-1463649D01*
X5978499Y-1456740D01*
X5982208Y-1450340D01*
X5985052Y-1450086D01*
X5987237Y-1449374D01*
X5988812Y-1448206D01*
X5989828Y-1446530D01*
G37*
G36*
X5779770Y-1448308D02*
G01*
X5777738Y-1449578D01*
X5781141Y-1453540D01*
X5783986Y-1458366D01*
X5785815Y-1463598D01*
X5786374Y-1468882D01*
X5788558Y-1470456D01*
X5790692Y-1471422D01*
X5726938Y-1471422D01*
X5725820Y-1466037D01*
X5723890Y-1460500D01*
X5720588Y-1460754D01*
X5720283Y-1469136D01*
X5717743Y-1476705D01*
X5713679Y-1482852D01*
X5708650Y-1486916D01*
X5705398Y-1489202D01*
X5703112Y-1492046D01*
X5701995Y-1495399D01*
X5702300Y-1499108D01*
X5704941Y-1502054D01*
X5708802Y-1503375D01*
X5713171Y-1503121D01*
X5717540Y-1501394D01*
X5721553Y-1497838D01*
X5724906Y-1492605D01*
X5727090Y-1485798D01*
X5727700Y-1477518D01*
X5856478Y-1477518D01*
X5854293Y-1488897D01*
X5851906Y-1499362D01*
X5854446Y-1500886D01*
X5859475Y-1496263D01*
X5864656Y-1490878D01*
X5869482Y-1485341D01*
X5873496Y-1480312D01*
X5878372Y-1479753D01*
X5880049Y-1479092D01*
X5881370Y-1478026D01*
X5864606Y-1461770D01*
X5855208Y-1471422D01*
X5796534Y-1471422D01*
X5799582Y-1469796D01*
X5801715Y-1467154D01*
X5802680Y-1463802D01*
X5802172Y-1460144D01*
X5799886Y-1456436D01*
X5795568Y-1453032D01*
X5788964Y-1450187D01*
G37*
G36*
X6444996Y-1462532D02*
G01*
X6437122Y-1471168D01*
X6363716Y-1471168D01*
X6347206Y-1463802D01*
X6347206Y-1477010D01*
X6438900Y-1477010D01*
X6438900Y-1506982D01*
X6362700Y-1506982D01*
X6362700Y-1477010D01*
X6347206Y-1477010D01*
X6347206Y-1524000D01*
X6349492Y-1524000D01*
X6354114Y-1523441D01*
X6358382Y-1522069D01*
X6361480Y-1520444D01*
X6362700Y-1519174D01*
X6362700Y-1512824D01*
X6392672Y-1512824D01*
X6392672Y-1540764D01*
X6332982Y-1540764D01*
X6334506Y-1546860D01*
X6392672Y-1546860D01*
X6392672Y-1579372D01*
X6312662Y-1579372D01*
X6314440Y-1585214D01*
X6486906Y-1585214D01*
X6488836Y-1585010D01*
X6490411Y-1584452D01*
X6491478Y-1583486D01*
X6491986Y-1582166D01*
X6485991Y-1576679D01*
X6472682Y-1565656D01*
X6462268Y-1579372D01*
X6408928Y-1579372D01*
X6408928Y-1546860D01*
X6468364Y-1546860D01*
X6470243Y-1546656D01*
X6471767Y-1546098D01*
X6472834Y-1545132D01*
X6473444Y-1543812D01*
X6467652Y-1538427D01*
X6454902Y-1527810D01*
X6444996Y-1540764D01*
X6408928Y-1540764D01*
X6408928Y-1512824D01*
X6438900Y-1512824D01*
X6438900Y-1521460D01*
X6441694Y-1521460D01*
X6445859Y-1520901D01*
X6450126Y-1519529D01*
X6453428Y-1517904D01*
X6454902Y-1516634D01*
X6454902Y-1479296D01*
X6457391Y-1478686D01*
X6459575Y-1477822D01*
X6462522Y-1475740D01*
G37*
G36*
X6237986Y-1466088D02*
G01*
X6227826Y-1475740D01*
X6139180Y-1475740D01*
X6141212Y-1481836D01*
X6225286Y-1481836D01*
X6220104Y-1487170D01*
X6208420Y-1498041D01*
X6202680Y-1502918D01*
X6189980Y-1501648D01*
X6189980Y-1522984D01*
X6105398Y-1522984D01*
X6106922Y-1528826D01*
X6189980Y-1528826D01*
X6189980Y-1567434D01*
X6189726Y-1569516D01*
X6188862Y-1570939D01*
X6187287Y-1571752D01*
X6184900Y-1572006D01*
X6151626Y-1569974D01*
X6151626Y-1573022D01*
X6159550Y-1574292D01*
X6165646Y-1575816D01*
X6170218Y-1577543D01*
X6173724Y-1579372D01*
X6176010Y-1581810D01*
X6177686Y-1584604D01*
X6178854Y-1587855D01*
X6179566Y-1591564D01*
X6187744Y-1590446D01*
X6194145Y-1588820D01*
X6198971Y-1586636D01*
X6202426Y-1583994D01*
X6204762Y-1580845D01*
X6206134Y-1577187D01*
X6206794Y-1573072D01*
X6206998Y-1568450D01*
X6206998Y-1528826D01*
X6285738Y-1528826D01*
X6287668Y-1528622D01*
X6289243Y-1528013D01*
X6290411Y-1526997D01*
X6291072Y-1525524D01*
X6278067Y-1514348D01*
X6270752Y-1508506D01*
X6259576Y-1522984D01*
X6206998Y-1522984D01*
X6206998Y-1509014D01*
X6209792Y-1508302D01*
X6211824Y-1507236D01*
X6213094Y-1505813D01*
X6213602Y-1503934D01*
X6211316Y-1503680D01*
X6220866Y-1499209D01*
X6230416Y-1494332D01*
X6239306Y-1489405D01*
X6246876Y-1484630D01*
X6251905Y-1483918D01*
X6253683Y-1483360D01*
X6255004Y-1482598D01*
G37*
G36*
X5828030Y-1485138D02*
G01*
X5817870Y-1498092D01*
X5736336Y-1498092D01*
X5737860Y-1503934D01*
X5840476Y-1503934D01*
X5842558Y-1503730D01*
X5844235Y-1503121D01*
X5845403Y-1502105D01*
X5846064Y-1500632D01*
X5840374Y-1495399D01*
G37*
G36*
X5859780Y-1510284D02*
G01*
X5849366Y-1523238D01*
X5704586Y-1523238D01*
X5706364Y-1529080D01*
X5782564Y-1529080D01*
X5782564Y-1569466D01*
X5782360Y-1571142D01*
X5781649Y-1572310D01*
X5780328Y-1573022D01*
X5778246Y-1573276D01*
X5753100Y-1571752D01*
X5753100Y-1574546D01*
X5759500Y-1575765D01*
X5764479Y-1577086D01*
X5768187Y-1578610D01*
X5770880Y-1580388D01*
X5772505Y-1582267D01*
X5773674Y-1584807D01*
X5774436Y-1587855D01*
X5774944Y-1591310D01*
X5781954Y-1590344D01*
X5787440Y-1588871D01*
X5791657Y-1586839D01*
X5794705Y-1584350D01*
X5796737Y-1581404D01*
X5798007Y-1578000D01*
X5798667Y-1574190D01*
X5798820Y-1569974D01*
X5798820Y-1529080D01*
X5873242Y-1529080D01*
X5875172Y-1528876D01*
X5876798Y-1528267D01*
X5878017Y-1527251D01*
X5878830Y-1525778D01*
G37*
G36*
X5964174Y-1522222D02*
G01*
X5961634Y-1523492D01*
X5966460Y-1530858D01*
X5970574Y-1539494D01*
X5973368Y-1548688D01*
X5974334Y-1557782D01*
X5976823Y-1559610D01*
X5979312Y-1560576D01*
X5981649Y-1560626D01*
X5983833Y-1559966D01*
X5985713Y-1558645D01*
X5987237Y-1556664D01*
X5988304Y-1554226D01*
X5988862Y-1551330D01*
X5988812Y-1548079D01*
X5988050Y-1544574D01*
X5986526Y-1540865D01*
X5984138Y-1537004D01*
X5980785Y-1533194D01*
X5976366Y-1529384D01*
X5970879Y-1525676D01*
G37*
G36*
X5744210Y-1535684D02*
G01*
X5739384Y-1543354D01*
X5733288Y-1551482D01*
X5726125Y-1559763D01*
X5718200Y-1567789D01*
X5709767Y-1575257D01*
X5701030Y-1581912D01*
X5703062Y-1584198D01*
X5713780Y-1579626D01*
X5724144Y-1574241D01*
X5733948Y-1568246D01*
X5742940Y-1561896D01*
X5747054Y-1558645D01*
X5754319Y-1552092D01*
X5757418Y-1548892D01*
X5760364Y-1549298D01*
X5762447Y-1549044D01*
X5763971Y-1548282D01*
X5765038Y-1547114D01*
G37*
G36*
X5819140Y-1538732D02*
G01*
X5817108Y-1540764D01*
X5822696Y-1544828D01*
X5828588Y-1549450D01*
X5834430Y-1554581D01*
X5840171Y-1560017D01*
X5845556Y-1565656D01*
X5850432Y-1571396D01*
X5854547Y-1577136D01*
X5857748Y-1582674D01*
X5860491Y-1583893D01*
X5863031Y-1584401D01*
X5865317Y-1584248D01*
X5867298Y-1583588D01*
X5868873Y-1582369D01*
X5870092Y-1580642D01*
X5870854Y-1578559D01*
X5871108Y-1576070D01*
X5870854Y-1573326D01*
X5869990Y-1570329D01*
X5868466Y-1567129D01*
X5866282Y-1563776D01*
X5863437Y-1560372D01*
X5859780Y-1556918D01*
X5855258Y-1553514D01*
X5849975Y-1550162D01*
X5843727Y-1546961D01*
X5836513Y-1543964D01*
X5828334Y-1541170D01*
G37*
G36*
X6758940Y-1547368D02*
G01*
X6753047Y-1548587D01*
X6748170Y-1551889D01*
X6744919Y-1556816D01*
X6743700Y-1562862D01*
X6744919Y-1568500D01*
X6748170Y-1573174D01*
X6753047Y-1576374D01*
X6758940Y-1577594D01*
X6764832Y-1576374D01*
X6769709Y-1573174D01*
X6772960Y-1568500D01*
X6774180Y-1562862D01*
X6772960Y-1556816D01*
X6769709Y-1551889D01*
X6764832Y-1548587D01*
G37*
G36*
X7487412Y-1547368D02*
G01*
X7481620Y-1548587D01*
X7476845Y-1551889D01*
X7473645Y-1556816D01*
X7472425Y-1562862D01*
X7473645Y-1568500D01*
X7476845Y-1573174D01*
X7481620Y-1576374D01*
X7487412Y-1577594D01*
X7493457Y-1576374D01*
X7498283Y-1573174D01*
X7501483Y-1568500D01*
X7502652Y-1562862D01*
X7501483Y-1556816D01*
X7498283Y-1551889D01*
X7493457Y-1548587D01*
G37*
G36*
X6193028Y-7665212D02*
G01*
X6187897Y-7671053D01*
X6181547Y-7676591D01*
X6174638Y-7681163D01*
X6167628Y-7684008D01*
X6166205Y-7686852D01*
X6165596Y-7689545D01*
X6165799Y-7691983D01*
X6166713Y-7694117D01*
X6168136Y-7695844D01*
X6170066Y-7697063D01*
X6172403Y-7697774D01*
X6175044Y-7697876D01*
X6177838Y-7697266D01*
X6180734Y-7695895D01*
X6183630Y-7693659D01*
X6186474Y-7690459D01*
X6189065Y-7686294D01*
X6191402Y-7681061D01*
X6193332Y-7674609D01*
X6194806Y-7666990D01*
G37*
G36*
X6108700Y-7666228D02*
G01*
X6107734Y-7671765D01*
X6106922Y-7674102D01*
X6105652Y-7676134D01*
X6103874Y-7677759D01*
X6100978Y-7679029D01*
X6097016Y-7679944D01*
X6092037Y-7680502D01*
X6086246Y-7680655D01*
X6079744Y-7680452D01*
X6072530Y-7679893D01*
X6064758Y-7678928D01*
X6060389Y-7679842D01*
X6057188Y-7681315D01*
X6055258Y-7683449D01*
X6054598Y-7686040D01*
X6055563Y-7690866D01*
X6058408Y-7694625D01*
X6062980Y-7697114D01*
X6069076Y-7698231D01*
X6080404Y-7697571D01*
X6089700Y-7695590D01*
X6097574Y-7693456D01*
X6104636Y-7692390D01*
X6108700Y-7692644D01*
X6113170Y-7693355D01*
X6122416Y-7695692D01*
X6142380Y-7702397D01*
X6203696Y-7724140D01*
X6204458Y-7720584D01*
X6133388Y-7688529D01*
X6122568Y-7683347D01*
X6114948Y-7679131D01*
X6113627Y-7677962D01*
X6113119Y-7676743D01*
X6113018Y-7666228D01*
G37*
G36*
X6238748Y-7679690D02*
G01*
X6232855Y-7685786D01*
X6225844Y-7691780D01*
X6218275Y-7696860D01*
X6210808Y-7700264D01*
X6209436Y-7703210D01*
X6208877Y-7705953D01*
X6209131Y-7708442D01*
X6210096Y-7710576D01*
X6211620Y-7712303D01*
X6213652Y-7713522D01*
X6216040Y-7714183D01*
X6218783Y-7714183D01*
X6221730Y-7713472D01*
X6224778Y-7711948D01*
X6227826Y-7709509D01*
X6230823Y-7706156D01*
X6233668Y-7701737D01*
X6236258Y-7696200D01*
X6238494Y-7689494D01*
X6240272Y-7681468D01*
G37*
G36*
X6067552Y-7702296D02*
G01*
X6061710Y-7703820D01*
X6061710Y-7737094D01*
X6129274Y-7737094D01*
X6129274Y-7755381D01*
X6067552Y-7755381D01*
X6067552Y-7737094D01*
X6061710Y-7737094D01*
X6061710Y-7768844D01*
X6129274Y-7768844D01*
X6129274Y-7786624D01*
X6067552Y-7786624D01*
X6067552Y-7768844D01*
X6061710Y-7768844D01*
X6061710Y-7799831D01*
X6129274Y-7799831D01*
X6129274Y-7818628D01*
X6067552Y-7818628D01*
X6067552Y-7799831D01*
X6061710Y-7799831D01*
X6061710Y-7852409D01*
X6061913Y-7854289D01*
X6062522Y-7855813D01*
X6063538Y-7856981D01*
X6065012Y-7857744D01*
X6074918Y-7848752D01*
X6080252Y-7843520D01*
X6067552Y-7835392D01*
X6067552Y-7834122D01*
X6127496Y-7834122D01*
X6128004Y-7837474D01*
X6128816Y-7840014D01*
X6129934Y-7841894D01*
X6131306Y-7843266D01*
X6145022Y-7824216D01*
X6135116Y-7816342D01*
X6135116Y-7739380D01*
X6142228Y-7722362D01*
X6067552Y-7722362D01*
G37*
G36*
X6148324Y-7731759D02*
G01*
X6148324Y-7734553D01*
X6148832Y-7739837D01*
X6150000Y-7743850D01*
X6151422Y-7746390D01*
X6152642Y-7747253D01*
X6222492Y-7747253D01*
X6222492Y-7811262D01*
X6198108Y-7811262D01*
X6198108Y-7747253D01*
X6192266Y-7747253D01*
X6192266Y-7811262D01*
X6166866Y-7811262D01*
X6166866Y-7747253D01*
X6161278Y-7747253D01*
X6161278Y-7811262D01*
X6150102Y-7811262D01*
X6150102Y-7814056D01*
X6150610Y-7819339D01*
X6151880Y-7823504D01*
X6153302Y-7826248D01*
X6154420Y-7827264D01*
X6221730Y-7827264D01*
X6222339Y-7829956D01*
X6223101Y-7832039D01*
X6223965Y-7833614D01*
X6225032Y-7834884D01*
X6237732Y-7818374D01*
X6228588Y-7810500D01*
X6228588Y-7749794D01*
X6235700Y-7731759D01*
G37*
G36*
X6192774Y-7867903D02*
G01*
X6187643Y-7874000D01*
X6181293Y-7879638D01*
X6174384Y-7884159D01*
X6167374Y-7886953D01*
X6165951Y-7889849D01*
X6165392Y-7892542D01*
X6165596Y-7895031D01*
X6166459Y-7897164D01*
X6167932Y-7898942D01*
X6169914Y-7900212D01*
X6172250Y-7900924D01*
X6174892Y-7901025D01*
X6177686Y-7900416D01*
X6180582Y-7898993D01*
X6183477Y-7896758D01*
X6186322Y-7893558D01*
X6188913Y-7889341D01*
X6191199Y-7884058D01*
X6193129Y-7877606D01*
X6194552Y-7869936D01*
G37*
G36*
X6108700Y-7873238D02*
G01*
X6107734Y-7878673D01*
X6106922Y-7881010D01*
X6105652Y-7883144D01*
X6103874Y-7884718D01*
X6100876Y-7885938D01*
X6096762Y-7886852D01*
X6091732Y-7887360D01*
X6085890Y-7887512D01*
X6079286Y-7887309D01*
X6072124Y-7886700D01*
X6064504Y-7885684D01*
X6060135Y-7886649D01*
X6056934Y-7888274D01*
X6055004Y-7890611D01*
X6054344Y-7893558D01*
X6055360Y-7898587D01*
X6058306Y-7902448D01*
X6062929Y-7904988D01*
X6069076Y-7906003D01*
X6080404Y-7905445D01*
X6089497Y-7903464D01*
X6097270Y-7901279D01*
X6104636Y-7900162D01*
X6108649Y-7900365D01*
X6117793Y-7901990D01*
X6125819Y-7904073D01*
X6149390Y-7911592D01*
X6202680Y-7929372D01*
X6203696Y-7925816D01*
X6133033Y-7895081D01*
X6120790Y-7889341D01*
X6114592Y-7885938D01*
X6113322Y-7884871D01*
X6112814Y-7883702D01*
X6112764Y-7873238D01*
G37*
G36*
X6238240Y-7882128D02*
G01*
X6232550Y-7888579D01*
X6225641Y-7894878D01*
X6218224Y-7900212D01*
X6210808Y-7903972D01*
X6209538Y-7907020D01*
X6209080Y-7909864D01*
X6209487Y-7912353D01*
X6210503Y-7914538D01*
X6212128Y-7916214D01*
X6214211Y-7917383D01*
X6216700Y-7917992D01*
X6219494Y-7917891D01*
X6222441Y-7917027D01*
X6225438Y-7915402D01*
X6228435Y-7912862D01*
X6231331Y-7909306D01*
X6234023Y-7904784D01*
X6236360Y-7899095D01*
X6238341Y-7892288D01*
X6239764Y-7884159D01*
G37*
G36*
X6068060Y-7918958D02*
G01*
X6062218Y-7920736D01*
X6062218Y-8054086D01*
X6062421Y-8056168D01*
X6063030Y-8057845D01*
X6064046Y-8059013D01*
X6065520Y-8059674D01*
X6075984Y-8048091D01*
X6081522Y-8041640D01*
X6068060Y-8031734D01*
X6068060Y-8011159D01*
X6144006Y-8011159D01*
X6144615Y-8014055D01*
X6145682Y-8015986D01*
X6147206Y-8017154D01*
X6149086Y-8017764D01*
X6151372Y-7996174D01*
X6068060Y-7996174D01*
X6068060Y-7976870D01*
X6144006Y-7976870D01*
X6144615Y-7979664D01*
X6145682Y-7981594D01*
X6147206Y-7982813D01*
X6149086Y-7983474D01*
X6151372Y-7962138D01*
X6068060Y-7962138D01*
G37*
G36*
X6136132Y-7923275D02*
G01*
X6124803Y-7928254D01*
X6118555Y-7930591D01*
X6112103Y-7932724D01*
X6105499Y-7934553D01*
X6098946Y-7935975D01*
X6092494Y-7936941D01*
X6086348Y-7937246D01*
X6084214Y-7939887D01*
X6083147Y-7942529D01*
X6083046Y-7944967D01*
X6083858Y-7947202D01*
X6085484Y-7949082D01*
X6087872Y-7950606D01*
X6090920Y-7951673D01*
X6094577Y-7952130D01*
X6098794Y-7951978D01*
X6103467Y-7951114D01*
X6108547Y-7949438D01*
X6113932Y-7946847D01*
X6119520Y-7943342D01*
X6125362Y-7938719D01*
X6131255Y-7933029D01*
X6137148Y-7926070D01*
G37*
G36*
X6147308Y-7935975D02*
G01*
X6147308Y-7938516D01*
X6147816Y-7943697D01*
X6149086Y-7947710D01*
X6150508Y-7950301D01*
X6151626Y-7951216D01*
X6223254Y-7951216D01*
X6223254Y-8022844D01*
X6196584Y-8022844D01*
X6196584Y-7951216D01*
X6190488Y-7951216D01*
X6190488Y-8022844D01*
X6165342Y-8022844D01*
X6165342Y-7951216D01*
X6159246Y-7951216D01*
X6159246Y-8022844D01*
X6150102Y-8022844D01*
X6150102Y-8025384D01*
X6150610Y-8030565D01*
X6151880Y-8034731D01*
X6153302Y-8037575D01*
X6154420Y-8038592D01*
X6222238Y-8038592D01*
X6222746Y-8041335D01*
X6223508Y-8043468D01*
X6224473Y-8045043D01*
X6225540Y-8046212D01*
X6237986Y-8029956D01*
X6229096Y-8022081D01*
X6229096Y-7953502D01*
X6236208Y-7935975D01*
G37*
G36*
X6083300Y-8017764D02*
G01*
X6081522Y-8021066D01*
X6086144Y-8024875D01*
X6096508Y-8032292D01*
X6108039Y-8039303D01*
X6120130Y-8045805D01*
X6126226Y-8048752D01*
X6126378Y-8051647D01*
X6127191Y-8053882D01*
X6128461Y-8055457D01*
X6130036Y-8056372D01*
X6137656Y-8033766D01*
X6123076Y-8030362D01*
X6108598Y-8026450D01*
X6094984Y-8022132D01*
G37*
G36*
X6055614Y-8071103D02*
G01*
X6053582Y-8074152D01*
X6058306Y-8078774D01*
X6063183Y-8082940D01*
X6068263Y-8086699D01*
X6073495Y-8090103D01*
X6078880Y-8093100D01*
X6084366Y-8095792D01*
X6089954Y-8098129D01*
X6095593Y-8100161D01*
X6107125Y-8103412D01*
X6118707Y-8105648D01*
X6130290Y-8107121D01*
X6141669Y-8107984D01*
X6152743Y-8108340D01*
X6208776Y-8108442D01*
X6208776Y-8253984D01*
X6208979Y-8256066D01*
X6209588Y-8257743D01*
X6210604Y-8258911D01*
X6212078Y-8259572D01*
X6217564Y-8253425D01*
X6228588Y-8240014D01*
X6214618Y-8229346D01*
X6214618Y-8111236D01*
X6222238Y-8092186D01*
X6149289Y-8092084D01*
X6135420Y-8091627D01*
X6121450Y-8090611D01*
X6107633Y-8088884D01*
X6100775Y-8087715D01*
X6087262Y-8084566D01*
X6080709Y-8082534D01*
X6074206Y-8080197D01*
X6067856Y-8077555D01*
X6061659Y-8074507D01*
G37*
G36*
X6057646Y-8092948D02*
G01*
X6054344Y-8094218D01*
X6056528Y-8110169D01*
X6059373Y-8125307D01*
X6062827Y-8139582D01*
X6066942Y-8152993D01*
X6069228Y-8159394D01*
X6074359Y-8171535D01*
X6077204Y-8177275D01*
X6076912Y-8177784D01*
X6091174Y-8177784D01*
X6094018Y-8172653D01*
X6097117Y-8167776D01*
X6100368Y-8163204D01*
X6103874Y-8158835D01*
X6107633Y-8154771D01*
X6111595Y-8150961D01*
X6115862Y-8147456D01*
X6120384Y-8144256D01*
X6120384Y-8205978D01*
X6116320Y-8203285D01*
X6108547Y-8197138D01*
X6101232Y-8190026D01*
X6097727Y-8186166D01*
X6091174Y-8177784D01*
X6076912Y-8177784D01*
X6071768Y-8187181D01*
X6069330Y-8192414D01*
X6067094Y-8197850D01*
X6063132Y-8209280D01*
X6059779Y-8221472D01*
X6056985Y-8234425D01*
X6054598Y-8248142D01*
X6059881Y-8249970D01*
X6064250Y-8252866D01*
X6067450Y-8256727D01*
X6069330Y-8261603D01*
X6071870Y-8261858D01*
X6072936Y-8248853D01*
X6074460Y-8236254D01*
X6076391Y-8224164D01*
X6078829Y-8212581D01*
X6081826Y-8201609D01*
X6085332Y-8191246D01*
X6088684Y-8196275D01*
X6092240Y-8201050D01*
X6096000Y-8205622D01*
X6104128Y-8214004D01*
X6108496Y-8217814D01*
X6113068Y-8221421D01*
X6117844Y-8224774D01*
X6117945Y-8228228D01*
X6118352Y-8230768D01*
X6119114Y-8232597D01*
X6120384Y-8233918D01*
X6135624Y-8217916D01*
X6126480Y-8206994D01*
X6126480Y-8121903D01*
X6120384Y-8123936D01*
X6120384Y-8139175D01*
X6114999Y-8141919D01*
X6109817Y-8144916D01*
X6104890Y-8148066D01*
X6100267Y-8151469D01*
X6095847Y-8155076D01*
X6091732Y-8158937D01*
X6087872Y-8163001D01*
X6084316Y-8167370D01*
X6078474Y-8156803D01*
X6073241Y-8145424D01*
X6068517Y-8133283D01*
X6066332Y-8126984D01*
X6062472Y-8113826D01*
X6059119Y-8100059D01*
G37*
G36*
X6180836Y-8112252D02*
G01*
X6174740Y-8113775D01*
X6174740Y-8141208D01*
X6133084Y-8141208D01*
X6133084Y-8144256D01*
X6133541Y-8148726D01*
X6134658Y-8152790D01*
X6135979Y-8155787D01*
X6137148Y-8156956D01*
X6174740Y-8156956D01*
X6174740Y-8197596D01*
X6150102Y-8197596D01*
X6150102Y-8156956D01*
X6144260Y-8156956D01*
X6144260Y-8197596D01*
X6135624Y-8197596D01*
X6135624Y-8200644D01*
X6136132Y-8204962D01*
X6137351Y-8209076D01*
X6138824Y-8212124D01*
X6140196Y-8213344D01*
X6174740Y-8213344D01*
X6174740Y-8248903D01*
X6174943Y-8250986D01*
X6175552Y-8252663D01*
X6176568Y-8253831D01*
X6178042Y-8254492D01*
X6183426Y-8249107D01*
X6194044Y-8237220D01*
X6180836Y-8227822D01*
X6180836Y-8213344D01*
X6195568Y-8213344D01*
X6196330Y-8216544D01*
X6197447Y-8218728D01*
X6199022Y-8219948D01*
X6200902Y-8220456D01*
X6203188Y-8197596D01*
X6180836Y-8197596D01*
X6180836Y-8156956D01*
X6195568Y-8156956D01*
X6196330Y-8160156D01*
X6197447Y-8162239D01*
X6199022Y-8163458D01*
X6200902Y-8164068D01*
X6203188Y-8141208D01*
X6180836Y-8141208D01*
G37*
G36*
X6242304Y-8152892D02*
G01*
X6236970Y-8158225D01*
X6230569Y-8163559D01*
X6223762Y-8168131D01*
X6217158Y-8171180D01*
X6215786Y-8174278D01*
X6215278Y-8177123D01*
X6215532Y-8179765D01*
X6216446Y-8182051D01*
X6217970Y-8183880D01*
X6219952Y-8185251D01*
X6222339Y-8186013D01*
X6224981Y-8186166D01*
X6227775Y-8185556D01*
X6230670Y-8184184D01*
X6233515Y-8181898D01*
X6236208Y-8178698D01*
X6238748Y-8174431D01*
X6240881Y-8169046D01*
X6242608Y-8162493D01*
X6243828Y-8154670D01*
G37*
G36*
X6137148Y-8272780D02*
G01*
X6135116Y-8275574D01*
X6141466Y-8281924D01*
X6148374Y-8288020D01*
X6155740Y-8293912D01*
X6163564Y-8299703D01*
X6054344Y-8299703D01*
X6054344Y-8302752D01*
X6054902Y-8307476D01*
X6056325Y-8311743D01*
X6058001Y-8314791D01*
X6059424Y-8315959D01*
X6178804Y-8315959D01*
X6179566Y-8318601D01*
X6180480Y-8320481D01*
X6181496Y-8321649D01*
X6182868Y-8322309D01*
X6186170Y-8313674D01*
X6196380Y-8319008D01*
X6207150Y-8324037D01*
X6218224Y-8328761D01*
X6229604Y-8333231D01*
X6229908Y-8336280D01*
X6230772Y-8338616D01*
X6232093Y-8340293D01*
X6233668Y-8341359D01*
X6241288Y-8315452D01*
X6226708Y-8311692D01*
X6212179Y-8307273D01*
X6197955Y-8302294D01*
X6184188Y-8296859D01*
X6171031Y-8291118D01*
X6158687Y-8285124D01*
X6147308Y-8278977D01*
G37*
G36*
X6166358Y-8322056D02*
G01*
X6160516Y-8323834D01*
X6160516Y-8364220D01*
X6134100Y-8355838D01*
X6133236Y-8353399D01*
X6130036Y-8347456D01*
X6117336Y-8364474D01*
X6125464Y-8371840D01*
X6125464Y-8422386D01*
X6116878Y-8418068D01*
X6107531Y-8413038D01*
X6098133Y-8407654D01*
X6089396Y-8402320D01*
X6093561Y-8392414D01*
X6097320Y-8380882D01*
X6100622Y-8367623D01*
X6103366Y-8352536D01*
X6100572Y-8351012D01*
X6095187Y-8363610D01*
X6088380Y-8377072D01*
X6080556Y-8390483D01*
X6072073Y-8403031D01*
X6067653Y-8408720D01*
X6063284Y-8413851D01*
X6058916Y-8418372D01*
X6054598Y-8422132D01*
X6054140Y-8425535D01*
X6054547Y-8428329D01*
X6055766Y-8430463D01*
X6057646Y-8431834D01*
X6060186Y-8432393D01*
X6063234Y-8432088D01*
X6066688Y-8430768D01*
X6070498Y-8428431D01*
X6074511Y-8424976D01*
X6078728Y-8420303D01*
X6082944Y-8414410D01*
X6087110Y-8407146D01*
X6095492Y-8416747D01*
X6104585Y-8426399D01*
X6113627Y-8435238D01*
X6121908Y-8442452D01*
X6122822Y-8447684D01*
X6123482Y-8449411D01*
X6124448Y-8450834D01*
X6141466Y-8432800D01*
X6131560Y-8422640D01*
X6131560Y-8371840D01*
X6145276Y-8376208D01*
X6160516Y-8380730D01*
X6160516Y-8459470D01*
X6160719Y-8461400D01*
X6161278Y-8463026D01*
X6162243Y-8464245D01*
X6163564Y-8465058D01*
X6174282Y-8452662D01*
X6179820Y-8445754D01*
X6166358Y-8435086D01*
X6166358Y-8382253D01*
X6183833Y-8387283D01*
X6201156Y-8391906D01*
X6201156Y-8449056D01*
X6201359Y-8450986D01*
X6201918Y-8452561D01*
X6202883Y-8453729D01*
X6204204Y-8454390D01*
X6209436Y-8448548D01*
X6219698Y-8436102D01*
X6206998Y-8426196D01*
X6206998Y-8393430D01*
X6220409Y-8396884D01*
X6231890Y-8399526D01*
X6232093Y-8402777D01*
X6232956Y-8405063D01*
X6234328Y-8406587D01*
X6235954Y-8407400D01*
X6242050Y-8384794D01*
X6226251Y-8381441D01*
X6206998Y-8376920D01*
X6206998Y-8333740D01*
X6201156Y-8335264D01*
X6201156Y-8375396D01*
X6166358Y-8365744D01*
G37*
G36*
X6069990Y-8478875D02*
G01*
X6066790Y-8479536D01*
X6064097Y-8482126D01*
X6063183Y-8486038D01*
X6063843Y-8490559D01*
X6066028Y-8495030D01*
X6068669Y-8498382D01*
X6072225Y-8501684D01*
X6076645Y-8504682D01*
X6081928Y-8507222D01*
X6088126Y-8509101D01*
X6095136Y-8510117D01*
X6103010Y-8510066D01*
X6111748Y-8508746D01*
X6111748Y-8505190D01*
X6106058Y-8504377D01*
X6100673Y-8502853D01*
X6095695Y-8500719D01*
X6091072Y-8498027D01*
X6086957Y-8494979D01*
X6083401Y-8491677D01*
X6080506Y-8488172D01*
X6078220Y-8484616D01*
X6075883Y-8481720D01*
X6073089Y-8479688D01*
G37*
G36*
X6104636Y-8479028D02*
G01*
X6102604Y-8481568D01*
X6106922Y-8486495D01*
X6111494Y-8490864D01*
X6116320Y-8494725D01*
X6121298Y-8498078D01*
X6126429Y-8500973D01*
X6131712Y-8503412D01*
X6137046Y-8505444D01*
X6142431Y-8507171D01*
X6147816Y-8508542D01*
X6158585Y-8510422D01*
X6168948Y-8511387D01*
X6178804Y-8511743D01*
X6209030Y-8511794D01*
X6209030Y-8587486D01*
X6198260Y-8589518D01*
X6187846Y-8592058D01*
X6177737Y-8595156D01*
X6168085Y-8598916D01*
X6158839Y-8603386D01*
X6150102Y-8608568D01*
X6141770Y-8601811D01*
X6134252Y-8594801D01*
X6127546Y-8587486D01*
X6121654Y-8579866D01*
X6119114Y-8582152D01*
X6123482Y-8590788D01*
X6128613Y-8599170D01*
X6134557Y-8607145D01*
X6137757Y-8610955D01*
X6141212Y-8614664D01*
X6134760Y-8620099D01*
X6128816Y-8626043D01*
X6123228Y-8632444D01*
X6118098Y-8639302D01*
X6113932Y-8646464D01*
X6111240Y-8653881D01*
X6111036Y-8660587D01*
X6114288Y-8665464D01*
X6116320Y-8666429D01*
X6118910Y-8666124D01*
X6122365Y-8664244D01*
X6126988Y-8660638D01*
X6152642Y-8663686D01*
X6153404Y-8661400D01*
X6142329Y-8656878D01*
X6133592Y-8652764D01*
X6131864Y-8651646D01*
X6131204Y-8650427D01*
X6131560Y-8648903D01*
X6137046Y-8640775D01*
X6141770Y-8635187D01*
X6146850Y-8630056D01*
X6152388Y-8625332D01*
X6160566Y-8631428D01*
X6169558Y-8637066D01*
X6179362Y-8642248D01*
X6189980Y-8646922D01*
X6189980Y-8649919D01*
X6190589Y-8652154D01*
X6191707Y-8653678D01*
X6193282Y-8654542D01*
X6201664Y-8632698D01*
X6191605Y-8629700D01*
X6182055Y-8626144D01*
X6172962Y-8622131D01*
X6164326Y-8617712D01*
X6169456Y-8615070D01*
X6180226Y-8610498D01*
X6185814Y-8608568D01*
X6197295Y-8605418D01*
X6203137Y-8604199D01*
X6209030Y-8603234D01*
X6209030Y-8660892D01*
X6209233Y-8662822D01*
X6209842Y-8664448D01*
X6210858Y-8665667D01*
X6212332Y-8666480D01*
X6221730Y-8655964D01*
X6226556Y-8650224D01*
X6214872Y-8641080D01*
X6214872Y-8602472D01*
X6224625Y-8601405D01*
X6234430Y-8600948D01*
X6235141Y-8603894D01*
X6236309Y-8605875D01*
X6237935Y-8607044D01*
X6239764Y-8607552D01*
X6241796Y-8584692D01*
X6228130Y-8585352D01*
X6221425Y-8585911D01*
X6214872Y-8586724D01*
X6214872Y-8514588D01*
X6222238Y-8496554D01*
X6176619Y-8496503D01*
X6163360Y-8496046D01*
X6156604Y-8495588D01*
X6149848Y-8494826D01*
X6143142Y-8493810D01*
X6136436Y-8492439D01*
X6129782Y-8490661D01*
X6123279Y-8488527D01*
X6116878Y-8485886D01*
X6110630Y-8482736D01*
G37*
G36*
X6190742Y-8515858D02*
G01*
X6184900Y-8517382D01*
X6184900Y-8584184D01*
X6185103Y-8586216D01*
X6185662Y-8587790D01*
X6186627Y-8588908D01*
X6187948Y-8589518D01*
X6197346Y-8578646D01*
X6202172Y-8572500D01*
X6190742Y-8563610D01*
G37*
G36*
X6123432Y-8521700D02*
G01*
X6123432Y-8523732D01*
X6123990Y-8528202D01*
X6125311Y-8532266D01*
X6126886Y-8535263D01*
X6128004Y-8536432D01*
X6165342Y-8536432D01*
X6165342Y-8564880D01*
X6140958Y-8564880D01*
X6140958Y-8536432D01*
X6134862Y-8536432D01*
X6134862Y-8564880D01*
X6127496Y-8564880D01*
X6127496Y-8567420D01*
X6128004Y-8571382D01*
X6129223Y-8575344D01*
X6130696Y-8578494D01*
X6132068Y-8579866D01*
X6162802Y-8579866D01*
X6163564Y-8582456D01*
X6164529Y-8584793D01*
X6165596Y-8586673D01*
X6166612Y-8587994D01*
X6179312Y-8570976D01*
X6171184Y-8563102D01*
X6171184Y-8537194D01*
X6177788Y-8521700D01*
G37*
G36*
X6075680Y-8527288D02*
G01*
X6068466Y-8528253D01*
X6063945Y-8531860D01*
X6061608Y-8539276D01*
X6060948Y-8551672D01*
X6061049Y-8593886D01*
X6061354Y-8604910D01*
X6061913Y-8613394D01*
X6062776Y-8619744D01*
X6063945Y-8624163D01*
X6065570Y-8626957D01*
X6067602Y-8628481D01*
X6070092Y-8628888D01*
X6072174Y-8628532D01*
X6073952Y-8627313D01*
X6075426Y-8625128D01*
X6076696Y-8621776D01*
X6100318Y-8621014D01*
X6100318Y-8618728D01*
X6086144Y-8614562D01*
X6081014Y-8612835D01*
X6077458Y-8611362D01*
X6076340Y-8610396D01*
X6075629Y-8609380D01*
X6075172Y-8607958D01*
X6074613Y-8602319D01*
X6074410Y-8589568D01*
X6074410Y-8553704D01*
X6074562Y-8548268D01*
X6075172Y-8545220D01*
X6076340Y-8543848D01*
X6078220Y-8543544D01*
X6109716Y-8543544D01*
X6110478Y-8546084D01*
X6111595Y-8547912D01*
X6113018Y-8549132D01*
X6114796Y-8549640D01*
X6117082Y-8527288D01*
G37*
G36*
X6120384Y-8556752D02*
G01*
X6116980Y-8560460D01*
X6113170Y-8564168D01*
X6109004Y-8567826D01*
X6104585Y-8571280D01*
X6100064Y-8574430D01*
X6095441Y-8577173D01*
X6090818Y-8579358D01*
X6086348Y-8580882D01*
X6084976Y-8583676D01*
X6084468Y-8586266D01*
X6084773Y-8588603D01*
X6085789Y-8590584D01*
X6087465Y-8592108D01*
X6089650Y-8593175D01*
X6092291Y-8593632D01*
X6095288Y-8593429D01*
X6098540Y-8592515D01*
X6101994Y-8590788D01*
X6105601Y-8588146D01*
X6109157Y-8584539D01*
X6112662Y-8579866D01*
X6116015Y-8574074D01*
X6119164Y-8567064D01*
X6121908Y-8558784D01*
G37*
G36*
X6239002Y-8611362D02*
G01*
X6234938Y-8615680D01*
X6229959Y-8619845D01*
X6224524Y-8623300D01*
X6219190Y-8625332D01*
X6217462Y-8628583D01*
X6217056Y-8631682D01*
X6217666Y-8634374D01*
X6219190Y-8636508D01*
X6221425Y-8637930D01*
X6224168Y-8638489D01*
X6227216Y-8637930D01*
X6230416Y-8636152D01*
X6233566Y-8632952D01*
X6236462Y-8628176D01*
X6238951Y-8621623D01*
X6240780Y-8613140D01*
G37*
G36*
X6110732Y-8619490D02*
G01*
X6106414Y-8624112D01*
X6101537Y-8628684D01*
X6096254Y-8633104D01*
X6090615Y-8637219D01*
X6084824Y-8640927D01*
X6078931Y-8644026D01*
X6073038Y-8646414D01*
X6067298Y-8647938D01*
X6065824Y-8650478D01*
X6065062Y-8652865D01*
X6065012Y-8655100D01*
X6065469Y-8657132D01*
X6066536Y-8658860D01*
X6068060Y-8660282D01*
X6070041Y-8661349D01*
X6072428Y-8662009D01*
X6075172Y-8662212D01*
X6078169Y-8661908D01*
X6081369Y-8661095D01*
X6084824Y-8659672D01*
X6088329Y-8657590D01*
X6091936Y-8654897D01*
X6095593Y-8651443D01*
X6099200Y-8647226D01*
X6102705Y-8642197D01*
X6106109Y-8636304D01*
X6109309Y-8629497D01*
X6112256Y-8621776D01*
G37*
G36*
X6108446Y-8679688D02*
G01*
X6105652Y-8681212D01*
X6109512Y-8693607D01*
X6113780Y-8705088D01*
X6053074Y-8705088D01*
X6053074Y-8707120D01*
X6053632Y-8711692D01*
X6055055Y-8715857D01*
X6056731Y-8718905D01*
X6058154Y-8720074D01*
X6111748Y-8720074D01*
X6111748Y-8750300D01*
X6074156Y-8750300D01*
X6074156Y-8720074D01*
X6068060Y-8720074D01*
X6068060Y-8750300D01*
X6058408Y-8750300D01*
X6058408Y-8752840D01*
X6058966Y-8756954D01*
X6060236Y-8761018D01*
X6061811Y-8764168D01*
X6063234Y-8765540D01*
X6108954Y-8765540D01*
X6109716Y-8768232D01*
X6110681Y-8770569D01*
X6112764Y-8773922D01*
X6125972Y-8756396D01*
X6117590Y-8748268D01*
X6117590Y-8720836D01*
X6119114Y-8717026D01*
X6122517Y-8723782D01*
X6126124Y-8730183D01*
X6129883Y-8736177D01*
X6133795Y-8741867D01*
X6137808Y-8747150D01*
X6146088Y-8756700D01*
X6150356Y-8760968D01*
X6150356Y-8792464D01*
X6141567Y-8800388D01*
X6137402Y-8804656D01*
X6133490Y-8809177D01*
X6129680Y-8814054D01*
X6126124Y-8819286D01*
X6122771Y-8824925D01*
X6119622Y-8831072D01*
X6117590Y-8829294D01*
X6117590Y-8800084D01*
X6124448Y-8784082D01*
X6054344Y-8784082D01*
X6054344Y-8786368D01*
X6054902Y-8790940D01*
X6056274Y-8795105D01*
X6057900Y-8798153D01*
X6059170Y-8799322D01*
X6111748Y-8799322D01*
X6111748Y-8831326D01*
X6074156Y-8831326D01*
X6074156Y-8799322D01*
X6068060Y-8799322D01*
X6068060Y-8831326D01*
X6057392Y-8831326D01*
X6057392Y-8834120D01*
X6057950Y-8838082D01*
X6059322Y-8842197D01*
X6060795Y-8845397D01*
X6061964Y-8846820D01*
X6108700Y-8846820D01*
X6109665Y-8850325D01*
X6110986Y-8853424D01*
X6107938Y-8864092D01*
X6113475Y-8865057D01*
X6118148Y-8866784D01*
X6121704Y-8869121D01*
X6123940Y-8871966D01*
X6125972Y-8872474D01*
X6126886Y-8864142D01*
X6129375Y-8848750D01*
X6132677Y-8834983D01*
X6136792Y-8822791D01*
X6139129Y-8817254D01*
X6141669Y-8812022D01*
X6144361Y-8807145D01*
X6147257Y-8802573D01*
X6150356Y-8798306D01*
X6150356Y-8863838D01*
X6150559Y-8865920D01*
X6151118Y-8867597D01*
X6152083Y-8868867D01*
X6153404Y-8869680D01*
X6163868Y-8857183D01*
X6169152Y-8850376D01*
X6156198Y-8839708D01*
X6156198Y-8766048D01*
X6163157Y-8771483D01*
X6170168Y-8775954D01*
X6170066Y-8778900D01*
X6170574Y-8781237D01*
X6171692Y-8782862D01*
X6173470Y-8783828D01*
X6180582Y-8764270D01*
X6181140Y-8764981D01*
X6219698Y-8765032D01*
X6220460Y-8767724D01*
X6221425Y-8770061D01*
X6222593Y-8771890D01*
X6223762Y-8773160D01*
X6236970Y-8755888D01*
X6228334Y-8747760D01*
X6228334Y-8718296D01*
X6235446Y-8702548D01*
X6168390Y-8702548D01*
X6168390Y-8704834D01*
X6168948Y-8709406D01*
X6170218Y-8713470D01*
X6171793Y-8716416D01*
X6173216Y-8717534D01*
X6222492Y-8717534D01*
X6222492Y-8749792D01*
X6189472Y-8749792D01*
X6189472Y-8717534D01*
X6183376Y-8717534D01*
X6183376Y-8749792D01*
X6176772Y-8749792D01*
X6176924Y-8754262D01*
X6178042Y-8758783D01*
X6178804Y-8760968D01*
X6173114Y-8757970D01*
X6167424Y-8754567D01*
X6161786Y-8750808D01*
X6156198Y-8746490D01*
X6156198Y-8682228D01*
X6150356Y-8684006D01*
X6150356Y-8741664D01*
X6142329Y-8734044D01*
X6134658Y-8725357D01*
X6130899Y-8720632D01*
X6127292Y-8715654D01*
X6123787Y-8710371D01*
X6120434Y-8704783D01*
X6114135Y-8692794D01*
X6111189Y-8686393D01*
G37*
G36*
X6174994Y-8786114D02*
G01*
X6175146Y-8790736D01*
X6176060Y-8795258D01*
X6176772Y-8797290D01*
X6172606Y-8801557D01*
X6167882Y-8805621D01*
X6163005Y-8809126D01*
X6158230Y-8811514D01*
X6156960Y-8814714D01*
X6156756Y-8817660D01*
X6157569Y-8820150D01*
X6159144Y-8822080D01*
X6161328Y-8823350D01*
X6164021Y-8823756D01*
X6166967Y-8823248D01*
X6170015Y-8821623D01*
X6173012Y-8818727D01*
X6175806Y-8814511D01*
X6178194Y-8808720D01*
X6180074Y-8801354D01*
X6222492Y-8801354D01*
X6222492Y-8835390D01*
X6189472Y-8835390D01*
X6189472Y-8801354D01*
X6183376Y-8801354D01*
X6183376Y-8835390D01*
X6173724Y-8835390D01*
X6173724Y-8837930D01*
X6174232Y-8842044D01*
X6175400Y-8846210D01*
X6176721Y-8849461D01*
X6177788Y-8850884D01*
X6219444Y-8850884D01*
X6220307Y-8853779D01*
X6221425Y-8856268D01*
X6222593Y-8858199D01*
X6223762Y-8859520D01*
X6237224Y-8841740D01*
X6228334Y-8833358D01*
X6228334Y-8802116D01*
X6235192Y-8786114D01*
G37*
G36*
X6070600Y-8887206D02*
G01*
X6070600Y-8946642D01*
X6079490Y-8946642D01*
X6079490Y-8929116D01*
X6110020Y-8928658D01*
X6188354Y-8928709D01*
X6210808Y-8929116D01*
X6210808Y-8948420D01*
X6210554Y-8954566D01*
X6209741Y-8960408D01*
X6208420Y-8965844D01*
X6206540Y-8970924D01*
X6204204Y-8975648D01*
X6201308Y-8979966D01*
X6197904Y-8983929D01*
X6193993Y-8987485D01*
X6189624Y-8990685D01*
X6184696Y-8993428D01*
X6179312Y-8995816D01*
X6173419Y-8997746D01*
X6167018Y-8999270D01*
X6160160Y-9000388D01*
X6152845Y-9001048D01*
X6145022Y-9001252D01*
X6137452Y-9001048D01*
X6130340Y-9000388D01*
X6123584Y-8999270D01*
X6117336Y-8997696D01*
X6111494Y-8995765D01*
X6106109Y-8993327D01*
X6101181Y-8990533D01*
X6096711Y-8987282D01*
X6092748Y-8983624D01*
X6089294Y-8979560D01*
X6086348Y-8975090D01*
X6083909Y-8970162D01*
X6081979Y-8964879D01*
X6080607Y-8959189D01*
X6079794Y-8953093D01*
X6079490Y-8946642D01*
X6070600Y-8946642D01*
X6070803Y-8954465D01*
X6071412Y-8960866D01*
X6072378Y-8967012D01*
X6073749Y-8972956D01*
X6075527Y-8978595D01*
X6077661Y-8984030D01*
X6080150Y-8989161D01*
X6083046Y-8994038D01*
X6086297Y-8998559D01*
X6089904Y-9002826D01*
X6093866Y-9006687D01*
X6098184Y-9010243D01*
X6102858Y-9013444D01*
X6107887Y-9016238D01*
X6113272Y-9018676D01*
X6118961Y-9020657D01*
X6124956Y-9022283D01*
X6131356Y-9023400D01*
X6138011Y-9024112D01*
X6145022Y-9024366D01*
X6152083Y-9024162D01*
X6158788Y-9023502D01*
X6165138Y-9022435D01*
X6171184Y-9021013D01*
X6176924Y-9019184D01*
X6182258Y-9016949D01*
X6187287Y-9014358D01*
X6191961Y-9011412D01*
X6196279Y-9008110D01*
X6200241Y-9004452D01*
X6203848Y-9000490D01*
X6207048Y-8996222D01*
X6209944Y-8991650D01*
X6212433Y-8986774D01*
X6214567Y-8981592D01*
X6216294Y-8976207D01*
X6217666Y-8970518D01*
X6218631Y-8964574D01*
X6219240Y-8958376D01*
X6219444Y-8951976D01*
X6219444Y-8887206D01*
X6211824Y-8887206D01*
X6209538Y-8908034D01*
X6172606Y-8908288D01*
X6080506Y-8908034D01*
X6078220Y-8887206D01*
G37*
G36*
X6070600Y-9038844D02*
G01*
X6070600Y-9101328D01*
X6078220Y-9101328D01*
X6080506Y-9080754D01*
X6110274Y-9080296D01*
X6142482Y-9080246D01*
X6142482Y-9152890D01*
X6102400Y-9152788D01*
X6080506Y-9152382D01*
X6078220Y-9131808D01*
X6070600Y-9131808D01*
X6070600Y-9194292D01*
X6078220Y-9194292D01*
X6080506Y-9173464D01*
X6110071Y-9173260D01*
X6187643Y-9173260D01*
X6209538Y-9173464D01*
X6211824Y-9194292D01*
X6219444Y-9194292D01*
X6219444Y-9131808D01*
X6211824Y-9131808D01*
X6209538Y-9152382D01*
X6187744Y-9152788D01*
X6151372Y-9152890D01*
X6151372Y-9080246D01*
X6187897Y-9080347D01*
X6209538Y-9080754D01*
X6211824Y-9101328D01*
X6219444Y-9101328D01*
X6219444Y-9038844D01*
X6211824Y-9038844D01*
X6209538Y-9059672D01*
X6172758Y-9059926D01*
X6080506Y-9059672D01*
X6078220Y-9038844D01*
G37*
G36*
X6179820Y-9208770D02*
G01*
X6179820Y-9219946D01*
X6209792Y-9226042D01*
X6209792Y-9260840D01*
X6187694Y-9261246D01*
X6124600Y-9261348D01*
X6095288Y-9261144D01*
X6080760Y-9260840D01*
X6078220Y-9237980D01*
X6070600Y-9237980D01*
X6070600Y-9305036D01*
X6078220Y-9305036D01*
X6080760Y-9282176D01*
X6110122Y-9281718D01*
X6187694Y-9281769D01*
X6209792Y-9282176D01*
X6209792Y-9316974D01*
X6179820Y-9323324D01*
X6179820Y-9333992D01*
X6219444Y-9332722D01*
X6219444Y-9210548D01*
G37*
G36*
X6070600Y-9355328D02*
G01*
X6070600Y-9437370D01*
X6077458Y-9437370D01*
X6082030Y-9406128D01*
X6117590Y-9405620D01*
X6187440Y-9405620D01*
X6219444Y-9406382D01*
X6221730Y-9403334D01*
X6209792Y-9357614D01*
X6202172Y-9357614D01*
X6204966Y-9387332D01*
X6108649Y-9387281D01*
X6082030Y-9386824D01*
X6077458Y-9355328D01*
G37*
G36*
X6070600Y-9466834D02*
G01*
X6070600Y-9548876D01*
X6077458Y-9548876D01*
X6082030Y-9517634D01*
X6117590Y-9517126D01*
X6187440Y-9517126D01*
X6219444Y-9517888D01*
X6221730Y-9514840D01*
X6209792Y-9469120D01*
X6202172Y-9469120D01*
X6204966Y-9498838D01*
X6082030Y-9498584D01*
X6077458Y-9466834D01*
G37*
D10*
X5539892Y-4558284D02*
G01*
X5612536Y-4667250D01*
X5612536Y-4558284D02*
G01*
X5539892Y-4667250D01*
X5652160Y-4584192D02*
G01*
X5652160Y-4579112D01*
X5657240Y-4568697D01*
X5662574Y-4563363D01*
X5672988Y-4558284D01*
X5693562Y-4558284D01*
X5703976Y-4563363D01*
X5709310Y-4568697D01*
X5714390Y-4579112D01*
X5714390Y-4589526D01*
X5709310Y-4599939D01*
X5698896Y-4615434D01*
X5646826Y-4667250D01*
X5719724Y-4667250D01*
X7324343Y-11316715D02*
G01*
X7366000Y-11207750D01*
X7324343Y-11316715D02*
G01*
X7282941Y-11207750D01*
X7350506Y-11244071D02*
G01*
X7298436Y-11244071D01*
X7248652Y-11295887D02*
G01*
X7238238Y-11301221D01*
X7222490Y-11316715D01*
X7222490Y-11207750D01*
X6516115Y-8715755D02*
G01*
X6407150Y-8674100D01*
X6516115Y-8715755D02*
G01*
X6407150Y-8757158D01*
X6443472Y-8689594D02*
G01*
X6443472Y-8741663D01*
X6490208Y-8796781D02*
G01*
X6495288Y-8796781D01*
X6505702Y-8801862D01*
X6511036Y-8807195D01*
X6516115Y-8817610D01*
X6516115Y-8838184D01*
X6511036Y-8848597D01*
X6505702Y-8853931D01*
X6495288Y-8859012D01*
X6484874Y-8859012D01*
X6474459Y-8853931D01*
X6458965Y-8843518D01*
X6407150Y-8791447D01*
X6407150Y-8864345D01*
D11*
X5715000Y-7556500D02*
G01*
X5521197Y-7556500D01*
X5715000Y-7556500D02*
G01*
X5715000Y-7621270D01*
X5705856Y-7648955D01*
X5687313Y-7667244D01*
X5669025Y-7676642D01*
X5641086Y-7685786D01*
X5595111Y-7685786D01*
X5567425Y-7676642D01*
X5548884Y-7667244D01*
X5530341Y-7648955D01*
X5521197Y-7621270D01*
X5521197Y-7556500D01*
X5416550Y-7618729D02*
G01*
X5434838Y-7609586D01*
X5453379Y-7591044D01*
X5462524Y-7572755D01*
X5462524Y-7535671D01*
X5453379Y-7517129D01*
X5434838Y-7498842D01*
X5416550Y-7489444D01*
X5388609Y-7480300D01*
X5342636Y-7480300D01*
X5314950Y-7489444D01*
X5296408Y-7498842D01*
X5277865Y-7517129D01*
X5268722Y-7535671D01*
X5268722Y-7572755D01*
X5277865Y-7591044D01*
X5296408Y-7609586D01*
X5314950Y-7618729D01*
X5342636Y-7618729D01*
X5342636Y-7572755D02*
G01*
X5342636Y-7618729D01*
X5462524Y-7679689D02*
G01*
X5268722Y-7679689D01*
X5462524Y-7679689D02*
G01*
X5268722Y-7809229D01*
X5462524Y-7809229D02*
G01*
X5268722Y-7809229D01*
X5462524Y-7870189D02*
G01*
X5268722Y-7870189D01*
X5462524Y-7870189D02*
G01*
X5462524Y-7934705D01*
X5453379Y-7962392D01*
X5434838Y-7980934D01*
X5416550Y-7990078D01*
X5388609Y-7999476D01*
X5342636Y-7999476D01*
X5314950Y-7990078D01*
X5296408Y-7980934D01*
X5277865Y-7962392D01*
X5268722Y-7934705D01*
X5268722Y-7870189D01*
X5995924Y-7454900D02*
G01*
X5802122Y-7528813D01*
X5995924Y-7602728D02*
G01*
X5802122Y-7528813D01*
X5949950Y-7802118D02*
G01*
X5968238Y-7792973D01*
X5986779Y-7774431D01*
X5995924Y-7755889D01*
X5995924Y-7719060D01*
X5986779Y-7700518D01*
X5968238Y-7682229D01*
X5949950Y-7672831D01*
X5922009Y-7663687D01*
X5876036Y-7663687D01*
X5848350Y-7672831D01*
X5829808Y-7682229D01*
X5811265Y-7700518D01*
X5802122Y-7719060D01*
X5802122Y-7755889D01*
X5811265Y-7774431D01*
X5829808Y-7792973D01*
X5848350Y-7802118D01*
X5949950Y-8001762D02*
G01*
X5968238Y-7992363D01*
X5986779Y-7974076D01*
X5995924Y-7955534D01*
X5995924Y-7918450D01*
X5986779Y-7900162D01*
X5968238Y-7881620D01*
X5949950Y-7872476D01*
X5922009Y-7863078D01*
X5876036Y-7863078D01*
X5848350Y-7872476D01*
X5829808Y-7881620D01*
X5811265Y-7900162D01*
X5802122Y-7918450D01*
X5802122Y-7955534D01*
X5811265Y-7974076D01*
X5829808Y-7992363D01*
X5848350Y-8001762D01*
D10*
X5615177Y-5282692D02*
G01*
X5609843Y-5272278D01*
X5599429Y-5261863D01*
X5589270Y-5256784D01*
X5568441Y-5256784D01*
X5558027Y-5261863D01*
X5547613Y-5272278D01*
X5542279Y-5282692D01*
X5537200Y-5298439D01*
X5537200Y-5324347D01*
X5542279Y-5339842D01*
X5547613Y-5350255D01*
X5558027Y-5360670D01*
X5568441Y-5365750D01*
X5589270Y-5365750D01*
X5599429Y-5360670D01*
X5609843Y-5350255D01*
X5615177Y-5339842D01*
X5654547Y-5282692D02*
G01*
X5654547Y-5277612D01*
X5659881Y-5267197D01*
X5664961Y-5261863D01*
X5675375Y-5256784D01*
X5696204Y-5256784D01*
X5706618Y-5261863D01*
X5711697Y-5267197D01*
X5717031Y-5277612D01*
X5717031Y-5288026D01*
X5711697Y-5298439D01*
X5701284Y-5313934D01*
X5649468Y-5365750D01*
X5722111Y-5365750D01*
X6272022Y-5918707D02*
G01*
X6277356Y-5929121D01*
X6287770Y-5939536D01*
X6297929Y-5944615D01*
X6318758Y-5944615D01*
X6329172Y-5939536D01*
X6339586Y-5929121D01*
X6344920Y-5918707D01*
X6350000Y-5902960D01*
X6350000Y-5877052D01*
X6344920Y-5861557D01*
X6339586Y-5851144D01*
X6329172Y-5840729D01*
X6318758Y-5835650D01*
X6297929Y-5835650D01*
X6287770Y-5840729D01*
X6277356Y-5851144D01*
X6272022Y-5861557D01*
X6227318Y-5944615D02*
G01*
X6170168Y-5944615D01*
X6201409Y-5902960D01*
X6185915Y-5902960D01*
X6175502Y-5897879D01*
X6170168Y-5892800D01*
X6165088Y-5877052D01*
X6165088Y-5866637D01*
X6170168Y-5851144D01*
X6180581Y-5840729D01*
X6196329Y-5835650D01*
X6211824Y-5835650D01*
X6227318Y-5840729D01*
X6232652Y-5845810D01*
X6237731Y-5856223D01*
X7189977Y-6184392D02*
G01*
X7184643Y-6173978D01*
X7174229Y-6163563D01*
X7164070Y-6158484D01*
X7143241Y-6158484D01*
X7132827Y-6163563D01*
X7122413Y-6173978D01*
X7117079Y-6184392D01*
X7112000Y-6200139D01*
X7112000Y-6226047D01*
X7117079Y-6241542D01*
X7122413Y-6251955D01*
X7132827Y-6262370D01*
X7143241Y-6267450D01*
X7164070Y-6267450D01*
X7174229Y-6262370D01*
X7184643Y-6251955D01*
X7189977Y-6241542D01*
X7286497Y-6158484D02*
G01*
X7234681Y-6158484D01*
X7229347Y-6205220D01*
X7234681Y-6200139D01*
X7250175Y-6194805D01*
X7265670Y-6194805D01*
X7281418Y-6200139D01*
X7291831Y-6210300D01*
X7296911Y-6226047D01*
X7296911Y-6236462D01*
X7291831Y-6251955D01*
X7281418Y-6262370D01*
X7265670Y-6267450D01*
X7250175Y-6267450D01*
X7234681Y-6262370D01*
X7229347Y-6257289D01*
X7224268Y-6246876D01*
X7253655Y-4654880D02*
G01*
X7144689Y-4654880D01*
X7253655Y-4727524D02*
G01*
X7144689Y-4727524D01*
X7201839Y-4654880D02*
G01*
X7201839Y-4727524D01*
X7232827Y-4761814D02*
G01*
X7238161Y-4772228D01*
X7253655Y-4787976D01*
X7144689Y-4787976D01*
X7621955Y-4654880D02*
G01*
X7512989Y-4654880D01*
X7621955Y-4727524D02*
G01*
X7512989Y-4727524D01*
X7570139Y-4654880D02*
G01*
X7570139Y-4727524D01*
X7596047Y-4767148D02*
G01*
X7601127Y-4767148D01*
X7611541Y-4772228D01*
X7616875Y-4777562D01*
X7621955Y-4787976D01*
X7621955Y-4808550D01*
X7616875Y-4818964D01*
X7611541Y-4824298D01*
X7601127Y-4829378D01*
X7590713Y-4829378D01*
X7580299Y-4824298D01*
X7564805Y-4813884D01*
X7512989Y-4761814D01*
X7512989Y-4834712D01*
X6040894Y-6234684D02*
G01*
X6040894Y-6343650D01*
X6040894Y-6234684D02*
G01*
X6087630Y-6234684D01*
X6103124Y-6239763D01*
X6108458Y-6245097D01*
X6113538Y-6255512D01*
X6113538Y-6265926D01*
X6108458Y-6276339D01*
X6103124Y-6281420D01*
X6087630Y-6286500D01*
X6040894Y-6286500D01*
X6077216Y-6286500D02*
G01*
X6113538Y-6343650D01*
X6199898Y-6234684D02*
G01*
X6147828Y-6307328D01*
X6225806Y-6307328D01*
X6199898Y-6234684D02*
G01*
X6199898Y-6343650D01*
X3136900Y-1129284D02*
G01*
X3136900Y-1238250D01*
X3136900Y-1129284D02*
G01*
X3183636Y-1129284D01*
X3199129Y-1134363D01*
X3204463Y-1139697D01*
X3209543Y-1150112D01*
X3209543Y-1160526D01*
X3204463Y-1170939D01*
X3199129Y-1176020D01*
X3183636Y-1181100D01*
X3136900Y-1181100D01*
X3173222Y-1181100D02*
G01*
X3209543Y-1238250D01*
X3243834Y-1129284D02*
G01*
X3243834Y-1238250D01*
X3243834Y-1129284D02*
G01*
X3316731Y-1238250D01*
X3316731Y-1129284D02*
G01*
X3316731Y-1238250D01*
X3356102Y-1155192D02*
G01*
X3356102Y-1150112D01*
X3361436Y-1139697D01*
X3366515Y-1134363D01*
X3376929Y-1129284D01*
X3397758Y-1129284D01*
X3408172Y-1134363D01*
X3413252Y-1139697D01*
X3418586Y-1150112D01*
X3418586Y-1160526D01*
X3413252Y-1170939D01*
X3402838Y-1186434D01*
X3351022Y-1238250D01*
X3423665Y-1238250D01*
X3869943Y-4294378D02*
G01*
X3859529Y-4283963D01*
X3844036Y-4278884D01*
X3823208Y-4278884D01*
X3807713Y-4283963D01*
X3797300Y-4294378D01*
X3797300Y-4304792D01*
X3802379Y-4315205D01*
X3807713Y-4320539D01*
X3818127Y-4325620D01*
X3849370Y-4336034D01*
X3859529Y-4341113D01*
X3864863Y-4346447D01*
X3869943Y-4356862D01*
X3869943Y-4372355D01*
X3859529Y-4382770D01*
X3844036Y-4387850D01*
X3823208Y-4387850D01*
X3807713Y-4382770D01*
X3797300Y-4372355D01*
X3904234Y-4278884D02*
G01*
X3904234Y-4387850D01*
X3904234Y-4278884D02*
G01*
X3950970Y-4278884D01*
X3966718Y-4283963D01*
X3971797Y-4289297D01*
X3977131Y-4299712D01*
X3977131Y-4315205D01*
X3971797Y-4325620D01*
X3966718Y-4330700D01*
X3950970Y-4336034D01*
X3904234Y-4336034D01*
X4011422Y-4278884D02*
G01*
X4011422Y-4387850D01*
X4084065Y-4278884D02*
G01*
X4011422Y-4351528D01*
X4037329Y-4325620D02*
G01*
X4084065Y-4387850D01*
X4118356Y-4299712D02*
G01*
X4128770Y-4294378D01*
X4144263Y-4278884D01*
X4144263Y-4387850D01*
X1295400Y-6871715D02*
G01*
X1295400Y-6793737D01*
X1290320Y-6778244D01*
X1279905Y-6767829D01*
X1264157Y-6762750D01*
X1253744Y-6762750D01*
X1238250Y-6767829D01*
X1227836Y-6778244D01*
X1222755Y-6793737D01*
X1222755Y-6871715D01*
X1188465Y-6850887D02*
G01*
X1178052Y-6856221D01*
X1162304Y-6871715D01*
X1162304Y-6762750D01*
D11*
X1863344Y-4613655D02*
G01*
X1715770Y-4613655D01*
X1687829Y-4604257D01*
X1678686Y-4595113D01*
X1669542Y-4576571D01*
X1669542Y-4558029D01*
X1678686Y-4539742D01*
X1687829Y-4530344D01*
X1715770Y-4521200D01*
X1734057Y-4521200D01*
X1863344Y-4729987D02*
G01*
X1854200Y-4711445D01*
X1835657Y-4692904D01*
X1817370Y-4683760D01*
X1789429Y-4674615D01*
X1743455Y-4674615D01*
X1715770Y-4683760D01*
X1697228Y-4692904D01*
X1678686Y-4711445D01*
X1669542Y-4729987D01*
X1669542Y-4766818D01*
X1678686Y-4785360D01*
X1697228Y-4803902D01*
X1715770Y-4813045D01*
X1743455Y-4822189D01*
X1789429Y-4822189D01*
X1817370Y-4813045D01*
X1835657Y-4803902D01*
X1854200Y-4785360D01*
X1863344Y-4766818D01*
X1863344Y-4729987D01*
X1706371Y-4757673D02*
G01*
X1651000Y-4813045D01*
D10*
X3771900Y-10465815D02*
G01*
X3771900Y-10387837D01*
X3766820Y-10372344D01*
X3756406Y-10361929D01*
X3740658Y-10356850D01*
X3730243Y-10356850D01*
X3714750Y-10361929D01*
X3704336Y-10372344D01*
X3699256Y-10387837D01*
X3699256Y-10465815D01*
X3659631Y-10439908D02*
G01*
X3659631Y-10444987D01*
X3654552Y-10455402D01*
X3649218Y-10460736D01*
X3638804Y-10465815D01*
X3618229Y-10465815D01*
X3607815Y-10460736D01*
X3602481Y-10455402D01*
X3597402Y-10444987D01*
X3597402Y-10434574D01*
X3602481Y-10424160D01*
X3612895Y-10408665D01*
X3664965Y-10356850D01*
X3592068Y-10356850D01*
X2731515Y-9232900D02*
G01*
X2653538Y-9232900D01*
X2638043Y-9237979D01*
X2627629Y-9248394D01*
X2622550Y-9264142D01*
X2622550Y-9274555D01*
X2627629Y-9290050D01*
X2638043Y-9300463D01*
X2653538Y-9305544D01*
X2731515Y-9305544D01*
X2731515Y-9350247D02*
G01*
X2731515Y-9407397D01*
X2689859Y-9376410D01*
X2689859Y-9391904D01*
X2684779Y-9402318D01*
X2679700Y-9407397D01*
X2663952Y-9412731D01*
X2653538Y-9412731D01*
X2638043Y-9407397D01*
X2627629Y-9396984D01*
X2622550Y-9381489D01*
X2622550Y-9365995D01*
X2627629Y-9350247D01*
X2632709Y-9345168D01*
X2643124Y-9339834D01*
D11*
X2033777Y-7416800D02*
G01*
X1839976Y-7416800D01*
X2033777Y-7416800D02*
G01*
X2033777Y-7499858D01*
X2024634Y-7527544D01*
X2015490Y-7536942D01*
X1996947Y-7546086D01*
X1978406Y-7546086D01*
X1959863Y-7536942D01*
X1950720Y-7527544D01*
X1941575Y-7499858D01*
X1941575Y-7416800D01*
X1941575Y-7481570D02*
G01*
X1839976Y-7546086D01*
X2006091Y-7736331D02*
G01*
X2024634Y-7717789D01*
X2033777Y-7690104D01*
X2033777Y-7653273D01*
X2024634Y-7625587D01*
X2006091Y-7607045D01*
X1987550Y-7607045D01*
X1969261Y-7616189D01*
X1959863Y-7625587D01*
X1950720Y-7644129D01*
X1932177Y-7699502D01*
X1923034Y-7717789D01*
X1913889Y-7727187D01*
X1895347Y-7736331D01*
X1867662Y-7736331D01*
X1849120Y-7717789D01*
X1839976Y-7690104D01*
X1839976Y-7653273D01*
X1849120Y-7625587D01*
X1867662Y-7607045D01*
X2033777Y-7862062D02*
G01*
X1839976Y-7862062D01*
X2033777Y-7797292D02*
G01*
X2033777Y-7926578D01*
X1754378Y-7416800D02*
G01*
X1560576Y-7416800D01*
X1754378Y-7416800D02*
G01*
X1754378Y-7481570D01*
X1745234Y-7509255D01*
X1726692Y-7527544D01*
X1708150Y-7536942D01*
X1680463Y-7546086D01*
X1634489Y-7546086D01*
X1606550Y-7536942D01*
X1588262Y-7527544D01*
X1569720Y-7509255D01*
X1560576Y-7481570D01*
X1560576Y-7416800D01*
X1754378Y-7680960D02*
G01*
X1560576Y-7607045D01*
X1754378Y-7680960D02*
G01*
X1560576Y-7754873D01*
X1625092Y-7634731D02*
G01*
X1625092Y-7727187D01*
X1754378Y-7880350D02*
G01*
X1560576Y-7880350D01*
X1754378Y-7815834D02*
G01*
X1754378Y-7945120D01*
X1754378Y-8079994D02*
G01*
X1560576Y-8006079D01*
X1754378Y-8079994D02*
G01*
X1560576Y-8153908D01*
X1625092Y-8033765D02*
G01*
X1625092Y-8126221D01*
X1454150Y-7555229D02*
G01*
X1472692Y-7546086D01*
X1491234Y-7527544D01*
X1500378Y-7509255D01*
X1500378Y-7472171D01*
X1491234Y-7453629D01*
X1472692Y-7435342D01*
X1454150Y-7425944D01*
X1426463Y-7416800D01*
X1380489Y-7416800D01*
X1352550Y-7425944D01*
X1334262Y-7435342D01*
X1315720Y-7453629D01*
X1306576Y-7472171D01*
X1306576Y-7509255D01*
X1315720Y-7527544D01*
X1334262Y-7546086D01*
X1352550Y-7555229D01*
X1500378Y-7616189D02*
G01*
X1306576Y-7616189D01*
X1306576Y-7616189D02*
G01*
X1306576Y-7727187D01*
X1500378Y-7788147D02*
G01*
X1306576Y-7788147D01*
X1500378Y-7917434D02*
G01*
X1371092Y-7788147D01*
X1417320Y-7834376D02*
G01*
X1306576Y-7917434D01*
X1200150Y-7555229D02*
G01*
X1218692Y-7546086D01*
X1237234Y-7527544D01*
X1246378Y-7509255D01*
X1246378Y-7472171D01*
X1237234Y-7453629D01*
X1218692Y-7435342D01*
X1200150Y-7425944D01*
X1172463Y-7416800D01*
X1126489Y-7416800D01*
X1098550Y-7425944D01*
X1080262Y-7435342D01*
X1061720Y-7453629D01*
X1052576Y-7472171D01*
X1052576Y-7509255D01*
X1061720Y-7527544D01*
X1080262Y-7546086D01*
X1098550Y-7555229D01*
X1126489Y-7555229D01*
X1126489Y-7509255D02*
G01*
X1126489Y-7555229D01*
X1246378Y-7616189D02*
G01*
X1052576Y-7616189D01*
X1246378Y-7616189D02*
G01*
X1052576Y-7745729D01*
X1246378Y-7745729D02*
G01*
X1052576Y-7745729D01*
X1246378Y-7806689D02*
G01*
X1052576Y-7806689D01*
X1246378Y-7806689D02*
G01*
X1246378Y-7871205D01*
X1237234Y-7898892D01*
X1218692Y-7917434D01*
X1200150Y-7926578D01*
X1172463Y-7935976D01*
X1126489Y-7935976D01*
X1098550Y-7926578D01*
X1080262Y-7917434D01*
X1061720Y-7898892D01*
X1052576Y-7871205D01*
X1052576Y-7806689D01*
X992378Y-7416800D02*
G01*
X798576Y-7490713D01*
X992378Y-7564628D02*
G01*
X798576Y-7490713D01*
X946150Y-7764018D02*
G01*
X964692Y-7754873D01*
X983234Y-7736331D01*
X992378Y-7717789D01*
X992378Y-7680960D01*
X983234Y-7662418D01*
X964692Y-7644129D01*
X946150Y-7634731D01*
X918463Y-7625587D01*
X872489Y-7625587D01*
X844550Y-7634731D01*
X826262Y-7644129D01*
X807720Y-7662418D01*
X798576Y-7680960D01*
X798576Y-7717789D01*
X807720Y-7736331D01*
X826262Y-7754873D01*
X844550Y-7764018D01*
X946150Y-7963662D02*
G01*
X964692Y-7954263D01*
X983234Y-7935976D01*
X992378Y-7917434D01*
X992378Y-7880350D01*
X983234Y-7862062D01*
X964692Y-7843520D01*
X946150Y-7834376D01*
X918463Y-7824978D01*
X872489Y-7824978D01*
X844550Y-7834376D01*
X826262Y-7843520D01*
X807720Y-7862062D01*
X798576Y-7880350D01*
X798576Y-7917434D01*
X807720Y-7935976D01*
X826262Y-7954263D01*
X844550Y-7963662D01*
D10*
X1625178Y-3032500D02*
G01*
X1703156Y-3032500D01*
X1718650Y-3027420D01*
X1729064Y-3017006D01*
X1734144Y-3001258D01*
X1734144Y-2990844D01*
X1729064Y-2975350D01*
X1718650Y-2964936D01*
X1703156Y-2959856D01*
X1625178Y-2959856D01*
X1625178Y-2852668D02*
G01*
X1734144Y-2904738D01*
X1625178Y-2925566D02*
G01*
X1625178Y-2852668D01*
X7733284Y-5753100D02*
G01*
X7811261Y-5753100D01*
X7826756Y-5748020D01*
X7837170Y-5737605D01*
X7842250Y-5721857D01*
X7842250Y-5711444D01*
X7837170Y-5695950D01*
X7826756Y-5685536D01*
X7811261Y-5680455D01*
X7733284Y-5680455D01*
X7769606Y-5578602D02*
G01*
X7785100Y-5583681D01*
X7795513Y-5594095D01*
X7800847Y-5609589D01*
X7800847Y-5614923D01*
X7795513Y-5630418D01*
X7785100Y-5640831D01*
X7769606Y-5646165D01*
X7764525Y-5646165D01*
X7748777Y-5640831D01*
X7738363Y-5630418D01*
X7733284Y-5614923D01*
X7733284Y-5609589D01*
X7738363Y-5594095D01*
X7748777Y-5583681D01*
X7769606Y-5578602D01*
X7795513Y-5578602D01*
X7821675Y-5583681D01*
X7837170Y-5594095D01*
X7842250Y-5609589D01*
X7842250Y-5620004D01*
X7837170Y-5635752D01*
X7826756Y-5640831D01*
X546100Y-976884D02*
G01*
X546100Y-1054862D01*
X551179Y-1070355D01*
X561594Y-1080770D01*
X577342Y-1085850D01*
X587755Y-1085850D01*
X603250Y-1080770D01*
X613663Y-1070355D01*
X618744Y-1054862D01*
X618744Y-976884D01*
X653034Y-997712D02*
G01*
X663447Y-992378D01*
X679195Y-976884D01*
X679195Y-1085850D01*
X713486Y-997712D02*
G01*
X723900Y-992378D01*
X739394Y-976884D01*
X739394Y-1085850D01*
X546100Y-2602484D02*
G01*
X546100Y-2680462D01*
X551179Y-2695955D01*
X561594Y-2706370D01*
X577342Y-2711450D01*
X587755Y-2711450D01*
X603250Y-2706370D01*
X613663Y-2695955D01*
X618744Y-2680462D01*
X618744Y-2602484D01*
X653034Y-2623312D02*
G01*
X663447Y-2617978D01*
X679195Y-2602484D01*
X679195Y-2711450D01*
X718565Y-2628392D02*
G01*
X718565Y-2623312D01*
X723900Y-2612897D01*
X728979Y-2607563D01*
X739394Y-2602484D01*
X760221Y-2602484D01*
X770636Y-2607563D01*
X775715Y-2612897D01*
X781050Y-2623312D01*
X781050Y-2633726D01*
X775715Y-2644139D01*
X765302Y-2659634D01*
X713486Y-2711450D01*
X786129Y-2711450D01*
X546100Y-1789684D02*
G01*
X546100Y-1867662D01*
X551179Y-1883155D01*
X561594Y-1893570D01*
X577342Y-1898650D01*
X587755Y-1898650D01*
X603250Y-1893570D01*
X613663Y-1883155D01*
X618744Y-1867662D01*
X618744Y-1789684D01*
X653034Y-1810512D02*
G01*
X663447Y-1805178D01*
X679195Y-1789684D01*
X679195Y-1898650D01*
X723900Y-1789684D02*
G01*
X781050Y-1789684D01*
X749807Y-1831339D01*
X765302Y-1831339D01*
X775715Y-1836420D01*
X781050Y-1841500D01*
X786129Y-1857247D01*
X786129Y-1867662D01*
X781050Y-1883155D01*
X770636Y-1893570D01*
X754887Y-1898650D01*
X739394Y-1898650D01*
X723900Y-1893570D01*
X718565Y-1888489D01*
X713486Y-1878076D01*
X533400Y-3415284D02*
G01*
X533400Y-3493262D01*
X538479Y-3508755D01*
X548894Y-3519170D01*
X564642Y-3524250D01*
X575055Y-3524250D01*
X590550Y-3519170D01*
X600963Y-3508755D01*
X606044Y-3493262D01*
X606044Y-3415284D01*
X640334Y-3436112D02*
G01*
X650747Y-3430778D01*
X666495Y-3415284D01*
X666495Y-3524250D01*
X752602Y-3415284D02*
G01*
X700786Y-3487928D01*
X778510Y-3487928D01*
X752602Y-3415284D02*
G01*
X752602Y-3524250D01*
X7162800Y-5117084D02*
G01*
X7162800Y-5195062D01*
X7167879Y-5210555D01*
X7178293Y-5220970D01*
X7194041Y-5226050D01*
X7204456Y-5226050D01*
X7219950Y-5220970D01*
X7230363Y-5210555D01*
X7235443Y-5195062D01*
X7235443Y-5117084D01*
X7269734Y-5137912D02*
G01*
X7280147Y-5132578D01*
X7295895Y-5117084D01*
X7295895Y-5226050D01*
X7392415Y-5117084D02*
G01*
X7340600Y-5117084D01*
X7335265Y-5163820D01*
X7340600Y-5158739D01*
X7356093Y-5153405D01*
X7371588Y-5153405D01*
X7387336Y-5158739D01*
X7397750Y-5168900D01*
X7402829Y-5184647D01*
X7402829Y-5195062D01*
X7397750Y-5210555D01*
X7387336Y-5220970D01*
X7371588Y-5226050D01*
X7356093Y-5226050D01*
X7340600Y-5220970D01*
X7335265Y-5215889D01*
X7330186Y-5205476D01*
X5041900Y-506984D02*
G01*
X5041900Y-584962D01*
X5046979Y-600455D01*
X5057393Y-610870D01*
X5073141Y-615950D01*
X5083556Y-615950D01*
X5099050Y-610870D01*
X5109463Y-600455D01*
X5114543Y-584962D01*
X5114543Y-506984D01*
X5148834Y-527812D02*
G01*
X5159247Y-522478D01*
X5174995Y-506984D01*
X5174995Y-615950D01*
X5271515Y-522478D02*
G01*
X5266436Y-512063D01*
X5250688Y-506984D01*
X5240274Y-506984D01*
X5224779Y-512063D01*
X5214365Y-527812D01*
X5209286Y-553720D01*
X5209286Y-579628D01*
X5214365Y-600455D01*
X5224779Y-610870D01*
X5240274Y-615950D01*
X5245608Y-615950D01*
X5261102Y-610870D01*
X5271515Y-600455D01*
X5276850Y-584962D01*
X5276850Y-579628D01*
X5271515Y-564134D01*
X5261102Y-553720D01*
X5245608Y-548639D01*
X5240274Y-548639D01*
X5224779Y-553720D01*
X5214365Y-564134D01*
X5209286Y-579628D01*
D12*
X5486400Y-4876800D02*
G01*
X5486400Y-4940300D01*
X5486400Y-4940300D02*
G01*
X5486400Y-5003800D01*
X5486400Y-4940300D02*
G01*
X5448300Y-4940300D01*
X5524500Y-5003800D02*
G01*
X5575300Y-5003800D01*
X5524500Y-4876800D02*
G01*
X5524500Y-5003800D01*
X5575300Y-4876800D02*
G01*
X5524500Y-4876800D01*
X5575300Y-5003800D02*
G01*
X5575300Y-4876800D01*
X5613400Y-4940300D02*
G01*
X5651500Y-4940300D01*
X5613400Y-4940300D02*
G01*
X5613400Y-5003800D01*
X5613400Y-4876800D02*
G01*
X5613400Y-4940300D01*
D13*
X5229900Y-5100302D02*
G01*
X5869896Y-5100302D01*
X5869896Y-4780297D02*
G01*
X5229900Y-4780297D01*
D12*
X5207904Y-5173296D02*
G01*
X5891895Y-5173296D01*
X5189948Y-4707991D02*
G01*
X5892800Y-4707991D01*
X8215985Y-7072807D02*
G01*
X6515988Y-7072807D01*
X6515988Y-11152784D01*
X8215985Y-11152784D01*
X8215985Y-7072807D01*
X6045200Y-7099300D02*
G01*
X6045200Y-7404100D01*
X5257800Y-7404100D01*
X5257800Y-7099300D01*
X6045200Y-7099300D01*
X6350000Y-7099300D02*
G01*
X6350000Y-10299293D01*
X4950002Y-10299293D01*
X4950002Y-7099300D01*
X6350000Y-7099300D01*
X5842601Y-5400700D02*
G01*
X5842601Y-5800699D01*
X5842601Y-5803900D02*
G01*
X5282598Y-5803900D01*
X5282598Y-5803900D02*
G01*
X5282598Y-5403900D01*
X5842601Y-5803900D02*
G01*
X5282598Y-5803900D01*
X5281929Y-5397500D02*
G01*
X5842000Y-5397500D01*
X6044598Y-5800699D02*
G01*
X6044598Y-5400700D01*
X6044598Y-5397500D02*
G01*
X6604601Y-5397500D01*
X6604601Y-5397500D02*
G01*
X6604601Y-5797499D01*
X6044598Y-5397500D02*
G01*
X6604601Y-5397500D01*
X6605270Y-5803900D02*
G01*
X6045200Y-5803900D01*
X7417401Y-6302400D02*
G01*
X7417401Y-6702399D01*
X7417401Y-6705600D02*
G01*
X6857398Y-6705600D01*
X6857398Y-6705600D02*
G01*
X6857398Y-6305600D01*
X7417401Y-6705600D02*
G01*
X6857398Y-6705600D01*
X6856729Y-6299200D02*
G01*
X7416800Y-6299200D01*
D11*
X7112939Y-4474540D02*
G01*
X7112939Y-4875199D01*
X6910400Y-4875199D01*
X6910400Y-4474540D01*
X7112939Y-4474540D01*
D12*
X7099300Y-4673600D02*
G01*
X6921500Y-4673600D01*
D11*
X7481239Y-4474540D02*
G01*
X7481239Y-4875199D01*
X7278700Y-4875199D01*
X7278700Y-4474540D01*
X7481239Y-4474540D01*
D12*
X7467600Y-4673600D02*
G01*
X7289800Y-4673600D01*
X5727694Y-6502400D02*
G01*
X5651494Y-6502400D01*
X6388094Y-6502400D02*
G01*
X6464294Y-6502400D01*
X5740387Y-6388100D02*
G01*
X6388087Y-6388100D01*
X6388087Y-6616700D01*
X5740387Y-6616700D01*
X5740387Y-6388100D01*
X1986899Y-1272400D02*
G01*
X4286900Y-1272400D01*
X4286900Y-1572399D01*
X4286900Y-1572399D02*
G01*
X1986899Y-1572399D01*
X1986899Y-1572399D02*
G01*
X1986899Y-1272400D01*
X4254500Y-5499100D02*
G01*
X4254500Y-5397500D01*
X3263531Y-5448300D02*
G01*
X3365131Y-5448300D01*
X4203700Y-5448300D02*
G01*
X4305300Y-5448300D01*
X2311400Y-6731000D02*
G01*
X279400Y-6731000D01*
X279400Y-4445000D01*
X2311400Y-4445000D01*
X2311400Y-6731000D01*
X2311400Y-6731000D01*
X4771900Y-10299494D02*
G01*
X4771900Y-7099505D01*
X2771899Y-7099503D01*
X2771899Y-10299494D01*
X4771900Y-10299494D01*
X2590800Y-7099300D02*
G01*
X2590800Y-11398250D01*
X295910Y-11398250D01*
X295910Y-7099300D01*
X2590800Y-7099300D01*
D14*
X1812696Y-4189905D02*
G01*
X8472792Y-4189905D01*
X1812701Y-1837905D02*
G01*
X8472804Y-1837905D01*
X8472693Y-4189905D02*
G01*
X8472693Y-1837905D01*
X1812757Y-4189961D02*
G01*
X1812757Y-1837961D01*
D12*
X8100819Y-6273800D02*
G01*
X7885684Y-6273800D01*
X7885684Y-5207000D01*
X8395715Y-5207000D01*
X8395715Y-6273800D01*
X8100819Y-6273800D01*
X318668Y-1747799D02*
G01*
X773531Y-1747799D01*
X246100Y-1337800D02*
G01*
X246100Y-1547799D01*
X856099Y-1345001D02*
G01*
X856099Y-1557799D01*
X346100Y-1147800D02*
G01*
X773531Y-1147800D01*
X318668Y-3373399D02*
G01*
X773531Y-3373399D01*
X246100Y-2963400D02*
G01*
X246100Y-3173399D01*
X856099Y-2970601D02*
G01*
X856099Y-3183399D01*
X346100Y-2773400D02*
G01*
X773531Y-2773400D01*
X318668Y-2560599D02*
G01*
X773531Y-2560599D01*
X246100Y-2150600D02*
G01*
X246100Y-2360599D01*
X856099Y-2157801D02*
G01*
X856099Y-2370599D01*
X346100Y-1960600D02*
G01*
X773531Y-1960600D01*
X305968Y-4186199D02*
G01*
X760831Y-4186199D01*
X233400Y-3776200D02*
G01*
X233400Y-3986199D01*
X843399Y-3783401D02*
G01*
X843399Y-3996199D01*
X333400Y-3586200D02*
G01*
X760831Y-3586200D01*
X6935368Y-5887999D02*
G01*
X7390231Y-5887999D01*
X6862800Y-5478000D02*
G01*
X6862800Y-5687999D01*
X7472799Y-5485201D02*
G01*
X7472799Y-5697999D01*
X6962800Y-5288000D02*
G01*
X7390231Y-5288000D01*
X7594594Y-662401D02*
G01*
X7594594Y-912401D01*
X2514605Y-912401D01*
X2514605Y-662401D01*
X7594594Y-662401D01*
G75*
G01*
X5891896Y-5173302D02*
G03*
X5891896Y-4707303I0J232999D01*
G75*
G01*
X5207904Y-4707298D02*
G03*
X5207904Y-5173297I0J-232999D01*
D13*
G75*
G01*
X5869897Y-4780298D02*
G02*
X5869940Y-5100320I-616J-160011D01*
G75*
G01*
X5229901Y-5100302D02*
G02*
X5229860Y-4780280I617J160011D01*
D15*
G75*
G01
X2135911Y-1638300D02*
G03X2135911Y-1638300I-15011J0D01*
D12*
G75*
G01
X4957293Y-5613400D02*
G03X4957293Y-5613400I-1159993J0D01*
G75*
G01
X2235200Y-6604000D02*
G03X2235200Y-6604000I-25400J0D01*
G75*
G01
X8482940Y-6140399D02*
G03X8482940Y-6140399I-27229J0D01*
G75*
G01
X716102Y-1447800D02*
G03X716102Y-1447800I-170002J0D01*
G75*
G01
X778891Y-1597635D02*
G03X778891Y-1597635I-43002J0D01*
G75*
G01
X398907Y-1297635D02*
G03X398907Y-1297635I-43002J0D01*
G75*
G01
X399110Y-1597787D02*
G03X399110Y-1597787I-43002J0D01*
G75*
G01
X776275Y-1294892D02*
G03X776275Y-1294892I-43002J0D01*
G75*
G01
X716102Y-3073400D02*
G03X716102Y-3073400I-170002J0D01*
G75*
G01
X778891Y-3223235D02*
G03X778891Y-3223235I-43002J0D01*
G75*
G01
X398907Y-2923235D02*
G03X398907Y-2923235I-43002J0D01*
G75*
G01
X399110Y-3223387D02*
G03X399110Y-3223387I-43002J0D01*
G75*
G01
X776275Y-2920492D02*
G03X776275Y-2920492I-43002J0D01*
G75*
G01
X716102Y-2260600D02*
G03X716102Y-2260600I-170002J0D01*
G75*
G01
X778891Y-2410435D02*
G03X778891Y-2410435I-43002J0D01*
G75*
G01
X398907Y-2110435D02*
G03X398907Y-2110435I-43002J0D01*
G75*
G01
X399110Y-2410587D02*
G03X399110Y-2410587I-43002J0D01*
G75*
G01
X776275Y-2107692D02*
G03X776275Y-2107692I-43002J0D01*
G75*
G01
X703402Y-3886200D02*
G03X703402Y-3886200I-170002J0D01*
G75*
G01
X766191Y-4036035D02*
G03X766191Y-4036035I-43002J0D01*
G75*
G01
X386207Y-3736035D02*
G03X386207Y-3736035I-43002J0D01*
G75*
G01
X386410Y-4036187D02*
G03X386410Y-4036187I-43002J0D01*
G75*
G01
X763575Y-3733292D02*
G03X763575Y-3733292I-43002J0D01*
G75*
G01
X7332802Y-5588000D02*
G03X7332802Y-5588000I-170002J0D01*
G75*
G01
X7395591Y-5737835D02*
G03X7395591Y-5737835I-43002J0D01*
G75*
G01
X7015607Y-5437835D02*
G03X7015607Y-5437835I-43002J0D01*
G75*
G01
X7015810Y-5737987D02*
G03X7015810Y-5737987I-43002J0D01*
G75*
G01
X7392975Y-5435092D02*
G03X7392975Y-5435092I-43002J0D01*
M02*
